<svg id="Layer_1" data-name="Layer 1" xmlns="http://www.w3.org/2000/svg" width="360.14" height="458.23" viewBox="0 0 360.14 458.23"><defs><style>.cls-1{fill:#e50014;}.cls-2{fill:#8c6239;}.cls-3,.cls-4,.cls-7{fill:#fff;}.cls-4,.cls-5,.cls-6,.cls-7{stroke:#000;stroke-miterlimit:10;}.cls-6{fill:none;}.cls-7{stroke-width:2px;}</style></defs><title>Artboard 10</title><path class="cls-1" d="M359.87,288c-2.35,80-79.67,168.69-188.24,170.21C76.85,459.54-.25,381.37,0,286.58.63,48.83,102.44,113.33,179.87,103,239.5,95.05,366.83,51.16,359.87,288Z"/><path class="cls-2" d="M227.87,34l-8-34c-31.11,45.29-57.81,62.77-69.5,125.5h37C171,87.77,160.24,129.23,227.87,34Z"/><ellipse class="cls-3" cx="183.87" cy="201" rx="24.5" ry="45.5"/><path d="M183.87,156c13.23,0,24,20.19,24,45s-10.77,45-24,45-24-20.19-24-45,10.76-45,24-45m0-1c-13.81,0-25,20.59-25,46s11.19,46,25,46,25-20.59,25-46-11.19-46-25-46Z"/><ellipse class="cls-4" cx="227.87" cy="192" rx="24" ry="49"/><ellipse class="cls-5" cx="190.87" cy="201.5" rx="10" ry="15.5"/><ellipse class="cls-5" cx="232.87" cy="198.5" rx="10" ry="16.5"/><path class="cls-4" d="M198.87,193c1.62,3.11,2.66,7.4,0,8-3.5.79-15.11-5.41-15-9,.12-4,5.64-5.8,9-5C196.51,187.86,197.45,190.28,198.87,193Z"/><path class="cls-4" d="M240.87,189c1.62,3.11,2.66,7.4,0,8-3.5.79-15.11-5.41-15-9,.12-4,5.64-5.8,9-5C238.51,183.86,239.45,186.28,240.87,189Z"/><path class="cls-6" d="M311.78,285.34c4.86,51.13-40.66,81-91.6,87.54s-94.28-10.66-99.66-62.71"/><rect class="cls-7" x="144.6" y="306.13" width="32.52" height="33.99" transform="translate(-40.22 23.37) rotate(-7.39)"/><path class="cls-7" d="M183.37,372.5c-13.37-2.78-26.13-6.79-35-13l-1.33-17,32.11-4.16Z"/><rect class="cls-7" x="178.52" y="301.33" width="32.52" height="34.39" transform="translate(-39.35 27.7) rotate(-7.39)"/><path class="cls-7" d="M218.37,372.5c-13.65.55-25.24,2.95-34-1L181,338.14,213.1,334Z"/><rect class="cls-7" x="210.52" y="297.33" width="32.52" height="34.39" transform="translate(-38.57 31.78) rotate(-7.39)"/><path class="cls-7" d="M250.37,365.5c-4.09,1.2-18.09,6.56-31,7L213,334.14,245.1,330Z"/><rect class="cls-7" x="243.52" y="293.33" width="32.52" height="34.39" transform="translate(-37.78 35.99) rotate(-7.39)"/><path class="cls-7" d="M282.37,348.5c-3.17,2.41-18.8,14.63-31,16L246,330.14,278.1,326Z"/><polygon class="cls-7" points="306.37 317.5 279.87 324.67 275.37 291.5 304.37 287.5 306.37 317.5"/><path class="cls-7" d="M306.37,319.5c-2.12,3.17-13.09,24.7-23,28L280,325.14l26.38-6.64Z"/><path class="cls-7" d="M146.17,342.89l-15.89-3.67c-5.89-8.63-9-17.93-9-28l20.52-2Z"/><path class="cls-7" d="M148.37,358.5c-12.51-4.73-13-12.1-18-19h0l16,3Z"/><polygon class="cls-7" points="309.37 310.5 307.37 315.5 305.37 287.5 311.37 286.5 309.37 310.5"/></svg>