<svg id="Layer_1" data-name="Layer 1" xmlns="http://www.w3.org/2000/svg" width="687" height="182" viewBox="0 0 687 182"><defs><style>.cls-1{fill:#34c221;}.cls-2{fill:#ff8d1a;}.cls-3{fill:#006837;}.cls-4{fill:#4d4d4d;}</style></defs><title>Orm nede</title><circle class="cls-1" cx="174" cy="128" r="42"/><circle class="cls-1" cx="246" cy="128" r="42"/><circle class="cls-1" cx="316" cy="134" r="42"/><circle class="cls-1" cx="390" cy="134" r="42"/><circle class="cls-1" cx="456" cy="134" r="42"/><circle class="cls-1" cx="521" cy="134" r="42"/><circle class="cls-1" cx="582" cy="140" r="42"/><polygon class="cls-2" points="190.3 108.76 155.98 107.03 175.44 62.42 175.44 62.42 190.3 108.76"/><polygon class="cls-2" points="407.5 112.24 373.28 115.41 386.19 68.49 386.19 68.49 407.5 112.24"/><polygon class="cls-2" points="263.55 113.06 229.23 114.73 244.19 68.42 244.19 68.42 263.55 113.06"/><polygon class="cls-2" points="335.34 112.38 301.1 115.3 314.36 68.48 314.36 68.48 335.34 112.38"/><polygon class="cls-2" points="472.69 112.06 438.51 115.55 450.98 68.51 450.98 68.51 472.69 112.06"/><polygon class="cls-2" points="535.95 110.72 501.67 113.02 515.77 66.45 515.77 66.45 535.95 110.72"/><polygon class="cls-2" points="603.26 112.46 569.01 115.24 582.44 68.47 582.44 68.47 603.26 112.46"/><circle class="cls-1" cx="71.5" cy="98.5" r="71.5"/><polygon points="57.99 64.64 59.94 91.61 23.22 80.71 23.22 80.71 57.99 64.64"/><path class="cls-3" d="M2,69.5a69.5,69.5,0,0,1,139,0"/><path class="cls-4" d="M77,170H68c3.9-38.17,9.44-72.62,4-100h9C87.06,95.81,81,131.12,77,170Z"/><circle class="cls-1" cx="645" cy="134" r="42"/><polygon class="cls-2" points="659.5 113.91 625.13 113.94 642.26 68.39 642.26 68.39 659.5 113.91"/></svg>