<svg id="Layer_1" data-name="Layer 1" xmlns="http://www.w3.org/2000/svg" width="630" height="243" viewBox="0 0 630 243"><defs><style>.cls-1{fill:#34c221;}.cls-2{fill:#ff8d1a;}.cls-3{fill:#006837;}.cls-4{fill:#4d4d4d;}</style></defs><title>Orm oppe</title><circle class="cls-1" cx="143" cy="159" r="42"/><circle class="cls-1" cx="194" cy="201" r="42"/><circle class="cls-1" cx="265" cy="201" r="42"/><circle class="cls-1" cx="315" cy="140" r="42"/><circle class="cls-1" cx="394" cy="130" r="42"/><circle class="cls-1" cx="465" cy="166" r="42"/><circle class="cls-1" cx="519" cy="201" r="42"/><circle class="cls-1" cx="588" cy="201" r="42"/><polygon class="cls-2" points="167.92 147.34 135.51 135.91 166.86 98.69 166.86 98.69 167.92 147.34"/><polygon class="cls-2" points="215.86 186.76 182.12 180.27 207.59 138.81 207.59 138.81 215.86 186.76"/><polygon class="cls-2" points="276.33 175.5 244.13 187.49 244.35 138.82 244.35 138.82 276.33 175.5"/><polygon class="cls-2" points="328.47 118.27 294.25 121.39 307.22 74.49 307.22 74.49 328.47 118.27"/><polygon class="cls-2" points="415.01 112.16 381 107.21 404.57 64.63 404.57 64.63 415.01 112.16"/><polygon class="cls-2" points="487.01 151.31 454.57 140 485.79 102.67 485.79 102.67 487.01 151.31"/><polygon class="cls-2" points="540.74 182.28 507.31 174.34 534.55 134.01 534.55 134.01 540.74 182.28"/><polygon class="cls-2" points="607.16 181.86 572.85 179.92 592.57 135.43 592.57 135.43 607.16 181.86"/><circle class="cls-1" cx="71.5" cy="98.5" r="71.5"/><polygon points="57.99 64.64 59.94 91.61 23.22 80.71 23.22 80.71 57.99 64.64"/><path class="cls-3" d="M2,69.5a69.5,69.5,0,0,1,139,0"/><path class="cls-4" d="M77,170H68c3.9-38.17,9.44-72.62,4-100h9C87.06,95.81,81,131.12,77,170Z"/></svg>