<svg id="Layer_1" data-name="Layer 1" xmlns="http://www.w3.org/2000/svg" width="111.02" height="68.73" viewBox="0 0 111.02 68.73"><defs><style>.cls-1{fill:#f3b508;}.cls-2{fill:#00a5ff;}</style></defs><title>Point billede</title><circle class="cls-1" cx="34.09" cy="34.09" r="13.83"/><rect class="cls-1" x="33.25" width="1.96" height="15.93"/><rect class="cls-1" x="33.81" y="53.92" width="1.4" height="14.81"/><rect class="cls-1" x="58.25" y="25.29" width="1.4" height="17.32" transform="translate(92.9 -25.01) rotate(90)"/><rect class="cls-1" x="7.82" y="25.43" width="1.4" height="17.04" transform="translate(42.47 25.43) rotate(90)"/><rect class="cls-1" x="51.83" y="7.12" width="1.4" height="17.32" transform="translate(30.64 -34.5) rotate(49.75)"/><rect class="cls-1" x="53.22" y="45.4" width="1.4" height="17.32" transform="translate(130.16 49.71) rotate(131.66)"/><rect class="cls-1" x="16.2" y="46.66" width="1.4" height="14.81" transform="translate(40.21 2.44) rotate(41.66)"/><rect class="cls-1" x="13.13" y="7.26" width="1.4" height="17.04" transform="translate(34.61 12.87) rotate(123.23)"/><path class="cls-2" d="M70.41,48.19C66.24,60.45,82.21,63.8,91.12,64.51c8.48.68,22.57-3.34,19.46-16.94C107,31.81,89,1.69,91.12,5.51S75.3,33.8,70.41,48.19Z"/></svg>