<svg id="Layer_1" data-name="Layer 1" xmlns="http://www.w3.org/2000/svg" width="117" height="159.79" viewBox="0 0 117 159.79"><defs><style>.cls-1{fill:#e50014;}.cls-2,.cls-3,.cls-6{fill:#fff;}.cls-3,.cls-4,.cls-5,.cls-6{stroke:#000;stroke-miterlimit:10;}.cls-15,.cls-5{fill:none;}.cls-6{stroke-width:2px;}.cls-7{fill:#ff8d1a;}.cls-8{fill:#ff0;}.cls-9{fill:#34c221;}.cls-10{fill:#006837;}.cls-11{fill:#4d4d4d;}.cls-12{fill:#f3b508;}.cls-13{fill:#736357;}.cls-14{fill:#fcee21;}</style></defs><title>rigtigt eable</title><path class="cls-1" d="M116.92,99.72c-.73,24.77-24.66,52.2-58.25,52.67-29.33.41-53.19-23.77-53.11-53.11.19-73.57,31.7-53.61,55.66-56.8C79.67,40,119.07,26.43,116.92,99.72Z"/><path class="cls-2" d="M62.45,86.54c-4,0-7.23-6.17-7.23-13.74s3.24-13.73,7.23-13.73,7.24,6.16,7.24,13.73S66.44,86.54,62.45,86.54Z"/><path d="M62.45,59.57c3.65,0,6.74,6.06,6.74,13.23S66.1,86,62.45,86,55.72,80,55.72,72.8s3.08-13.23,6.73-13.23m0-1c-4.27,0-7.73,6.37-7.73,14.23S58.18,87,62.45,87s7.74-6.38,7.74-14.24-3.46-14.23-7.74-14.23Z"/><ellipse class="cls-3" cx="76.07" cy="70.02" rx="7.43" ry="15.16"/><ellipse class="cls-4" cx="64.62" cy="72.96" rx="3.09" ry="4.8"/><ellipse class="cls-4" cx="77.62" cy="72.03" rx="3.09" ry="5.11"/><path class="cls-3" d="M67.1,70.33c.5,1,.82,2.29,0,2.47-1.09.25-4.68-1.67-4.65-2.78s1.75-1.8,2.79-1.55S66.66,69.48,67.1,70.33Z"/><path class="cls-3" d="M80.09,69.09c.5,1,.83,2.29,0,2.47-1.08.25-4.67-1.67-4.64-2.78S77.2,67,78.24,67.23,79.65,68.25,80.09,69.09Z"/><path class="cls-5" d="M102,98.9c1.51,15.82-12.58,25-28.34,27.09s-29.17-3.3-30.84-19.41"/><rect class="cls-6" x="50.3" y="105.33" width="10.06" height="10.52" transform="translate(-13.76 8.04) rotate(-7.39)"/><path class="cls-6" d="M62.3,125.87c-4.14-.86-8.09-2.1-10.83-4l-.41-5.25L61,115.31Z"/><rect class="cls-6" x="60.8" y="103.85" width="10.06" height="10.64" transform="translate(-13.49 9.37) rotate(-7.39)"/><path class="cls-6" d="M73.13,125.87c-4.22.17-7.81.91-10.52-.31l-1-10.32L71.5,114Z"/><rect class="cls-6" x="70.7" y="102.61" width="10.06" height="10.64" transform="translate(-13.25 10.64) rotate(-7.39)"/><path class="cls-6" d="M83,123.7c-1.26.38-5.6,2-9.59,2.17l-2-11.87,9.94-1.29Z"/><rect class="cls-6" x="80.91" y="101.37" width="10.06" height="10.64" transform="translate(-13.01 11.94) rotate(-7.39)"/><path class="cls-6" d="M92.93,118.44c-1,.75-5.81,4.53-9.59,5l-1.66-10.64,9.93-1.28Z"/><polygon class="cls-6" points="100.36 108.85 92.16 111.07 90.77 100.81 99.74 99.57 100.36 108.85"/><path class="cls-6" d="M100.36,109.47c-.66,1-4,7.64-7.12,8.66l-1-6.91,8.16-2.06Z"/><path class="cls-6" d="M50.79,116.71l-4.92-1.14a15,15,0,0,1-2.78-8.66l6.35-.63Z"/><path class="cls-6" d="M51.47,121.54c-3.87-1.46-4-3.74-5.57-5.88h0l5,.93Z"/><polygon class="cls-6" points="101.29 106.69 100.67 108.23 100.05 99.57 101.91 99.26 101.29 106.69"/><path class="cls-7" d="M.17,106c-2.24,23.28,18,38,38.33,53.82C49.89,136.67,64.61,119.9,60,100.1c-7.31-3.47-12.79-8.16-16.2-14.22L11.77,91.1A39.4,39.4,0,0,1,.17,106Z"/><path class="cls-8" d="M6.46,108c-1.79,18.64,14.39,30.4,30.69,43.09,9.11-18.51,20.9-31.93,17.23-47.78-5.85-2.79-10.23-6.54-13-11.39L15.75,96.14A31.56,31.56,0,0,1,6.46,108Z"/><circle class="cls-9" cx="46.08" cy="109.83" r="4.59"/><circle class="cls-9" cx="42" cy="114.25" r="2.7"/><circle class="cls-9" cx="39.07" cy="117.33" r="2.7"/><circle class="cls-9" cx="34.55" cy="117.89" r="2.7"/><circle class="cls-9" cx="30.88" cy="114.39" r="2.7"/><circle class="cls-9" cx="25.77" cy="114.38" r="2.7"/><circle class="cls-9" cx="21.52" cy="117.23" r="2.7"/><circle class="cls-9" cx="18.36" cy="119.89" r="2.7"/><circle class="cls-9" cx="13.96" cy="120.43" r="2.7"/><polygon class="cls-7" points="40.31 113.7 42.29 112.72 40 110.59 40 110.59 40.31 113.7"/><polygon class="cls-7" points="37.57 116.59 39.67 115.92 37.72 113.47 37.72 113.47 37.57 116.59"/><polygon class="cls-7" points="33.63 116.35 35.77 116.86 35.38 113.76 35.38 113.76 33.63 116.35"/><polygon class="cls-7" points="29.85 113.11 32.06 113.04 30.86 110.16 30.86 110.16 29.85 113.11"/><polygon class="cls-7" points="24.29 113.41 26.41 112.82 24.58 110.29 24.58 110.29 24.29 113.41"/><polygon class="cls-7" points="20 116.47 21.98 115.49 19.7 113.36 19.7 113.36 20 116.47"/><polygon class="cls-7" points="16.82 118.86 18.89 118.09 16.84 115.74 16.84 115.74 16.82 118.86"/><polygon class="cls-7" points="12.58 119.36 14.76 118.97 13.15 116.28 13.15 116.28 12.58 119.36"/><polygon points="46.67 107.57 46.76 109.3 49.02 108.32 49.02 108.32 46.67 107.57"/><path class="cls-10" d="M50.28,107.44a4.46,4.46,0,1,0-8.86,1.09"/><path class="cls-11" d="M46.29,114.43l.57-.07c-.55-2.4-1.17-4.55-1-6.34l-.57.07C45.06,109.78,45.73,112,46.29,114.43Z"/><path class="cls-12" d="M85.21,0h0c-1.43,8.81-6.78,15.84-15.06,21.55l4,4.35C89.07,18.75,94.4,9.85,85.21,0Z"/><path class="cls-13" d="M28,44.9c-5.55-13,10-33.59,27.14-35.56,16.83-1.93,34.37,15,33.28,28.44"/><path class="cls-13" d="M92.77,48.16A127.79,127.79,0,0,1,25,56.55l-.62-11.43a298.76,298.76,0,0,1,69.49-8.35Z"/><ellipse class="cls-14" cx="34.94" cy="50.78" rx="3.77" ry="3.04" transform="translate(-0.84 0.59) rotate(-0.96)"/><ellipse class="cls-14" cx="49.29" cy="49.37" rx="3.77" ry="3.04" transform="translate(-0.82 0.83) rotate(-0.96)"/><ellipse class="cls-14" cx="77.13" cy="45.6" rx="3.77" ry="3.04" transform="translate(-0.75 1.29) rotate(-0.96)"/><ellipse class="cls-8" cx="64.18" cy="47.35" rx="3.77" ry="3.04" transform="translate(-0.78 1.08) rotate(-0.96)"/><path class="cls-15" d="M66.36,39.15h0A38,38,0,0,0,50.89,9.91h0C60.81,17.72,65.84,27.61,66.36,39.15Z"/><path class="cls-12" d="M23.69,6.9h0c1.87,8.74,7.56,15.52,16.13,20.85l-3.75,4.53C20.78,25.81,15,17.15,23.69,6.9Z"/></svg>