<svg id="Layer_1" data-name="Layer 1" xmlns="http://www.w3.org/2000/svg" width="1920" height="1080" viewBox="0 0 1920 1080"><defs><style>.cls-1{fill:#ffab00;}.cls-2{fill:#c45f02;stroke:#333;}.cls-2,.cls-3{stroke-miterlimit:10;}.cls-3{font-size:132px;fill:#fff;stroke:#000;stroke-width:4px;font-family:Anton-Regular, Anton;letter-spacing:0.07em;}</style></defs><title>Settings</title><rect class="cls-1" x="457" y="302" width="860" height="437"/><path class="cls-2" d="M856,236.94c.28,40.32,23.13,34.2,49.6,31.32,32.94-3.58,46.17-41.82,20.78-73.29-20.23-25.08-45.38-44.43-45.25-42.45C881.48,157.42,855.84,209.05,856,236.94Z"/><path class="cls-2" d="M924.25,237.86c.63,5.24-11.12,11-26.24,12.77s-27.87-1-28.5-6.21"/><path class="cls-2" d="M918.22,222.59c.53,4.45-9.44,9.3-22.28,10.84s-23.67-.83-24.21-5.28"/><path class="cls-2" d="M912.56,207.07c.53,4.45-7.84,9.11-18.69,10.41s-20.09-1.25-20.63-5.7"/><path class="cls-2" d="M904.84,188.52c.53,4.45-5.2,11.71-12.68,12.61s-16.17-2.83-16.7-7.28"/><path class="cls-2" d="M897.88,175.14c.53,4.45-1.18,8.85-8.66,9.75s-11-2-11.54-6.41"/><polygon class="cls-2" points="881.64 152.78 881.41 152.72 899.76 275.77 898.93 269.09 881.64 152.78"/><path class="cls-2" d="M912.89,234.81c-15,37.4,8.44,40.4,34,47.78,31.83,9.18,58.58-21.19,47-59.94-9.21-30.88-25.15-58.32-25.78-56.43C966.6,170.87,923.29,208.93,912.89,234.81Z"/><path class="cls-2" d="M975.67,261.52c-1.4,5.09-14.44,5.93-29.11,1.87s-25.43-11.47-24-16.56"/><path class="cls-2" d="M975.89,245.1c-1.2,4.32-12.27,5-24.73,1.59s-21.59-9.74-20.4-14.06"/><path class="cls-2" d="M976.53,228.6c-1.19,4.32-10.7,5.46-21.24,2.54s-18.12-8.77-16.92-13.09"/><path class="cls-2" d="M976.42,208.5c-1.19,4.32-9.25,8.87-16.51,6.86s-13.89-8.74-12.7-13.06"/><path class="cls-2" d="M975.06,193.49c-1.2,4.32-4.45,7.74-11.71,5.73s-9.44-6-8.25-10.3"/><polygon class="cls-2" points="968.51 166.64 968.32 166.5 938.64 287.31 940.41 280.82 968.51 166.64"/><path class="cls-2" d="M966.08,243.37c-10,39.05,13.64,39,40,42.94,32.76,4.94,55.32-28.66,38.8-65.57-13.16-29.41-32.54-54.53-32.92-52.58C1011,173,973,216.36,966.08,243.37Z"/><path class="cls-2" d="M1031.81,261.67c-.73,5.23-13.54,7.76-28.62,5.65s-26.71-8.06-26-13.28"/><path class="cls-2" d="M1029.88,245.36c-.62,4.44-11.5,6.59-24.31,4.8s-22.68-6.84-22.06-11.28"/><path class="cls-2" d="M1028.37,228.91c-.62,4.44-9.9,6.81-20.73,5.3s-19.11-6.34-18.49-10.78"/><path class="cls-2" d="M1025.64,209c-.62,4.44-8,10-15.48,9s-14.91-6.86-14.29-11.29"/><path class="cls-2" d="M1022.32,194.3c-.62,4.44-3.4,8.25-10.86,7.21s-10.14-4.7-9.52-9.14"/><polygon class="cls-2" points="1012.33 168.53 1012.12 168.42 998.46 292.07 999.37 285.4 1012.33 168.53"/><path class="cls-2" d="M1028.49,250.16c-13.55,38,10,40,35.87,46.41,32.18,7.91,57.71-23.49,44.63-61.75-10.42-30.49-27.43-57.28-28-55.37C1079.64,184.16,1037.87,223.89,1028.49,250.16Z"/><path class="cls-2" d="M1092.28,274.38c-1.21,5.14-14.2,6.49-29,3s-25.86-10.46-24.66-15.6"/><path class="cls-2" d="M1091.84,258c-1,4.36-12,5.51-24.64,2.56s-22-8.88-20.94-13.25"/><path class="cls-2" d="M1091.84,241.45c-1,4.36-10.48,5.88-21.13,3.38s-18.44-8.06-17.42-12.42"/><path class="cls-2" d="M1090.94,221.38c-1,4.36-8.9,9.22-16.23,7.5s-14.22-8.19-13.2-12.55"/><path class="cls-2" d="M1089,206.43c-1,4.36-4.14,7.91-11.47,6.19s-9.67-5.61-8.65-10"/><polygon class="cls-2" points="1081.38 179.86 1081.19 179.72 1056.29 301.62 1057.8 295.05 1081.38 179.86"/><path class="cls-2" d="M624.78,267.26c9.56,39.16,30.39,27.93,55.47,19,31.23-11.08,35.29-51.35,3.32-76.11-25.47-19.74-54.4-32.76-53.82-30.86C631.2,184,618.16,240.16,624.78,267.26Z"/><path class="cls-2" d="M691.37,252.41c1.82,5-8.29,13.23-22.58,18.48s-27.35,5.48-29.17.53"/><path class="cls-2" d="M682,238.94c1.55,4.21-7,11.23-19.17,15.69s-23.23,4.66-24.78.45"/><path class="cls-2" d="M672.89,225.14c1.55,4.21-5.52,10.68-15.78,14.45s-19.84,3.41-21.39-.79"/><path class="cls-2" d="M661.1,208.88c1.55,4.2-2.35,12.59-9.43,15.19s-16.38,1-17.92-3.23"/><path class="cls-2" d="M651.25,197.47c1.54,4.21.89,8.88-6.18,11.48s-11.16.63-12.7-3.58"/><polygon class="cls-2" points="630.29 179.46 630.05 179.45 676.29 294.95 673.94 288.63 630.29 179.46"/><path class="cls-2" d="M679.62,252.06c-6,39.86,17.53,37.37,44.12,38.64,33.09,1.59,52.12-34.13,31.93-69.17-16.09-27.92-37.93-50.94-38.1-49C717.13,177.45,683.77,224.48,679.62,252.06Z"/><path class="cls-2" d="M746.87,263.57c-.2,5.28-12.69,9.1-27.9,8.53s-27.39-5.29-27.19-10.57"/><path class="cls-2" d="M743.29,247.54c-.17,4.48-10.78,7.73-23.69,7.25s-23.26-4.49-23.1-9"/><path class="cls-2" d="M740.11,231.33c-.17,4.48-9.16,7.79-20.09,7.38s-19.65-4.36-19.48-8.84"/><path class="cls-2" d="M735.37,211.81c-.17,4.48-7,10.76-14.49,10.48s-15.53-5.3-15.36-9.78"/><path class="cls-2" d="M730.57,197.52c-.16,4.48-2.54,8.55-10.06,8.28s-10.57-3.65-10.41-8.13"/><polygon class="cls-2" points="718.01 172.9 717.79 172.81 716.78 297.21 717 290.48 718.01 172.9"/><path class="cls-2" d="M733.35,248.12c-.75,40.31,22.25,34.77,48.78,32.56,33-2.74,47.22-40.64,22.63-72.74-19.59-25.59-44.24-45.56-44.16-43.58C760.81,169.26,733.87,220.23,733.35,248.12Z"/><path class="cls-2" d="M801.53,250.76c.49,5.26-11.39,10.68-26.55,12.1s-27.85-1.67-28.34-6.93"/><path class="cls-2" d="M795.88,235.34c.43,4.46-9.67,9.06-22.54,10.28s-23.64-1.43-24.06-5.89"/><path class="cls-2" d="M790.62,219.68c.42,4.47-8.06,8.92-19,9.94s-20-1.76-20.47-6.22"/><path class="cls-2" d="M783.37,201c.42,4.46-5.49,11.57-13,12.28s-16.09-3.23-16.51-7.7"/><path class="cls-2" d="M776.75,187.4c.42,4.46-1.4,8.82-8.9,9.52s-11-2.23-11.37-6.7"/><polygon class="cls-2" points="761.08 164.63 760.86 164.57 776.08 288.04 775.43 281.34 761.08 164.63"/><path class="cls-2" d="M795.64,240.33c-4.42,40.07,19,36.65,45.61,36.88,33.13.28,50.73-36.16,29.18-70.37-17.18-27.27-39.9-49.41-40-47.43C830.19,164.31,798.7,212.61,795.64,240.33Z"/><path class="cls-2" d="M863.3,249.19c0,5.28-12.32,9.59-27.55,9.62s-27.57-4.21-27.58-9.49"/><path class="cls-2" d="M859.09,233.31c0,4.49-10.46,8.15-23.39,8.18s-23.42-3.58-23.43-8.06"/><path class="cls-2" d="M855.27,217.24c0,4.48-8.84,8.14-19.78,8.17s-19.8-3.59-19.81-8.07"/><path class="cls-2" d="M849.76,197.92c0,4.48-6.52,11-14.06,11.05S820,204.28,820,199.8"/><path class="cls-2" d="M844.41,183.83c0,4.48-2.2,8.65-9.73,8.67S824,189.27,824,184.79"/><polygon class="cls-2" points="830.89 159.73 830.67 159.64 834.56 283.99 834.51 277.25 830.89 159.73"/><path class="cls-2" d="M1123.2,245.89c-3.25,40.18,20,36.08,46.67,35.53,33.13-.69,49.65-37.64,27.1-71.21-18-26.75-41.33-48.21-41.37-46.23C1155.5,168.89,1125.45,218.09,1123.2,245.89Z"/><path class="cls-2" d="M1191.08,252.76c.17,5.27-12,9.94-27.24,10.43s-27.69-3.41-27.86-8.68"/><path class="cls-2" d="M1186.41,237c.14,4.48-10.22,8.44-23.14,8.85s-23.51-2.89-23.65-7.37"/><path class="cls-2" d="M1182.13,221.06c.14,4.48-8.6,8.4-19.53,8.74s-19.91-3-20-7.48"/><path class="cls-2" d="M1176.06,201.91c.14,4.48-6.21,11.21-13.74,11.45s-15.85-4.22-16-8.7"/><path class="cls-2" d="M1170.29,188c.15,4.48-1.94,8.71-9.47,9s-10.8-2.91-10.94-7.39"/><polygon class="cls-2" points="1156.07 164.28 1155.85 164.21 1163.38 288.38 1163.14 281.65 1156.07 164.28"/><path class="cls-2" d="M1180,248.72c-18.25,36,4.87,41,29.71,50.57,30.91,11.93,60.21-16,52.08-55.6-6.48-31.57-20-60.29-20.75-58.47C1239.13,189.72,1192.66,223.85,1180,248.72Z"/><path class="cls-2" d="M1240.25,280.82c-1.85,4.95-14.91,4.64-29.17-.68s-24.33-13.65-22.49-18.59"/><path class="cls-2" d="M1241.89,264.48c-1.57,4.2-12.66,3.94-24.77-.58s-20.66-11.59-19.09-15.79"/><path class="cls-2" d="M1244,248.09c-1.57,4.2-11.14,4.51-21.39.69s-17.28-10.33-15.71-14.53"/><path class="cls-2" d="M1245.62,228.07c-1.57,4.2-10,8-17,5.39s-13.07-9.92-11.5-14.12"/><path class="cls-2" d="M1245.57,213c-1.57,4.2-5.1,7.33-12.16,4.69s-8.88-6.78-7.32-11"/><polygon class="cls-2" points="1241.39 185.68 1241.22 185.52 1201.1 303.28 1203.43 296.96 1241.39 185.68"/><path class="cls-2" d="M1232.28,261.9c-13.4,38,10.18,40,36,46.26,32.21,7.79,57.61-23.71,44.38-61.92-10.54-30.45-27.65-57.17-28.2-55.26C1283.16,195.69,1241.54,235.59,1232.28,261.9Z"/><path class="cls-2" d="M1296.16,285.87c-1.19,5.14-14.17,6.54-29,3.13s-25.9-10.36-24.72-15.5"/><path class="cls-2" d="M1295.66,269.45c-1,4.37-12,5.56-24.64,2.66s-22-8.79-21-13.16"/><path class="cls-2" d="M1295.59,252.94c-1,4.36-10.46,5.92-21.12,3.46s-18.48-8-17.47-12.35"/><path class="cls-2" d="M1294.6,232.87c-1,4.37-8.85,9.26-16.19,7.57s-14.26-8.14-13.25-12.5"/><path class="cls-2" d="M1292.59,217.93c-1,4.37-4.11,7.92-11.45,6.23s-9.69-5.57-8.68-9.93"/><polygon class="cls-2" points="1284.88 191.39 1284.69 191.25 1260.28 313.24 1261.76 306.67 1284.88 191.39"/><path class="cls-2" d="M1293.86,274.11c-16.82,36.65,6.48,40.77,31.68,49.36,31.36,10.7,59.53-18.35,49.85-57.61-7.73-31.28-22.32-59.45-23-57.6C1350.58,212.83,1305.49,248.76,1293.86,274.11Z"/><path class="cls-2" d="M1355.28,303.82c-1.65,5-14.71,5.22-29.17.46s-24.85-12.67-23.2-17.69"/><path class="cls-2" d="M1356.28,287.42c-1.4,4.26-12.49,4.44-24.77.4s-21.1-10.76-19.7-15"/><path class="cls-2" d="M1357.72,271c-1.4,4.26-11,4.94-21.34,1.52s-17.67-9.63-16.27-13.89"/><path class="cls-2" d="M1358.58,250.89c-1.4,4.26-9.67,8.42-16.83,6.06s-13.45-9.4-12-13.65"/><path class="cls-2" d="M1357.93,235.83c-1.4,4.26-4.81,7.52-12,5.17s-9.14-6.43-7.74-10.69"/><polygon class="cls-2" points="1352.68 208.7 1352.5 208.55 1317.05 327.8 1319.13 321.39 1352.68 208.7"/><path class="cls-2" d="M890.19,255.89c6.11,39.85,27.83,30.48,53.6,23.81,32.08-8.32,39.64-48.08,10-75.54-23.65-21.88-51.33-37.38-50.91-35.44C903.86,173.51,886,228.32,890.19,255.89Z"/><path class="cls-2" d="M957.83,246.92c1.38,5.09-9.42,12.45-24.11,16.43s-27.73,3.08-29.11-2"/><path class="cls-2" d="M949.65,232.68c1.17,4.32-8,10.57-20.47,13.95s-23.55,2.61-24.72-1.71"/><path class="cls-2" d="M941.8,218.14c1.17,4.33-6.43,10.15-17,13s-20.06,1.67-21.23-2.66"/><path class="cls-2" d="M931.47,200.91c1.18,4.32-3.44,12.34-10.71,14.31s-16.41-.46-17.58-4.78"/><path class="cls-2" d="M922.65,188.68c1.18,4.33.12,8.93-7.15,10.9s-11.18-.35-12.35-4.67"/><polygon class="cls-2" points="903.35 168.91 903.11 168.88 939.08 287.97 937.3 281.48 903.35 168.91"/><path class="cls-2" d="M946.15,245.54c-9.46,39.19,14.2,38.76,40.57,42.35,32.83,4.47,54.9-29.45,37.85-66.12-13.59-29.22-33.33-54.06-33.68-52.1C990,174.5,952.69,218.43,946.15,245.54Z"/><path class="cls-2" d="M1012.14,262.88c-.66,5.24-13.43,7.95-28.54,6.07s-26.82-7.67-26.17-12.91"/><path class="cls-2" d="M1010,246.6c-.56,4.45-11.41,6.76-24.24,5.15S963,245.24,963.51,240.8"/><path class="cls-2" d="M1008.22,230.18c-.56,4.45-9.8,6.95-20.65,5.59s-19.2-6.06-18.64-10.5"/><path class="cls-2" d="M1005.2,210.31c-.56,4.45-7.87,10.12-15.35,9.18s-15-6.64-14.45-11.09"/><path class="cls-2" d="M1001.67,195.66c-.55,4.44-3.28,8.3-10.75,7.36s-10.21-4.55-9.65-9"/><polygon class="cls-2" points="991.3 170.04 991.1 169.93 979.23 293.76 980.04 287.08 991.3 170.04"/><path class="cls-2" d="M1000,246.31c-4.27,40.09,19.13,36.58,45.75,36.7,33.14.15,50.59-36.37,28.9-70.5-17.29-27.19-40.1-49.24-40.19-47.26C1034.26,170.15,1003,218.57,1000,246.31Z"/><path class="cls-2" d="M1067.71,254.89c0,5.28-12.28,9.64-27.51,9.74s-27.59-4.1-27.63-9.38"/><path class="cls-2" d="M1063.43,239c0,4.48-10.43,8.18-23.35,8.27s-23.44-3.49-23.46-8"/><path class="cls-2" d="M1059.55,223c0,4.48-8.81,8.18-19.74,8.25s-19.82-3.51-19.85-8"/><path class="cls-2" d="M1054,203.68c0,4.48-6.49,11.06-14,11.1s-15.75-4.62-15.77-9.1"/><path class="cls-2" d="M1048.56,189.61c0,4.48-2.17,8.66-9.7,8.71s-10.72-3.18-10.74-7.67"/><polygon class="cls-2" points="1034.94 165.56 1034.72 165.48 1039.1 289.81 1039.04 283.07 1034.94 165.56"/><path class="cls-2" d="M1062.75,244c-7.9,39.53,15.72,38.17,42.22,40.72,33,3.17,53.69-31.59,35.21-67.56-14.73-28.66-35.43-52.7-35.7-50.73C1103.81,171.27,1068.22,216.64,1062.75,244Z"/><path class="cls-2" d="M1129.38,258.72c-.45,5.26-13.11,8.48-28.28,7.18s-27.1-6.6-26.66-11.86"/><path class="cls-2" d="M1126.57,242.54c-.38,4.47-11.13,7.2-24,6.1s-23-5.61-22.64-10.07"/><path class="cls-2" d="M1124.17,226.2c-.38,4.46-9.52,7.33-20.41,6.4s-19.42-5.3-19-9.76"/><path class="cls-2" d="M1120.37,206.47c-.38,4.46-7.46,10.41-15,9.77s-15.26-6-14.88-10.51"/><path class="cls-2" d="M1116.27,192c-.38,4.47-3,8.42-10.45,7.78s-10.38-4.14-10-8.61"/><polygon class="cls-2" points="1104.9 166.77 1104.69 166.66 1097.71 290.88 1098.25 284.16 1104.9 166.77"/><path class="cls-2" d="M605.14,252.12c4.52,40.06,26.6,31.56,52.62,25.91,32.38-7,41.5-46.46,12.94-75.08-22.77-22.8-49.82-39.39-49.48-37.43C622.07,170.35,602,224.4,605.14,252.12Z"/><path class="cls-2" d="M673.08,245.84c1.18,5.14-9.9,12.06-24.74,15.46s-27.83,2-29-3.17"/><path class="cls-2" d="M665.47,231.28c1,4.37-8.41,10.25-21,13.13s-23.63,1.68-24.63-2.69"/><path class="cls-2" d="M658.21,216.45c1,4.37-6.84,9.88-17.49,12.32s-20.11.87-21.11-3.49"/><path class="cls-2" d="M648.57,198.82c1,4.36-3.93,12.19-11.28,13.87s-16.37-1.1-17.37-5.47"/><path class="cls-2" d="M640.24,186.25c1,4.37-.24,8.92-7.58,10.6s-11.15-.78-12.15-5.15"/><polygon class="cls-2" points="621.74 165.72 621.5 165.69 652.72 286.12 651.2 279.56 621.74 165.72"/><path class="cls-2" d="M661.46,244c-11,38.79,12.65,39.3,38.87,43.93,32.62,5.77,56-27.25,40.44-64.56C728.35,193.62,709.61,168,709.18,170,708.13,174.75,669.08,217.16,661.46,244Z"/><path class="cls-2" d="M726.71,263.94c-.86,5.21-13.73,7.42-28.75,4.93s-26.5-8.72-25.64-13.93"/><path class="cls-2" d="M725.19,247.59c-.73,4.42-11.66,6.3-24.42,4.18s-22.5-7.4-21.77-11.83"/><path class="cls-2" d="M724.09,231.11c-.73,4.42-10.07,6.56-20.85,4.77S684.3,229.06,685,224.64"/><path class="cls-2" d="M721.86,211.14c-.73,4.42-8.26,9.79-15.69,8.56s-14.74-7.23-14-11.65"/><path class="cls-2" d="M718.92,196.35c-.73,4.43-3.6,8.17-11,6.94s-10-4.95-9.29-9.38"/><polygon class="cls-2" points="709.58 170.34 709.38 170.22 692.6 293.5 693.68 286.85 709.58 170.34"/><path class="cls-2" d="M715.26,246.9c-5.85,39.89,17.67,37.31,44.26,38.49,33.1,1.46,52-34.33,31.67-69.29-16.19-27.86-38.11-50.8-38.28-48.82C752.49,172.16,719.31,219.31,715.26,246.9Z"/><path class="cls-2" d="M782.55,258.17c-.17,5.27-12.65,9.14-27.86,8.63s-27.41-5.19-27.24-10.46"/><path class="cls-2" d="M778.91,242.15c-.15,4.48-10.74,7.77-23.66,7.34s-23.28-4.41-23.13-8.89"/><path class="cls-2" d="M775.67,226c-.15,4.48-9.13,7.81-20,7.45s-19.67-4.29-19.52-8.77"/><path class="cls-2" d="M770.86,206.45c-.15,4.48-6.92,10.79-14.45,10.54s-15.55-5.25-15.4-9.73"/><path class="cls-2" d="M766,192.17c-.15,4.48-2.51,8.57-10,8.32s-10.58-3.61-10.43-8.09"/><polygon class="cls-2" points="753.36 167.61 753.14 167.51 752.59 291.92 752.79 285.19 753.36 167.61"/><path class="cls-2" d="M778,247.07c-9.47,39.19,14.19,38.77,40.56,42.37,32.83,4.48,54.91-29.44,37.87-66.11-13.58-29.22-33.31-54.07-33.66-52.11C821.94,176,784.59,220,778,247.07Z"/><path class="cls-2" d="M844,264.43c-.65,5.24-13.43,7.95-28.54,6.06s-26.82-7.67-26.16-12.91"/><path class="cls-2" d="M841.86,248.16c-.56,4.44-11.41,6.75-24.24,5.14s-22.77-6.52-22.21-11"/><path class="cls-2" d="M840.11,231.73c-.55,4.45-9.8,7-20.65,5.59s-19.19-6.07-18.64-10.51"/><path class="cls-2" d="M837.1,211.87c-.56,4.44-7.87,10.11-15.35,9.17s-15-6.64-14.45-11.09"/><path class="cls-2" d="M833.58,197.21c-.56,4.44-3.28,8.3-10.76,7.36s-10.2-4.55-9.65-9"/><polygon class="cls-2" points="823.22 171.59 823.01 171.47 811.1 295.31 811.92 288.62 823.22 171.59"/><path class="cls-2" d="M378.38,306.65c13.64,37.94,33.16,24.57,57.17,13.08,29.89-14.32,29.67-54.79-4.73-76-27.41-16.94-57.55-26.84-56.77-25C376,223.18,368.94,280.4,378.38,306.65Z"/><path class="cls-2" d="M443,284.86c2.33,4.74-6.85,14-20.51,20.76s-26.62,8.34-28.95,3.6"/><path class="cls-2" d="M432.28,272.46c2,4-5.82,11.91-17.42,17.62s-22.6,7.08-24.58,3.06"/><path class="cls-2" d="M421.78,259.7c2,4-4.36,11.2-14.17,16s-19.37,5.48-21.35,1.46"/><path class="cls-2" d="M408.34,244.76c2,4-1,12.78-7.77,16.11s-16.19,2.7-18.17-1.32"/><path class="cls-2" d="M397.34,234.46c2,4,1.83,8.74-4.93,12.06s-11,1.81-13-2.21"/><polygon class="cls-2" points="374.6 218.76 374.36 218.78 432.52 328.75 429.52 322.72 374.6 218.76"/><path class="cls-2" d="M431.31,285.75c-1.76,40.28,21.37,35.32,47.95,33.78,33.08-1.91,48.23-39.44,24.45-72.15-18.94-26.07-43.08-46.66-43-44.67C460.74,207.61,432.53,257.89,431.31,285.75Z"/><path class="cls-2" d="M499.4,290.11c.36,5.27-11.66,10.38-26.84,11.43s-27.8-2.38-28.16-7.65"/><path class="cls-2" d="M494.15,274.55c.31,4.47-9.9,8.82-22.8,9.7s-23.6-2-23.91-6.49"/><path class="cls-2" d="M489.28,258.77c.31,4.47-8.29,8.7-19.2,9.45s-20-2.26-20.31-6.74"/><path class="cls-2" d="M482.5,239.85c.31,4.47-5.78,11.44-13.3,12s-16-3.63-16.31-8.1"/><path class="cls-2" d="M476.23,226.14c.31,4.47-1.63,8.78-9.14,9.3s-10.89-2.51-11.2-7"/><polygon class="cls-2" points="461.14 202.99 460.91 202.92 473.03 326.74 472.54 320.02 461.14 202.99"/><path class="cls-2" d="M484.32,276.17c3.51,40.16,25.8,32.23,51.95,27.24,32.55-6.22,42.67-45.4,14.83-74.73C528.92,205.31,502.3,188,502.59,190,503.31,194.86,481.9,248.39,484.32,276.17Z"/><path class="cls-2" d="M552.4,271.61c1.05,5.17-10.2,11.81-25.12,14.83s-27.87,1.27-28.91-3.9"/><path class="cls-2" d="M545.16,256.87c.89,4.39-8.66,10-21.33,12.59s-23.66,1.08-24.55-3.31"/><path class="cls-2" d="M538.28,241.85c.89,4.4-7.08,9.72-17.8,11.88s-20.12.37-21-4"/><path class="cls-2" d="M529.09,224c.89,4.4-4.24,12.1-11.62,13.59s-16.34-1.52-17.23-5.91"/><path class="cls-2" d="M521.08,211.21c.89,4.39-.46,8.92-7.84,10.41s-11.13-1.07-12-5.46"/><polygon class="cls-2" points="503.1 190.23 502.87 190.18 531.03 311.36 529.67 304.76 503.1 190.23"/><path class="cls-2" d="M545.45,261.86c-.17,40.31,22.75,34.44,49.24,31.86,33-3.21,46.64-41.31,21.6-73.06-20-25.3-44.89-44.93-44.78-42.94C571.79,182.61,545.57,234,545.45,261.86Z"/><path class="cls-2" d="M613.66,263.53c.57,5.24-11.24,10.83-26.37,12.47s-27.87-1.28-28.44-6.52"/><path class="cls-2" d="M607.8,248.19c.48,4.45-9.54,9.2-22.4,10.59s-23.66-1.08-24.14-5.54"/><path class="cls-2" d="M602.31,232.61c.49,4.45-7.93,9-18.8,10.2s-20.08-1.47-20.56-5.93"/><path class="cls-2" d="M594.8,214c.48,4.46-5.33,11.66-12.82,12.47s-16.13-3-16.62-7.46"/><path class="cls-2" d="M588,200.52c.48,4.46-1.28,8.84-8.77,9.65s-11-2.08-11.46-6.54"/><polygon class="cls-2" points="572 177.98 571.77 177.92 588.75 301.16 588 294.47 572 177.98"/><path class="cls-2" d="M389.66,528.65c40.31-.36,34.14-23.2,31.22-49.66-3.65-32.93-41.92-46.09-73.34-20.64-25,20.29-44.34,45.47-42.35,45.33C310.08,503.35,361.77,528.89,389.66,528.65Z"/><path class="cls-2" d="M390.44,460.42c5.24-.64,11,11.1,12.82,26.21s-.92,27.88-6.16,28.52"/><path class="cls-2" d="M375.18,466.48c4.45-.54,9.32,9.42,10.88,22.26s-.78,23.67-5.22,24.21"/><path class="cls-2" d="M359.67,472.17c4.45-.54,9.13,7.82,10.45,18.67s-1.22,20.1-5.66,20.64"/><path class="cls-2" d="M341.14,479.93c4.44-.54,11.72,5.17,12.63,12.65s-2.79,16.17-7.24,16.72"/><path class="cls-2" d="M327.77,486.91c4.45-.54,8.85,1.16,9.77,8.64s-1.94,11-6.39,11.55"/><polygon class="cls-2" points="305.44 503.2 305.39 503.43 428.4 484.84 421.71 485.68 305.44 503.2"/><path class="cls-2" d="M387.41,471.78c37.43,15,40.39-8.51,47.71-34.11,9.12-31.85-21.31-58.54-60-46.9C344.23,400,316.82,416,318.71,416.66,323.36,418.2,361.51,461.43,387.41,471.78Z"/><path class="cls-2" d="M414,409c5.09,1.39,5.95,14.43,1.92,29.11s-11.42,25.45-16.51,24.05"/><path class="cls-2" d="M397.58,408.77c4.32,1.18,5.05,12.25,1.63,24.72s-9.69,21.61-14,20.43"/><path class="cls-2" d="M381.07,408.15c4.32,1.19,5.48,10.7,2.59,21.24s-8.74,18.14-13.06,16.95"/><path class="cls-2" d="M361,408.3c4.32,1.19,8.88,9.24,6.89,16.5s-8.71,13.91-13,12.72"/><path class="cls-2" d="M346,409.7c4.32,1.19,7.75,4.43,5.75,11.7s-6,9.45-10.28,8.26"/><polygon class="cls-2" points="319.13 416.3 318.99 416.49 439.86 445.93 433.36 444.18 319.13 416.3"/><path class="cls-2" d="M395.87,418.58c39.07,9.94,38.93-13.72,42.85-40.05,4.89-32.77-28.76-55.26-65.64-38.67-29.38,13.22-54.47,32.65-52.52,33C325.38,373.81,368.84,411.69,395.87,418.58Z"/><path class="cls-2" d="M414,352.81c5.23.72,7.79,13.53,5.71,28.61s-8,26.72-13.23,26"/><path class="cls-2" d="M397.73,354.77c4.44.62,6.61,11.49,4.85,24.3s-6.8,22.69-11.24,22.08"/><path class="cls-2" d="M381.28,356.32c4.44.61,6.83,9.89,5.34,20.72s-6.3,19.12-10.74,18.5"/><path class="cls-2" d="M361.38,359.09c4.44.61,10,8,9,15.46s-6.83,14.92-11.27,14.31"/><path class="cls-2" d="M346.68,362.43c4.44.61,8.26,3.38,7.24,10.85s-4.68,10.15-9.13,9.53"/><polygon class="cls-2" points="320.94 372.48 320.82 372.68 444.5 386.11 437.83 385.21 320.94 372.48"/><path class="cls-2" d="M402.53,356.15c38,13.47,40-10.1,46.34-36,7.85-32.19-23.6-57.66-61.84-44.51-30.47,10.49-57.22,27.54-55.31,28.09C336.43,305.13,376.25,346.83,402.53,356.15Z"/><path class="cls-2" d="M426.63,292.32c5.14,1.19,6.52,14.18,3.07,29S419.29,347.21,414.15,346"/><path class="cls-2" d="M410.22,292.78c4.36,1,5.53,12.05,2.6,24.64s-8.84,22-13.2,21"/><path class="cls-2" d="M393.7,292.82c4.36,1,5.9,10.47,3.42,21.12s-8,18.46-12.39,17.45"/><path class="cls-2" d="M373.63,293.76c4.36,1,9.24,8.88,7.53,16.22S373,324.22,368.64,323.2"/><path class="cls-2" d="M358.68,295.75c4.37,1,7.92,4.12,6.22,11.46s-5.59,9.68-10,8.66"/><polygon class="cls-2" points="332.13 303.4 331.99 303.6 453.93 328.26 447.37 326.75 332.13 303.4"/><path class="cls-2" d="M420.43,759.83c39.14-9.64,27.87-30.44,18.92-55.51-11.14-31.21-51.42-35.19-76.12-3.17-19.69,25.51-32.65,54.47-30.75,53.88C337.16,753.57,393.34,766.5,420.43,759.83Z"/><path class="cls-2" d="M405.45,693.27c4.95-1.83,13.24,8.26,18.52,22.54s5.54,27.34.59,29.17"/><path class="cls-2" d="M392,702.68c4.2-1.55,11.24,7,15.72,19.15s4.71,23.22.5,24.77"/><path class="cls-2" d="M378.22,711.8c4.2-1.55,10.68,5.5,14.47,15.76s3.46,19.83-.75,21.38"/><path class="cls-2" d="M362,723.62c4.21-1.55,12.6,2.33,15.22,9.4s1,16.38-3.19,17.93"/><path class="cls-2" d="M350.59,733.5c4.2-1.55,8.88-.91,11.49,6.15s.65,11.16-3.55,12.72"/><polygon class="cls-2" points="332.62 754.5 332.61 754.73 448.01 708.27 441.71 710.63 332.62 754.5"/><path class="cls-2" d="M405.12,705c39.88,5.92,37.34-17.6,38.56-44.19,1.52-33.1-34.24-52.05-69.24-31.8-27.88,16.15-50.86,38-48.88,38.2C330.44,667.66,377.53,700.93,405.12,705Z"/><path class="cls-2" d="M416.5,637.75c5.27.18,9.12,12.67,8.59,27.88s-5.24,27.4-10.52,27.22"/><path class="cls-2" d="M400.48,641.36c4.48.16,7.75,10.76,7.29,23.68s-4.45,23.27-8.93,23.11"/><path class="cls-2" d="M384.28,644.57c4.48.16,7.8,9.14,7.42,20.07s-4.33,19.66-8.81,19.5"/><path class="cls-2" d="M364.76,649.35c4.48.16,10.78,6.94,10.51,14.47s-5.27,15.54-9.75,15.38"/><path class="cls-2" d="M350.48,654.17c4.48.16,8.56,2.53,8.3,10.06s-3.63,10.57-8.11,10.41"/><polygon class="cls-2" points="325.89 666.79 325.79 667 450.2 667.77 443.47 667.56 325.89 666.79"/><path class="cls-2" d="M401.08,651.3c40.31.67,34.72-22.32,32.46-48.85-2.81-33-40.73-47.14-72.79-22.49-25.54,19.65-45.47,44.34-43.48,44.25C322.16,624,373.19,650.84,401.08,651.3Z"/><path class="cls-2" d="M403.58,583.11c5.26-.5,10.7,11.37,12.16,26.53s-1.62,27.85-6.88,28.35"/><path class="cls-2" d="M388.17,588.79c4.46-.43,9.09,9.65,10.32,22.52s-1.37,23.65-5.84,24.08"/><path class="cls-2" d="M372.53,594.08c4.46-.42,8.92,8,10,18.93s-1.72,20.06-6.18,20.49"/><path class="cls-2" d="M353.8,601.37c4.46-.43,11.59,5.47,12.31,13s-3.2,16.1-7.66,16.53"/><path class="cls-2" d="M340.27,608c4.46-.43,8.82,1.39,9.54,8.89s-2.21,11-6.68,11.38"/><polygon class="cls-2" points="317.54 623.73 317.47 623.96 440.91 608.48 434.21 609.15 317.54 623.73"/><path class="cls-2" d="M393.16,589c40.08,4.34,36.62-19.06,36.79-45.68.22-33.13-36.26-50.66-70.43-29-27.23,17.23-49.33,40-47.34,40.09C317.07,554.62,365.44,586,393.16,589Z"/><path class="cls-2" d="M401.89,521.35c5.27,0,9.61,12.3,9.68,27.52s-4.16,27.59-9.44,27.61"/><path class="cls-2" d="M386,525.59c4.48,0,8.16,10.44,8.22,23.37s-3.53,23.43-8,23.45"/><path class="cls-2" d="M370,529.44c4.48,0,8.15,8.82,8.2,19.76s-3.54,19.81-8,19.83"/><path class="cls-2" d="M350.65,535c4.48,0,11,6.51,11.07,14s-4.66,15.74-9.14,15.76"/><path class="cls-2" d="M336.56,540.36c4.49,0,8.66,2.19,8.69,9.72s-3.2,10.71-7.69,10.73"/><polygon class="cls-2" points="312.49 553.94 312.4 554.16 436.74 550.02 430.01 550.08 312.49 553.94"/><path class="cls-2" d="M433.66,543.65c40.31-.36,34.14-23.2,31.22-49.66-3.65-32.93-41.92-46.09-73.34-20.64-25,20.29-44.34,45.47-42.35,45.33C354.08,518.35,405.77,543.89,433.66,543.65Z"/><path class="cls-2" d="M434.44,475.42c5.24-.64,11,11.1,12.82,26.21s-.92,27.88-6.16,28.52"/><path class="cls-2" d="M419.18,481.48c4.45-.54,9.32,9.42,10.88,22.26s-.78,23.67-5.22,24.21"/><path class="cls-2" d="M403.67,487.17c4.45-.54,9.13,7.82,10.45,18.67s-1.22,20.1-5.66,20.64"/><path class="cls-2" d="M385.14,494.93c4.44-.54,11.72,5.17,12.63,12.65s-2.79,16.17-7.24,16.72"/><path class="cls-2" d="M371.77,501.91c4.45-.54,8.85,1.16,9.77,8.64s-1.94,11-6.39,11.55"/><polygon class="cls-2" points="349.44 518.2 349.39 518.42 472.4 499.84 465.71 500.68 349.44 518.2"/><path class="cls-2" d="M431.41,486.78c37.43,15,40.39-8.51,47.71-34.11,9.12-31.85-21.31-58.54-60-46.9C388.23,415,360.82,431,362.71,431.66,367.36,433.2,405.51,476.43,431.41,486.78Z"/><path class="cls-2" d="M458,424c5.09,1.39,5.95,14.43,1.92,29.11s-11.42,25.45-16.51,24.05"/><path class="cls-2" d="M441.58,423.77c4.32,1.18,5.05,12.25,1.63,24.72s-9.69,21.61-14,20.43"/><path class="cls-2" d="M425.07,423.15c4.32,1.19,5.48,10.7,2.59,21.24s-8.74,18.14-13.06,16.95"/><path class="cls-2" d="M405,423.3c4.32,1.19,8.88,9.24,6.89,16.5s-8.71,13.91-13,12.72"/><path class="cls-2" d="M390,424.7c4.32,1.19,7.75,4.43,5.75,11.7s-6,9.45-10.28,8.26"/><polygon class="cls-2" points="363.13 431.3 362.99 431.49 483.86 460.93 477.36 459.18 363.13 431.3"/><path class="cls-2" d="M439.87,433.58c39.07,9.94,38.93-13.72,42.85-40.05,4.89-32.77-28.76-55.26-65.64-38.67-29.38,13.22-54.47,32.65-52.52,33C369.38,388.81,412.84,426.69,439.87,433.58Z"/><path class="cls-2" d="M458,367.81c5.23.72,7.79,13.53,5.71,28.61s-8,26.72-13.23,26"/><path class="cls-2" d="M441.73,369.77c4.44.62,6.61,11.49,4.85,24.3s-6.8,22.69-11.24,22.08"/><path class="cls-2" d="M425.28,371.32c4.44.61,6.83,9.89,5.34,20.72s-6.3,19.12-10.74,18.5"/><path class="cls-2" d="M405.38,374.09c4.44.61,10,8,9,15.46s-6.83,14.92-11.27,14.31"/><path class="cls-2" d="M390.68,377.43c4.44.61,8.26,3.38,7.24,10.85s-4.68,10.15-9.13,9.53"/><polygon class="cls-2" points="364.94 387.48 364.82 387.68 488.5 401.11 481.83 400.21 364.94 387.48"/><path class="cls-2" d="M446.53,371.15c38,13.47,40-10.1,46.34-36,7.85-32.19-23.6-57.66-61.84-44.51-30.47,10.49-57.22,27.54-55.31,28.09C380.43,320.13,420.25,361.83,446.53,371.15Z"/><path class="cls-2" d="M470.63,307.32c5.14,1.19,6.52,14.18,3.07,29S463.29,362.21,458.15,361"/><path class="cls-2" d="M454.22,307.78c4.36,1,5.53,12.05,2.6,24.64s-8.84,22-13.2,21"/><path class="cls-2" d="M437.7,307.82c4.36,1,5.9,10.47,3.42,21.12s-8,18.46-12.39,17.45"/><path class="cls-2" d="M417.63,308.76c4.36,1,9.24,8.88,7.53,16.22S417,339.22,412.64,338.2"/><path class="cls-2" d="M402.68,310.75c4.37,1,7.92,4.12,6.22,11.46s-5.59,9.68-10,8.66"/><polygon class="cls-2" points="376.13 318.4 375.99 318.6 497.93 343.26 491.37 341.75 376.13 318.4"/><path class="cls-2" d="M464.43,774.83c39.14-9.64,27.87-30.44,18.92-55.51-11.14-31.21-51.42-35.19-76.12-3.17-19.69,25.51-32.65,54.47-30.75,53.88C381.16,768.57,437.34,781.5,464.43,774.83Z"/><path class="cls-2" d="M449.45,708.27c4.95-1.83,13.24,8.26,18.52,22.54s5.54,27.34.59,29.17"/><path class="cls-2" d="M436,717.68c4.2-1.55,11.24,7,15.72,19.15s4.71,23.22.5,24.77"/><path class="cls-2" d="M422.22,726.8c4.2-1.55,10.68,5.5,14.47,15.76s3.46,19.83-.75,21.38"/><path class="cls-2" d="M406,738.62c4.21-1.55,12.6,2.33,15.22,9.4s1,16.38-3.19,17.93"/><path class="cls-2" d="M394.59,748.5c4.2-1.55,8.88-.91,11.49,6.15s.65,11.16-3.55,12.72"/><polygon class="cls-2" points="376.62 769.5 376.61 769.73 492.01 723.27 485.71 725.63 376.62 769.5"/><path class="cls-2" d="M449.12,720c39.88,5.92,37.34-17.6,38.56-44.19,1.52-33.1-34.24-52.05-69.24-31.8-27.88,16.15-50.86,38-48.88,38.2C374.44,682.66,421.53,715.93,449.12,720Z"/><path class="cls-2" d="M460.5,652.75c5.27.18,9.12,12.67,8.59,27.88s-5.24,27.4-10.52,27.22"/><path class="cls-2" d="M444.48,656.36c4.48.16,7.75,10.76,7.29,23.68s-4.45,23.27-8.93,23.11"/><path class="cls-2" d="M428.28,659.57c4.48.16,7.8,9.14,7.42,20.07s-4.33,19.66-8.81,19.5"/><path class="cls-2" d="M408.76,664.35c4.48.16,10.78,6.94,10.51,14.47s-5.27,15.54-9.75,15.38"/><path class="cls-2" d="M394.48,669.17c4.48.16,8.56,2.53,8.3,10.06s-3.63,10.57-8.11,10.41"/><polygon class="cls-2" points="369.89 681.79 369.79 682 494.2 682.77 487.47 682.56 369.89 681.79"/><path class="cls-2" d="M445.08,666.3c40.31.67,34.72-22.32,32.46-48.85-2.81-33-40.73-47.14-72.79-22.49-25.54,19.65-45.47,44.34-43.48,44.25C366.16,639,417.19,665.84,445.08,666.3Z"/><path class="cls-2" d="M447.58,598.11c5.26-.5,10.7,11.37,12.16,26.53s-1.62,27.85-6.88,28.35"/><path class="cls-2" d="M432.17,603.79c4.46-.43,9.09,9.65,10.32,22.52s-1.37,23.65-5.84,24.08"/><path class="cls-2" d="M416.53,609.08c4.46-.42,8.92,8,10,18.93s-1.72,20.06-6.18,20.49"/><path class="cls-2" d="M397.8,616.37c4.46-.43,11.59,5.47,12.31,13s-3.2,16.1-7.66,16.53"/><path class="cls-2" d="M384.27,623c4.46-.43,8.82,1.39,9.54,8.89s-2.21,11-6.68,11.38"/><polygon class="cls-2" points="361.54 638.73 361.47 638.96 484.91 623.48 478.21 624.15 361.54 638.73"/><path class="cls-2" d="M437.16,604c40.08,4.34,36.62-19.06,36.79-45.68.22-33.13-36.26-50.66-70.43-29-27.23,17.23-49.33,40-47.34,40.09C361.07,569.62,409.44,601,437.16,604Z"/><path class="cls-2" d="M445.89,536.35c5.27,0,9.61,12.3,9.68,27.52s-4.16,27.59-9.44,27.61"/><path class="cls-2" d="M430,540.59c4.48,0,8.16,10.44,8.22,23.37s-3.53,23.43-8,23.45"/><path class="cls-2" d="M414,544.44c4.48,0,8.15,8.82,8.2,19.76s-3.54,19.81-8,19.83"/><path class="cls-2" d="M394.65,550c4.48,0,11,6.51,11.07,14s-4.66,15.74-9.14,15.76"/><path class="cls-2" d="M380.56,555.36c4.49,0,8.66,2.19,8.69,9.72s-3.2,10.71-7.69,10.73"/><polygon class="cls-2" points="356.49 568.94 356.4 569.16 480.74 565.02 474.01 565.08 356.49 568.94"/><path class="cls-2" d="M1363.28,486.3c-40.32.51-34.06,23.33-31,49.78,3.77,32.92,42.1,45.92,73.42,20.34,25-20.38,44.15-45.65,42.17-45.5C1443,511.28,1391.16,485.94,1363.28,486.3Z"/><path class="cls-2" d="M1362.77,554.53c-5.24.66-11-11-12.93-26.16s.81-27.88,6-28.54"/><path class="cls-2" d="M1378,548.4c-4.45.56-9.36-9.38-11-22.21s.68-23.67,5.13-24.23"/><path class="cls-2" d="M1393.49,542.65c-4.45.56-9.16-7.78-10.52-18.63s1.13-20.09,5.58-20.65"/><path class="cls-2" d="M1412,534.82c-4.44.56-11.74-5.13-12.68-12.6s2.73-16.19,7.17-16.75"/><path class="cls-2" d="M1425.33,527.78c-4.45.56-8.86-1.12-9.8-8.6s1.89-11,6.34-11.57"/><polygon class="cls-2" points="1447.59 511.41 1447.65 511.18 1324.71 530.26 1331.39 529.4 1447.59 511.41"/><path class="cls-2" d="M1365.76,543.15c-37.5-14.81-40.36,8.68-47.58,34.3-9,31.9,21.54,58.46,60.22,46.67,30.82-9.4,58.16-25.5,56.27-26.12C1430,596.48,1391.7,553.4,1365.76,543.15Z"/><path class="cls-2" d="M1339.42,606.09c-5.1-1.37-6-14.4-2.05-29.1s11.32-25.5,16.42-24.12"/><path class="cls-2" d="M1355.84,606.21c-4.33-1.17-5.11-12.24-1.74-24.72s9.61-21.65,13.94-20.48"/><path class="cls-2" d="M1372.35,606.75c-4.33-1.16-5.53-10.67-2.68-21.22s8.67-18.17,13-17"/><path class="cls-2" d="M1392.44,606.52c-4.33-1.17-8.92-9.19-7-16.47s8.66-13.94,13-12.77"/><path class="cls-2" d="M1407.44,605.07c-4.32-1.17-7.76-4.4-5.8-11.68s5.93-9.47,10.25-8.3"/><polygon class="cls-2" points="1434.25 598.36 1434.39 598.17 1313.4 569.21 1319.91 570.94 1434.25 598.36"/><path class="cls-2" d="M1357.51,596.39c-39.11-9.79-38.88,13.87-42.69,40.22-4.75,32.79,29,55.15,65.79,38.41,29.33-13.35,54.34-32.87,52.39-33.24C1428.18,640.88,1384.57,603.17,1357.51,596.39Z"/><path class="cls-2" d="M1339.61,662.23c-5.23-.7-7.84-13.5-5.82-28.59s7.89-26.75,13.12-26"/><path class="cls-2" d="M1355.9,660.2c-4.44-.59-6.65-11.46-4.94-24.27s6.7-22.73,11.15-22.13"/><path class="cls-2" d="M1372.34,658.59c-4.44-.59-6.87-9.86-5.42-20.7s6.23-19.14,10.67-18.55"/><path class="cls-2" d="M1392.23,655.74c-4.44-.59-10-8-9-15.42s6.77-15,11.21-14.36"/><path class="cls-2" d="M1406.92,652.34c-4.44-.59-8.28-3.35-7.28-10.82s4.64-10.17,9.09-9.57"/><polygon class="cls-2" points="1432.62 642.19 1432.74 641.98 1309 629.06 1315.68 629.93 1432.62 642.19"/><path class="cls-2" d="M1351.09,658.84c-38-13.32-40,10.27-46.18,36.15-7.73,32.22,23.83,57.57,62,44.26,30.43-10.61,57.11-27.77,55.2-28.31C1417.4,709.6,1377.42,668.06,1351.09,658.84Z"/><path class="cls-2" d="M1327.26,722.77c-5.15-1.17-6.58-14.15-3.19-29s10.3-25.92,15.45-24.75"/><path class="cls-2" d="M1343.67,722.24c-4.37-1-5.58-12-2.71-24.63s8.75-22,13.12-21"/><path class="cls-2" d="M1360.19,722.14c-4.37-1-5.94-10.45-3.51-21.11s7.94-18.49,12.31-17.5"/><path class="cls-2" d="M1380.25,721.11c-4.37-1-9.27-8.83-7.6-16.18s8.1-14.27,12.47-13.27"/><path class="cls-2" d="M1395.19,719.07c-4.37-1-7.94-4.09-6.26-11.44s5.55-9.7,9.92-8.7"/><polygon class="cls-2" points="1421.71 711.31 1421.85 711.11 1299.81 686.95 1306.38 688.42 1421.71 711.31"/><path class="cls-2" d="M1331.57,255.24c-39.1,9.8-27.75,30.56-18.69,55.59,11.26,31.16,51.56,35,76.13,2.86,19.58-25.59,32.43-54.6,30.53-54C1414.87,261.16,1358.63,248.46,1331.57,255.24Z"/><path class="cls-2" d="M1346.82,321.74c-4.94,1.85-13.28-8.21-18.61-22.47s-5.65-27.31-.71-29.16"/><path class="cls-2" d="M1360.24,312.27c-4.2,1.57-11.28-7-15.81-19.08s-4.8-23.2-.6-24.77"/><path class="cls-2" d="M1374,303.1c-4.2,1.57-10.71-5.46-14.54-15.7s-3.54-19.81.66-21.39"/><path class="cls-2" d="M1390.17,291.21c-4.2,1.57-12.61-2.28-15.25-9.33s-1.08-16.38,3.12-17.95"/><path class="cls-2" d="M1401.52,281.29c-4.2,1.57-8.87.95-11.51-6.11s-.7-11.16,3.49-12.73"/><polygon class="cls-2" points="1419.41 260.22 1419.41 259.98 1304.19 306.91 1310.49 304.53 1419.41 260.22"/><path class="cls-2" d="M1347.1,310c-39.9-5.76-37.26,17.75-38.38,44.35-1.39,33.1,34.45,51.91,69.36,31.51,27.83-16.26,50.72-38.23,48.74-38.39C1421.93,347.05,1374.71,314,1347.1,310Z"/><path class="cls-2" d="M1336,377.31c-5.27-.17-9.17-12.64-8.7-27.85s5.13-27.42,10.41-27.26"/><path class="cls-2" d="M1352,373.63c-4.48-.14-7.79-10.73-7.39-23.65s4.36-23.28,8.84-23.15"/><path class="cls-2" d="M1368.19,370.35c-4.48-.14-7.84-9.11-7.5-20s4.24-19.67,8.72-19.54"/><path class="cls-2" d="M1387.68,365.49c-4.48-.14-10.8-6.89-10.57-14.42s5.21-15.56,9.69-15.42"/><path class="cls-2" d="M1402,360.61c-4.48-.13-8.57-2.49-8.34-10s3.58-10.59,8.06-10.45"/><polygon class="cls-2" points="1426.49 347.9 1426.58 347.68 1302.17 347.42 1308.91 347.6 1426.49 347.9"/><path class="cls-2" d="M1351.36,363.69c-40.31-.5-34.63,22.47-32.27,49,3,33,40.93,47,72.89,22.2,25.46-19.75,45.29-44.52,43.3-44.43C1430.38,390.68,1379.25,364,1351.36,363.69Z"/><path class="cls-2" d="M1349.13,431.89c-5.25.52-10.74-11.33-12.26-26.48s1.51-27.85,6.76-28.38"/><path class="cls-2" d="M1364.52,426.15c-4.46.45-9.12-9.62-10.41-22.48s1.28-23.65,5.74-24.1"/><path class="cls-2" d="M1380.14,420.79c-4.46.45-9-8-10.05-18.89s1.64-20.06,6.1-20.51"/><path class="cls-2" d="M1398.84,413.43c-4.46.45-11.61-5.42-12.36-12.92s3.13-16.11,7.59-16.56"/><path class="cls-2" d="M1412.34,406.73c-4.46.45-8.82-1.35-9.57-8.84s2.17-11,6.63-11.42"/><polygon class="cls-2" points="1435.01 390.93 1435.08 390.7 1311.7 406.67 1318.4 405.97 1435.01 390.93"/><path class="cls-2" d="M1359.53,425.94c-40.1-4.18-36.54,19.21-36.61,45.83-.08,33.13,36.47,50.51,70.55,28.75,27.16-17.34,49.17-40.19,47.18-40.28C1435.75,460,1387.27,428.83,1359.53,425.94Z"/><path class="cls-2" d="M1351.08,493.65c-5.28,0-9.67-12.27-9.79-27.49s4-27.6,9.32-27.64"/><path class="cls-2" d="M1366.92,489.34c-4.48,0-8.2-10.41-8.31-23.34s3.43-23.44,7.92-23.48"/><path class="cls-2" d="M1383,485.43c-4.48,0-8.19-8.8-8.28-19.73s3.46-19.83,8-19.87"/><path class="cls-2" d="M1402.26,479.8c-4.48,0-11.06-6.46-11.13-14s4.59-15.76,9.08-15.79"/><path class="cls-2" d="M1416.32,474.37c-4.48,0-8.66-2.15-8.73-9.68s3.17-10.73,7.65-10.76"/><polygon class="cls-2" points="1440.34 460.7 1440.43 460.48 1316.11 465.11 1322.84 465.03 1440.34 460.7"/><path class="cls-2" d="M1320.32,538.65c-40.31-.36-34.14-23.2-31.22-49.66,3.65-32.93,41.92-46.09,73.34-20.64,25,20.29,44.34,45.47,42.35,45.33C1399.9,513.35,1348.21,538.89,1320.32,538.65Z"/><path class="cls-2" d="M1319.54,470.42c-5.24-.64-11,11.1-12.82,26.21s.92,27.88,6.16,28.52"/><path class="cls-2" d="M1334.8,476.48c-4.45-.54-9.32,9.42-10.88,22.26s.78,23.67,5.22,24.21"/><path class="cls-2" d="M1350.31,482.17c-4.45-.54-9.13,7.82-10.45,18.67s1.22,20.1,5.66,20.64"/><path class="cls-2" d="M1368.85,489.93c-4.45-.54-11.73,5.17-12.64,12.65s2.79,16.17,7.24,16.72"/><path class="cls-2" d="M1382.21,496.91c-4.45-.54-8.85,1.16-9.77,8.64s1.94,11,6.39,11.55"/><polygon class="cls-2" points="1404.54 513.2 1404.59 513.42 1281.58 494.84 1288.27 495.68 1404.54 513.2"/><path class="cls-2" d="M1322.57,481.78c-37.43,15-40.39-8.51-47.71-34.11-9.12-31.85,21.31-58.54,60-46.9,30.86,9.27,58.27,25.26,56.38,25.89C1386.62,428.2,1348.47,471.43,1322.57,481.78Z"/><path class="cls-2" d="M1296,419c-5.09,1.39-6,14.43-1.92,29.11s11.42,25.45,16.51,24.05"/><path class="cls-2" d="M1312.4,418.77c-4.32,1.18-5.05,12.25-1.63,24.72s9.69,21.61,14,20.43"/><path class="cls-2" d="M1328.91,418.15c-4.32,1.19-5.48,10.7-2.59,21.24s8.74,18.14,13.06,16.95"/><path class="cls-2" d="M1349,418.3c-4.32,1.19-8.88,9.24-6.89,16.5s8.71,13.91,13,12.72"/><path class="cls-2" d="M1364,419.7c-4.32,1.19-7.75,4.43-5.75,11.7s6,9.45,10.28,8.26"/><polygon class="cls-2" points="1390.85 426.3 1390.99 426.49 1270.12 455.93 1276.62 454.18 1390.85 426.3"/><path class="cls-2" d="M1314.11,428.58c-39.07,9.94-38.93-13.72-42.85-40.05-4.89-32.77,28.76-55.26,65.64-38.67,29.38,13.22,54.47,32.65,52.52,33C1384.6,383.81,1341.14,421.69,1314.11,428.58Z"/><path class="cls-2" d="M1296,362.81c-5.23.72-7.79,13.53-5.71,28.61s8,26.72,13.23,26"/><path class="cls-2" d="M1312.25,364.77c-4.44.62-6.61,11.49-4.85,24.3s6.8,22.69,11.24,22.08"/><path class="cls-2" d="M1328.7,366.32c-4.44.61-6.83,9.89-5.34,20.72s6.3,19.12,10.74,18.5"/><path class="cls-2" d="M1348.6,369.09c-4.44.61-10,8-9,15.46s6.83,14.92,11.27,14.31"/><path class="cls-2" d="M1363.3,372.43c-4.44.61-8.26,3.38-7.24,10.85s4.68,10.15,9.13,9.53"/><polygon class="cls-2" points="1389.04 382.48 1389.16 382.68 1265.48 396.11 1272.15 395.21 1389.04 382.48"/><path class="cls-2" d="M1307.45,366.15c-38,13.47-40-10.1-46.34-36-7.85-32.19,23.6-57.66,61.84-44.51,30.47,10.49,57.22,27.54,55.31,28.09C1373.55,315.13,1333.73,356.83,1307.45,366.15Z"/><path class="cls-2" d="M1283.35,302.32c-5.14,1.19-6.52,14.18-3.07,29s10.41,25.88,15.55,24.69"/><path class="cls-2" d="M1299.76,302.78c-4.36,1-5.53,12.05-2.6,24.64s8.84,22,13.2,21"/><path class="cls-2" d="M1316.28,302.82c-4.36,1-5.9,10.47-3.42,21.12s8,18.46,12.39,17.45"/><path class="cls-2" d="M1336.35,303.76c-4.36,1-9.24,8.88-7.53,16.22s8.16,14.24,12.52,13.22"/><path class="cls-2" d="M1351.3,305.75c-4.37,1-7.92,4.12-6.22,11.46s5.59,9.68,10,8.66"/><polygon class="cls-2" points="1377.85 313.4 1377.99 313.6 1256.05 338.26 1262.61 336.75 1377.85 313.4"/><path class="cls-2" d="M1289.55,769.83c-39.14-9.64-27.87-30.44-18.92-55.51,11.14-31.21,51.42-35.19,76.12-3.17,19.69,25.51,32.65,54.47,30.75,53.88C1372.82,763.57,1316.64,776.5,1289.55,769.83Z"/><path class="cls-2" d="M1304.53,703.27c-5-1.83-13.24,8.26-18.52,22.54s-5.54,27.34-.59,29.17"/><path class="cls-2" d="M1318,712.68c-4.2-1.55-11.24,7-15.72,19.15s-4.71,23.22-.5,24.77"/><path class="cls-2" d="M1331.76,721.8c-4.2-1.55-10.68,5.5-14.47,15.76s-3.46,19.83.75,21.38"/><path class="cls-2" d="M1348,733.62c-4.21-1.55-12.6,2.33-15.22,9.4s-1,16.38,3.19,17.93"/><path class="cls-2" d="M1359.39,743.5c-4.2-1.55-8.88-.91-11.49,6.15s-.65,11.16,3.55,12.72"/><polygon class="cls-2" points="1377.37 764.5 1377.37 764.73 1261.96 718.27 1268.27 720.63 1377.37 764.5"/><path class="cls-2" d="M1304.86,715c-39.88,5.92-37.34-17.6-38.56-44.19-1.52-33.1,34.24-52.05,69.24-31.8,27.88,16.15,50.86,38,48.88,38.2C1379.54,677.66,1332.45,710.93,1304.86,715Z"/><path class="cls-2" d="M1293.48,647.75c-5.27.18-9.12,12.67-8.59,27.88s5.24,27.4,10.52,27.22"/><path class="cls-2" d="M1309.5,651.36c-4.48.16-7.75,10.76-7.29,23.68s4.45,23.27,8.93,23.11"/><path class="cls-2" d="M1325.7,654.57c-4.48.16-7.8,9.14-7.42,20.07s4.33,19.66,8.81,19.5"/><path class="cls-2" d="M1345.22,659.35c-4.48.16-10.78,6.94-10.51,14.47s5.27,15.54,9.75,15.38"/><path class="cls-2" d="M1359.5,664.17c-4.48.16-8.56,2.53-8.3,10.06s3.63,10.57,8.11,10.41"/><polygon class="cls-2" points="1384.09 676.79 1384.19 677 1259.78 677.77 1266.51 677.56 1384.09 676.79"/><path class="cls-2" d="M1308.9,661.3c-40.31.67-34.72-22.32-32.46-48.85,2.81-33,40.73-47.14,72.79-22.49,25.54,19.65,45.47,44.34,43.48,44.25C1387.82,634,1336.79,660.84,1308.9,661.3Z"/><path class="cls-2" d="M1306.4,593.11c-5.26-.5-10.7,11.37-12.16,26.53s1.62,27.85,6.88,28.35"/><path class="cls-2" d="M1321.81,598.79c-4.46-.43-9.09,9.65-10.32,22.52s1.37,23.65,5.84,24.08"/><path class="cls-2" d="M1337.45,604.08c-4.46-.42-8.92,8-10,18.93s1.72,20.06,6.18,20.49"/><path class="cls-2" d="M1356.18,611.37c-4.46-.43-11.59,5.47-12.31,13s3.2,16.1,7.66,16.53"/><path class="cls-2" d="M1369.71,618c-4.46-.43-8.82,1.39-9.54,8.89s2.21,11,6.68,11.38"/><polygon class="cls-2" points="1392.44 633.73 1392.51 633.96 1269.07 618.48 1275.77 619.15 1392.44 633.73"/><path class="cls-2" d="M1316.82,599c-40.08,4.34-36.62-19.06-36.79-45.68-.22-33.13,36.26-50.66,70.43-29,27.23,17.23,49.33,40,47.34,40.09C1392.91,564.62,1344.54,596,1316.82,599Z"/><path class="cls-2" d="M1308.09,531.35c-5.27,0-9.61,12.3-9.68,27.52s4.16,27.59,9.44,27.61"/><path class="cls-2" d="M1324,535.59c-4.48,0-8.16,10.44-8.22,23.37s3.53,23.43,8,23.45"/><path class="cls-2" d="M1340,539.44c-4.48,0-8.15,8.82-8.2,19.76s3.54,19.81,8,19.83"/><path class="cls-2" d="M1359.33,545c-4.48,0-11,6.51-11.07,14s4.66,15.74,9.14,15.76"/><path class="cls-2" d="M1373.42,550.36c-4.49,0-8.66,2.19-8.69,9.72s3.2,10.71,7.69,10.73"/><polygon class="cls-2" points="1397.49 563.94 1397.58 564.16 1273.24 560.02 1279.97 560.08 1397.49 563.94"/><path class="cls-2" d="M878,279.94c.28,40.32,23.13,34.2,49.6,31.32,32.94-3.58,46.17-41.82,20.78-73.29-20.23-25.08-45.38-44.43-45.25-42.45C903.48,200.42,877.84,252.05,878,279.94Z"/><path class="cls-2" d="M946.25,280.86c.63,5.24-11.12,11-26.24,12.77s-27.87-1-28.5-6.21"/><path class="cls-2" d="M940.22,265.59c.53,4.45-9.44,9.3-22.28,10.84s-23.67-.83-24.21-5.28"/><path class="cls-2" d="M934.56,250.07c.53,4.45-7.84,9.11-18.69,10.41s-20.09-1.25-20.63-5.7"/><path class="cls-2" d="M926.84,231.52c.53,4.45-5.2,11.71-12.68,12.61s-16.17-2.83-16.7-7.28"/><path class="cls-2" d="M919.88,218.14c.53,4.45-1.18,8.85-8.66,9.75s-11-2-11.54-6.41"/><polygon class="cls-2" points="903.64 195.78 903.41 195.72 921.76 318.77 920.93 312.09 903.64 195.78"/><path class="cls-2" d="M934.89,277.81c-15,37.4,8.44,40.4,34,47.78,31.83,9.18,58.58-21.19,47-59.94-9.21-30.88-25.15-58.32-25.78-56.43C988.6,213.87,945.29,251.93,934.89,277.81Z"/><path class="cls-2" d="M997.67,304.52c-1.4,5.09-14.44,5.93-29.11,1.87s-25.43-11.47-24-16.56"/><path class="cls-2" d="M997.89,288.1c-1.2,4.32-12.27,5-24.73,1.59s-21.59-9.74-20.4-14.06"/><path class="cls-2" d="M998.53,271.6c-1.19,4.32-10.7,5.46-21.24,2.54s-18.12-8.77-16.92-13.09"/><path class="cls-2" d="M998.42,251.5c-1.19,4.32-9.25,8.87-16.51,6.86s-13.89-8.74-12.7-13.06"/><path class="cls-2" d="M997.06,236.49c-1.2,4.32-4.45,7.74-11.71,5.73s-9.44-6-8.25-10.3"/><polygon class="cls-2" points="990.51 209.64 990.32 209.5 960.64 330.31 962.41 323.82 990.51 209.64"/><path class="cls-2" d="M988.08,286.37c-10,39.05,13.64,39,40,42.94,32.76,4.94,55.32-28.66,38.8-65.57-13.16-29.41-32.54-54.53-32.92-52.58C1033,216,995,259.36,988.08,286.37Z"/><path class="cls-2" d="M1053.81,304.67c-.73,5.23-13.54,7.76-28.62,5.65s-26.71-8.06-26-13.28"/><path class="cls-2" d="M1051.88,288.36c-.62,4.44-11.5,6.59-24.31,4.8s-22.68-6.84-22.06-11.28"/><path class="cls-2" d="M1050.37,271.91c-.62,4.44-9.9,6.81-20.73,5.3s-19.11-6.34-18.49-10.78"/><path class="cls-2" d="M1047.64,252c-.62,4.44-8,10-15.48,8.95s-14.91-6.86-14.29-11.29"/><path class="cls-2" d="M1044.32,237.3c-.62,4.44-3.4,8.25-10.86,7.21s-10.14-4.7-9.52-9.14"/><polygon class="cls-2" points="1034.33 211.53 1034.12 211.42 1020.46 335.07 1021.37 328.4 1034.33 211.53"/><path class="cls-2" d="M1050.49,293.16c-13.55,38,10,40,35.87,46.41,32.18,7.91,57.71-23.49,44.63-61.75-10.42-30.49-27.43-57.28-28-55.37C1101.64,227.16,1059.87,266.89,1050.49,293.16Z"/><path class="cls-2" d="M1114.28,317.38c-1.21,5.14-14.2,6.49-29,3s-25.86-10.46-24.66-15.6"/><path class="cls-2" d="M1113.84,301c-1,4.36-12,5.51-24.64,2.56s-22-8.88-20.94-13.25"/><path class="cls-2" d="M1113.84,284.45c-1,4.36-10.48,5.88-21.13,3.38s-18.44-8.06-17.42-12.42"/><path class="cls-2" d="M1112.94,264.38c-1,4.36-8.9,9.22-16.23,7.5s-14.22-8.19-13.2-12.55"/><path class="cls-2" d="M1111,249.43c-1,4.36-4.14,7.91-11.47,6.19s-9.67-5.61-8.65-10"/><polygon class="cls-2" points="1103.38 222.86 1103.19 222.72 1078.29 344.62 1079.8 338.05 1103.38 222.86"/><path class="cls-2" d="M646.78,310.26c9.56,39.16,30.39,27.93,55.47,19,31.23-11.08,35.29-51.35,3.32-76.11-25.47-19.74-54.4-32.76-53.82-30.86C653.2,227,640.16,283.16,646.78,310.26Z"/><path class="cls-2" d="M713.37,295.41c1.82,5-8.29,13.23-22.58,18.48s-27.35,5.48-29.17.53"/><path class="cls-2" d="M704,281.94c1.55,4.21-7,11.23-19.17,15.69s-23.23,4.66-24.78.45"/><path class="cls-2" d="M694.89,268.14c1.55,4.21-5.52,10.68-15.78,14.45s-19.84,3.41-21.39-.79"/><path class="cls-2" d="M683.1,251.88c1.55,4.2-2.35,12.59-9.43,15.19s-16.38,1-17.92-3.23"/><path class="cls-2" d="M673.25,240.47c1.54,4.21.89,8.88-6.18,11.48s-11.16.63-12.7-3.58"/><polygon class="cls-2" points="652.29 222.46 652.05 222.45 698.29 337.95 695.94 331.63 652.29 222.46"/><path class="cls-2" d="M701.62,295.06c-6,39.86,17.53,37.37,44.12,38.64,33.09,1.59,52.12-34.13,31.93-69.17-16.09-27.92-37.93-50.94-38.1-49C739.13,220.45,705.77,267.48,701.62,295.06Z"/><path class="cls-2" d="M768.87,306.57c-.2,5.28-12.69,9.1-27.9,8.53s-27.39-5.29-27.19-10.57"/><path class="cls-2" d="M765.29,290.54c-.17,4.48-10.78,7.73-23.69,7.25s-23.26-4.49-23.1-9"/><path class="cls-2" d="M762.11,274.33c-.17,4.48-9.16,7.79-20.09,7.38s-19.65-4.36-19.48-8.84"/><path class="cls-2" d="M757.37,254.81c-.17,4.48-7,10.76-14.49,10.48s-15.53-5.3-15.36-9.78"/><path class="cls-2" d="M752.57,240.52c-.16,4.48-2.54,8.55-10.06,8.28s-10.57-3.65-10.41-8.13"/><polygon class="cls-2" points="740.01 215.9 739.79 215.81 738.78 340.21 739 333.48 740.01 215.9"/><path class="cls-2" d="M755.35,291.12c-.75,40.31,22.25,34.77,48.78,32.56,33-2.74,47.22-40.64,22.63-72.74-19.59-25.59-44.24-45.56-44.16-43.58C782.81,212.26,755.87,263.23,755.35,291.12Z"/><path class="cls-2" d="M823.53,293.76c.49,5.26-11.39,10.68-26.55,12.1s-27.85-1.67-28.34-6.93"/><path class="cls-2" d="M817.88,278.34c.43,4.46-9.67,9.06-22.54,10.28s-23.64-1.43-24.06-5.89"/><path class="cls-2" d="M812.62,262.68c.42,4.47-8.06,8.92-19,9.94s-20-1.76-20.47-6.22"/><path class="cls-2" d="M805.37,244c.42,4.46-5.49,11.57-13,12.28s-16.09-3.23-16.51-7.7"/><path class="cls-2" d="M798.75,230.4c.42,4.46-1.4,8.82-8.9,9.52s-11-2.23-11.37-6.7"/><polygon class="cls-2" points="783.08 207.63 782.86 207.57 798.08 331.04 797.43 324.34 783.08 207.63"/><path class="cls-2" d="M817.64,283.33c-4.42,40.07,19,36.65,45.61,36.88,33.13.28,50.73-36.16,29.18-70.37-17.18-27.27-39.9-49.41-40-47.43C852.19,207.31,820.7,255.61,817.64,283.33Z"/><path class="cls-2" d="M885.3,292.19c0,5.28-12.32,9.59-27.55,9.62s-27.57-4.21-27.58-9.49"/><path class="cls-2" d="M881.09,276.31c0,4.49-10.46,8.15-23.39,8.18s-23.42-3.58-23.43-8.06"/><path class="cls-2" d="M877.27,260.24c0,4.48-8.84,8.14-19.78,8.17s-19.8-3.59-19.81-8.07"/><path class="cls-2" d="M871.76,240.92c0,4.48-6.52,11-14.06,11.05S842,247.28,842,242.8"/><path class="cls-2" d="M866.41,226.83c0,4.48-2.2,8.65-9.73,8.67S846,232.27,846,227.79"/><polygon class="cls-2" points="852.89 202.73 852.67 202.64 856.56 326.99 856.51 320.25 852.89 202.73"/><path class="cls-2" d="M1145.2,288.89c-3.25,40.18,20,36.08,46.67,35.53,33.13-.69,49.65-37.64,27.1-71.21-18-26.75-41.33-48.21-41.37-46.23C1177.5,211.89,1147.45,261.09,1145.2,288.89Z"/><path class="cls-2" d="M1213.08,295.76c.17,5.27-12,9.94-27.24,10.43s-27.69-3.41-27.86-8.68"/><path class="cls-2" d="M1208.41,280c.14,4.48-10.22,8.44-23.14,8.85s-23.51-2.89-23.65-7.37"/><path class="cls-2" d="M1204.13,264.06c.14,4.48-8.6,8.4-19.53,8.74s-19.91-3-20-7.48"/><path class="cls-2" d="M1198.06,244.91c.14,4.48-6.21,11.21-13.74,11.45s-15.85-4.22-16-8.7"/><path class="cls-2" d="M1192.29,231c.15,4.48-1.94,8.71-9.47,9s-10.8-2.91-10.94-7.39"/><polygon class="cls-2" points="1178.07 207.28 1177.85 207.21 1185.38 331.38 1185.14 324.65 1178.07 207.28"/><path class="cls-2" d="M1193,308.72c-18.25,35.95,4.87,41,29.71,50.57,30.91,11.93,60.21-16,52.08-55.6-6.48-31.57-20-60.29-20.75-58.47C1252.13,249.72,1205.66,283.85,1193,308.72Z"/><path class="cls-2" d="M1253.25,340.82c-1.85,4.95-14.91,4.64-29.17-.68s-24.33-13.65-22.49-18.59"/><path class="cls-2" d="M1254.89,324.48c-1.57,4.2-12.66,3.94-24.77-.58s-20.66-11.59-19.09-15.79"/><path class="cls-2" d="M1257,308.09c-1.57,4.2-11.14,4.51-21.39.69s-17.28-10.33-15.71-14.53"/><path class="cls-2" d="M1258.62,288.07c-1.57,4.2-10,8-17,5.39s-13.07-9.92-11.5-14.12"/><path class="cls-2" d="M1258.57,273c-1.57,4.2-5.1,7.33-12.16,4.69s-8.88-6.78-7.32-11"/><polygon class="cls-2" points="1254.39 245.68 1254.22 245.52 1214.1 363.28 1216.43 356.96 1254.39 245.68"/><path class="cls-2" d="M912.19,298.89c6.11,39.85,27.83,30.48,53.6,23.81,32.08-8.32,39.64-48.08,10-75.54-23.65-21.88-51.33-37.38-50.91-35.44C925.86,216.51,908,271.32,912.19,298.89Z"/><path class="cls-2" d="M979.83,289.92c1.38,5.09-9.42,12.45-24.11,16.43s-27.73,3.08-29.11-2"/><path class="cls-2" d="M971.65,275.68c1.17,4.32-8,10.57-20.47,13.95s-23.55,2.61-24.72-1.71"/><path class="cls-2" d="M963.8,261.14c1.17,4.33-6.43,10.15-17,13s-20.06,1.67-21.23-2.66"/><path class="cls-2" d="M953.47,243.91c1.18,4.32-3.44,12.34-10.71,14.31s-16.41-.46-17.58-4.78"/><path class="cls-2" d="M944.65,231.68c1.18,4.33.12,8.93-7.15,10.9s-11.18-.35-12.35-4.67"/><polygon class="cls-2" points="925.35 211.91 925.11 211.88 961.08 330.97 959.3 324.48 925.35 211.91"/><path class="cls-2" d="M968.15,288.54c-9.46,39.19,14.2,38.76,40.57,42.35,32.83,4.47,54.9-29.45,37.85-66.12-13.59-29.22-33.33-54.06-33.68-52.1C1012,217.5,974.69,261.43,968.15,288.54Z"/><path class="cls-2" d="M1034.14,305.88c-.66,5.24-13.43,7.95-28.54,6.07s-26.82-7.67-26.17-12.91"/><path class="cls-2" d="M1032,289.6c-.56,4.45-11.41,6.76-24.24,5.15S985,288.24,985.51,283.8"/><path class="cls-2" d="M1030.22,273.18c-.56,4.45-9.8,6.95-20.65,5.59s-19.2-6.06-18.64-10.5"/><path class="cls-2" d="M1027.2,253.31c-.56,4.45-7.87,10.12-15.35,9.18s-15-6.64-14.45-11.09"/><path class="cls-2" d="M1023.67,238.66c-.55,4.44-3.28,8.3-10.75,7.36s-10.21-4.55-9.65-9"/><polygon class="cls-2" points="1013.3 213.04 1013.1 212.93 1001.23 336.76 1002.04 330.08 1013.3 213.04"/><path class="cls-2" d="M1022,289.31c-4.27,40.09,19.13,36.58,45.75,36.7,33.14.15,50.59-36.37,28.9-70.5-17.29-27.19-40.1-49.24-40.19-47.26C1056.26,213.15,1025,261.57,1022,289.31Z"/><path class="cls-2" d="M1089.71,297.89c0,5.28-12.28,9.64-27.51,9.74s-27.59-4.1-27.63-9.38"/><path class="cls-2" d="M1085.43,282c0,4.48-10.43,8.18-23.35,8.27s-23.44-3.49-23.46-8"/><path class="cls-2" d="M1081.55,266c0,4.48-8.81,8.18-19.74,8.25s-19.82-3.51-19.85-8"/><path class="cls-2" d="M1076,246.68c0,4.48-6.49,11.06-14,11.1s-15.75-4.62-15.77-9.1"/><path class="cls-2" d="M1070.56,232.61c0,4.48-2.17,8.66-9.7,8.71s-10.72-3.18-10.74-7.67"/><polygon class="cls-2" points="1056.94 208.56 1056.72 208.48 1061.1 332.81 1061.04 326.07 1056.94 208.56"/><path class="cls-2" d="M1101.75,311c-7.9,39.53,15.72,38.17,42.22,40.72,33,3.17,53.69-31.59,35.21-67.56-14.73-28.66-35.43-52.7-35.7-50.73C1142.81,238.27,1107.22,283.64,1101.75,311Z"/><path class="cls-2" d="M1168.38,325.72c-.45,5.26-13.11,8.48-28.28,7.18s-27.1-6.6-26.66-11.86"/><path class="cls-2" d="M1165.57,309.54c-.38,4.47-11.13,7.2-24,6.1s-23-5.61-22.64-10.07"/><path class="cls-2" d="M1163.17,293.2c-.38,4.46-9.52,7.33-20.41,6.4s-19.42-5.3-19-9.76"/><path class="cls-2" d="M1159.37,273.47c-.38,4.46-7.46,10.41-15,9.77s-15.26-6-14.88-10.51"/><path class="cls-2" d="M1155.27,259c-.38,4.47-3,8.42-10.45,7.78s-10.38-4.14-10-8.61"/><polygon class="cls-2" points="1143.9 233.77 1143.69 233.66 1136.71 357.88 1137.25 351.16 1143.9 233.77"/><path class="cls-2" d="M627.14,295.12c4.52,40.06,26.6,31.56,52.62,25.91,32.38-7,41.5-46.46,12.94-75.08-22.77-22.8-49.82-39.39-49.48-37.43C644.07,213.35,624,267.4,627.14,295.12Z"/><path class="cls-2" d="M695.08,288.84c1.18,5.14-9.9,12.06-24.74,15.46s-27.83,2-29-3.17"/><path class="cls-2" d="M687.47,274.28c1,4.37-8.41,10.25-21,13.13s-23.63,1.68-24.63-2.69"/><path class="cls-2" d="M680.21,259.45c1,4.37-6.84,9.88-17.49,12.32s-20.11.87-21.11-3.49"/><path class="cls-2" d="M670.57,241.82c1,4.36-3.93,12.19-11.28,13.87s-16.37-1.1-17.37-5.47"/><path class="cls-2" d="M662.24,229.25c1,4.37-.24,8.92-7.58,10.6s-11.15-.78-12.15-5.15"/><polygon class="cls-2" points="643.74 208.72 643.5 208.69 674.72 329.12 673.2 322.56 643.74 208.72"/><path class="cls-2" d="M683.46,287c-11,38.79,12.65,39.3,38.87,43.93,32.62,5.77,56-27.25,40.44-64.56C750.35,236.62,731.61,211,731.18,213,730.13,217.75,691.08,260.16,683.46,287Z"/><path class="cls-2" d="M748.71,306.94c-.86,5.21-13.73,7.42-28.75,4.93s-26.5-8.72-25.64-13.93"/><path class="cls-2" d="M747.19,290.59c-.73,4.42-11.66,6.3-24.42,4.18s-22.5-7.4-21.77-11.83"/><path class="cls-2" d="M746.09,274.11c-.73,4.42-10.07,6.56-20.85,4.77S706.3,272.06,707,267.64"/><path class="cls-2" d="M743.86,254.14c-.73,4.42-8.26,9.79-15.69,8.56s-14.74-7.23-14-11.65"/><path class="cls-2" d="M740.92,239.35c-.73,4.43-3.6,8.17-11,6.94s-10-4.95-9.29-9.38"/><polygon class="cls-2" points="731.58 213.34 731.38 213.22 714.6 336.5 715.68 329.85 731.58 213.34"/><path class="cls-2" d="M737.26,289.9c-5.85,39.89,17.67,37.31,44.26,38.49,33.1,1.46,52-34.33,31.67-69.29-16.19-27.86-38.11-50.8-38.28-48.82C774.49,215.16,741.31,262.31,737.26,289.9Z"/><path class="cls-2" d="M804.55,301.17c-.17,5.27-12.65,9.14-27.86,8.63s-27.41-5.19-27.24-10.46"/><path class="cls-2" d="M800.91,285.15c-.15,4.48-10.74,7.77-23.66,7.34s-23.28-4.41-23.13-8.89"/><path class="cls-2" d="M797.67,269c-.15,4.48-9.13,7.81-20,7.45s-19.67-4.29-19.52-8.77"/><path class="cls-2" d="M792.86,249.45c-.15,4.48-6.92,10.79-14.45,10.54s-15.55-5.25-15.4-9.73"/><path class="cls-2" d="M788,235.17c-.15,4.48-2.51,8.57-10,8.32s-10.58-3.61-10.43-8.09"/><polygon class="cls-2" points="775.36 210.61 775.14 210.51 774.59 334.92 774.79 328.19 775.36 210.61"/><path class="cls-2" d="M800,290.07c-9.47,39.19,14.19,38.77,40.56,42.37,32.83,4.48,54.91-29.44,37.87-66.11-13.58-29.22-33.31-54.07-33.66-52.11C843.94,219,806.59,263,800,290.07Z"/><path class="cls-2" d="M866,307.43c-.65,5.24-13.43,7.95-28.54,6.06s-26.82-7.67-26.16-12.91"/><path class="cls-2" d="M863.86,291.16c-.56,4.44-11.41,6.75-24.24,5.14s-22.77-6.52-22.21-11"/><path class="cls-2" d="M862.11,274.73c-.55,4.45-9.8,6.95-20.65,5.59s-19.19-6.07-18.64-10.51"/><path class="cls-2" d="M859.1,254.87c-.56,4.44-7.87,10.11-15.35,9.17s-15-6.64-14.45-11.09"/><path class="cls-2" d="M855.58,240.21c-.56,4.44-3.28,8.3-10.76,7.36s-10.2-4.55-9.65-9"/><polygon class="cls-2" points="845.22 214.59 845.01 214.47 833.1 338.31 833.92 331.62 845.22 214.59"/><path class="cls-2" d="M453.31,328.75c-1.76,40.28,21.37,35.32,47.95,33.78,33.08-1.91,48.23-39.44,24.45-72.15-18.94-26.07-43.08-46.66-43.05-44.67C482.74,250.61,454.53,300.89,453.31,328.75Z"/><path class="cls-2" d="M521.4,333.11c.36,5.27-11.66,10.38-26.84,11.43s-27.8-2.38-28.16-7.65"/><path class="cls-2" d="M516.15,317.55c.31,4.47-9.9,8.82-22.8,9.7s-23.6-2-23.91-6.49"/><path class="cls-2" d="M511.28,301.77c.31,4.47-8.29,8.7-19.2,9.45s-20-2.26-20.31-6.74"/><path class="cls-2" d="M504.5,282.85c.31,4.47-5.78,11.44-13.3,11.95s-16-3.63-16.31-8.1"/><path class="cls-2" d="M498.23,269.14c.31,4.47-1.63,8.78-9.14,9.3s-10.89-2.51-11.2-7"/><polygon class="cls-2" points="483.14 245.99 482.91 245.92 495.03 369.74 494.54 363.02 483.14 245.99"/><path class="cls-2" d="M506.32,319.17c3.51,40.16,25.8,32.23,51.95,27.24,32.55-6.22,42.67-45.4,14.83-74.73C550.92,248.31,524.3,231,524.59,233,525.31,237.86,503.9,291.39,506.32,319.17Z"/><path class="cls-2" d="M574.4,314.61c1.05,5.17-10.2,11.81-25.12,14.83s-27.87,1.27-28.91-3.9"/><path class="cls-2" d="M567.16,299.87c.89,4.39-8.66,10-21.33,12.59s-23.66,1.08-24.55-3.31"/><path class="cls-2" d="M560.28,284.85c.89,4.4-7.08,9.72-17.8,11.88s-20.12.37-21-4"/><path class="cls-2" d="M551.09,267c.89,4.4-4.24,12.1-11.62,13.59s-16.34-1.52-17.23-5.91"/><path class="cls-2" d="M543.08,254.21c.89,4.39-.46,8.92-7.84,10.41s-11.13-1.07-12-5.46"/><polygon class="cls-2" points="525.1 233.23 524.87 233.18 553.03 354.36 551.67 347.76 525.1 233.23"/><path class="cls-2" d="M567.45,304.86c-.17,40.31,22.75,34.44,49.24,31.86,33-3.21,46.64-41.31,21.6-73.06-20-25.3-44.89-44.93-44.78-42.94C593.79,225.61,567.57,277,567.45,304.86Z"/><path class="cls-2" d="M635.66,306.53c.57,5.24-11.24,10.83-26.37,12.47s-27.87-1.28-28.44-6.52"/><path class="cls-2" d="M629.8,291.19c.48,4.45-9.54,9.2-22.4,10.59s-23.66-1.08-24.14-5.54"/><path class="cls-2" d="M624.31,275.61c.49,4.45-7.93,9-18.8,10.2s-20.08-1.47-20.56-5.93"/><path class="cls-2" d="M616.8,257c.48,4.46-5.33,11.66-12.82,12.47s-16.13-3-16.62-7.46"/><path class="cls-2" d="M610,243.52c.48,4.46-1.28,8.84-8.77,9.65s-11-2.08-11.46-6.54"/><polygon class="cls-2" points="594 220.98 593.77 220.92 610.75 344.16 610 337.47 594 220.98"/><path class="cls-2" d="M883,795.17c.28-40.31,23.13-34.19,49.6-31.31,32.94,3.58,46.17,41.82,20.78,73.29-20.23,25.08-45.38,44.43-45.25,42.44C908.48,874.7,882.84,823.07,883,795.17Z"/><path class="cls-2" d="M951.25,794.26c.63-5.24-11.12-11-26.24-12.77s-27.87,1-28.5,6.21"/><path class="cls-2" d="M945.22,809.53c.53-4.45-9.44-9.3-22.28-10.84s-23.67.82-24.21,5.28"/><path class="cls-2" d="M939.56,825.05c.53-4.45-7.84-9.11-18.69-10.41s-20.09,1.25-20.63,5.7"/><path class="cls-2" d="M931.84,843.6c.53-4.45-5.2-11.71-12.68-12.61s-16.17,2.83-16.7,7.28"/><path class="cls-2" d="M924.88,857c.53-4.45-1.18-8.84-8.66-9.74s-11,2-11.54,6.41"/><polygon class="cls-2" points="908.64 879.34 908.41 879.4 926.76 756.35 925.93 763.03 908.64 879.34"/><path class="cls-2" d="M939.89,797.31c-15-37.4,8.44-40.4,34-47.78,31.83-9.18,58.58,21.19,47,59.94-9.21,30.88-25.15,58.32-25.78,56.43C993.6,861.25,950.29,823.19,939.89,797.31Z"/><path class="cls-2" d="M1002.67,770.6c-1.4-5.09-14.44-5.93-29.11-1.87s-25.43,11.47-24,16.56"/><path class="cls-2" d="M1002.89,787c-1.2-4.32-12.27-5-24.73-1.59s-21.59,9.74-20.4,14.06"/><path class="cls-2" d="M1003.53,803.52c-1.19-4.32-10.7-5.46-21.24-2.54s-18.12,8.77-16.92,13.09"/><path class="cls-2" d="M1003.42,823.61c-1.19-4.32-9.25-8.86-16.51-6.85s-13.89,8.74-12.7,13.06"/><path class="cls-2" d="M1002.06,838.63c-1.2-4.32-4.45-7.74-11.71-5.74s-9.44,6-8.25,10.31"/><polygon class="cls-2" points="995.51 865.48 995.32 865.62 965.64 744.8 967.41 751.3 995.51 865.48"/><path class="cls-2" d="M993.08,788.75c-10-39,13.64-39,40-42.94,32.76-4.95,55.32,28.66,38.8,65.57-13.16,29.41-32.54,54.53-32.92,52.58C1038,859.15,1000,815.76,993.08,788.75Z"/><path class="cls-2" d="M1058.81,770.45c-.73-5.23-13.54-7.76-28.62-5.65s-26.71,8.05-26,13.28"/><path class="cls-2" d="M1056.88,786.76c-.62-4.44-11.5-6.59-24.31-4.8s-22.68,6.84-22.06,11.28"/><path class="cls-2" d="M1055.37,803.21c-.62-4.44-9.9-6.81-20.73-5.3s-19.11,6.34-18.49,10.78"/><path class="cls-2" d="M1052.64,823.11c-.62-4.44-8-10-15.48-9s-14.91,6.85-14.29,11.29"/><path class="cls-2" d="M1049.32,837.82c-.62-4.44-3.4-8.25-10.86-7.21s-10.14,4.7-9.52,9.14"/><polygon class="cls-2" points="1039.33 863.59 1039.12 863.7 1025.46 740.05 1026.37 746.72 1039.33 863.59"/><path class="cls-2" d="M1055.49,782c-13.55-38,10-40.05,35.87-46.41,32.18-7.92,57.71,23.49,44.63,61.75-10.42,30.49-27.43,57.28-28,55.37C1106.64,848,1064.87,808.23,1055.49,782Z"/><path class="cls-2" d="M1119.28,757.73c-1.21-5.14-14.2-6.48-29-3s-25.86,10.46-24.66,15.6"/><path class="cls-2" d="M1118.84,774.15c-1-4.36-12-5.51-24.64-2.56s-22,8.88-20.94,13.25"/><path class="cls-2" d="M1118.84,790.67c-1-4.37-10.48-5.88-21.13-3.38s-18.44,8.05-17.42,12.42"/><path class="cls-2" d="M1117.94,810.74c-1-4.36-8.9-9.22-16.23-7.5s-14.22,8.19-13.2,12.55"/><path class="cls-2" d="M1116,825.69c-1-4.37-4.14-7.91-11.47-6.19s-9.67,5.61-8.65,10"/><polygon class="cls-2" points="1108.38 852.26 1108.19 852.39 1083.29 730.5 1084.8 737.07 1108.38 852.26"/><path class="cls-2" d="M651.78,764.86c9.56-39.16,30.39-27.93,55.47-19,31.23,11.08,35.29,51.35,3.32,76.11-25.47,19.74-54.4,32.76-53.82,30.86C658.2,848.12,645.16,792,651.78,764.86Z"/><path class="cls-2" d="M718.37,779.71c1.82-5-8.29-13.23-22.58-18.48s-27.35-5.48-29.17-.53"/><path class="cls-2" d="M709,793.18c1.55-4.21-7-11.23-19.17-15.69S666.58,772.83,665,777"/><path class="cls-2" d="M699.89,807c1.55-4.2-5.52-10.67-15.78-14.44s-19.84-3.41-21.39.79"/><path class="cls-2" d="M688.1,823.24c1.55-4.21-2.35-12.59-9.43-15.19s-16.38-1-17.92,3.23"/><path class="cls-2" d="M678.25,834.65c1.54-4.21.89-8.88-6.18-11.48s-11.16-.63-12.7,3.58"/><polygon class="cls-2" points="657.29 852.66 657.05 852.67 703.29 737.17 700.94 743.49 657.29 852.66"/><path class="cls-2" d="M706.62,780.06c-6-39.86,17.53-37.37,44.12-38.65,33.09-1.58,52.12,34.14,31.93,69.18-16.09,27.92-37.93,50.94-38.1,49C744.13,854.66,710.77,807.64,706.62,780.06Z"/><path class="cls-2" d="M773.87,768.55c-.2-5.28-12.69-9.1-27.9-8.54s-27.39,5.3-27.19,10.57"/><path class="cls-2" d="M770.29,784.57c-.17-4.48-10.78-7.72-23.69-7.24s-23.26,4.49-23.1,9"/><path class="cls-2" d="M767.11,800.78C766.94,796.3,758,793,747,793.4s-19.65,4.37-19.48,8.85"/><path class="cls-2" d="M762.37,820.31c-.17-4.48-7-10.76-14.49-10.48s-15.53,5.3-15.36,9.78"/><path class="cls-2" d="M757.57,834.6c-.16-4.48-2.54-8.56-10.06-8.28s-10.57,3.65-10.41,8.13"/><polygon class="cls-2" points="745.01 859.22 744.79 859.31 743.78 734.91 744 741.64 745.01 859.22"/><path class="cls-2" d="M760.35,784c-.75-40.31,22.25-34.77,48.78-32.56,33,2.74,47.22,40.64,22.63,72.74-19.59,25.59-44.24,45.56-44.16,43.57C787.81,862.86,760.87,811.88,760.35,784Z"/><path class="cls-2" d="M828.53,781.36c.49-5.26-11.39-10.68-26.55-12.1s-27.85,1.67-28.34,6.93"/><path class="cls-2" d="M822.88,796.78c.43-4.47-9.67-9.07-22.54-10.28s-23.64,1.43-24.06,5.89"/><path class="cls-2" d="M817.62,812.43c.42-4.46-8.06-8.91-19-9.93s-20,1.76-20.47,6.22"/><path class="cls-2" d="M810.37,831.17c.42-4.46-5.49-11.57-13-12.28s-16.09,3.23-16.51,7.69"/><path class="cls-2" d="M803.75,844.72c.42-4.46-1.4-8.82-8.9-9.52s-11,2.23-11.37,6.7"/><polygon class="cls-2" points="788.08 867.48 787.86 867.55 803.08 744.08 802.43 750.78 788.08 867.48"/><path class="cls-2" d="M822.64,791.79c-4.42-40.08,19-36.66,45.61-36.88,33.13-.28,50.73,36.16,29.18,70.37-17.18,27.27-39.9,49.41-40,47.43C857.19,867.81,825.7,819.51,822.64,791.79Z"/><path class="cls-2" d="M890.3,782.93c0-5.28-12.32-9.59-27.55-9.62s-27.57,4.21-27.58,9.49"/><path class="cls-2" d="M886.09,798.8c0-4.48-10.46-8.14-23.39-8.17s-23.42,3.58-23.43,8.06"/><path class="cls-2" d="M882.27,814.88c0-4.49-8.84-8.14-19.78-8.17s-19.8,3.59-19.81,8.07"/><path class="cls-2" d="M876.76,834.2c0-4.48-6.52-11-14.06-11.05S847,827.84,847,832.32"/><path class="cls-2" d="M871.41,848.29c0-4.48-2.2-8.65-9.73-8.67S851,842.85,851,847.33"/><polygon class="cls-2" points="857.89 872.39 857.67 872.48 861.56 748.13 861.51 754.87 857.89 872.39"/><path class="cls-2" d="M1150.2,786.23c-3.25-40.18,20-36.08,46.67-35.53,33.13.69,49.65,37.64,27.1,71.2-18,26.75-41.33,48.22-41.37,46.23C1182.5,863.23,1152.45,814,1150.2,786.23Z"/><path class="cls-2" d="M1218.08,779.36c.17-5.28-12-9.94-27.24-10.43s-27.69,3.4-27.86,8.68"/><path class="cls-2" d="M1213.41,795.1c.14-4.48-10.22-8.44-23.14-8.85s-23.51,2.89-23.65,7.37"/><path class="cls-2" d="M1209.13,811.06c.14-4.48-8.6-8.4-19.53-8.74s-19.91,3-20,7.48"/><path class="cls-2" d="M1203.06,830.21c.14-4.48-6.21-11.21-13.74-11.45s-15.85,4.22-16,8.7"/><path class="cls-2" d="M1197.29,844.14c.15-4.48-1.94-8.71-9.47-8.95s-10.8,2.91-10.94,7.39"/><polygon class="cls-2" points="1183.07 867.83 1182.85 867.91 1190.38 743.74 1190.14 750.47 1183.07 867.83"/><path class="cls-2" d="M1207,783.4c-18.25-36,4.87-41,29.71-50.57,30.91-11.93,60.21,16,52.08,55.6-6.48,31.57-20,60.29-20.75,58.47C1266.13,842.4,1219.66,808.27,1207,783.4Z"/><path class="cls-2" d="M1267.25,751.3c-1.85-4.95-14.91-4.64-29.17.68s-24.33,13.65-22.49,18.59"/><path class="cls-2" d="M1268.89,767.64c-1.57-4.2-12.66-3.94-24.77.58S1223.46,779.81,1225,784"/><path class="cls-2" d="M1271,784c-1.57-4.2-11.14-4.5-21.39-.68s-17.28,10.33-15.71,14.53"/><path class="cls-2" d="M1272.62,804.05c-1.57-4.2-10-8-17-5.39s-13.07,9.92-11.5,14.12"/><path class="cls-2" d="M1272.57,819.12c-1.57-4.2-5.1-7.32-12.16-4.68s-8.88,6.78-7.32,11"/><polygon class="cls-2" points="1268.39 846.44 1268.22 846.6 1228.1 728.84 1230.43 735.16 1268.39 846.44"/><path class="cls-2" d="M917.19,776.23c6.11-39.85,27.83-30.48,53.6-23.81,32.08,8.32,39.64,48.07,10,75.54-23.65,21.88-51.33,37.38-50.91,35.44C930.86,858.6,913,803.8,917.19,776.23Z"/><path class="cls-2" d="M984.83,785.2c1.38-5.09-9.42-12.45-24.11-16.43s-27.73-3.08-29.11,2"/><path class="cls-2" d="M976.65,799.44c1.17-4.32-8-10.57-20.47-14s-23.55-2.62-24.72,1.71"/><path class="cls-2" d="M968.8,814c1.17-4.33-6.43-10.15-17-13s-20.06-1.67-21.23,2.65"/><path class="cls-2" d="M958.47,831.21c1.18-4.32-3.44-12.34-10.71-14.31s-16.41.45-17.58,4.78"/><path class="cls-2" d="M949.65,843.44c1.18-4.33.12-8.93-7.15-10.9s-11.18.35-12.35,4.67"/><polygon class="cls-2" points="930.35 863.21 930.11 863.24 966.08 744.14 964.3 750.64 930.35 863.21"/><path class="cls-2" d="M973.15,786.58c-9.46-39.19,14.2-38.76,40.57-42.35,32.83-4.47,54.9,29.45,37.85,66.12-13.59,29.22-33.33,54.06-33.68,52.1C1017,857.62,979.69,813.69,973.15,786.58Z"/><path class="cls-2" d="M1039.14,769.24c-.66-5.24-13.43-8-28.54-6.07s-26.82,7.67-26.17,12.91"/><path class="cls-2" d="M1037,785.52c-.56-4.45-11.41-6.76-24.24-5.15s-22.77,6.51-22.22,11"/><path class="cls-2" d="M1035.22,801.94c-.56-4.45-9.8-7-20.65-5.6s-19.2,6.07-18.64,10.51"/><path class="cls-2" d="M1032.2,821.81c-.56-4.45-7.87-10.12-15.35-9.18s-15,6.64-14.45,11.08"/><path class="cls-2" d="M1028.67,836.46c-.55-4.45-3.28-8.3-10.75-7.37s-10.21,4.56-9.65,9"/><polygon class="cls-2" points="1018.3 862.08 1018.1 862.19 1006.23 738.35 1007.04 745.04 1018.3 862.08"/><path class="cls-2" d="M1027,785.81c-4.27-40.09,19.13-36.58,45.75-36.7,33.14-.15,50.59,36.37,28.9,70.49-17.29,27.2-40.1,49.25-40.19,47.27C1061.26,862,1030,813.54,1027,785.81Z"/><path class="cls-2" d="M1094.71,777.22c0-5.27-12.28-9.63-27.51-9.73s-27.59,4.1-27.63,9.38"/><path class="cls-2" d="M1090.43,793.08c0-4.48-10.43-8.18-23.35-8.27s-23.44,3.48-23.46,8"/><path class="cls-2" d="M1086.55,809.14c0-4.49-8.81-8.18-19.74-8.25s-19.82,3.51-19.85,8"/><path class="cls-2" d="M1081,828.44c0-4.49-6.49-11.06-14-11.11s-15.75,4.63-15.77,9.11"/><path class="cls-2" d="M1075.56,842.51c0-4.48-2.17-8.66-9.7-8.71s-10.72,3.18-10.74,7.67"/><polygon class="cls-2" points="1061.94 866.55 1061.72 866.64 1066.1 742.31 1066.04 749.04 1061.94 866.55"/><path class="cls-2" d="M1089.75,788.13c-7.9-39.53,15.72-38.17,42.22-40.72,33-3.18,53.69,31.59,35.21,67.56-14.73,28.66-35.43,52.7-35.7,50.73C1130.81,860.84,1095.22,815.48,1089.75,788.13Z"/><path class="cls-2" d="M1156.38,773.4c-.45-5.26-13.11-8.48-28.28-7.18s-27.1,6.6-26.66,11.86"/><path class="cls-2" d="M1153.57,789.58c-.38-4.47-11.13-7.2-24-6.1s-23,5.61-22.64,10.07"/><path class="cls-2" d="M1151.17,805.92c-.38-4.46-9.52-7.33-20.41-6.4s-19.42,5.3-19,9.76"/><path class="cls-2" d="M1147.37,825.65c-.38-4.46-7.46-10.41-15-9.77s-15.26,6-14.88,10.51"/><path class="cls-2" d="M1143.27,840.16c-.38-4.47-3-8.43-10.45-7.79s-10.38,4.15-10,8.62"/><polygon class="cls-2" points="1131.9 865.35 1131.69 865.45 1124.71 741.24 1125.25 747.96 1131.9 865.35"/><path class="cls-2" d="M632.14,780c4.52-40.06,26.6-31.56,52.62-25.91,32.38,7,41.5,46.46,12.94,75.08-22.77,22.8-49.82,39.39-49.48,37.43C649.07,861.77,629,807.72,632.14,780Z"/><path class="cls-2" d="M700.08,786.28c1.18-5.14-9.9-12.07-24.74-15.46s-27.83-2-29,3.17"/><path class="cls-2" d="M692.47,800.84c1-4.37-8.41-10.25-21-13.13s-23.63-1.68-24.63,2.69"/><path class="cls-2" d="M685.21,815.67c1-4.37-6.84-9.89-17.49-12.32s-20.11-.88-21.11,3.49"/><path class="cls-2" d="M675.57,833.3c1-4.37-3.93-12.19-11.28-13.87s-16.37,1.1-17.37,5.47"/><path class="cls-2" d="M667.24,845.87c1-4.37-.24-8.92-7.58-10.6s-11.15.78-12.15,5.15"/><polygon class="cls-2" points="648.74 866.39 648.5 866.43 679.72 746 678.2 752.56 648.74 866.39"/><path class="cls-2" d="M688.46,788.12c-11-38.78,12.65-39.29,38.87-43.92,32.62-5.77,56,27.25,40.44,64.56-12.42,29.74-31.16,55.34-31.59,53.4C735.13,857.37,696.08,815,688.46,788.12Z"/><path class="cls-2" d="M753.71,768.18c-.86-5.21-13.73-7.42-28.75-4.93s-26.5,8.72-25.64,13.93"/><path class="cls-2" d="M752.19,784.53c-.73-4.42-11.66-6.3-24.42-4.19s-22.5,7.41-21.77,11.83"/><path class="cls-2" d="M751.09,801c-.73-4.42-10.07-6.56-20.85-4.77S711.3,803.06,712,807.48"/><path class="cls-2" d="M748.86,821c-.73-4.42-8.26-9.79-15.69-8.56s-14.74,7.23-14,11.65"/><path class="cls-2" d="M745.92,835.76c-.73-4.42-3.6-8.16-11-6.93s-10,4.95-9.29,9.38"/><polygon class="cls-2" points="736.58 861.77 736.38 861.89 719.6 738.62 720.68 745.27 736.58 861.77"/><path class="cls-2" d="M742.26,785.22c-5.85-39.89,17.67-37.31,44.26-38.49,33.1-1.46,52,34.33,31.67,69.29-16.19,27.86-38.11,50.8-38.28,48.82C779.49,860,746.31,812.81,742.26,785.22Z"/><path class="cls-2" d="M809.55,774c-.17-5.27-12.65-9.14-27.86-8.63s-27.41,5.19-27.24,10.46"/><path class="cls-2" d="M805.91,790c-.15-4.48-10.74-7.77-23.66-7.34S759,787,759.12,791.52"/><path class="cls-2" d="M802.67,806.16c-.15-4.48-9.13-7.81-20-7.45S763,803,763.1,807.48"/><path class="cls-2" d="M797.86,825.67c-.15-4.48-6.92-10.79-14.45-10.54s-15.55,5.25-15.4,9.73"/><path class="cls-2" d="M793,839.94c-.15-4.48-2.51-8.56-10-8.31s-10.58,3.6-10.43,8.08"/><polygon class="cls-2" points="780.36 864.51 780.14 864.61 779.59 740.2 779.79 746.93 780.36 864.51"/><path class="cls-2" d="M805,785.05c-9.47-39.19,14.19-38.77,40.56-42.37,32.83-4.48,54.91,29.44,37.87,66.11-13.58,29.22-33.31,54.07-33.66,52.11C848.94,856.07,811.59,812.16,805,785.05Z"/><path class="cls-2" d="M871,767.68c-.65-5.23-13.43-7.94-28.54-6s-26.82,7.67-26.16,12.91"/><path class="cls-2" d="M868.86,784c-.56-4.44-11.41-6.75-24.24-5.14s-22.77,6.52-22.21,11"/><path class="cls-2" d="M867.11,800.39c-.55-4.45-9.8-6.95-20.65-5.59s-19.19,6.06-18.64,10.51"/><path class="cls-2" d="M864.1,820.25c-.56-4.44-7.87-10.11-15.35-9.17s-15,6.64-14.45,11.09"/><path class="cls-2" d="M860.58,834.91c-.56-4.45-3.28-8.3-10.76-7.36s-10.2,4.55-9.65,9"/><polygon class="cls-2" points="850.22 860.53 850.01 860.65 838.1 736.81 838.92 743.5 850.22 860.53"/><path class="cls-2" d="M458.31,746.37c-1.76-40.28,21.37-35.32,47.95-33.78,33.08,1.91,48.23,39.44,24.45,72.15-18.94,26.07-43.08,46.66-43.05,44.67C487.74,824.51,459.53,774.23,458.31,746.37Z"/><path class="cls-2" d="M526.4,742c.36-5.27-11.66-10.38-26.84-11.43s-27.8,2.38-28.16,7.64"/><path class="cls-2" d="M521.15,757.57c.31-4.47-9.9-8.82-22.8-9.71s-23.6,2-23.91,6.49"/><path class="cls-2" d="M516.28,773.35c.31-4.47-8.29-8.7-19.2-9.45s-20,2.26-20.31,6.73"/><path class="cls-2" d="M509.5,792.27c.31-4.47-5.78-11.44-13.3-11.95s-16,3.63-16.31,8.1"/><path class="cls-2" d="M503.23,806c.31-4.48-1.63-8.78-9.14-9.3s-10.89,2.51-11.2,7"/><polygon class="cls-2" points="488.14 829.13 487.91 829.2 500.03 705.38 499.54 712.1 488.14 829.13"/><path class="cls-2" d="M511.32,756c3.51-40.17,25.8-32.23,51.95-27.24,32.55,6.21,42.67,45.4,14.83,74.73-22.18,23.37-48.8,40.64-48.51,38.67C530.31,837.26,508.9,783.73,511.32,756Z"/><path class="cls-2" d="M579.4,760.51c1.05-5.17-10.2-11.81-25.12-14.83s-27.87-1.27-28.91,3.9"/><path class="cls-2" d="M572.16,775.25c.89-4.39-8.66-10-21.33-12.59s-23.66-1.08-24.55,3.31"/><path class="cls-2" d="M565.28,790.27c.89-4.4-7.08-9.72-17.8-11.88s-20.12-.37-21,4"/><path class="cls-2" d="M556.09,808.14c.89-4.4-4.24-12.1-11.62-13.59s-16.34,1.52-17.23,5.91"/><path class="cls-2" d="M548.08,820.91c.89-4.4-.46-8.92-7.84-10.41s-11.13,1.07-12,5.46"/><polygon class="cls-2" points="530.1 841.89 529.87 841.93 558.03 720.76 556.67 727.35 530.1 841.89"/><path class="cls-2" d="M572.45,770.26c-.17-40.31,22.75-34.44,49.24-31.86,33,3.21,46.64,41.31,21.6,73.06-20,25.3-44.89,44.92-44.78,42.94C598.79,849.5,572.57,798.15,572.45,770.26Z"/><path class="cls-2" d="M640.66,768.59c.57-5.25-11.24-10.83-26.37-12.48s-27.87,1.28-28.44,6.53"/><path class="cls-2" d="M634.8,783.93c.48-4.45-9.54-9.2-22.4-10.59s-23.66,1.08-24.14,5.54"/><path class="cls-2" d="M629.31,799.51c.49-4.45-7.93-9-18.8-10.2s-20.08,1.47-20.56,5.93"/><path class="cls-2" d="M621.8,818.15c.48-4.46-5.33-11.66-12.82-12.47s-16.13,3-16.62,7.46"/><path class="cls-2" d="M615,831.6c.48-4.46-1.28-8.84-8.77-9.65s-11,2.08-11.46,6.53"/><polygon class="cls-2" points="599 854.14 598.77 854.2 615.75 730.96 615 737.65 599 854.14"/><path class="cls-2" d="M901,762.17c.28-40.31,23.13-34.19,49.6-31.31,32.94,3.58,46.17,41.82,20.78,73.29-20.23,25.08-45.38,44.43-45.25,42.44C926.48,841.7,900.84,790.07,901,762.17Z"/><path class="cls-2" d="M969.25,761.26c.63-5.24-11.12-11-26.24-12.77s-27.87,1-28.5,6.21"/><path class="cls-2" d="M963.22,776.53c.53-4.45-9.44-9.3-22.28-10.84s-23.67.82-24.21,5.28"/><path class="cls-2" d="M957.56,792.05c.53-4.45-7.84-9.11-18.69-10.41s-20.09,1.25-20.63,5.7"/><path class="cls-2" d="M949.84,810.6c.53-4.45-5.2-11.71-12.68-12.61s-16.17,2.83-16.7,7.28"/><path class="cls-2" d="M942.88,824c.53-4.45-1.18-8.84-8.66-9.74s-11,2-11.54,6.41"/><polygon class="cls-2" points="926.64 846.34 926.41 846.4 944.76 723.35 943.93 730.03 926.64 846.34"/><path class="cls-2" d="M957.89,764.31c-15-37.4,8.44-40.4,34-47.78,31.83-9.18,58.58,21.19,47,59.94-9.21,30.88-25.15,58.32-25.78,56.43C1011.6,828.25,968.29,790.19,957.89,764.31Z"/><path class="cls-2" d="M1020.67,737.6c-1.4-5.09-14.44-5.93-29.11-1.87s-25.43,11.47-24,16.56"/><path class="cls-2" d="M1020.89,754c-1.2-4.32-12.27-5-24.73-1.59s-21.59,9.74-20.4,14.06"/><path class="cls-2" d="M1021.53,770.52c-1.19-4.32-10.7-5.46-21.24-2.54s-18.12,8.77-16.92,13.09"/><path class="cls-2" d="M1021.42,790.61c-1.19-4.32-9.25-8.86-16.51-6.85s-13.89,8.74-12.7,13.06"/><path class="cls-2" d="M1020.06,805.63c-1.2-4.32-4.45-7.74-11.71-5.74s-9.44,6-8.25,10.31"/><polygon class="cls-2" points="1013.51 832.48 1013.32 832.62 983.64 711.8 985.41 718.3 1013.51 832.48"/><path class="cls-2" d="M1011.08,755.75c-10-39,13.64-39,40-42.94,32.76-4.95,55.32,28.66,38.8,65.57-13.16,29.41-32.54,54.53-32.92,52.58C1056,826.15,1018,782.76,1011.08,755.75Z"/><path class="cls-2" d="M1076.81,737.45c-.73-5.23-13.54-7.76-28.62-5.65s-26.71,8.05-26,13.28"/><path class="cls-2" d="M1074.88,753.76c-.62-4.44-11.5-6.59-24.31-4.8s-22.68,6.84-22.06,11.28"/><path class="cls-2" d="M1073.37,770.21c-.62-4.44-9.9-6.81-20.73-5.3s-19.11,6.34-18.49,10.78"/><path class="cls-2" d="M1070.64,790.11c-.62-4.44-8-10-15.48-9s-14.91,6.85-14.29,11.29"/><path class="cls-2" d="M1067.32,804.82c-.62-4.44-3.4-8.25-10.86-7.21s-10.14,4.7-9.52,9.14"/><polygon class="cls-2" points="1057.33 830.59 1057.12 830.7 1043.46 707.05 1044.37 713.72 1057.33 830.59"/><path class="cls-2" d="M1073.49,749c-13.55-38,10-40.05,35.87-46.41,32.18-7.92,57.71,23.49,44.63,61.75-10.42,30.49-27.43,57.28-28,55.37C1124.64,815,1082.87,775.23,1073.49,749Z"/><path class="cls-2" d="M1137.28,724.73c-1.21-5.14-14.2-6.48-29-3s-25.86,10.46-24.66,15.6"/><path class="cls-2" d="M1136.84,741.15c-1-4.36-12-5.51-24.64-2.56s-22,8.88-20.94,13.25"/><path class="cls-2" d="M1136.84,757.67c-1-4.37-10.48-5.88-21.13-3.38s-18.44,8.05-17.42,12.42"/><path class="cls-2" d="M1135.94,777.74c-1-4.36-8.9-9.22-16.23-7.5s-14.22,8.19-13.2,12.55"/><path class="cls-2" d="M1134,792.69c-1-4.37-4.14-7.91-11.47-6.19s-9.67,5.61-8.65,10"/><polygon class="cls-2" points="1126.38 819.26 1126.19 819.39 1101.29 697.5 1102.8 704.07 1126.38 819.26"/><path class="cls-2" d="M669.78,731.86c9.56-39.16,30.39-27.93,55.47-19,31.23,11.08,35.29,51.35,3.32,76.11-25.47,19.74-54.4,32.76-53.82,30.86C676.2,815.12,663.16,759,669.78,731.86Z"/><path class="cls-2" d="M736.37,746.71c1.82-5-8.29-13.23-22.58-18.48s-27.35-5.48-29.17-.53"/><path class="cls-2" d="M727,760.18c1.55-4.21-7-11.23-19.17-15.69S684.58,739.83,683,744"/><path class="cls-2" d="M717.89,774c1.55-4.2-5.52-10.67-15.78-14.44s-19.84-3.41-21.39.79"/><path class="cls-2" d="M706.1,790.24c1.55-4.21-2.35-12.59-9.43-15.19s-16.38-1-17.92,3.23"/><path class="cls-2" d="M696.25,801.65c1.54-4.21.89-8.88-6.18-11.48s-11.16-.63-12.7,3.58"/><polygon class="cls-2" points="675.29 819.66 675.05 819.67 721.29 704.17 718.94 710.49 675.29 819.66"/><path class="cls-2" d="M724.62,747.06c-6-39.86,17.53-37.37,44.12-38.65,33.09-1.58,52.12,34.14,31.93,69.18-16.09,27.92-37.93,50.94-38.1,49C762.13,821.66,728.77,774.64,724.62,747.06Z"/><path class="cls-2" d="M791.87,735.55c-.2-5.28-12.69-9.1-27.9-8.54s-27.39,5.3-27.19,10.57"/><path class="cls-2" d="M788.29,751.57c-.17-4.48-10.78-7.72-23.69-7.24s-23.26,4.49-23.1,9"/><path class="cls-2" d="M785.11,767.78C784.94,763.3,776,760,765,760.4s-19.65,4.37-19.48,8.85"/><path class="cls-2" d="M780.37,787.31c-.17-4.48-7-10.76-14.49-10.48s-15.53,5.3-15.36,9.78"/><path class="cls-2" d="M775.57,801.6c-.16-4.48-2.54-8.56-10.06-8.28s-10.57,3.65-10.41,8.13"/><polygon class="cls-2" points="763.01 826.22 762.79 826.31 761.78 701.91 762 708.64 763.01 826.22"/><path class="cls-2" d="M778.35,751c-.75-40.31,22.25-34.77,48.78-32.56,33,2.74,47.22,40.64,22.63,72.74-19.59,25.59-44.24,45.56-44.16,43.57C805.81,829.86,778.87,778.88,778.35,751Z"/><path class="cls-2" d="M846.53,748.36c.49-5.26-11.39-10.68-26.55-12.1s-27.85,1.67-28.34,6.93"/><path class="cls-2" d="M840.88,763.78c.43-4.47-9.67-9.07-22.54-10.28s-23.64,1.43-24.06,5.89"/><path class="cls-2" d="M835.62,779.43c.42-4.46-8.06-8.91-19-9.93s-20,1.76-20.47,6.22"/><path class="cls-2" d="M828.37,798.17c.42-4.46-5.49-11.57-13-12.28s-16.09,3.23-16.51,7.69"/><path class="cls-2" d="M821.75,811.72c.42-4.46-1.4-8.82-8.9-9.52s-11,2.23-11.37,6.7"/><polygon class="cls-2" points="806.08 834.48 805.86 834.55 821.08 711.08 820.43 717.78 806.08 834.48"/><path class="cls-2" d="M840.64,758.79c-4.42-40.08,19-36.66,45.61-36.88,33.13-.28,50.73,36.16,29.18,70.37-17.18,27.27-39.9,49.41-40,47.43C875.19,834.81,843.7,786.51,840.64,758.79Z"/><path class="cls-2" d="M908.3,749.93c0-5.28-12.32-9.59-27.55-9.62s-27.57,4.21-27.58,9.49"/><path class="cls-2" d="M904.09,765.8c0-4.48-10.46-8.14-23.39-8.17s-23.42,3.58-23.43,8.06"/><path class="cls-2" d="M900.27,781.88c0-4.49-8.84-8.14-19.78-8.17s-19.8,3.59-19.81,8.07"/><path class="cls-2" d="M894.76,801.2c0-4.48-6.52-11-14.06-11.05S865,794.84,865,799.32"/><path class="cls-2" d="M889.41,815.29c0-4.48-2.2-8.65-9.73-8.67S869,809.85,869,814.33"/><polygon class="cls-2" points="875.89 839.39 875.67 839.48 879.56 715.13 879.51 721.87 875.89 839.39"/><path class="cls-2" d="M1165.2,732.23c-3.25-40.18,20-36.08,46.67-35.53,33.13.69,49.65,37.64,27.1,71.2-18,26.75-41.33,48.22-41.37,46.23C1197.5,809.23,1167.45,760,1165.2,732.23Z"/><path class="cls-2" d="M1233.08,725.36c.17-5.28-12-9.94-27.24-10.43s-27.69,3.4-27.86,8.68"/><path class="cls-2" d="M1228.41,741.1c.14-4.48-10.22-8.44-23.14-8.85s-23.51,2.89-23.65,7.37"/><path class="cls-2" d="M1224.13,757.06c.14-4.48-8.6-8.4-19.53-8.74s-19.91,3-20,7.48"/><path class="cls-2" d="M1218.06,776.21c.14-4.48-6.21-11.21-13.74-11.45s-15.85,4.22-16,8.7"/><path class="cls-2" d="M1212.29,790.14c.15-4.48-1.94-8.71-9.47-8.95s-10.8,2.91-10.94,7.39"/><polygon class="cls-2" points="1198.07 813.83 1197.85 813.91 1205.38 689.74 1205.14 696.47 1198.07 813.83"/><path class="cls-2" d="M1225,750.4c-18.25-36,4.87-41,29.71-50.57,30.91-11.93,60.21,16,52.08,55.6-6.48,31.57-20,60.29-20.75,58.47C1284.13,809.4,1237.66,775.27,1225,750.4Z"/><path class="cls-2" d="M1285.25,718.3c-1.85-4.95-14.91-4.64-29.17.68s-24.33,13.65-22.49,18.59"/><path class="cls-2" d="M1286.89,734.64c-1.57-4.2-12.66-3.94-24.77.58S1241.46,746.81,1243,751"/><path class="cls-2" d="M1289,751c-1.57-4.2-11.14-4.5-21.39-.68s-17.28,10.33-15.71,14.53"/><path class="cls-2" d="M1290.62,771.05c-1.57-4.2-10-8-17-5.39s-13.07,9.92-11.5,14.12"/><path class="cls-2" d="M1290.57,786.12c-1.57-4.2-5.1-7.32-12.16-4.68s-8.88,6.78-7.32,11"/><polygon class="cls-2" points="1286.39 813.44 1286.22 813.6 1246.1 695.84 1248.43 702.16 1286.39 813.44"/><path class="cls-2" d="M935.19,743.23c6.11-39.85,27.83-30.48,53.6-23.81,32.08,8.32,39.64,48.07,10,75.54-23.65,21.88-51.33,37.38-50.91,35.44C948.86,825.6,931,770.8,935.19,743.23Z"/><path class="cls-2" d="M1002.83,752.2c1.38-5.09-9.42-12.45-24.11-16.43s-27.73-3.08-29.11,2"/><path class="cls-2" d="M994.65,766.44c1.17-4.32-8-10.57-20.47-14s-23.55-2.62-24.72,1.71"/><path class="cls-2" d="M986.8,781c1.17-4.33-6.43-10.15-17-13s-20.06-1.67-21.23,2.65"/><path class="cls-2" d="M976.47,798.21c1.18-4.32-3.44-12.34-10.71-14.31s-16.41.45-17.58,4.78"/><path class="cls-2" d="M967.65,810.44c1.18-4.33.12-8.93-7.15-10.9s-11.18.35-12.35,4.67"/><polygon class="cls-2" points="948.35 830.21 948.11 830.24 984.08 711.14 982.3 717.64 948.35 830.21"/><path class="cls-2" d="M991.15,753.58c-9.46-39.19,14.2-38.76,40.57-42.35,32.83-4.47,54.9,29.45,37.85,66.12-13.59,29.22-33.33,54.06-33.68,52.1C1035,824.62,997.69,780.69,991.15,753.58Z"/><path class="cls-2" d="M1057.14,736.24c-.66-5.24-13.43-8-28.54-6.07s-26.82,7.67-26.17,12.91"/><path class="cls-2" d="M1055,752.52c-.56-4.45-11.41-6.76-24.24-5.15s-22.77,6.51-22.22,11"/><path class="cls-2" d="M1053.22,768.94c-.56-4.45-9.8-7-20.65-5.6s-19.2,6.07-18.64,10.51"/><path class="cls-2" d="M1050.2,788.81c-.56-4.45-7.87-10.12-15.35-9.18s-15,6.64-14.45,11.08"/><path class="cls-2" d="M1046.67,803.46c-.55-4.45-3.28-8.3-10.75-7.37s-10.21,4.56-9.65,9"/><polygon class="cls-2" points="1036.3 829.08 1036.1 829.19 1024.23 705.35 1025.04 712.04 1036.3 829.08"/><path class="cls-2" d="M1045,752.81c-4.27-40.09,19.13-36.58,45.75-36.7,33.14-.15,50.59,36.37,28.9,70.49-17.29,27.2-40.1,49.25-40.19,47.27C1079.26,829,1048,780.54,1045,752.81Z"/><path class="cls-2" d="M1112.71,744.22c0-5.27-12.28-9.63-27.51-9.73s-27.59,4.1-27.63,9.38"/><path class="cls-2" d="M1108.43,760.08c0-4.48-10.43-8.18-23.35-8.27s-23.44,3.48-23.46,8"/><path class="cls-2" d="M1104.55,776.14c0-4.49-8.81-8.18-19.74-8.25s-19.82,3.51-19.85,8"/><path class="cls-2" d="M1099,795.44c0-4.49-6.49-11.06-14-11.11s-15.75,4.63-15.77,9.11"/><path class="cls-2" d="M1093.56,809.51c0-4.48-2.17-8.66-9.7-8.71s-10.72,3.18-10.74,7.67"/><polygon class="cls-2" points="1079.94 833.55 1079.72 833.64 1084.1 709.31 1084.04 716.04 1079.94 833.55"/><path class="cls-2" d="M1107.75,738.13c-7.9-39.53,15.72-38.17,42.22-40.72,33-3.18,53.69,31.59,35.21,67.56-14.73,28.66-35.43,52.7-35.7,50.73C1148.81,810.84,1113.22,765.48,1107.75,738.13Z"/><path class="cls-2" d="M1174.38,723.4c-.45-5.26-13.11-8.48-28.28-7.18s-27.1,6.6-26.66,11.86"/><path class="cls-2" d="M1171.57,739.58c-.38-4.47-11.13-7.2-24-6.1s-23,5.61-22.64,10.07"/><path class="cls-2" d="M1169.17,755.92c-.38-4.46-9.52-7.33-20.41-6.4s-19.42,5.3-19,9.76"/><path class="cls-2" d="M1165.37,775.65c-.38-4.46-7.46-10.41-15-9.77s-15.26,6-14.88,10.51"/><path class="cls-2" d="M1161.27,790.16c-.38-4.47-3-8.43-10.45-7.79s-10.38,4.15-10,8.62"/><polygon class="cls-2" points="1149.9 815.35 1149.69 815.45 1142.71 691.24 1143.25 697.96 1149.9 815.35"/><path class="cls-2" d="M650.14,747c4.52-40.06,26.6-31.56,52.62-25.91,32.38,7,41.5,46.46,12.94,75.08-22.77,22.8-49.82,39.39-49.48,37.43C667.07,828.77,647,774.72,650.14,747Z"/><path class="cls-2" d="M718.08,753.28c1.18-5.14-9.9-12.07-24.74-15.46s-27.83-2-29,3.17"/><path class="cls-2" d="M710.47,767.84c1-4.37-8.41-10.25-21-13.13s-23.63-1.68-24.63,2.69"/><path class="cls-2" d="M703.21,782.67c1-4.37-6.84-9.89-17.49-12.32s-20.11-.88-21.11,3.49"/><path class="cls-2" d="M693.57,800.3c1-4.37-3.93-12.19-11.28-13.87s-16.37,1.1-17.37,5.47"/><path class="cls-2" d="M685.24,812.87c1-4.37-.24-8.92-7.58-10.6s-11.15.78-12.15,5.15"/><polygon class="cls-2" points="666.74 833.39 666.5 833.43 697.72 713 696.2 719.56 666.74 833.39"/><path class="cls-2" d="M706.46,755.12c-11-38.78,12.65-39.29,38.87-43.92,32.62-5.77,56,27.25,40.44,64.56-12.42,29.74-31.16,55.34-31.59,53.4C753.13,824.37,714.08,782,706.46,755.12Z"/><path class="cls-2" d="M771.71,735.18c-.86-5.21-13.73-7.42-28.75-4.93s-26.5,8.72-25.64,13.93"/><path class="cls-2" d="M770.19,751.53c-.73-4.42-11.66-6.3-24.42-4.19s-22.5,7.41-21.77,11.83"/><path class="cls-2" d="M769.09,768c-.73-4.42-10.07-6.56-20.85-4.77S729.3,770.06,730,774.48"/><path class="cls-2" d="M766.86,788c-.73-4.42-8.26-9.79-15.69-8.56s-14.74,7.23-14,11.65"/><path class="cls-2" d="M763.92,802.76c-.73-4.42-3.6-8.16-11-6.93s-10,4.95-9.29,9.38"/><polygon class="cls-2" points="754.58 828.77 754.38 828.89 737.6 705.62 738.68 712.27 754.58 828.77"/><path class="cls-2" d="M760.26,752.22c-5.85-39.89,17.67-37.31,44.26-38.49,33.1-1.46,52,34.33,31.67,69.29-16.19,27.86-38.11,50.8-38.28,48.82C797.49,827,764.31,779.81,760.26,752.22Z"/><path class="cls-2" d="M827.55,741c-.17-5.27-12.65-9.14-27.86-8.63s-27.41,5.19-27.24,10.46"/><path class="cls-2" d="M823.91,757c-.15-4.48-10.74-7.77-23.66-7.34S777,754,777.12,758.52"/><path class="cls-2" d="M820.67,773.16c-.15-4.48-9.13-7.81-20-7.45S781,770,781.1,774.48"/><path class="cls-2" d="M815.86,792.67c-.15-4.48-6.92-10.79-14.45-10.54s-15.55,5.25-15.4,9.73"/><path class="cls-2" d="M811,806.94c-.15-4.48-2.51-8.56-10-8.31s-10.58,3.6-10.43,8.08"/><polygon class="cls-2" points="798.36 831.51 798.14 831.61 797.59 707.2 797.79 713.93 798.36 831.51"/><path class="cls-2" d="M823,752.05c-9.47-39.19,14.19-38.77,40.56-42.37,32.83-4.48,54.91,29.44,37.87,66.11-13.58,29.22-33.31,54.07-33.66,52.11C866.94,823.07,829.59,779.16,823,752.05Z"/><path class="cls-2" d="M889,734.68c-.65-5.23-13.43-7.94-28.54-6s-26.82,7.67-26.16,12.91"/><path class="cls-2" d="M886.86,751c-.56-4.44-11.41-6.75-24.24-5.14s-22.77,6.52-22.21,11"/><path class="cls-2" d="M885.11,767.39c-.55-4.45-9.8-6.95-20.65-5.59s-19.19,6.06-18.64,10.51"/><path class="cls-2" d="M882.1,787.25c-.56-4.44-7.87-10.11-15.35-9.17s-15,6.64-14.45,11.09"/><path class="cls-2" d="M878.58,801.91c-.56-4.45-3.28-8.3-10.76-7.36s-10.2,4.55-9.65,9"/><polygon class="cls-2" points="868.22 827.53 868.01 827.65 856.1 703.81 856.92 710.5 868.22 827.53"/><path class="cls-2" d="M476.31,713.37c-1.76-40.28,21.37-35.32,47.95-33.78,33.08,1.91,48.23,39.44,24.45,72.15-18.94,26.07-43.08,46.66-43.05,44.67C505.74,791.51,477.53,741.23,476.31,713.37Z"/><path class="cls-2" d="M544.4,709c.36-5.27-11.66-10.38-26.84-11.43s-27.8,2.38-28.16,7.64"/><path class="cls-2" d="M539.15,724.57c.31-4.47-9.9-8.82-22.8-9.71s-23.6,2-23.91,6.49"/><path class="cls-2" d="M534.28,740.35c.31-4.47-8.29-8.7-19.2-9.45s-20,2.26-20.31,6.73"/><path class="cls-2" d="M527.5,759.27c.31-4.47-5.78-11.44-13.3-11.95s-16,3.63-16.31,8.1"/><path class="cls-2" d="M521.23,773c.31-4.48-1.63-8.78-9.14-9.3s-10.89,2.51-11.2,7"/><polygon class="cls-2" points="506.14 796.13 505.91 796.2 518.03 672.38 517.54 679.1 506.14 796.13"/><path class="cls-2" d="M529.32,723c3.51-40.17,25.8-32.23,51.95-27.24,32.55,6.21,42.67,45.4,14.83,74.73-22.18,23.37-48.8,40.64-48.51,38.67C548.31,804.26,526.9,750.73,529.32,723Z"/><path class="cls-2" d="M597.4,727.51c1.05-5.17-10.2-11.81-25.12-14.83s-27.87-1.27-28.91,3.9"/><path class="cls-2" d="M590.16,742.25c.89-4.39-8.66-10-21.33-12.59s-23.66-1.08-24.55,3.31"/><path class="cls-2" d="M583.28,757.27c.89-4.4-7.08-9.72-17.8-11.88s-20.12-.37-21,4"/><path class="cls-2" d="M574.09,775.14c.89-4.4-4.24-12.1-11.62-13.59s-16.34,1.52-17.23,5.91"/><path class="cls-2" d="M566.08,787.91c.89-4.4-.46-8.92-7.84-10.41s-11.13,1.07-12,5.46"/><polygon class="cls-2" points="548.1 808.89 547.87 808.93 576.03 687.76 574.67 694.35 548.1 808.89"/><path class="cls-2" d="M590.45,737.26c-.17-40.31,22.75-34.44,49.24-31.86,33,3.21,46.64,41.31,21.6,73.06-20,25.3-44.89,44.92-44.78,42.94C616.79,816.5,590.57,765.15,590.45,737.26Z"/><path class="cls-2" d="M658.66,735.59c.57-5.25-11.24-10.83-26.37-12.48s-27.87,1.28-28.44,6.53"/><path class="cls-2" d="M652.8,750.93c.48-4.45-9.54-9.2-22.4-10.59s-23.66,1.08-24.14,5.54"/><path class="cls-2" d="M647.31,766.51c.49-4.45-7.93-9-18.8-10.2s-20.08,1.47-20.56,5.93"/><path class="cls-2" d="M639.8,785.15c.48-4.46-5.33-11.66-12.82-12.47s-16.13,3-16.62,7.46"/><path class="cls-2" d="M633,798.6c.48-4.46-1.28-8.84-8.77-9.65s-11,2.08-11.46,6.53"/><polygon class="cls-2" points="617 821.14 616.77 821.2 633.75 697.96 633 704.65 617 821.14"/><text class="cls-3" transform="translate(844.67 495.64)">Music</text><text class="cls-3" transform="translate(842.67 647.64)">SFX</text></svg>
