<svg id="Layer_1" data-name="Layer 1" xmlns="http://www.w3.org/2000/svg" width="128" height="128" viewBox="0 0 128 128"><defs><style>.cls-1{fill:#fff;}.cls-2{stroke:#000;stroke-linecap:round;stroke-linejoin:round;stroke-width:0.5px;}</style></defs><title>Tilbage knap</title><circle class="cls-1" cx="64" cy="64" r="62"/><path d="M64,4A60,60,0,1,1,4,64,60.07,60.07,0,0,1,64,4m0-4a64,64,0,1,0,64,64A64,64,0,0,0,64,0Z"/><path class="cls-2" d="M103.78,96.75H48.38c-4.47-4.2-4.23-8.71,0-13.43h55.4C103.56,87.74,104.06,92.2,103.78,96.75Z"/><path class="cls-2" d="M90,93.9l.35-64.56c4.68.11,9.14.2,13.43.08L103.44,94C98.78,97.42,94.27,97.94,90,93.9Z"/><path class="cls-2" d="M103.72,43h-69c-3.61-4.18-3.19-8.69,0-13.42h69C103.44,34,104.06,38.5,103.72,43Z"/><polygon class="cls-2" points="41.97 23.91 42.36 47.58 18.49 35.88 18.49 35.88 41.97 23.91"/></svg>