<svg id="Layer_1" data-name="Layer 1" xmlns="http://www.w3.org/2000/svg" width="203.69" height="385" viewBox="0 0 203.69 385"><defs><style>.cls-1{fill:none;}.cls-1,.cls-2,.cls-3{stroke:#000;stroke-miterlimit:10;}.cls-3,.cls-4{fill:#c7b299;}</style></defs><title>Timeglas</title><polygon class="cls-1" points="202.79 366.85 0.9 366.85 102.35 203.5 0.9 17.15 202.79 17.15 102.35 203.5 202.79 366.85"/><rect class="cls-2" x="1.35" y="366.5" width="201" height="18"/><rect class="cls-2" x="1.35" y="0.5" width="201" height="17"/><path class="cls-3" d="M202.35,366.5H1.35l26-42c46.17-43.86,96.45-40.66,150,0Z"/><polygon class="cls-3" points="102.35 203.5 102.35 203.5 43.35 94.5 161.35 94.5 102.35 203.5"/><path class="cls-4" d="M105.85,239a6.57,6.57,0,0,1-7-2c-.5-3.88,2-20.1,3.5-32.5h0C103.86,217.49,106.32,234.6,105.85,239Z"/></svg>
