<svg id="Layer_1" data-name="Layer 1" xmlns="http://www.w3.org/2000/svg" width="1920" height="1080" viewBox="0 0 1920 1080"><defs><style>.cls-1{fill:#ffab00;}.cls-2{fill:#736357;opacity:0.39;}.cls-3,.cls-6,.cls-7{fill:#fff;}.cls-10,.cls-11,.cls-13,.cls-14,.cls-15,.cls-16,.cls-17,.cls-3,.cls-7,.cls-8,.cls-9{stroke:#000;}.cls-10,.cls-11,.cls-13,.cls-14,.cls-15,.cls-16,.cls-17,.cls-3,.cls-5,.cls-7,.cls-8,.cls-9{stroke-miterlimit:10;}.cls-4{fill:#845834;}.cls-16,.cls-17,.cls-5{fill:none;}.cls-5{stroke:#006837;}.cls-10,.cls-13,.cls-14,.cls-5{stroke-width:3px;}.cls-11,.cls-7,.cls-8,.cls-9{stroke-width:7px;}.cls-8{fill:#42210b;}.cls-9{fill:#34c221;}.cls-11{fill:#006837;}.cls-12{fill:#4d4d4d;}.cls-13{fill:#e50014;}.cls-14{fill:#8c6239;}.cls-16{stroke-width:0.75px;}</style></defs><title>Titelskaerm</title><path class="cls-1" d="M709.52,882.61c-1-1.16-2.72,1.72-2.43.14.22-1.15-5.45,30.06-11,24.27-4.26-4.44-16.79-13.41-19.42-9.22-.35.57.52,2.37-.64,3.57a3.48,3.48,0,0,1-2.14.86c-1,.07-1.35-.35-2.21-.36-1.31,0-1.82.94-3.07,1.64-2.69,1.51-5.8.17-5.93.71s2.56.92,3.21,2.86c.35,1-.2,1.58.15,2.43.65,1.59,3.68.54,4.49,1.93.52.88,0,2.36-.78,3.21-1.36,1.43-3.23.72-7,1.14-4,.44-7.35,1.84-7.28,2.49s3.47.27,4,1.72c.36,1-.9,2.32-1.08,2.5-2.24,2.27-5.23.71-7.49,3-.16.16-1.44,1.49-1.07,2.5.44,1.21,2.82.8,3.14,1.64.71,1.87-9.56,7.34-9.14,8.21.32.66,6.5-2.33,8.14-.36.71.86-.07,1.91.64,2.64,1.65,1.74,7.51-2.34,8.71-1,1,1.11-2.26,4.7-1.5,5.57,1.44,1.64,15.09-8.94,16.49-7.42s-10.42,13.92-8.43,16.2c.77.88,2.82-.7,4.28.35,3.29,2.36-1.6,14.16-.36,14.64.61.23,1.76-2.56,2.79-2.36,2.08.4.5,12.44,2.7,13s6.73-11.3,9-10.63c1,.31.78,2.92,1.64,3.07,1.76.3,3.53-10.46,7.29-10.78,2.53-.21,4.18,4.48,5.35,4.07,2.36-.81-2.22-20.72-1.71-20.84s3.67,14.7,6.21,14.49c1.68-.14,2.32-6.86,3.5-6.78s1,7.07,3,7.5c1.59.33,2.53-3.78,5.36-4.21,3.67-.56,6.75,5.7,8.2,5,1.92-.93-2.68-12.23.51-14.28,1.25-.8,3.09.21,3.49-.57.64-1.22-3.84-3.73-3.28-6.14.38-1.61,2.61-1.42,3-2.85.78-2.9-7.76-5.91-7.28-9.93.2-1.61,1.84-3.33,3.22-3.35,1.08,0,1.73,1,2.35.72s0-1.74.79-3.22c1-1.89,3.48-2.26,3.64-2.28a7.48,7.48,0,0,1,3.07.43c.1-.25-10.75-3-11.56-8.21-.23-1.48.54-1.85.07-2.93-1.27-2.9-7.76-2.19-16.63-1.22a7.81,7.81,0,0,0-4.64,1.86,6.86,6.86,0,0,0-1.36,1.78S714.26,888,709.52,882.61Z"/><rect class="cls-2" x="0.5" y="0.5" width="1919" height="1080"/><path class="cls-3" d="M1816.81,919.79c0-31.66-36.47-57.33-81.46-57.33-17.47,0-33.65,3.89-46.92,10.48-13.92-17.56-40.57-29.44-71.17-29.44-35.28,0-65.32,15.79-76.64,37.88A112.25,112.25,0,0,0,1513,878c-45,0-81.46,25.66-81.46,57.32,0,25.21,23.14,46.61,55.28,54.28a41.35,41.35,0,0,0-1.84,12.1c0,31.66,36.47,57.32,81.46,57.32,25.07,0,47.48-8,62.42-20.51,13.75,7.45,31,11.89,49.64,11.89,45,0,81.46-25.66,81.46-57.32a42,42,0,0,0-4-17.79C1790.94,968.86,1816.81,946.45,1816.81,919.79Z"/><path class="cls-3" d="M629,741.81c0-40.38-46.52-73.12-103.91-73.12-22.28,0-42.93,4.94-59.85,13.35-17.76-22.4-51.76-37.54-90.79-37.54-45,0-83.32,20.14-97.76,48.31a143.5,143.5,0,0,0-35.28-4.33c-57.39,0-103.91,32.74-103.91,73.12,0,32.16,29.5,59.47,70.49,69.26a52.83,52.83,0,0,0-2.32,15.41c0,40.38,46.52,73.12,103.91,73.12,32,0,60.56-10.16,79.62-26.15,17.53,9.5,39.49,15.15,63.32,15.15,57.39,0,103.91-32.73,103.91-73.12a53.66,53.66,0,0,0-5.11-22.69C596,804.4,629,775.82,629,741.81Z"/><path class="cls-4" d="M216,1080H1C16.09,781-23.69,421.31,1,1L295,0C155.2,444.52,165,800.67,216,1080Z"/><path class="cls-1" d="M1825,406.2H81C2.69,269.4,1,134,81,0H1825C1901.12,138,1904.16,273.49,1825,406.2Z"/><path class="cls-3" d="M1526.5,611c0-36.73-42.31-66.5-94.5-66.5-20.27,0-39,4.49-54.43,12.14-16.16-20.37-47.08-34.14-82.57-34.14-40.93,0-75.78,18.32-88.92,43.93A130.7,130.7,0,0,0,1174,562.5c-52.19,0-94.5,29.77-94.5,66.5,0,29.25,26.83,54.08,64.11,63a47.74,47.74,0,0,0-2.11,14c0,36.73,42.31,66.5,94.5,66.5,29.07,0,55.08-9.24,72.41-23.78,15.95,8.64,35.91,13.78,57.59,13.78,52.19,0,94.5-29.77,94.5-66.5a48.68,48.68,0,0,0-4.65-20.64C1496.5,667.92,1526.5,641.93,1526.5,611Z"/><path class="cls-1" d="M353.5,408c0-75-61.34-135.78-137-135.78S79.5,333,79.5,408,112.34,555.61,188,555.61,353.5,482.94,353.5,408Z"/><path class="cls-1" d="M569.5,393.24c0-75-61.34-135.78-137-135.78s-137,60.79-137,135.78S372.34,548.82,448,548.82,569.5,468.23,569.5,393.24Z"/><path class="cls-1" d="M759.5,419.27c0-75-61.34-135.78-137-135.78s-137,60.79-137,135.78S547.34,583.9,623,583.9,759.5,494.25,759.5,419.27Z"/><path class="cls-1" d="M957,411.91c0-75-61.34-135.78-137-135.78S683,336.92,683,411.91s54.34,113.15,130,113.15S957,486.9,957,411.91Z"/><path class="cls-1" d="M1173,397.2c0-75-61.34-135.78-137-135.78S899,322.21,899,397.2s72.34,162.94,148,162.94S1173,472.19,1173,397.2Z"/><path class="cls-1" d="M1363,413.73c0-69.74-61.34-126.28-137-126.28S1089,344,1089,413.73,1192.34,580,1268,580,1363,483.47,1363,413.73Z"/><path class="cls-1" d="M1593,414.83c0-69.73-61.34-126.25-137-126.25s-137,56.52-137,126.25S1401.34,580,1477,580,1593,484.55,1593,414.83Z"/><path class="cls-1" d="M1809,409.65c0-75-61.34-135.78-137-135.78s-137,60.79-137,135.78,80.34,107.49,156,107.49S1809,484.64,1809,409.65Z"/><path class="cls-1" d="M1915,335.67c0-75-61.34-135.78-137-135.78s-137,60.79-137,135.78,99.34,148.23,175,148.23S1915,410.66,1915,335.67Z"/><path class="cls-5" d="M322.38,292.44c6.91,34.44-28.64,70.61-79.4,80.79s-97.5-9.49-104.41-43.93"/><path class="cls-5" d="M688.38,334.44c6.91,34.44-28.64,70.61-79.4,80.79s-97.5-9.49-104.41-43.93"/><path class="cls-5" d="M943.4,33.06c4.67,34.82-33.13,68.62-84.44,75.51S762.27,92.81,757.6,58"/><path class="cls-5" d="M1129.4,378.34c3,35-36.37,67-88,71.39s-95.83-20.35-98.83-55.35"/><path class="cls-5" d="M1456.46,351.36c-1.16,35.11-44,62.18-95.78,60.47s-92.74-31.56-91.58-66.67"/><path class="cls-5" d="M1777.75,392.22c.76,35.12-40.58,64.5-92.33,65.62s-94.33-26.44-95.09-61.56"/><path class="cls-5" d="M569.38,5.44c6.91,34.44-28.64,70.61-79.4,80.79s-97.5-9.49-104.41-43.93"/><path class="cls-5" d="M1283.08,88.94c2.39,35.05-37.54,66.31-89.19,69.83s-95.45-22-97.84-57.08"/><path class="cls-5" d="M1727.24,111.74c-14.49,32-64.47,40.63-111.63,19.28S1542,66.41,1556.46,34.41"/><circle class="cls-6" cx="1737.5" cy="993.5" r="2.5"/><path class="cls-4" d="M1726,350.39c-836.73,62.48-1560.92,38.54-1705.5-126-14.66,45-14.34,61.66-4,93,113,112.73,999.52,92.15,1735.5,83C1774.09,369.55,1743.41,395.87,1726,350.39Z"/><path class="cls-7" d="M324.72,325.89Q214.4,193.76,97.24,66.39l53.74.38q68.39,83.09,134.53,167.66-53-83-103.82-167.44l51.18.37Q295,154.29,355,242.49q-47.42-86.82-92.7-174.91l54.38.4Q378.92,211.08,448,350.37q-25.45-4.53-50.86-9.48-47.82-67-97.13-133,37.48,64.92,76.42,128.89Q350.52,331.56,324.72,325.89Z"/><path class="cls-7" d="M593.24,131.91q25.17.59,50.33,1.11,3.78,14,7.57,28-.36-14.75,6.82-22.68c4.8-5.29,11.86-7.86,21.09-7.69q6.16,25.38,12.32,50.77a71.67,71.67,0,0,0-21.69,3c-7.58,2.16-10.9,4.84-10,8.06Q685.84,289.08,712,385.75q-20.52-1.87-41-4Q632.11,256.83,593.24,131.91Z"/><path class="cls-7" d="M787.6,391.7,727.27,90.2q38.88.4,77.77.75,24.15,92.89,45.6,186.13-2.79-92.71-2.85-185.75,39.18.35,78.37.63l19,306.29q-18.46-.31-36.95-.83Q897.9,287.23,887.57,177q-3.51,110-2.63,219.64-18.12-.65-36.22-1.5Q820.42,285,787.46,175.39L824,393.92Q805.81,392.92,787.6,391.7Z"/><path class="cls-7" d="M992.55,120.24q-.39-21.75-.77-43.5l52.5.35q-.37,21.71-.76,43.41Q1018,120.4,992.55,120.24Zm4.89,278.44-4.59-261q25.18.14,50.37.23-2.29,130.25-4.58,260.48Q1018,398.69,997.44,398.68Z"/><path class="cls-7" d="M1106.24,138.07q25.17,0,50.35,0-1.59,16.38-3.2,32.76,4.63-15.87,13.4-25.74a28.09,28.09,0,0,1,21.8-9.89c14.22,0,24.07,5.24,29.28,15.77s6.25,25.53,3.29,45l-29.79,196.79q-20.23,1.23-40.46,2.21,11-96,22.09-192c.65-5.62.33-10.4-1-14.37s-3.82-5.93-7.54-5.89q-7.53.06-10.75,8.7c-2.15,5.77-3.67,13.47-4.61,23.09q-8.86,90.69-17.74,181.39-20.6.87-41.19,1.47Z"/><path class="cls-7" d="M1296,120.57q4.18-21,8.35-42l52.5.26q-5,20.73-9.89,41.47Q1321.52,120.47,1296,120.57Zm-53.42,268.67,50.07-251.81q25.17-.19,50.34-.45-29.65,124.41-59.3,248.82Q1263.17,387.65,1242.61,389.24Z"/><path class="cls-7" d="M1354.82,307.71l28.34-98.24c6.68-23.17,17.36-41.78,32.56-55.62s32.83-20.8,52.43-21.08,32.65,6.15,38.61,19.06,4.26,30.34-4.65,52.5l-37.73,94c-19.7,48.22-46.42,74.94-80.25,79.33S1340.49,358.36,1354.82,307.71Zm53.74,20.08a45.76,45.76,0,0,0,7.17-13.61q20.64-58.35,41.29-116.71,7.39-20.85-4-20.5t-18.41,21.39L1395.43,316q-2.84,8.55-2,13.24c.52,3.13,2.49,4.52,5.89,4.17S1405.78,331.22,1408.56,327.79Z"/><path class="cls-7" d="M1592,133.07q25.14-.54,50.28-1.14l-14.61,28.26A99.67,99.67,0,0,1,1650,137.71c8.12-5.78,16.56-8.74,25.2-9,14.2-.33,22.16,3.91,23.62,12.59s-2.83,21.13-12.7,37.48l-99.43,165q-20,3.75-40,7.24l89.26-164.19c2.61-4.81,4-8.86,4.06-12.18s-1.73-4.9-5.43-4.73c-5,.23-9.59,2.85-13.73,7.88a115.2,115.2,0,0,0-12.63,20l-80.87,156.51q-20.4,3.42-40.82,6.59Q1539.25,247,1592,133.07Z"/><path class="cls-7" d="M1674.37,274.9l11.34-16.38q22.07-2.88,44.12-5.94L1712.49,276q-5.33,7.08-5.66,10.33c-.23,2.17,1.49,2.91,5.19,2.24q8.43-1.53,20.44-16.79c5.9-7.5,9.17-13.17,9.76-17.07a17.82,17.82,0,0,0-2.69-11.94q-4.46-8.24-9.41-16.89a27.48,27.48,0,0,1-3.19-19.54c1.36-7,6.57-17.39,15.75-30.91a107.87,107.87,0,0,1,26.59-27.26,126.75,126.75,0,0,1,34-17.41,124.31,124.31,0,0,1,35.34-6.49q61.62-1.64,13.72,52.55l-3.13,3.6q-24.45,2.13-48.91,4.12l5.89-7.5q5.46-7,7-11.77t-4-4.49a20.54,20.54,0,0,0-9.78,3.31,31.93,31.93,0,0,0-8.46,7.91c-5.45,7.26-6.86,12.69-4.32,16.19q6.38,9.48,12.11,18.42c4,6.5,4.86,13.7,2.68,21.71s-9.15,18.52-20.67,31.71a251.67,251.67,0,0,1-48.82,43.34c-17.14,11.51-33.45,19.3-49.44,22.86C1649.32,333.75,1646.59,316.38,1674.37,274.9Z"/><ellipse class="cls-8" cx="89.5" cy="751" rx="54" ry="111.5"/><circle class="cls-9" cx="520.57" cy="266.97" r="78.86"/><polygon class="cls-10" points="497.89 233.77 506.47 262.34 464.33 259.43 464.33 259.43 497.89 233.77"/><path class="cls-11" d="M438.79,252.46a76.65,76.65,0,0,1,149.62-33.4"/><path class="cls-12" d="M543.67,342.61,534,344.77c-5-42-7.28-80.43-19.72-108.59l9.68-2.17C536.67,260.33,538.65,299.79,543.67,342.61Z"/><rect class="cls-1" x="983" y="65" width="76" height="61"/><path class="cls-13" d="M1064.44,82.51c-2.36,19-23.86,38.26-51.32,36.08-24-1.92-41.72-22.32-39.56-44.87,5.42-56.56,29.72-38.82,49.5-39.46C1038.3,33.77,1071.44,26.32,1064.44,82.51Z"/><path class="cls-14" d="M1036.71,19l-1.27-8.28c-8.86,10-16,13.58-20.33,28.23l9.35.87C1021.17,30.43,1017.52,40,1036.71,19Z"/><path class="cls-6" d="M1021.23,68.13h-.3c-3.2-.3-5.38-5.23-4.84-11,.51-5.47,3.42-9.92,6.49-9.92l.3,0c1.5.13,2.83,1.32,3.76,3.33a15.28,15.28,0,0,1,1.08,7.65C1027.21,63.68,1024.3,68.13,1021.23,68.13Z"/><path d="M1022.58,47.71h.25c2.88.27,4.9,5.05,4.39,10.45-.48,5.22-3.17,9.46-6,9.46H1021c-1.32-.12-2.51-1.2-3.35-3a14.85,14.85,0,0,1-1-7.4c.49-5.22,3.18-9.47,6-9.47m0-1c-3.36,0-6.45,4.53-7,10.38-.56,6,1.81,11.2,5.3,11.53h.34c3.36,0,6.45-4.53,7-10.37.56-6-1.81-11.21-5.3-11.53l-.34,0Z"/><ellipse class="cls-3" cx="1033.22" cy="56.56" rx="11.71" ry="6.09" transform="translate(881.26 1080.11) rotate(-84.69)"/><ellipse class="cls-15" cx="1023.66" cy="57.96" rx="3.7" ry="2.54" transform="translate(871.2 1071.86) rotate(-84.69)"/><ellipse class="cls-15" cx="1034.34" cy="58.23" rx="3.94" ry="2.54" transform="translate(880.61 1082.73) rotate(-84.69)"/><path class="cls-16" d="M1052.35,80.74c.1,12.28-12.06,18.31-25.08,18.68s-23.57-4.75-23.78-17.26"/><rect class="cls-1" x="1292" y="70" width="76" height="58"/><path class="cls-13" d="M1373.46,83.42c-3.21,18.86-25.55,37.16-52.89,33.73-23.86-3-40.67-24.17-37.49-46.6,8-56.25,31.43-37.44,51.22-37.19C1349.55,33.56,1383,27.61,1373.46,83.42Z"/><path class="cls-14" d="M1348.63,18.7l-.9-8.32c-9.3,9.63-16.58,12.84-21.58,27.28l9.3,1.29C1332.58,29.45,1328.51,38.89,1348.63,18.7Z"/><path class="cls-6" d="M1331.09,67.12l-.44,0c-3.19-.44-5.14-5.46-4.35-11.19.75-5.4,3.73-9.62,6.79-9.62a3.25,3.25,0,0,1,.44,0c3.19.44,5.14,5.46,4.35,11.19C1337.13,62.9,1334.15,67.12,1331.09,67.12Z"/><path d="M1333.09,46.78h0a2.3,2.3,0,0,1,.37,0c1.31.18,2.45,1.32,3.21,3.19a14.76,14.76,0,0,1,.71,7.44c-.7,5.07-3.52,9.19-6.29,9.19l-.37,0c-1.31-.19-2.45-1.32-3.21-3.19a14.78,14.78,0,0,1-.71-7.44c.7-5.07,3.52-9.19,6.29-9.19m0-1c-3.3,0-6.49,4.33-7.28,10-.84,6,1.3,11.28,4.77,11.76l.51,0c3.3,0,6.49-4.33,7.28-10.05.84-6-1.3-11.28-4.77-11.76a4.36,4.36,0,0,0-.51,0Z"/><ellipse class="cls-3" cx="1343.44" cy="56.1" rx="11.71" ry="6.09" transform="translate(1103.38 1379.11) rotate(-82.11)"/><ellipse class="cls-15" cx="1333.83" cy="57.06" rx="3.7" ry="2.54" transform="translate(1094.14 1370.42) rotate(-82.11)"/><ellipse class="cls-15" cx="1344.49" cy="57.81" rx="3.94" ry="2.54" transform="translate(1102.58 1381.62) rotate(-82.11)"/><path class="cls-17" d="M1361.47,81.12c-.46,12.27-12.88,17.75-25.9,17.53s-23.34-5.81-23-18.32"/><path class="cls-1" d="M335.52,586.61c-1-1.16-2.72,1.72-2.43.14.22-1.15-5.45,30.06-11,24.27-4.26-4.44-16.79-13.41-19.42-9.22-.35.57.52,2.37-.64,3.57a3.48,3.48,0,0,1-2.14.86c-1,.07-1.35-.35-2.21-.36-1.31,0-1.82.94-3.07,1.64-2.69,1.51-5.8.17-5.93.71s2.56.92,3.21,2.86c.35,1-.2,1.58.15,2.43.65,1.59,3.68.54,4.49,1.93.52.88,0,2.36-.78,3.21-1.36,1.43-3.23.72-7,1.14-4,.44-7.35,1.84-7.28,2.49s3.47.27,4,1.72c.36,1-.9,2.32-1.08,2.5-2.24,2.27-5.23.71-7.49,3-.16.16-1.44,1.49-1.07,2.5.44,1.21,2.82.8,3.14,1.64.71,1.87-9.56,7.34-9.14,8.21.32.66,6.5-2.33,8.14-.36.71.86-.07,1.91.64,2.64,1.65,1.74,7.51-2.34,8.71-1,1,1.11-2.26,4.7-1.5,5.57,1.44,1.64,15.09-8.94,16.49-7.42s-10.42,13.92-8.43,16.2c.77.88,2.82-.7,4.28.35,3.29,2.36-1.6,14.16-.36,14.64.61.23,1.76-2.56,2.79-2.36,2.08.4.5,12.44,2.7,13s6.73-11.3,9-10.63c1,.31.78,2.92,1.64,3.07,1.76.3,3.53-10.46,7.29-10.78,2.53-.21,4.18,4.48,5.35,4.07,2.36-.81-2.22-20.72-1.71-20.84s3.67,14.7,6.21,14.49c1.68-.14,2.32-6.86,3.5-6.78s1,7.07,3,7.5c1.59.33,2.53-3.78,5.36-4.21,3.67-.56,6.75,5.7,8.2,5,1.92-.93-2.68-12.23.51-14.28,1.25-.8,3.09.21,3.49-.57.64-1.22-3.84-3.73-3.28-6.14.38-1.61,2.61-1.42,3-2.85.78-2.9-7.76-5.91-7.28-9.93.2-1.61,1.84-3.33,3.22-3.35,1.08,0,1.73,1,2.35.72s0-1.74.79-3.22c1-1.89,3.48-2.26,3.64-2.28a7.48,7.48,0,0,1,3.07.43c.1-.25-10.75-3-11.56-8.21-.23-1.48.54-1.85.07-2.93-1.27-2.9-7.76-2.19-16.63-1.22a7.81,7.81,0,0,0-4.64,1.86,6.86,6.86,0,0,0-1.36,1.78S340.26,592,335.52,586.61Z"/><path class="cls-1" d="M505.52,718.61c-1-1.16-2.72,1.72-2.43.14.22-1.15-5.45,30.06-11,24.27-4.26-4.44-16.79-13.41-19.42-9.22-.35.57.52,2.37-.64,3.57a3.48,3.48,0,0,1-2.14.86c-1,.07-1.35-.35-2.21-.36-1.31,0-1.82.94-3.07,1.64-2.69,1.51-5.8.17-5.93.71s2.56.92,3.21,2.86c.35,1-.2,1.58.15,2.43.65,1.59,3.68.54,4.49,1.93.52.88,0,2.36-.78,3.21-1.36,1.43-3.23.72-7,1.14-4,.44-7.35,1.84-7.28,2.49s3.47.27,4,1.72c.36,1-.9,2.32-1.08,2.5-2.24,2.27-5.23.71-7.49,3-.16.16-1.44,1.49-1.07,2.5.44,1.21,2.82.8,3.14,1.64.71,1.87-9.56,7.34-9.14,8.21.32.66,6.5-2.33,8.14-.36.71.86-.07,1.91.64,2.64,1.65,1.74,7.51-2.34,8.71-1,1,1.11-2.26,4.7-1.5,5.57,1.44,1.64,15.09-8.94,16.49-7.42s-10.42,13.92-8.43,16.2c.77.88,2.82-.7,4.28.35,3.29,2.36-1.6,14.16-.36,14.64.61.23,1.76-2.56,2.79-2.36,2.08.4.5,12.44,2.7,13s6.73-11.3,9-10.63c1,.31.78,2.92,1.64,3.07,1.76.3,3.53-10.46,7.29-10.78,2.53-.21,4.18,4.48,5.35,4.07,2.36-.81-2.22-20.72-1.71-20.84s3.67,14.7,6.21,14.49c1.68-.14,2.32-6.86,3.5-6.78s1,7.07,3,7.5c1.59.33,2.53-3.78,5.36-4.21,3.67-.56,6.75,5.7,8.2,5,1.92-.93-2.68-12.23.51-14.28,1.25-.8,3.09.21,3.49-.57.64-1.22-3.84-3.73-3.28-6.14.38-1.61,2.61-1.42,3-2.85.78-2.9-7.76-5.91-7.28-9.93.2-1.61,1.84-3.33,3.22-3.35,1.08,0,1.73,1,2.35.72s0-1.74.79-3.22c1-1.89,3.48-2.26,3.64-2.28a7.48,7.48,0,0,1,3.07.43c.1-.25-10.75-3-11.56-8.21-.23-1.48.54-1.85.07-2.93-1.27-2.9-7.76-2.19-16.63-1.22a7.81,7.81,0,0,0-4.64,1.86,6.86,6.86,0,0,0-1.36,1.78S510.26,724,505.52,718.61Z"/><path class="cls-1" d="M343.52,908.61c-1-1.16-2.72,1.72-2.43.14.22-1.15-5.45,30.06-11,24.27-4.26-4.44-16.79-13.41-19.42-9.22-.35.57.52,2.37-.64,3.57a3.48,3.48,0,0,1-2.14.86c-1,.07-1.35-.35-2.21-.36-1.31,0-1.82.94-3.07,1.64-2.69,1.51-5.8.17-5.93.71s2.56.92,3.21,2.86c.35,1-.2,1.58.15,2.43.65,1.59,3.68.54,4.49,1.93.52.88,0,2.36-.78,3.21-1.36,1.43-3.23.72-7,1.14-4,.44-7.35,1.84-7.28,2.49s3.47.27,4,1.72c.36,1-.9,2.32-1.08,2.5-2.24,2.27-5.23.71-7.49,3-.16.16-1.44,1.49-1.07,2.5.44,1.21,2.82.8,3.14,1.64.71,1.87-9.56,7.34-9.14,8.21.32.66,6.5-2.33,8.14-.36.71.86-.07,1.91.64,2.64,1.65,1.74,7.51-2.34,8.71-1,1,1.11-2.26,4.7-1.5,5.57,1.44,1.64,15.09-8.94,16.49-7.42s-10.42,13.92-8.43,16.2c.77.88,2.82-.7,4.28.35,3.29,2.36-1.6,14.16-.36,14.64.61.23,1.76-2.56,2.79-2.36,2.08.4.5,12.44,2.7,13s6.73-11.3,9-10.63c1,.31.78,2.92,1.64,3.07,1.76.3,3.53-10.46,7.29-10.78,2.53-.21,4.18,4.48,5.35,4.07,2.36-.81-2.22-20.72-1.71-20.84s3.67,14.7,6.21,14.49c1.68-.14,2.32-6.86,3.5-6.78s1,7.07,3,7.5c1.59.33,2.53-3.78,5.36-4.21,3.67-.56,6.75,5.7,8.2,5,1.92-.93-2.68-12.23.51-14.28,1.25-.8,3.09.21,3.49-.57.64-1.22-3.84-3.73-3.28-6.14.38-1.61,2.61-1.42,3-2.85.78-2.9-7.76-5.91-7.28-9.93.2-1.61,1.84-3.33,3.22-3.35,1.08,0,1.73,1,2.35.72s0-1.74.79-3.22c1-1.89,3.48-2.26,3.64-2.28a7.48,7.48,0,0,1,3.07.43c.1-.25-10.75-3-11.56-8.21-.23-1.48.54-1.85.07-2.93-1.27-2.9-7.76-2.19-16.63-1.22a7.81,7.81,0,0,0-4.64,1.86,6.86,6.86,0,0,0-1.36,1.78S348.26,914,343.52,908.61Z"/><path class="cls-1" d="M688.52,616.61c-1-1.16-2.72,1.72-2.43.14.22-1.15-5.45,30.06-11,24.27-4.26-4.44-16.79-13.41-19.42-9.22-.35.57.52,2.37-.64,3.57a3.48,3.48,0,0,1-2.14.86c-1,.07-1.35-.35-2.21-.36-1.31,0-1.82.94-3.07,1.64-2.69,1.51-5.8.17-5.93.71s2.56.92,3.21,2.86c.35,1-.2,1.58.15,2.43.65,1.59,3.68.54,4.49,1.93.52.88,0,2.36-.78,3.21-1.36,1.43-3.23.72-7,1.14-4,.44-7.35,1.84-7.28,2.49s3.47.27,4,1.72c.36,1-.9,2.32-1.08,2.5-2.24,2.27-5.23.71-7.49,3-.16.16-1.44,1.49-1.07,2.5.44,1.21,2.82.8,3.14,1.64.71,1.87-9.56,7.34-9.14,8.21.32.66,6.5-2.33,8.14-.36.71.86-.07,1.91.64,2.64,1.65,1.74,7.51-2.34,8.71-1,1,1.11-2.26,4.7-1.5,5.57,1.44,1.64,15.09-8.94,16.49-7.42s-10.42,13.92-8.43,16.2c.77.88,2.82-.7,4.28.35,3.29,2.36-1.6,14.16-.36,14.64.61.23,1.76-2.56,2.79-2.36,2.08.4.5,12.44,2.7,13s6.73-11.3,9-10.63c1,.31.78,2.92,1.64,3.07,1.76.3,3.53-10.46,7.29-10.78,2.53-.21,4.18,4.48,5.35,4.07,2.36-.81-2.22-20.72-1.71-20.84s3.67,14.7,6.21,14.49c1.68-.14,2.32-6.86,3.5-6.78s1,7.07,3,7.5c1.59.33,2.53-3.78,5.36-4.21,3.67-.56,6.75,5.7,8.2,5,1.92-.93-2.68-12.23.51-14.28,1.25-.8,3.09.21,3.49-.57.64-1.22-3.84-3.73-3.28-6.14.38-1.61,2.61-1.42,3-2.85.78-2.9-7.76-5.91-7.28-9.93.2-1.61,1.84-3.33,3.22-3.35,1.08,0,1.73,1,2.35.72s0-1.74.79-3.22c1-1.89,3.48-2.26,3.64-2.28a7.48,7.48,0,0,1,3.07.43c.1-.25-10.75-3-11.56-8.21-.23-1.48.54-1.85.07-2.93-1.27-2.9-7.76-2.19-16.63-1.22a7.81,7.81,0,0,0-4.64,1.86,6.86,6.86,0,0,0-1.36,1.78S693.26,622,688.52,616.61Z"/><path class="cls-1" d="M1209.52,586.61c-1-1.16-2.72,1.72-2.43.14.22-1.15-5.45,30.06-11,24.27-4.26-4.44-16.79-13.41-19.42-9.22-.35.57.52,2.37-.64,3.57a3.48,3.48,0,0,1-2.14.86c-1.05.07-1.35-.35-2.21-.36-1.31,0-1.82.94-3.07,1.64-2.69,1.51-5.8.17-5.93.71s2.56.92,3.21,2.86c.35,1-.2,1.58.15,2.43.65,1.59,3.68.54,4.49,1.93.52.88,0,2.36-.78,3.21-1.36,1.43-3.23.72-7,1.14-4,.44-7.35,1.84-7.28,2.49s3.47.27,4,1.72c.36,1-.9,2.32-1.08,2.5-2.24,2.27-5.23.71-7.49,3-.16.16-1.44,1.49-1.07,2.5.44,1.21,2.82.8,3.14,1.64.71,1.87-9.56,7.34-9.14,8.21.32.66,6.5-2.33,8.14-.36.71.86-.07,1.91.64,2.64,1.65,1.74,7.51-2.34,8.71-1,1,1.11-2.26,4.7-1.5,5.57,1.44,1.64,15.09-8.94,16.49-7.42s-10.42,13.92-8.43,16.2c.77.88,2.82-.7,4.28.35,3.29,2.36-1.6,14.16-.36,14.64.61.23,1.76-2.56,2.79-2.36,2.08.4.5,12.44,2.7,13s6.73-11.3,9-10.63c1,.31.78,2.92,1.64,3.07,1.76.3,3.53-10.46,7.29-10.78,2.53-.21,4.18,4.48,5.35,4.07,2.36-.81-2.22-20.72-1.71-20.84s3.67,14.7,6.21,14.49c1.68-.14,2.32-6.86,3.5-6.78s1,7.07,3,7.5c1.59.33,2.53-3.78,5.36-4.21,3.67-.56,6.75,5.7,8.2,5,1.92-.93-2.68-12.23.51-14.28,1.25-.8,3.09.21,3.49-.57.64-1.22-3.84-3.73-3.28-6.14.38-1.61,2.61-1.42,3-2.85.78-2.9-7.76-5.91-7.28-9.93.2-1.61,1.84-3.33,3.22-3.35,1.08,0,1.73,1,2.35.72s0-1.74.79-3.22c1-1.89,3.48-2.26,3.64-2.28a7.48,7.48,0,0,1,3.07.43c.1-.25-10.75-3-11.56-8.21-.23-1.48.54-1.85.07-2.93-1.27-2.9-7.76-2.19-16.63-1.22a7.81,7.81,0,0,0-4.64,1.86,6.86,6.86,0,0,0-1.36,1.78S1214.26,592,1209.52,586.61Z"/><path class="cls-1" d="M1270.52,860.61c-1-1.16-2.72,1.72-2.43.14.22-1.15-5.45,30.06-11,24.27-4.26-4.44-16.79-13.41-19.42-9.22-.35.57.52,2.37-.64,3.57a3.48,3.48,0,0,1-2.14.86c-1.05.07-1.35-.35-2.21-.36-1.31,0-1.82.94-3.07,1.64-2.69,1.51-5.8.17-5.93.71s2.56.92,3.21,2.86c.35,1-.2,1.58.15,2.43.65,1.59,3.68.54,4.49,1.93.52.88,0,2.36-.78,3.21-1.36,1.43-3.23.72-7,1.14-4,.44-7.35,1.84-7.28,2.49s3.47.27,4,1.72c.36,1-.9,2.32-1.08,2.5-2.24,2.27-5.23.71-7.49,3-.16.16-1.44,1.49-1.07,2.5.44,1.21,2.82.8,3.14,1.64.71,1.87-9.56,7.34-9.14,8.21.32.66,6.5-2.33,8.14-.36.71.86-.07,1.91.64,2.64,1.65,1.74,7.51-2.34,8.71-1,1,1.11-2.26,4.7-1.5,5.57,1.44,1.64,15.09-8.94,16.49-7.42s-10.42,13.92-8.43,16.2c.77.88,2.82-.7,4.28.35,3.29,2.36-1.6,14.16-.36,14.64.61.23,1.76-2.56,2.79-2.36,2.08.4.5,12.44,2.7,13s6.73-11.3,9-10.63c1,.31.78,2.92,1.64,3.07,1.76.3,3.53-10.46,7.29-10.78,2.53-.21,4.18,4.48,5.35,4.07,2.36-.81-2.22-20.72-1.71-20.84s3.67,14.7,6.21,14.49c1.68-.14,2.32-6.86,3.5-6.78s1,7.07,3,7.5c1.59.33,2.53-3.78,5.36-4.21,3.67-.56,6.75,5.7,8.2,5,1.92-.93-2.68-12.23.51-14.28,1.25-.8,3.09.21,3.49-.57.64-1.22-3.84-3.73-3.28-6.14.38-1.61,2.61-1.42,3-2.85.78-2.9-7.76-5.91-7.28-9.93.2-1.61,1.84-3.33,3.22-3.35,1.08,0,1.73,1,2.35.72s0-1.74.79-3.22c1-1.89,3.48-2.26,3.64-2.28a7.48,7.48,0,0,1,3.07.43c.1-.25-10.75-3-11.56-8.21-.23-1.48.54-1.85.07-2.93-1.27-2.9-7.76-2.19-16.63-1.22a7.81,7.81,0,0,0-4.64,1.86,6.86,6.86,0,0,0-1.36,1.78S1275.26,866,1270.52,860.61Z"/><path class="cls-1" d="M1459.52,629.61c-1-1.16-2.72,1.72-2.43.14.22-1.15-5.45,30.06-11,24.27-4.26-4.44-16.79-13.41-19.42-9.22-.35.57.52,2.37-.64,3.57a3.48,3.48,0,0,1-2.14.86c-1.05.07-1.35-.35-2.21-.36-1.31,0-1.82.94-3.07,1.64-2.69,1.51-5.8.17-5.93.71s2.56.92,3.21,2.86c.35,1-.2,1.58.15,2.43.65,1.59,3.68.54,4.49,1.93.52.88,0,2.36-.78,3.21-1.36,1.43-3.23.72-7,1.14-4,.44-7.35,1.84-7.28,2.49s3.47.27,4,1.72c.36,1-.9,2.32-1.08,2.5-2.24,2.27-5.23.71-7.49,3-.16.16-1.44,1.49-1.07,2.5.44,1.21,2.82.8,3.14,1.64.71,1.87-9.56,7.34-9.14,8.21.32.66,6.5-2.33,8.14-.36.71.86-.07,1.91.64,2.64,1.65,1.74,7.51-2.34,8.71-1,1,1.11-2.26,4.7-1.5,5.57,1.44,1.64,15.09-8.94,16.49-7.42s-10.42,13.92-8.43,16.2c.77.88,2.82-.7,4.28.35,3.29,2.36-1.6,14.16-.36,14.64.61.23,1.76-2.56,2.79-2.36,2.08.4.5,12.44,2.7,13s6.73-11.3,9-10.63c1,.31.78,2.92,1.64,3.07,1.76.3,3.53-10.46,7.29-10.78,2.53-.21,4.18,4.48,5.35,4.07,2.36-.81-2.22-20.72-1.71-20.84s3.67,14.7,6.21,14.49c1.68-.14,2.32-6.86,3.5-6.78s1,7.07,3,7.5c1.59.33,2.53-3.78,5.36-4.21,3.67-.56,6.75,5.7,8.2,5,1.92-.93-2.68-12.23.51-14.28,1.25-.8,3.09.21,3.49-.57.64-1.22-3.84-3.73-3.28-6.14.38-1.61,2.61-1.42,3-2.85.78-2.9-7.76-5.91-7.28-9.93.2-1.61,1.84-3.33,3.22-3.35,1.08,0,1.73,1,2.35.72s0-1.74.79-3.22c1-1.89,3.48-2.26,3.64-2.28a7.48,7.48,0,0,1,3.07.43c.1-.25-10.75-3-11.56-8.21-.23-1.48.54-1.85.07-2.93-1.27-2.9-7.76-2.19-16.63-1.22a7.81,7.81,0,0,0-4.64,1.86,6.86,6.86,0,0,0-1.36,1.78S1464.26,635,1459.52,629.61Z"/><path class="cls-1" d="M1607.52,903.61c-1-1.16-2.72,1.72-2.43.14.22-1.15-5.45,30.06-11,24.27-4.26-4.44-16.79-13.41-19.42-9.22-.35.57.52,2.37-.64,3.57a3.48,3.48,0,0,1-2.14.86c-1.05.07-1.35-.35-2.21-.36-1.31,0-1.82.94-3.07,1.64-2.69,1.51-5.8.17-5.93.71s2.56.92,3.21,2.86c.35,1-.2,1.58.15,2.43.65,1.59,3.68.54,4.49,1.93.52.88,0,2.36-.78,3.21-1.36,1.43-3.23.72-7,1.14-4,.44-7.35,1.84-7.28,2.49s3.47.27,4,1.72c.36,1-.9,2.32-1.08,2.5-2.24,2.27-5.23.71-7.49,3-.16.16-1.44,1.49-1.07,2.5.44,1.21,2.82.8,3.14,1.64.71,1.87-9.56,7.34-9.14,8.21.32.66,6.5-2.33,8.14-.36.71.86-.07,1.91.64,2.64,1.65,1.74,7.51-2.34,8.71-1,1,1.11-2.26,4.7-1.5,5.57,1.44,1.64,15.09-8.94,16.49-7.42s-10.42,13.92-8.43,16.2c.77.88,2.82-.7,4.28.35,3.29,2.36-1.6,14.16-.36,14.64.61.23,1.76-2.56,2.79-2.36,2.08.4.5,12.44,2.7,13s6.73-11.3,9-10.63c1,.31.78,2.92,1.64,3.07,1.76.3,3.53-10.46,7.29-10.78,2.53-.21,4.18,4.48,5.35,4.07,2.36-.81-2.22-20.72-1.71-20.84s3.67,14.7,6.21,14.49c1.68-.14,2.32-6.86,3.5-6.78s1,7.07,3,7.5c1.59.33,2.53-3.78,5.36-4.21,3.67-.56,6.75,5.7,8.2,5,1.92-.93-2.68-12.23.51-14.28,1.25-.8,3.09.21,3.49-.57.64-1.22-3.84-3.73-3.28-6.14.38-1.61,2.61-1.42,3-2.85.78-2.9-7.76-5.91-7.28-9.93.2-1.61,1.84-3.33,3.22-3.35,1.08,0,1.73,1,2.35.72s0-1.74.79-3.22c1-1.89,3.48-2.26,3.64-2.28a7.48,7.48,0,0,1,3.07.43c.1-.25-10.75-3-11.56-8.21-.23-1.48.54-1.85.07-2.93-1.27-2.9-7.76-2.19-16.63-1.22a7.81,7.81,0,0,0-4.64,1.86,6.86,6.86,0,0,0-1.36,1.78S1612.26,909,1607.52,903.61Z"/><path class="cls-1" d="M1692.52,589.61c-1-1.16-2.72,1.72-2.43.14.22-1.15-5.45,30.06-11,24.27-4.26-4.44-16.79-13.41-19.42-9.22-.35.57.52,2.37-.64,3.57a3.48,3.48,0,0,1-2.14.86c-1.05.07-1.35-.35-2.21-.36-1.31,0-1.82.94-3.07,1.64-2.69,1.51-5.8.17-5.93.71s2.56.92,3.21,2.86c.35,1-.2,1.58.15,2.43.65,1.59,3.68.54,4.49,1.93.52.88,0,2.36-.78,3.21-1.36,1.43-3.23.72-7,1.14-4,.44-7.35,1.84-7.28,2.49s3.47.27,4,1.72c.36,1-.9,2.32-1.08,2.5-2.24,2.27-5.23.71-7.49,3-.16.16-1.44,1.49-1.07,2.5.44,1.21,2.82.8,3.14,1.64.71,1.87-9.56,7.34-9.14,8.21.32.66,6.5-2.33,8.14-.36.71.86-.07,1.91.64,2.64,1.65,1.74,7.51-2.34,8.71-1,1,1.11-2.26,4.7-1.5,5.57,1.44,1.64,15.09-8.94,16.49-7.42s-10.42,13.92-8.43,16.2c.77.88,2.82-.7,4.28.35,3.29,2.36-1.6,14.16-.36,14.64.61.23,1.76-2.56,2.79-2.36,2.08.4.5,12.44,2.7,13s6.73-11.3,9-10.63c1,.31.78,2.92,1.64,3.07,1.76.3,3.53-10.46,7.29-10.78,2.53-.21,4.18,4.48,5.35,4.07,2.36-.81-2.22-20.72-1.71-20.84s3.67,14.7,6.21,14.49c1.68-.14,2.32-6.86,3.5-6.78s1,7.07,3,7.5c1.59.33,2.53-3.78,5.36-4.21,3.67-.56,6.75,5.7,8.2,5,1.92-.93-2.68-12.23.51-14.28,1.25-.8,3.09.21,3.49-.57.64-1.22-3.84-3.73-3.28-6.14.38-1.61,2.61-1.42,3-2.85.78-2.9-7.76-5.91-7.28-9.93.2-1.61,1.84-3.33,3.22-3.35,1.08,0,1.73,1,2.35.72s0-1.74.79-3.22c1-1.89,3.48-2.26,3.64-2.28a7.48,7.48,0,0,1,3.07.43c.1-.25-10.75-3-11.56-8.21-.23-1.48.54-1.85.07-2.93-1.27-2.9-7.76-2.19-16.63-1.22a7.81,7.81,0,0,0-4.64,1.86,6.86,6.86,0,0,0-1.36,1.78S1697.26,595,1692.52,589.61Z"/></svg>
