<svg id="Layer_1" data-name="Layer 1" xmlns="http://www.w3.org/2000/svg" width="1920" height="1080" viewBox="0 0 1920 1080"><defs><style>.cls-1{fill:#ffab00;}.cls-2{fill:#c45f02;stroke:#333;}.cls-10,.cls-2,.cls-3,.cls-7,.cls-8,.cls-9{stroke-miterlimit:10;}.cls-3{font-size:150px;stroke-width:4px;letter-spacing:0.07em;}.cls-10,.cls-3,.cls-6,.cls-7{fill:#fff;}.cls-10,.cls-3,.cls-7,.cls-8,.cls-9{stroke:#000;}.cls-20,.cls-3{font-family:Anton-Regular, Anton;}.cls-4{fill:#e50014;}.cls-5{fill:#8c6239;}.cls-19,.cls-9{fill:none;}.cls-10{stroke-width:2px;}.cls-11{fill:#ff8d1a;}.cls-12{fill:#ff0;}.cls-13{fill:#34c221;}.cls-14{fill:#006837;}.cls-15{fill:#4d4d4d;}.cls-16{fill:#f3b508;}.cls-17{fill:#736357;}.cls-18{fill:#fcee21;}.cls-20{font-size:15.59px;letter-spacing:0.07em;}</style></defs><title>You win</title><rect class="cls-1" x="546" y="330" width="860" height="437"/><path class="cls-2" d="M945,264.94c.28,40.32,23.13,34.2,49.6,31.32,32.94-3.58,46.17-41.82,20.78-73.29-20.23-25.08-45.38-44.43-45.25-42.45C970.48,185.42,944.84,237.05,945,264.94Z"/><path class="cls-2" d="M1013.25,265.86c.63,5.24-11.12,11-26.24,12.77s-27.87-1-28.5-6.21"/><path class="cls-2" d="M1007.22,250.59c.53,4.45-9.44,9.3-22.28,10.84s-23.67-.83-24.21-5.28"/><path class="cls-2" d="M1001.56,235.07c.53,4.45-7.84,9.11-18.69,10.41s-20.09-1.25-20.63-5.7"/><path class="cls-2" d="M993.84,216.52c.53,4.45-5.2,11.71-12.68,12.61s-16.17-2.83-16.7-7.28"/><path class="cls-2" d="M986.88,203.14c.53,4.45-1.18,8.85-8.66,9.75s-11-2-11.54-6.41"/><polygon class="cls-2" points="970.64 180.78 970.41 180.72 988.76 303.77 987.93 297.09 970.64 180.78"/><path class="cls-2" d="M1001.89,262.81c-15,37.4,8.44,40.4,34,47.78,31.83,9.18,58.58-21.19,47-59.94-9.21-30.88-25.15-58.32-25.78-56.43C1055.6,198.87,1012.29,236.93,1001.89,262.81Z"/><path class="cls-2" d="M1064.67,289.52c-1.4,5.09-14.44,5.93-29.11,1.87s-25.43-11.47-24-16.56"/><path class="cls-2" d="M1064.89,273.1c-1.2,4.32-12.27,5-24.73,1.59s-21.59-9.74-20.4-14.06"/><path class="cls-2" d="M1065.53,256.6c-1.19,4.32-10.7,5.46-21.24,2.54s-18.12-8.77-16.92-13.09"/><path class="cls-2" d="M1065.42,236.5c-1.19,4.32-9.25,8.87-16.51,6.86s-13.89-8.74-12.7-13.06"/><path class="cls-2" d="M1064.06,221.49c-1.2,4.32-4.45,7.74-11.71,5.73s-9.44-6-8.25-10.3"/><polygon class="cls-2" points="1057.51 194.64 1057.32 194.5 1027.64 315.31 1029.41 308.82 1057.51 194.64"/><path class="cls-2" d="M1055.08,271.37c-10,39.05,13.64,39,40,42.94,32.76,4.94,55.32-28.66,38.8-65.57-13.16-29.41-32.54-54.53-32.92-52.58C1100,201,1062,244.36,1055.08,271.37Z"/><path class="cls-2" d="M1120.81,289.67c-.73,5.23-13.54,7.76-28.62,5.65s-26.71-8.06-26-13.28"/><path class="cls-2" d="M1118.88,273.36c-.62,4.44-11.5,6.59-24.31,4.8s-22.68-6.84-22.06-11.28"/><path class="cls-2" d="M1117.37,256.91c-.62,4.44-9.9,6.81-20.73,5.3s-19.11-6.34-18.49-10.78"/><path class="cls-2" d="M1114.64,237c-.62,4.44-8,10-15.48,9s-14.91-6.86-14.29-11.29"/><path class="cls-2" d="M1111.32,222.3c-.62,4.44-3.4,8.25-10.86,7.21s-10.14-4.7-9.52-9.14"/><polygon class="cls-2" points="1101.33 196.53 1101.12 196.42 1087.46 320.07 1088.37 313.4 1101.33 196.53"/><path class="cls-2" d="M1117.49,278.16c-13.55,38,10,40,35.87,46.41,32.18,7.91,57.71-23.49,44.63-61.75-10.42-30.49-27.43-57.28-28-55.37C1168.64,212.16,1126.87,251.89,1117.49,278.16Z"/><path class="cls-2" d="M1181.28,302.38c-1.21,5.14-14.2,6.49-29,3s-25.86-10.46-24.66-15.6"/><path class="cls-2" d="M1180.84,286c-1,4.36-12,5.51-24.64,2.56s-22-8.88-20.94-13.25"/><path class="cls-2" d="M1180.84,269.45c-1,4.36-10.48,5.88-21.13,3.38s-18.44-8.06-17.42-12.42"/><path class="cls-2" d="M1179.94,249.38c-1,4.36-8.9,9.22-16.23,7.5s-14.22-8.19-13.2-12.55"/><path class="cls-2" d="M1178,234.43c-1,4.36-4.14,7.91-11.47,6.19s-9.67-5.61-8.65-10"/><polygon class="cls-2" points="1170.38 207.86 1170.19 207.72 1145.29 329.62 1146.8 323.05 1170.38 207.86"/><path class="cls-2" d="M713.78,295.26c9.56,39.16,30.39,27.93,55.47,19,31.23-11.08,35.29-51.35,3.32-76.11-25.47-19.74-54.4-32.76-53.82-30.86C720.2,212,707.16,268.16,713.78,295.26Z"/><path class="cls-2" d="M780.37,280.41c1.82,5-8.29,13.23-22.58,18.48s-27.35,5.48-29.17.53"/><path class="cls-2" d="M771,266.94c1.55,4.21-7,11.23-19.17,15.69s-23.23,4.66-24.78.45"/><path class="cls-2" d="M761.89,253.14c1.55,4.21-5.52,10.68-15.78,14.45s-19.84,3.41-21.39-.79"/><path class="cls-2" d="M750.1,236.88c1.55,4.2-2.35,12.59-9.43,15.19s-16.38,1-17.92-3.23"/><path class="cls-2" d="M740.25,225.47c1.54,4.21.89,8.88-6.18,11.48s-11.16.63-12.7-3.58"/><polygon class="cls-2" points="719.29 207.46 719.05 207.45 765.29 322.95 762.94 316.63 719.29 207.46"/><path class="cls-2" d="M768.62,280.06c-6,39.86,17.53,37.37,44.12,38.64,33.09,1.59,52.12-34.13,31.93-69.17-16.09-27.92-37.93-50.94-38.1-49C806.13,205.45,772.77,252.48,768.62,280.06Z"/><path class="cls-2" d="M835.87,291.57c-.2,5.28-12.69,9.1-27.9,8.53s-27.39-5.29-27.19-10.57"/><path class="cls-2" d="M832.29,275.54c-.17,4.48-10.78,7.73-23.69,7.25s-23.26-4.49-23.1-9"/><path class="cls-2" d="M829.11,259.33c-.17,4.48-9.16,7.79-20.09,7.38s-19.65-4.36-19.48-8.84"/><path class="cls-2" d="M824.37,239.81c-.17,4.48-7,10.76-14.49,10.48s-15.53-5.3-15.36-9.78"/><path class="cls-2" d="M819.57,225.52c-.16,4.48-2.54,8.55-10.06,8.28s-10.57-3.65-10.41-8.13"/><polygon class="cls-2" points="807.01 200.9 806.79 200.81 805.78 325.21 806 318.48 807.01 200.9"/><path class="cls-2" d="M822.35,276.12c-.75,40.31,22.25,34.77,48.78,32.56,33-2.74,47.22-40.64,22.63-72.74-19.59-25.59-44.24-45.56-44.16-43.58C849.81,197.26,822.87,248.23,822.35,276.12Z"/><path class="cls-2" d="M890.53,278.76c.49,5.26-11.39,10.68-26.55,12.1s-27.85-1.67-28.34-6.93"/><path class="cls-2" d="M884.88,263.34c.43,4.46-9.67,9.06-22.54,10.28s-23.64-1.43-24.06-5.89"/><path class="cls-2" d="M879.62,247.68c.42,4.47-8.06,8.92-19,9.94s-20-1.76-20.47-6.22"/><path class="cls-2" d="M872.37,229c.42,4.46-5.49,11.57-13,12.28s-16.09-3.23-16.51-7.7"/><path class="cls-2" d="M865.75,215.4c.42,4.46-1.4,8.82-8.9,9.52s-11-2.23-11.37-6.7"/><polygon class="cls-2" points="850.08 192.63 849.86 192.57 865.08 316.04 864.43 309.34 850.08 192.63"/><path class="cls-2" d="M884.64,268.33c-4.42,40.07,19,36.65,45.61,36.88,33.13.28,50.73-36.16,29.18-70.37-17.18-27.27-39.9-49.41-40-47.43C919.19,192.31,887.7,240.61,884.64,268.33Z"/><path class="cls-2" d="M952.3,277.19c0,5.28-12.32,9.59-27.55,9.62s-27.57-4.21-27.58-9.49"/><path class="cls-2" d="M948.09,261.31c0,4.49-10.46,8.15-23.39,8.18s-23.42-3.58-23.43-8.06"/><path class="cls-2" d="M944.27,245.24c0,4.48-8.84,8.14-19.78,8.17s-19.8-3.59-19.81-8.07"/><path class="cls-2" d="M938.76,225.92c0,4.48-6.52,11-14.06,11.05S909,232.28,909,227.8"/><path class="cls-2" d="M933.41,211.83c0,4.48-2.2,8.65-9.73,8.67S913,217.27,913,212.79"/><polygon class="cls-2" points="919.89 187.73 919.67 187.64 923.56 311.99 923.51 305.25 919.89 187.73"/><path class="cls-2" d="M1212.2,273.89c-3.25,40.18,20,36.08,46.67,35.53,33.13-.69,49.65-37.64,27.1-71.21-18-26.75-41.33-48.21-41.37-46.23C1244.5,196.89,1214.45,246.09,1212.2,273.89Z"/><path class="cls-2" d="M1280.08,280.76c.17,5.27-12,9.94-27.24,10.43s-27.69-3.41-27.86-8.68"/><path class="cls-2" d="M1275.41,265c.14,4.48-10.22,8.44-23.14,8.85s-23.51-2.89-23.65-7.37"/><path class="cls-2" d="M1271.13,249.06c.14,4.48-8.6,8.4-19.53,8.74s-19.91-3-20-7.48"/><path class="cls-2" d="M1265.06,229.91c.14,4.48-6.21,11.21-13.74,11.45s-15.85-4.22-16-8.7"/><path class="cls-2" d="M1259.29,216c.15,4.48-1.94,8.71-9.47,9s-10.8-2.91-10.94-7.39"/><polygon class="cls-2" points="1245.07 192.28 1244.85 192.21 1252.38 316.38 1252.14 309.65 1245.07 192.28"/><path class="cls-2" d="M1269,276.72c-18.25,35.95,4.87,41,29.71,50.57,30.91,11.93,60.21-16,52.08-55.6-6.48-31.57-20-60.29-20.75-58.47C1328.13,217.72,1281.66,251.85,1269,276.72Z"/><path class="cls-2" d="M1329.25,308.82c-1.85,4.95-14.91,4.64-29.17-.68s-24.33-13.65-22.49-18.59"/><path class="cls-2" d="M1330.89,292.48c-1.57,4.2-12.66,3.94-24.77-.58s-20.66-11.59-19.09-15.79"/><path class="cls-2" d="M1333,276.09c-1.57,4.2-11.14,4.51-21.39.69s-17.28-10.33-15.71-14.53"/><path class="cls-2" d="M1334.62,256.07c-1.57,4.2-10,8-17,5.39s-13.07-9.92-11.5-14.12"/><path class="cls-2" d="M1334.57,241c-1.57,4.2-5.1,7.33-12.16,4.69s-8.88-6.78-7.32-11"/><polygon class="cls-2" points="1330.39 213.68 1330.22 213.52 1290.1 331.28 1292.43 324.96 1330.39 213.68"/><path class="cls-2" d="M1321.28,289.9c-13.4,38,10.18,40,36,46.26,32.21,7.79,57.61-23.71,44.38-61.92-10.54-30.45-27.65-57.17-28.2-55.26C1372.16,223.69,1330.54,263.59,1321.28,289.9Z"/><path class="cls-2" d="M1385.16,313.87c-1.19,5.14-14.17,6.54-29,3.13s-25.9-10.36-24.72-15.5"/><path class="cls-2" d="M1384.66,297.45c-1,4.37-12,5.56-24.64,2.66s-22-8.79-21-13.16"/><path class="cls-2" d="M1384.59,280.94c-1,4.36-10.46,5.92-21.12,3.46s-18.48-8-17.47-12.35"/><path class="cls-2" d="M1383.6,260.87c-1,4.37-8.85,9.26-16.19,7.57s-14.26-8.14-13.25-12.5"/><path class="cls-2" d="M1381.59,245.93c-1,4.37-4.11,7.92-11.45,6.23s-9.69-5.57-8.68-9.93"/><polygon class="cls-2" points="1373.88 219.39 1373.69 219.25 1349.28 341.24 1350.76 334.67 1373.88 219.39"/><path class="cls-2" d="M1382.86,302.11c-16.82,36.65,6.48,40.77,31.68,49.36,31.36,10.7,59.53-18.35,49.85-57.61-7.73-31.28-22.32-59.45-23-57.6C1439.58,240.83,1394.49,276.76,1382.86,302.11Z"/><path class="cls-2" d="M1444.28,331.82c-1.65,5-14.71,5.22-29.17.46s-24.85-12.67-23.2-17.69"/><path class="cls-2" d="M1445.28,315.42c-1.4,4.26-12.49,4.44-24.77.4s-21.1-10.76-19.7-15"/><path class="cls-2" d="M1446.72,299c-1.4,4.26-11,4.94-21.34,1.52s-17.67-9.63-16.27-13.89"/><path class="cls-2" d="M1447.58,278.89c-1.4,4.26-9.67,8.42-16.83,6.06s-13.45-9.4-12-13.65"/><path class="cls-2" d="M1446.93,263.83c-1.4,4.26-4.81,7.52-12,5.17s-9.14-6.43-7.74-10.69"/><polygon class="cls-2" points="1441.68 236.7 1441.5 236.55 1406.05 355.8 1408.13 349.39 1441.68 236.7"/><path class="cls-2" d="M979.19,283.89c6.11,39.85,27.83,30.48,53.6,23.81,32.08-8.32,39.64-48.08,10-75.54-23.65-21.88-51.33-37.38-50.91-35.44C992.86,201.51,975,256.32,979.19,283.89Z"/><path class="cls-2" d="M1046.83,274.92c1.38,5.09-9.42,12.45-24.11,16.43s-27.73,3.08-29.11-2"/><path class="cls-2" d="M1038.65,260.68c1.17,4.32-8,10.57-20.47,13.95s-23.55,2.61-24.72-1.71"/><path class="cls-2" d="M1030.8,246.14c1.17,4.33-6.43,10.15-17,13s-20.06,1.67-21.23-2.66"/><path class="cls-2" d="M1020.47,228.91c1.18,4.32-3.44,12.34-10.71,14.31s-16.41-.46-17.58-4.78"/><path class="cls-2" d="M1011.65,216.68c1.18,4.33.12,8.93-7.15,10.9s-11.18-.35-12.35-4.67"/><polygon class="cls-2" points="992.35 196.91 992.11 196.88 1028.08 315.97 1026.3 309.48 992.35 196.91"/><path class="cls-2" d="M1035.15,273.54c-9.46,39.19,14.2,38.76,40.57,42.35,32.83,4.47,54.9-29.45,37.85-66.12-13.59-29.22-33.33-54.06-33.68-52.1C1079,202.5,1041.69,246.43,1035.15,273.54Z"/><path class="cls-2" d="M1101.14,290.88c-.66,5.24-13.43,7.95-28.54,6.07s-26.82-7.67-26.17-12.91"/><path class="cls-2" d="M1099,274.6c-.56,4.45-11.41,6.76-24.24,5.15s-22.77-6.51-22.22-10.95"/><path class="cls-2" d="M1097.22,258.18c-.56,4.45-9.8,6.95-20.65,5.59s-19.2-6.06-18.64-10.5"/><path class="cls-2" d="M1094.2,238.31c-.56,4.45-7.87,10.12-15.35,9.18s-15-6.64-14.45-11.09"/><path class="cls-2" d="M1090.67,223.66c-.55,4.44-3.28,8.3-10.75,7.36s-10.21-4.55-9.65-9"/><polygon class="cls-2" points="1080.3 198.04 1080.1 197.93 1068.23 321.76 1069.04 315.08 1080.3 198.04"/><path class="cls-2" d="M1089,274.31c-4.27,40.09,19.13,36.58,45.75,36.7,33.14.15,50.59-36.37,28.9-70.5-17.29-27.19-40.1-49.24-40.19-47.26C1123.26,198.15,1092,246.57,1089,274.31Z"/><path class="cls-2" d="M1156.71,282.89c0,5.28-12.28,9.64-27.51,9.74s-27.59-4.1-27.63-9.38"/><path class="cls-2" d="M1152.43,267c0,4.48-10.43,8.18-23.35,8.27s-23.44-3.49-23.46-8"/><path class="cls-2" d="M1148.55,251c0,4.48-8.81,8.18-19.74,8.25s-19.82-3.51-19.85-8"/><path class="cls-2" d="M1143,231.68c0,4.48-6.49,11.06-14,11.1s-15.75-4.62-15.77-9.1"/><path class="cls-2" d="M1137.56,217.61c0,4.48-2.17,8.66-9.7,8.71s-10.72-3.18-10.74-7.67"/><polygon class="cls-2" points="1123.94 193.56 1123.72 193.48 1128.1 317.81 1128.04 311.07 1123.94 193.56"/><path class="cls-2" d="M1151.75,272c-7.9,39.53,15.72,38.17,42.22,40.72,33,3.17,53.69-31.59,35.21-67.56-14.73-28.66-35.43-52.7-35.7-50.73C1192.81,199.27,1157.22,244.64,1151.75,272Z"/><path class="cls-2" d="M1218.38,286.72c-.45,5.26-13.11,8.48-28.28,7.18s-27.1-6.6-26.66-11.86"/><path class="cls-2" d="M1215.57,270.54c-.38,4.47-11.13,7.2-24,6.1s-23-5.61-22.64-10.07"/><path class="cls-2" d="M1213.17,254.2c-.38,4.46-9.52,7.33-20.41,6.4s-19.42-5.3-19-9.76"/><path class="cls-2" d="M1209.37,234.47c-.38,4.46-7.46,10.41-15,9.77s-15.26-6-14.88-10.51"/><path class="cls-2" d="M1205.27,220c-.38,4.47-3,8.42-10.45,7.78s-10.38-4.14-10-8.61"/><polygon class="cls-2" points="1193.9 194.77 1193.69 194.66 1186.71 318.88 1187.25 312.16 1193.9 194.77"/><path class="cls-2" d="M694.14,280.12c4.52,40.06,26.6,31.56,52.62,25.91,32.38-7,41.5-46.46,12.94-75.08-22.77-22.8-49.82-39.39-49.48-37.43C711.07,198.35,691,252.4,694.14,280.12Z"/><path class="cls-2" d="M762.08,273.84c1.18,5.14-9.9,12.06-24.74,15.46s-27.83,2-29-3.17"/><path class="cls-2" d="M754.47,259.28c1,4.37-8.41,10.25-21,13.13s-23.63,1.68-24.63-2.69"/><path class="cls-2" d="M747.21,244.45c1,4.37-6.84,9.88-17.49,12.32s-20.11.87-21.11-3.49"/><path class="cls-2" d="M737.57,226.82c1,4.36-3.93,12.19-11.28,13.87s-16.37-1.1-17.37-5.47"/><path class="cls-2" d="M729.24,214.25c1,4.37-.24,8.92-7.58,10.6s-11.15-.78-12.15-5.15"/><polygon class="cls-2" points="710.74 193.72 710.5 193.69 741.72 314.12 740.2 307.56 710.74 193.72"/><path class="cls-2" d="M750.46,272c-11,38.79,12.65,39.3,38.87,43.93,32.62,5.77,56-27.25,40.44-64.56C817.35,221.62,798.61,196,798.18,198,797.13,202.75,758.08,245.16,750.46,272Z"/><path class="cls-2" d="M815.71,291.94c-.86,5.21-13.73,7.42-28.75,4.93s-26.5-8.72-25.64-13.93"/><path class="cls-2" d="M814.19,275.59c-.73,4.42-11.66,6.3-24.42,4.18s-22.5-7.4-21.77-11.83"/><path class="cls-2" d="M813.09,259.11c-.73,4.42-10.07,6.56-20.85,4.77S773.3,257.06,774,252.64"/><path class="cls-2" d="M810.86,239.14c-.73,4.42-8.26,9.79-15.69,8.56s-14.74-7.23-14-11.65"/><path class="cls-2" d="M807.92,224.35c-.73,4.43-3.6,8.17-11,6.94s-10-4.95-9.29-9.38"/><polygon class="cls-2" points="798.58 198.34 798.38 198.22 781.6 321.5 782.68 314.85 798.58 198.34"/><path class="cls-2" d="M804.26,274.9c-5.85,39.89,17.67,37.31,44.26,38.49,33.1,1.46,52-34.33,31.67-69.29-16.19-27.86-38.11-50.8-38.28-48.82C841.49,200.16,808.31,247.31,804.26,274.9Z"/><path class="cls-2" d="M871.55,286.17c-.17,5.27-12.65,9.14-27.86,8.63s-27.41-5.19-27.24-10.46"/><path class="cls-2" d="M867.91,270.15c-.15,4.48-10.74,7.77-23.66,7.34s-23.28-4.41-23.13-8.89"/><path class="cls-2" d="M864.67,254c-.15,4.48-9.13,7.81-20,7.45s-19.67-4.29-19.52-8.77"/><path class="cls-2" d="M859.86,234.45c-.15,4.48-6.92,10.79-14.45,10.54s-15.55-5.25-15.4-9.73"/><path class="cls-2" d="M855,220.17c-.15,4.48-2.51,8.57-10,8.32s-10.58-3.61-10.43-8.09"/><polygon class="cls-2" points="842.36 195.61 842.14 195.51 841.59 319.92 841.79 313.19 842.36 195.61"/><path class="cls-2" d="M867,275.07c-9.47,39.19,14.19,38.77,40.56,42.37,32.83,4.48,54.91-29.44,37.87-66.11-13.58-29.22-33.31-54.07-33.66-52.11C910.94,204,873.59,248,867,275.07Z"/><path class="cls-2" d="M933,292.43c-.65,5.24-13.43,7.95-28.54,6.06s-26.82-7.67-26.16-12.91"/><path class="cls-2" d="M930.86,276.16c-.56,4.44-11.41,6.75-24.24,5.14s-22.77-6.52-22.21-11"/><path class="cls-2" d="M929.11,259.73c-.55,4.45-9.8,6.95-20.65,5.59s-19.19-6.07-18.64-10.51"/><path class="cls-2" d="M926.1,239.87c-.56,4.44-7.87,10.11-15.35,9.17s-15-6.64-14.45-11.09"/><path class="cls-2" d="M922.58,225.21c-.56,4.44-3.28,8.3-10.76,7.36s-10.2-4.55-9.65-9"/><polygon class="cls-2" points="912.22 199.59 912.01 199.47 900.1 323.31 900.92 316.62 912.22 199.59"/><path class="cls-2" d="M467.38,334.65c13.64,37.94,33.16,24.57,57.17,13.08,29.89-14.32,29.67-54.79-4.73-76-27.41-16.94-57.55-26.84-56.77-25C465,251.18,457.94,308.4,467.38,334.65Z"/><path class="cls-2" d="M532,312.86c2.33,4.74-6.85,14-20.51,20.76s-26.62,8.34-28.95,3.6"/><path class="cls-2" d="M521.28,300.46c2,4-5.82,11.91-17.42,17.62s-22.6,7.08-24.58,3.06"/><path class="cls-2" d="M510.78,287.7c2,4-4.36,11.2-14.17,16s-19.37,5.48-21.35,1.46"/><path class="cls-2" d="M497.34,272.76c2,4-1,12.78-7.77,16.11s-16.19,2.7-18.17-1.32"/><path class="cls-2" d="M486.34,262.46c2,4,1.83,8.74-4.93,12.06s-11,1.81-13-2.21"/><polygon class="cls-2" points="463.6 246.76 463.36 246.78 521.52 356.75 518.52 350.72 463.6 246.76"/><path class="cls-2" d="M520.31,313.75c-1.76,40.28,21.37,35.32,48,33.78,33.08-1.91,48.23-39.44,24.45-72.15-18.94-26.07-43.08-46.66-43.05-44.67C549.74,235.61,521.53,285.89,520.31,313.75Z"/><path class="cls-2" d="M588.4,318.11c.36,5.27-11.66,10.38-26.84,11.43s-27.8-2.38-28.16-7.65"/><path class="cls-2" d="M583.15,302.55c.31,4.47-9.9,8.82-22.8,9.7s-23.6-2-23.91-6.49"/><path class="cls-2" d="M578.28,286.77c.31,4.47-8.29,8.7-19.2,9.45s-20-2.26-20.31-6.74"/><path class="cls-2" d="M571.5,267.85c.31,4.47-5.78,11.44-13.3,11.95s-16-3.63-16.31-8.1"/><path class="cls-2" d="M565.23,254.14c.31,4.47-1.63,8.78-9.14,9.3s-10.89-2.51-11.2-7"/><polygon class="cls-2" points="550.14 230.99 549.91 230.92 562.03 354.74 561.54 348.02 550.14 230.99"/><path class="cls-2" d="M573.32,304.17c3.51,40.16,25.8,32.23,51.95,27.24,32.55-6.22,42.67-45.4,14.83-74.73C617.92,233.31,591.3,216,591.59,218,592.31,222.86,570.9,276.39,573.32,304.17Z"/><path class="cls-2" d="M641.4,299.61c1.05,5.17-10.2,11.81-25.12,14.83s-27.87,1.27-28.91-3.9"/><path class="cls-2" d="M634.16,284.87c.89,4.39-8.66,10-21.33,12.59s-23.66,1.08-24.55-3.31"/><path class="cls-2" d="M627.28,269.85c.89,4.4-7.08,9.72-17.8,11.88s-20.12.37-21-4"/><path class="cls-2" d="M618.09,252c.89,4.4-4.24,12.1-11.62,13.59s-16.34-1.52-17.23-5.91"/><path class="cls-2" d="M610.08,239.21c.89,4.39-.46,8.92-7.84,10.41s-11.13-1.07-12-5.46"/><polygon class="cls-2" points="592.1 218.23 591.87 218.18 620.03 339.36 618.67 332.76 592.1 218.23"/><path class="cls-2" d="M634.45,289.86c-.17,40.31,22.75,34.44,49.24,31.86,33-3.21,46.64-41.31,21.6-73.06-20-25.3-44.89-44.93-44.78-42.94C660.79,210.61,634.57,262,634.45,289.86Z"/><path class="cls-2" d="M702.66,291.53c.57,5.24-11.24,10.83-26.37,12.47s-27.87-1.28-28.44-6.52"/><path class="cls-2" d="M696.8,276.19c.48,4.45-9.54,9.2-22.4,10.59s-23.66-1.08-24.14-5.54"/><path class="cls-2" d="M691.31,260.61c.49,4.45-7.93,9-18.8,10.2s-20.08-1.47-20.56-5.93"/><path class="cls-2" d="M683.8,242c.48,4.46-5.33,11.66-12.82,12.47s-16.13-3-16.62-7.46"/><path class="cls-2" d="M677,228.52c.48,4.46-1.28,8.84-8.77,9.65s-11-2.08-11.46-6.54"/><polygon class="cls-2" points="661 205.98 660.77 205.92 677.75 329.16 677 322.47 661 205.98"/><path class="cls-2" d="M478.66,556.65c40.31-.36,34.14-23.2,31.22-49.66-3.65-32.93-41.92-46.09-73.34-20.64-25,20.29-44.34,45.47-42.35,45.33C399.08,531.35,450.77,556.89,478.66,556.65Z"/><path class="cls-2" d="M479.44,488.42c5.24-.64,11,11.1,12.82,26.21s-.92,27.88-6.16,28.52"/><path class="cls-2" d="M464.18,494.48c4.45-.54,9.32,9.42,10.88,22.26s-.78,23.67-5.22,24.21"/><path class="cls-2" d="M448.67,500.17c4.45-.54,9.13,7.82,10.45,18.67s-1.22,20.1-5.66,20.64"/><path class="cls-2" d="M430.14,507.93c4.44-.54,11.72,5.17,12.63,12.65s-2.79,16.17-7.24,16.72"/><path class="cls-2" d="M416.77,514.91c4.45-.54,8.85,1.16,9.77,8.64s-1.94,11-6.39,11.55"/><polygon class="cls-2" points="394.44 531.2 394.39 531.42 517.4 512.84 510.71 513.67 394.44 531.2"/><path class="cls-2" d="M476.41,499.78c37.43,15,40.39-8.51,47.71-34.11,9.12-31.85-21.31-58.54-60-46.9C433.23,428,405.82,444,407.71,444.66,412.36,446.2,450.51,489.43,476.41,499.78Z"/><path class="cls-2" d="M503,437c5.09,1.39,5.95,14.43,1.92,29.11s-11.42,25.45-16.51,24.05"/><path class="cls-2" d="M486.58,436.77c4.32,1.18,5.05,12.25,1.63,24.72s-9.69,21.61-14,20.43"/><path class="cls-2" d="M470.07,436.15c4.32,1.19,5.48,10.7,2.59,21.24s-8.74,18.14-13.06,16.95"/><path class="cls-2" d="M450,436.3c4.32,1.19,8.88,9.24,6.89,16.5s-8.71,13.91-13,12.72"/><path class="cls-2" d="M435,437.7c4.32,1.19,7.75,4.43,5.75,11.7s-6,9.45-10.28,8.26"/><polygon class="cls-2" points="408.13 444.3 407.99 444.49 528.86 473.93 522.36 472.18 408.13 444.3"/><path class="cls-2" d="M484.87,446.58c39.07,9.94,38.93-13.72,42.85-40.05,4.89-32.77-28.76-55.26-65.64-38.67-29.38,13.22-54.47,32.65-52.52,33C414.38,401.81,457.84,439.69,484.87,446.58Z"/><path class="cls-2" d="M503,380.81c5.23.72,7.79,13.53,5.71,28.61s-8,26.72-13.23,26"/><path class="cls-2" d="M486.73,382.77c4.44.62,6.61,11.49,4.85,24.3s-6.8,22.69-11.24,22.08"/><path class="cls-2" d="M470.28,384.32c4.44.61,6.83,9.89,5.34,20.72s-6.3,19.12-10.74,18.5"/><path class="cls-2" d="M450.38,387.09c4.44.61,10,8,9,15.46s-6.83,14.92-11.27,14.31"/><path class="cls-2" d="M435.68,390.43c4.44.61,8.26,3.38,7.24,10.85s-4.68,10.15-9.13,9.53"/><polygon class="cls-2" points="409.94 400.48 409.82 400.68 533.5 414.11 526.83 413.21 409.94 400.48"/><path class="cls-2" d="M491.53,384.15c38,13.47,40-10.1,46.34-36,7.85-32.19-23.6-57.66-61.84-44.51-30.47,10.49-57.22,27.54-55.31,28.09C425.43,333.13,465.25,374.83,491.53,384.15Z"/><path class="cls-2" d="M515.63,320.32c5.14,1.19,6.52,14.18,3.07,29S508.29,375.21,503.15,374"/><path class="cls-2" d="M499.22,320.78c4.36,1,5.53,12.05,2.6,24.64s-8.84,22-13.2,21"/><path class="cls-2" d="M482.7,320.82c4.36,1,5.9,10.47,3.42,21.12s-8,18.46-12.39,17.45"/><path class="cls-2" d="M462.63,321.76c4.36,1,9.24,8.88,7.53,16.22S462,352.22,457.64,351.2"/><path class="cls-2" d="M447.68,323.75c4.37,1,7.92,4.12,6.22,11.46s-5.59,9.68-10,8.66"/><polygon class="cls-2" points="421.13 331.4 420.99 331.6 542.93 356.26 536.37 354.75 421.13 331.4"/><path class="cls-2" d="M509.43,787.83c39.14-9.64,27.87-30.44,18.92-55.51-11.14-31.21-51.42-35.19-76.12-3.17-19.69,25.51-32.65,54.47-30.75,53.88C426.16,781.57,482.34,794.5,509.43,787.83Z"/><path class="cls-2" d="M494.45,721.27c4.95-1.83,13.24,8.26,18.52,22.54s5.54,27.34.59,29.17"/><path class="cls-2" d="M481,730.68c4.2-1.55,11.24,7,15.72,19.15s4.71,23.22.5,24.77"/><path class="cls-2" d="M467.22,739.8c4.2-1.55,10.68,5.5,14.47,15.76s3.46,19.83-.75,21.38"/><path class="cls-2" d="M451,751.62c4.21-1.55,12.6,2.33,15.22,9.4s1,16.38-3.19,17.93"/><path class="cls-2" d="M439.59,761.5c4.2-1.55,8.88-.91,11.49,6.15s.65,11.16-3.55,12.72"/><polygon class="cls-2" points="421.62 782.5 421.61 782.73 537.01 736.27 530.71 738.63 421.62 782.5"/><path class="cls-2" d="M494.12,733c39.88,5.92,37.34-17.6,38.56-44.19,1.52-33.1-34.24-52.05-69.24-31.8-27.88,16.15-50.86,38-48.88,38.2C419.44,695.66,466.53,728.93,494.12,733Z"/><path class="cls-2" d="M505.5,665.75c5.27.18,9.12,12.67,8.59,27.88s-5.24,27.4-10.52,27.22"/><path class="cls-2" d="M489.48,669.36c4.48.16,7.75,10.76,7.29,23.68s-4.45,23.27-8.93,23.11"/><path class="cls-2" d="M473.28,672.57c4.48.16,7.8,9.14,7.42,20.07s-4.33,19.66-8.81,19.5"/><path class="cls-2" d="M453.76,677.35c4.48.16,10.78,6.94,10.51,14.47s-5.27,15.54-9.75,15.38"/><path class="cls-2" d="M439.48,682.17c4.48.16,8.56,2.53,8.3,10.06s-3.63,10.57-8.11,10.41"/><polygon class="cls-2" points="414.89 694.79 414.79 695 539.2 695.77 532.47 695.56 414.89 694.79"/><path class="cls-2" d="M490.08,679.3c40.31.67,34.72-22.32,32.46-48.85-2.81-33-40.73-47.14-72.79-22.49-25.54,19.65-45.47,44.34-43.48,44.25C411.16,652,462.19,678.84,490.08,679.3Z"/><path class="cls-2" d="M492.58,611.11c5.26-.5,10.7,11.37,12.16,26.53s-1.62,27.85-6.88,28.35"/><path class="cls-2" d="M477.17,616.79c4.46-.43,9.09,9.65,10.32,22.52s-1.37,23.65-5.84,24.08"/><path class="cls-2" d="M461.53,622.08c4.46-.42,8.92,8,10,18.93s-1.72,20.06-6.18,20.49"/><path class="cls-2" d="M442.8,629.37c4.46-.43,11.59,5.47,12.31,13s-3.2,16.1-7.66,16.53"/><path class="cls-2" d="M429.27,636c4.46-.43,8.82,1.39,9.54,8.89s-2.21,11-6.68,11.38"/><polygon class="cls-2" points="406.54 651.73 406.47 651.96 529.91 636.48 523.21 637.15 406.54 651.73"/><path class="cls-2" d="M482.16,617c40.08,4.34,36.62-19.06,36.79-45.68.22-33.13-36.26-50.66-70.43-29-27.23,17.23-49.33,40-47.34,40.09C406.07,582.62,454.44,614,482.16,617Z"/><path class="cls-2" d="M490.89,549.35c5.27,0,9.61,12.3,9.68,27.52s-4.16,27.59-9.44,27.61"/><path class="cls-2" d="M475,553.59c4.48,0,8.16,10.44,8.22,23.37s-3.53,23.43-8,23.45"/><path class="cls-2" d="M459,557.44c4.48,0,8.15,8.82,8.2,19.76s-3.54,19.81-8,19.83"/><path class="cls-2" d="M439.65,563c4.48,0,11,6.51,11.07,14s-4.66,15.74-9.14,15.76"/><path class="cls-2" d="M425.56,568.36c4.49,0,8.66,2.19,8.69,9.72s-3.2,10.71-7.69,10.73"/><polygon class="cls-2" points="401.49 581.94 401.4 582.16 525.74 578.02 519.01 578.08 401.49 581.94"/><path class="cls-2" d="M522.66,571.65c40.31-.36,34.14-23.2,31.22-49.66-3.65-32.93-41.92-46.09-73.34-20.64-25,20.29-44.34,45.47-42.35,45.33C443.08,546.35,494.77,571.89,522.66,571.65Z"/><path class="cls-2" d="M523.44,503.42c5.24-.64,11,11.1,12.82,26.21s-.92,27.88-6.16,28.52"/><path class="cls-2" d="M508.18,509.48c4.45-.54,9.32,9.42,10.88,22.26s-.78,23.67-5.22,24.21"/><path class="cls-2" d="M492.67,515.17c4.45-.54,9.13,7.82,10.45,18.67s-1.22,20.1-5.66,20.64"/><path class="cls-2" d="M474.14,522.93c4.44-.54,11.72,5.17,12.63,12.65s-2.79,16.17-7.24,16.72"/><path class="cls-2" d="M460.77,529.91c4.45-.54,8.85,1.16,9.77,8.64s-1.94,11-6.39,11.55"/><polygon class="cls-2" points="438.44 546.2 438.39 546.42 561.4 527.84 554.71 528.67 438.44 546.2"/><path class="cls-2" d="M520.41,514.78c37.43,15,40.39-8.51,47.71-34.11,9.12-31.85-21.31-58.54-60-46.9C477.23,443,449.82,459,451.71,459.66,456.36,461.2,494.51,504.43,520.41,514.78Z"/><path class="cls-2" d="M547,452c5.09,1.39,6,14.43,1.92,29.11s-11.42,25.45-16.51,24.05"/><path class="cls-2" d="M530.58,451.77c4.32,1.18,5,12.25,1.63,24.72s-9.69,21.61-14,20.43"/><path class="cls-2" d="M514.07,451.15c4.32,1.19,5.48,10.7,2.59,21.24s-8.74,18.14-13.06,16.95"/><path class="cls-2" d="M494,451.3c4.32,1.19,8.88,9.24,6.89,16.5s-8.71,13.91-13,12.72"/><path class="cls-2" d="M479,452.7c4.32,1.19,7.75,4.43,5.75,11.7s-6,9.45-10.28,8.26"/><polygon class="cls-2" points="452.13 459.3 451.99 459.49 572.86 488.93 566.36 487.18 452.13 459.3"/><path class="cls-2" d="M528.87,461.58c39.07,9.94,38.93-13.72,42.85-40.05,4.89-32.77-28.76-55.26-65.64-38.67-29.38,13.22-54.47,32.65-52.52,33C458.38,416.81,501.84,454.69,528.87,461.58Z"/><path class="cls-2" d="M547,395.81c5.23.72,7.79,13.53,5.71,28.61s-8,26.72-13.23,26"/><path class="cls-2" d="M530.73,397.77c4.44.62,6.61,11.49,4.85,24.3s-6.8,22.69-11.24,22.08"/><path class="cls-2" d="M514.28,399.32c4.44.61,6.83,9.89,5.34,20.72s-6.3,19.12-10.74,18.5"/><path class="cls-2" d="M494.38,402.09c4.44.61,10,8,9,15.46s-6.83,14.92-11.27,14.31"/><path class="cls-2" d="M479.68,405.43c4.44.61,8.26,3.38,7.24,10.85s-4.68,10.15-9.13,9.53"/><polygon class="cls-2" points="453.94 415.48 453.82 415.68 577.5 429.11 570.83 428.21 453.94 415.48"/><path class="cls-2" d="M535.53,399.15c38,13.47,40-10.1,46.34-36,7.85-32.19-23.6-57.66-61.84-44.51-30.47,10.49-57.22,27.54-55.31,28.09C469.43,348.13,509.25,389.83,535.53,399.15Z"/><path class="cls-2" d="M559.63,335.32c5.14,1.19,6.52,14.18,3.07,29S552.29,390.21,547.15,389"/><path class="cls-2" d="M543.22,335.78c4.36,1,5.53,12.05,2.6,24.64s-8.84,22-13.2,21"/><path class="cls-2" d="M526.7,335.82c4.36,1,5.9,10.47,3.42,21.12s-8,18.46-12.39,17.45"/><path class="cls-2" d="M506.63,336.76c4.36,1,9.24,8.88,7.53,16.22S506,367.22,501.64,366.2"/><path class="cls-2" d="M491.68,338.75c4.37,1,7.92,4.12,6.22,11.46s-5.59,9.68-10,8.66"/><polygon class="cls-2" points="465.13 346.4 464.99 346.6 586.93 371.26 580.37 369.75 465.13 346.4"/><path class="cls-2" d="M553.43,802.83c39.14-9.64,27.87-30.44,18.92-55.51-11.14-31.21-51.42-35.19-76.12-3.17-19.69,25.51-32.65,54.47-30.75,53.88C470.16,796.57,526.34,809.5,553.43,802.83Z"/><path class="cls-2" d="M538.45,736.27c4.95-1.83,13.24,8.26,18.52,22.54s5.54,27.34.59,29.17"/><path class="cls-2" d="M525,745.68c4.2-1.55,11.24,7,15.72,19.15s4.71,23.22.5,24.77"/><path class="cls-2" d="M511.22,754.8c4.2-1.55,10.68,5.5,14.47,15.76s3.46,19.83-.75,21.38"/><path class="cls-2" d="M495,766.62c4.21-1.55,12.6,2.33,15.22,9.4s1,16.38-3.19,17.93"/><path class="cls-2" d="M483.59,776.5c4.2-1.55,8.88-.91,11.49,6.15s.65,11.16-3.55,12.72"/><polygon class="cls-2" points="465.62 797.5 465.61 797.73 581.01 751.27 574.71 753.63 465.62 797.5"/><path class="cls-2" d="M538.12,748c39.88,5.92,37.34-17.6,38.56-44.19,1.52-33.1-34.24-52.05-69.24-31.8-27.88,16.15-50.86,38-48.88,38.2C463.44,710.66,510.53,743.93,538.12,748Z"/><path class="cls-2" d="M549.5,680.75c5.27.18,9.12,12.67,8.59,27.88s-5.24,27.4-10.52,27.22"/><path class="cls-2" d="M533.48,684.36c4.48.16,7.75,10.76,7.29,23.68s-4.45,23.27-8.93,23.11"/><path class="cls-2" d="M517.28,687.57c4.48.16,7.8,9.14,7.42,20.07s-4.33,19.66-8.81,19.5"/><path class="cls-2" d="M497.76,692.35c4.48.16,10.78,6.94,10.51,14.47s-5.27,15.54-9.75,15.38"/><path class="cls-2" d="M483.48,697.17c4.48.16,8.56,2.53,8.3,10.06s-3.63,10.57-8.11,10.41"/><polygon class="cls-2" points="458.89 709.79 458.79 710 583.2 710.77 576.47 710.56 458.89 709.79"/><path class="cls-2" d="M534.08,694.3c40.31.67,34.72-22.32,32.46-48.85-2.81-33-40.73-47.14-72.79-22.49-25.54,19.65-45.47,44.34-43.48,44.25C455.16,667,506.19,693.84,534.08,694.3Z"/><path class="cls-2" d="M536.58,626.11c5.26-.5,10.7,11.37,12.16,26.53s-1.62,27.85-6.88,28.35"/><path class="cls-2" d="M521.17,631.79c4.46-.43,9.09,9.65,10.32,22.52s-1.37,23.65-5.84,24.08"/><path class="cls-2" d="M505.53,637.08c4.46-.42,8.92,8,10,18.93s-1.72,20.06-6.18,20.49"/><path class="cls-2" d="M486.8,644.37c4.46-.43,11.59,5.47,12.31,13s-3.2,16.1-7.66,16.53"/><path class="cls-2" d="M473.27,651c4.46-.43,8.82,1.39,9.54,8.89s-2.21,11-6.68,11.38"/><polygon class="cls-2" points="450.54 666.73 450.47 666.96 573.91 651.48 567.21 652.15 450.54 666.73"/><path class="cls-2" d="M526.16,632c40.08,4.34,36.62-19.06,36.79-45.68.22-33.13-36.26-50.66-70.43-29-27.23,17.23-49.33,40-47.34,40.09C450.07,597.62,498.44,629,526.16,632Z"/><path class="cls-2" d="M534.89,564.35c5.27,0,9.61,12.3,9.68,27.52s-4.16,27.59-9.44,27.61"/><path class="cls-2" d="M519,568.59c4.48,0,8.16,10.44,8.22,23.37s-3.53,23.43-8,23.45"/><path class="cls-2" d="M503,572.44c4.48,0,8.15,8.82,8.2,19.76s-3.54,19.81-8,19.83"/><path class="cls-2" d="M483.65,578c4.48,0,11,6.51,11.07,14s-4.66,15.74-9.14,15.76"/><path class="cls-2" d="M469.56,583.36c4.49,0,8.66,2.19,8.69,9.72s-3.2,10.71-7.69,10.73"/><polygon class="cls-2" points="445.49 596.94 445.4 597.16 569.74 593.02 563.01 593.08 445.49 596.94"/><path class="cls-2" d="M1452.28,514.3c-40.32.51-34.06,23.33-31,49.78,3.77,32.92,42.1,45.92,73.42,20.34,25-20.38,44.15-45.65,42.17-45.5C1532,539.28,1480.16,513.94,1452.28,514.3Z"/><path class="cls-2" d="M1451.77,582.53c-5.24.66-11-11-12.93-26.16s.81-27.88,6-28.54"/><path class="cls-2" d="M1467,576.4c-4.45.56-9.36-9.38-11-22.21s.68-23.67,5.13-24.23"/><path class="cls-2" d="M1482.49,570.65c-4.45.56-9.16-7.78-10.52-18.63s1.13-20.09,5.58-20.65"/><path class="cls-2" d="M1501,562.82c-4.44.56-11.74-5.13-12.68-12.6s2.73-16.19,7.17-16.75"/><path class="cls-2" d="M1514.33,555.78c-4.45.56-8.86-1.12-9.8-8.6s1.89-11,6.34-11.57"/><polygon class="cls-2" points="1536.59 539.41 1536.65 539.18 1413.71 558.26 1420.39 557.4 1536.59 539.41"/><path class="cls-2" d="M1454.76,571.15c-37.5-14.81-40.36,8.68-47.58,34.3-9,31.9,21.54,58.46,60.22,46.67,30.82-9.4,58.16-25.5,56.27-26.12C1519,624.48,1480.7,581.4,1454.76,571.15Z"/><path class="cls-2" d="M1428.42,634.09c-5.1-1.37-6-14.4-2.05-29.1s11.32-25.5,16.42-24.12"/><path class="cls-2" d="M1444.84,634.21c-4.33-1.17-5.11-12.24-1.74-24.72s9.61-21.65,13.94-20.48"/><path class="cls-2" d="M1461.35,634.75c-4.33-1.16-5.53-10.67-2.68-21.22s8.67-18.17,13-17"/><path class="cls-2" d="M1481.44,634.52c-4.33-1.17-8.92-9.19-7-16.47s8.66-13.94,13-12.77"/><path class="cls-2" d="M1496.44,633.07c-4.32-1.17-7.76-4.4-5.8-11.68s5.93-9.47,10.25-8.3"/><polygon class="cls-2" points="1523.25 626.36 1523.39 626.17 1402.4 597.21 1408.91 598.94 1523.25 626.36"/><path class="cls-2" d="M1446.51,624.39c-39.11-9.79-38.88,13.87-42.69,40.22-4.75,32.79,29,55.15,65.79,38.41,29.33-13.35,54.34-32.87,52.39-33.24C1517.18,668.88,1473.57,631.17,1446.51,624.39Z"/><path class="cls-2" d="M1428.61,690.23c-5.23-.7-7.84-13.5-5.82-28.59s7.89-26.75,13.12-26"/><path class="cls-2" d="M1444.9,688.2c-4.44-.59-6.65-11.46-4.94-24.27s6.7-22.73,11.15-22.13"/><path class="cls-2" d="M1461.34,686.59c-4.44-.59-6.87-9.86-5.42-20.7s6.23-19.14,10.67-18.55"/><path class="cls-2" d="M1481.23,683.74c-4.44-.59-10-8-9-15.42s6.77-15,11.21-14.36"/><path class="cls-2" d="M1495.92,680.34c-4.44-.59-8.28-3.35-7.28-10.82s4.64-10.17,9.09-9.57"/><polygon class="cls-2" points="1521.62 670.19 1521.74 669.98 1398 657.06 1404.68 657.93 1521.62 670.19"/><path class="cls-2" d="M1440.09,686.84c-38-13.32-40,10.27-46.18,36.15-7.73,32.22,23.83,57.57,62,44.26,30.43-10.61,57.11-27.77,55.2-28.31C1506.4,737.6,1466.42,696.06,1440.09,686.84Z"/><path class="cls-2" d="M1416.26,750.77c-5.15-1.17-6.58-14.15-3.19-29s10.3-25.92,15.45-24.75"/><path class="cls-2" d="M1432.67,750.24c-4.37-1-5.58-12-2.71-24.63s8.75-22,13.12-21"/><path class="cls-2" d="M1449.19,750.14c-4.37-1-5.94-10.45-3.51-21.11s7.94-18.49,12.31-17.5"/><path class="cls-2" d="M1469.25,749.11c-4.37-1-9.27-8.83-7.6-16.18s8.1-14.27,12.47-13.27"/><path class="cls-2" d="M1484.19,747.07c-4.37-1-7.94-4.09-6.26-11.44s5.55-9.7,9.92-8.7"/><polygon class="cls-2" points="1510.71 739.31 1510.85 739.11 1388.81 714.95 1395.38 716.42 1510.71 739.31"/><path class="cls-2" d="M1420.57,283.24c-39.1,9.8-27.75,30.56-18.69,55.59,11.26,31.16,51.56,35,76.13,2.86,19.58-25.59,32.43-54.6,30.53-54C1503.87,289.16,1447.63,276.46,1420.57,283.24Z"/><path class="cls-2" d="M1435.82,349.74c-4.94,1.85-13.28-8.21-18.61-22.47s-5.65-27.31-.71-29.16"/><path class="cls-2" d="M1449.24,340.27c-4.2,1.57-11.28-7-15.81-19.08s-4.8-23.2-.6-24.77"/><path class="cls-2" d="M1463,331.1c-4.2,1.57-10.71-5.46-14.54-15.7s-3.54-19.81.66-21.39"/><path class="cls-2" d="M1479.17,319.21c-4.2,1.57-12.61-2.28-15.25-9.33s-1.08-16.38,3.12-17.95"/><path class="cls-2" d="M1490.52,309.29c-4.2,1.57-8.87.95-11.51-6.11s-.7-11.16,3.49-12.73"/><polygon class="cls-2" points="1508.41 288.22 1508.41 287.98 1393.19 334.91 1399.49 332.53 1508.41 288.22"/><path class="cls-2" d="M1436.1,338c-39.9-5.76-37.26,17.75-38.38,44.35-1.39,33.1,34.45,51.91,69.36,31.51,27.83-16.26,50.72-38.23,48.74-38.39C1510.93,375.05,1463.71,342,1436.1,338Z"/><path class="cls-2" d="M1425,405.31c-5.27-.17-9.17-12.64-8.7-27.85s5.13-27.42,10.41-27.26"/><path class="cls-2" d="M1441,401.63c-4.48-.14-7.79-10.73-7.39-23.65s4.36-23.28,8.84-23.15"/><path class="cls-2" d="M1457.19,398.35c-4.48-.14-7.84-9.11-7.5-20s4.24-19.67,8.72-19.54"/><path class="cls-2" d="M1476.68,393.49c-4.48-.14-10.8-6.89-10.57-14.42s5.21-15.56,9.69-15.42"/><path class="cls-2" d="M1491,388.61c-4.48-.13-8.57-2.49-8.34-10s3.58-10.59,8.06-10.45"/><polygon class="cls-2" points="1515.49 375.9 1515.58 375.68 1391.17 375.42 1397.91 375.6 1515.49 375.9"/><path class="cls-2" d="M1440.36,391.69c-40.31-.5-34.63,22.47-32.27,49,3,33,40.93,47,72.89,22.2,25.46-19.75,45.29-44.52,43.3-44.43C1519.38,418.68,1468.25,392,1440.36,391.69Z"/><path class="cls-2" d="M1438.13,459.89c-5.25.52-10.74-11.33-12.26-26.48s1.51-27.85,6.76-28.38"/><path class="cls-2" d="M1453.52,454.15c-4.46.45-9.12-9.62-10.41-22.48s1.28-23.65,5.74-24.1"/><path class="cls-2" d="M1469.14,448.79c-4.46.45-9-8-10.05-18.89s1.64-20.06,6.1-20.51"/><path class="cls-2" d="M1487.84,441.43c-4.46.45-11.61-5.42-12.36-12.92s3.13-16.11,7.59-16.56"/><path class="cls-2" d="M1501.34,434.73c-4.46.45-8.82-1.35-9.57-8.84s2.17-11,6.63-11.42"/><polygon class="cls-2" points="1524.01 418.93 1524.08 418.7 1400.7 434.67 1407.4 433.97 1524.01 418.93"/><path class="cls-2" d="M1448.53,453.94c-40.1-4.18-36.54,19.21-36.61,45.83-.08,33.13,36.47,50.51,70.55,28.75,27.16-17.34,49.17-40.19,47.18-40.28C1524.75,488,1476.27,456.83,1448.53,453.94Z"/><path class="cls-2" d="M1440.08,521.65c-5.28,0-9.67-12.27-9.79-27.49s4-27.6,9.32-27.64"/><path class="cls-2" d="M1455.92,517.34c-4.48,0-8.2-10.41-8.31-23.34s3.43-23.44,7.92-23.48"/><path class="cls-2" d="M1472,513.43c-4.48,0-8.19-8.8-8.28-19.73s3.46-19.83,8-19.87"/><path class="cls-2" d="M1491.26,507.8c-4.48,0-11.06-6.46-11.13-14s4.59-15.76,9.08-15.79"/><path class="cls-2" d="M1505.32,502.37c-4.48,0-8.66-2.15-8.73-9.68s3.17-10.73,7.65-10.76"/><polygon class="cls-2" points="1529.34 488.7 1529.43 488.48 1405.11 493.11 1411.84 493.03 1529.34 488.7"/><path class="cls-2" d="M1409.32,566.65c-40.31-.36-34.14-23.2-31.22-49.66,3.65-32.93,41.92-46.09,73.34-20.64,25,20.29,44.34,45.47,42.35,45.33C1488.9,541.35,1437.21,566.89,1409.32,566.65Z"/><path class="cls-2" d="M1408.54,498.42c-5.24-.64-11,11.1-12.82,26.21s.92,27.88,6.16,28.52"/><path class="cls-2" d="M1423.8,504.48c-4.45-.54-9.32,9.42-10.88,22.26s.78,23.67,5.22,24.21"/><path class="cls-2" d="M1439.31,510.17c-4.45-.54-9.13,7.82-10.45,18.67s1.22,20.1,5.66,20.64"/><path class="cls-2" d="M1457.85,517.93c-4.45-.54-11.73,5.17-12.64,12.65s2.79,16.17,7.24,16.72"/><path class="cls-2" d="M1471.21,524.91c-4.45-.54-8.85,1.16-9.77,8.64s1.94,11,6.39,11.55"/><polygon class="cls-2" points="1493.54 541.2 1493.59 541.42 1370.58 522.84 1377.27 523.67 1493.54 541.2"/><path class="cls-2" d="M1411.57,509.78c-37.43,15-40.39-8.51-47.71-34.11-9.12-31.85,21.31-58.54,60-46.9,30.86,9.27,58.27,25.26,56.38,25.89C1475.62,456.2,1437.47,499.43,1411.57,509.78Z"/><path class="cls-2" d="M1385,447c-5.09,1.39-6,14.43-1.92,29.11s11.42,25.45,16.51,24.05"/><path class="cls-2" d="M1401.4,446.77c-4.32,1.18-5.05,12.25-1.63,24.72s9.69,21.61,14,20.43"/><path class="cls-2" d="M1417.91,446.15c-4.32,1.19-5.48,10.7-2.59,21.24s8.74,18.14,13.06,16.95"/><path class="cls-2" d="M1438,446.3c-4.32,1.19-8.88,9.24-6.89,16.5s8.71,13.91,13,12.72"/><path class="cls-2" d="M1453,447.7c-4.32,1.19-7.75,4.43-5.75,11.7s6,9.45,10.28,8.26"/><polygon class="cls-2" points="1479.85 454.3 1479.99 454.49 1359.12 483.93 1365.62 482.18 1479.85 454.3"/><path class="cls-2" d="M1403.11,456.58c-39.07,9.94-38.93-13.72-42.85-40.05-4.89-32.77,28.76-55.26,65.64-38.67,29.38,13.22,54.47,32.65,52.52,33C1473.6,411.81,1430.14,449.69,1403.11,456.58Z"/><path class="cls-2" d="M1385,390.81c-5.23.72-7.79,13.53-5.71,28.61s8,26.72,13.23,26"/><path class="cls-2" d="M1401.25,392.77c-4.44.62-6.61,11.49-4.85,24.3s6.8,22.69,11.24,22.08"/><path class="cls-2" d="M1417.7,394.32c-4.44.61-6.83,9.89-5.34,20.72s6.3,19.12,10.74,18.5"/><path class="cls-2" d="M1437.6,397.09c-4.44.61-10,8-9,15.46s6.83,14.92,11.27,14.31"/><path class="cls-2" d="M1452.3,400.43c-4.44.61-8.26,3.38-7.24,10.85s4.68,10.15,9.13,9.53"/><polygon class="cls-2" points="1478.04 410.48 1478.16 410.68 1354.48 424.11 1361.15 423.21 1478.04 410.48"/><path class="cls-2" d="M1396.45,394.15c-38,13.47-40-10.1-46.34-36-7.85-32.19,23.6-57.66,61.84-44.51,30.47,10.49,57.22,27.54,55.31,28.09C1462.55,343.13,1422.73,384.83,1396.45,394.15Z"/><path class="cls-2" d="M1372.35,330.32c-5.14,1.19-6.52,14.18-3.07,29s10.41,25.88,15.55,24.69"/><path class="cls-2" d="M1388.76,330.78c-4.36,1-5.53,12.05-2.6,24.64s8.84,22,13.2,21"/><path class="cls-2" d="M1405.28,330.82c-4.36,1-5.9,10.47-3.42,21.12s8,18.46,12.39,17.45"/><path class="cls-2" d="M1425.35,331.76c-4.36,1-9.24,8.88-7.53,16.22s8.16,14.24,12.52,13.22"/><path class="cls-2" d="M1440.3,333.75c-4.37,1-7.92,4.12-6.22,11.46s5.59,9.68,10,8.66"/><polygon class="cls-2" points="1466.85 341.4 1466.99 341.6 1345.05 366.26 1351.61 364.75 1466.85 341.4"/><path class="cls-2" d="M1378.55,797.83c-39.14-9.64-27.87-30.44-18.92-55.51,11.14-31.21,51.42-35.19,76.12-3.17,19.69,25.51,32.65,54.47,30.75,53.88C1461.82,791.57,1405.64,804.5,1378.55,797.83Z"/><path class="cls-2" d="M1393.53,731.27c-5-1.83-13.24,8.26-18.52,22.54s-5.54,27.34-.59,29.17"/><path class="cls-2" d="M1407,740.68c-4.2-1.55-11.24,7-15.72,19.15s-4.71,23.22-.5,24.77"/><path class="cls-2" d="M1420.76,749.8c-4.2-1.55-10.68,5.5-14.47,15.76s-3.46,19.83.75,21.38"/><path class="cls-2" d="M1437,761.62c-4.21-1.55-12.6,2.33-15.22,9.4s-1,16.38,3.19,17.93"/><path class="cls-2" d="M1448.39,771.5c-4.2-1.55-8.88-.91-11.49,6.15s-.65,11.16,3.55,12.72"/><polygon class="cls-2" points="1466.37 792.5 1466.37 792.73 1350.96 746.27 1357.27 748.63 1466.37 792.5"/><path class="cls-2" d="M1393.86,743c-39.88,5.92-37.34-17.6-38.56-44.19-1.52-33.1,34.24-52.05,69.24-31.8,27.88,16.15,50.86,38,48.88,38.2C1468.54,705.66,1421.45,738.93,1393.86,743Z"/><path class="cls-2" d="M1382.48,675.75c-5.27.18-9.12,12.67-8.59,27.88s5.24,27.4,10.52,27.22"/><path class="cls-2" d="M1398.5,679.36c-4.48.16-7.75,10.76-7.29,23.68s4.45,23.27,8.93,23.11"/><path class="cls-2" d="M1414.7,682.57c-4.48.16-7.8,9.14-7.42,20.07s4.33,19.66,8.81,19.5"/><path class="cls-2" d="M1434.22,687.35c-4.48.16-10.78,6.94-10.51,14.47s5.27,15.54,9.75,15.38"/><path class="cls-2" d="M1448.5,692.17c-4.48.16-8.56,2.53-8.3,10.06s3.63,10.57,8.11,10.41"/><polygon class="cls-2" points="1473.09 704.79 1473.19 705 1348.78 705.77 1355.51 705.56 1473.09 704.79"/><path class="cls-2" d="M1397.9,689.3c-40.31.67-34.72-22.32-32.46-48.85,2.81-33,40.73-47.14,72.79-22.49,25.54,19.65,45.47,44.34,43.48,44.25C1476.82,662,1425.79,688.84,1397.9,689.3Z"/><path class="cls-2" d="M1395.4,621.11c-5.26-.5-10.7,11.37-12.16,26.53s1.62,27.85,6.88,28.35"/><path class="cls-2" d="M1410.81,626.79c-4.46-.43-9.09,9.65-10.32,22.52s1.37,23.65,5.84,24.08"/><text></text><path class="cls-2" d="M1445.18,639.37c-4.46-.43-11.59,5.47-12.31,13s3.2,16.1,7.66,16.53"/><path class="cls-2" d="M1458.71,646c-4.46-.43-8.82,1.39-9.54,8.89s2.21,11,6.68,11.38"/><polygon class="cls-2" points="1481.44 661.73 1481.51 661.96 1358.07 646.48 1364.77 647.15 1481.44 661.73"/><path class="cls-2" d="M1405.82,627c-40.08,4.34-36.62-19.06-36.79-45.68-.22-33.13,36.26-50.66,70.43-29,27.23,17.23,49.33,40,47.34,40.09C1481.91,592.62,1433.54,624,1405.82,627Z"/><path class="cls-2" d="M1397.09,559.35c-5.27,0-9.61,12.3-9.68,27.52s4.16,27.59,9.44,27.61"/><path class="cls-2" d="M1413,563.59c-4.48,0-8.16,10.44-8.22,23.37s3.53,23.43,8,23.45"/><path class="cls-2" d="M1429,567.44c-4.48,0-8.15,8.82-8.2,19.76s3.54,19.81,8,19.83"/><path class="cls-2" d="M1448.33,573c-4.48,0-11,6.51-11.07,14s4.66,15.74,9.14,15.76"/><path class="cls-2" d="M1462.42,578.36c-4.49,0-8.66,2.19-8.69,9.72s3.2,10.71,7.69,10.73"/><polygon class="cls-2" points="1486.49 591.94 1486.58 592.16 1362.24 588.02 1368.97 588.08 1486.49 591.94"/><path class="cls-2" d="M967,307.94c.28,40.32,23.13,34.2,49.6,31.32,32.94-3.58,46.17-41.82,20.78-73.29-20.23-25.08-45.38-44.43-45.25-42.45C992.48,228.42,966.84,280.05,967,307.94Z"/><path class="cls-2" d="M1035.25,308.86c.63,5.24-11.12,11-26.24,12.77s-27.87-1-28.5-6.21"/><path class="cls-2" d="M1029.22,293.59c.53,4.45-9.44,9.3-22.28,10.84s-23.67-.83-24.21-5.28"/><path class="cls-2" d="M1023.56,278.07c.53,4.45-7.84,9.11-18.69,10.41s-20.09-1.25-20.63-5.7"/><path class="cls-2" d="M1015.84,259.52c.53,4.45-5.2,11.71-12.68,12.61s-16.17-2.83-16.7-7.28"/><path class="cls-2" d="M1008.88,246.14c.53,4.45-1.18,8.85-8.66,9.75s-11-2-11.54-6.41"/><polygon class="cls-2" points="992.64 223.78 992.41 223.72 1010.76 346.77 1009.93 340.09 992.64 223.78"/><path class="cls-2" d="M1023.89,305.81c-15,37.4,8.44,40.4,34,47.78,31.83,9.18,58.58-21.19,47-59.94-9.21-30.88-25.15-58.32-25.78-56.43C1077.6,241.87,1034.29,279.93,1023.89,305.81Z"/><path class="cls-2" d="M1086.67,332.52c-1.4,5.09-14.44,5.93-29.11,1.87s-25.43-11.47-24-16.56"/><path class="cls-2" d="M1086.89,316.1c-1.2,4.32-12.27,5-24.73,1.59s-21.59-9.74-20.4-14.06"/><path class="cls-2" d="M1087.53,299.6c-1.19,4.32-10.7,5.46-21.24,2.54s-18.12-8.77-16.92-13.09"/><path class="cls-2" d="M1087.42,279.5c-1.19,4.32-9.25,8.87-16.51,6.86s-13.89-8.74-12.7-13.06"/><path class="cls-2" d="M1086.06,264.49c-1.2,4.32-4.45,7.74-11.71,5.73s-9.44-6-8.25-10.3"/><polygon class="cls-2" points="1079.51 237.64 1079.32 237.5 1049.64 358.31 1051.41 351.82 1079.51 237.64"/><path class="cls-2" d="M1077.08,314.37c-10,39.05,13.64,39,40,42.94,32.76,4.94,55.32-28.66,38.8-65.57-13.16-29.41-32.54-54.53-32.92-52.58C1122,244,1084,287.36,1077.08,314.37Z"/><path class="cls-2" d="M1142.81,332.67c-.73,5.23-13.54,7.76-28.62,5.65s-26.71-8.06-26-13.28"/><path class="cls-2" d="M1140.88,316.36c-.62,4.44-11.5,6.59-24.31,4.8s-22.68-6.84-22.06-11.28"/><path class="cls-2" d="M1139.37,299.91c-.62,4.44-9.9,6.81-20.73,5.3s-19.11-6.34-18.49-10.78"/><path class="cls-2" d="M1136.64,280c-.62,4.44-8,10-15.48,8.95s-14.91-6.86-14.29-11.29"/><path class="cls-2" d="M1133.32,265.3c-.62,4.44-3.4,8.25-10.86,7.21s-10.14-4.7-9.52-9.14"/><polygon class="cls-2" points="1123.33 239.53 1123.12 239.42 1109.46 363.07 1110.37 356.4 1123.33 239.53"/><path class="cls-2" d="M1139.49,321.16c-13.55,38,10,40,35.87,46.41,32.18,7.91,57.71-23.49,44.63-61.75-10.42-30.49-27.43-57.28-28-55.37C1190.64,255.16,1148.87,294.89,1139.49,321.16Z"/><path class="cls-2" d="M1203.28,345.38c-1.21,5.14-14.2,6.49-29,3s-25.86-10.46-24.66-15.6"/><path class="cls-2" d="M1202.84,329c-1,4.36-12,5.51-24.64,2.56s-22-8.88-20.94-13.25"/><path class="cls-2" d="M1202.84,312.45c-1,4.36-10.48,5.88-21.13,3.38s-18.44-8.06-17.42-12.42"/><path class="cls-2" d="M1201.94,292.38c-1,4.36-8.9,9.22-16.23,7.5s-14.22-8.19-13.2-12.55"/><path class="cls-2" d="M1200,277.43c-1,4.36-4.14,7.91-11.47,6.19s-9.67-5.61-8.65-10"/><polygon class="cls-2" points="1192.38 250.86 1192.19 250.72 1167.29 372.62 1168.8 366.05 1192.38 250.86"/><path class="cls-2" d="M735.78,338.26c9.56,39.16,30.39,27.93,55.47,19,31.23-11.08,35.29-51.35,3.32-76.11-25.47-19.74-54.4-32.76-53.82-30.86C742.2,255,729.16,311.16,735.78,338.26Z"/><path class="cls-2" d="M802.37,323.41c1.82,5-8.29,13.23-22.58,18.48s-27.35,5.48-29.17.53"/><path class="cls-2" d="M793,309.94c1.55,4.21-7,11.23-19.17,15.69s-23.23,4.66-24.78.45"/><path class="cls-2" d="M783.89,296.14c1.55,4.21-5.52,10.68-15.78,14.45s-19.84,3.41-21.39-.79"/><path class="cls-2" d="M772.1,279.88c1.55,4.2-2.35,12.59-9.43,15.19s-16.38,1-17.92-3.23"/><path class="cls-2" d="M762.25,268.47c1.54,4.21.89,8.88-6.18,11.48s-11.16.63-12.7-3.58"/><polygon class="cls-2" points="741.29 250.46 741.05 250.45 787.29 365.95 784.94 359.63 741.29 250.46"/><path class="cls-2" d="M790.62,323.06c-6,39.86,17.53,37.37,44.12,38.64,33.09,1.59,52.12-34.13,31.93-69.17-16.09-27.92-37.93-50.94-38.1-49C828.13,248.45,794.77,295.48,790.62,323.06Z"/><path class="cls-2" d="M857.87,334.57c-.2,5.28-12.69,9.1-27.9,8.53s-27.39-5.29-27.19-10.57"/><path class="cls-2" d="M854.29,318.54c-.17,4.48-10.78,7.73-23.69,7.25s-23.26-4.49-23.1-9"/><path class="cls-2" d="M851.11,302.33c-.17,4.48-9.16,7.79-20.09,7.38s-19.65-4.36-19.48-8.84"/><path class="cls-2" d="M846.37,282.81c-.17,4.48-7,10.76-14.49,10.48s-15.53-5.3-15.36-9.78"/><path class="cls-2" d="M841.57,268.52c-.16,4.48-2.54,8.55-10.06,8.28s-10.57-3.65-10.41-8.13"/><polygon class="cls-2" points="829.01 243.9 828.79 243.81 827.78 368.21 828 361.48 829.01 243.9"/><path class="cls-2" d="M844.35,319.12c-.75,40.31,22.25,34.77,48.78,32.56,33-2.74,47.22-40.64,22.63-72.74-19.59-25.59-44.24-45.56-44.16-43.58C871.81,240.26,844.87,291.23,844.35,319.12Z"/><path class="cls-2" d="M912.53,321.76c.49,5.26-11.39,10.68-26.55,12.1s-27.85-1.67-28.34-6.93"/><path class="cls-2" d="M906.88,306.34c.43,4.46-9.67,9.06-22.54,10.28s-23.64-1.43-24.06-5.89"/><path class="cls-2" d="M901.62,290.68c.42,4.47-8.06,8.92-19,9.94s-20-1.76-20.47-6.22"/><path class="cls-2" d="M894.37,272c.42,4.46-5.49,11.57-13,12.28s-16.09-3.23-16.51-7.7"/><path class="cls-2" d="M887.75,258.4c.42,4.46-1.4,8.82-8.9,9.52s-11-2.23-11.37-6.7"/><polygon class="cls-2" points="872.08 235.63 871.86 235.57 887.08 359.04 886.43 352.34 872.08 235.63"/><path class="cls-2" d="M906.64,311.33c-4.42,40.07,19,36.65,45.61,36.88,33.13.28,50.73-36.16,29.18-70.37-17.18-27.27-39.9-49.41-40-47.43C941.19,235.31,909.7,283.61,906.64,311.33Z"/><path class="cls-2" d="M974.3,320.19c0,5.28-12.32,9.59-27.55,9.62s-27.57-4.21-27.58-9.49"/><path class="cls-2" d="M970.09,304.31c0,4.49-10.46,8.15-23.39,8.18s-23.42-3.58-23.43-8.06"/><path class="cls-2" d="M966.27,288.24c0,4.48-8.84,8.14-19.78,8.17s-19.8-3.59-19.81-8.07"/><path class="cls-2" d="M960.76,268.92c0,4.48-6.52,11-14.06,11.05S931,275.28,931,270.8"/><path class="cls-2" d="M955.41,254.83c0,4.48-2.2,8.65-9.73,8.67S935,260.27,935,255.79"/><polygon class="cls-2" points="941.89 230.73 941.67 230.64 945.56 354.99 945.51 348.25 941.89 230.73"/><path class="cls-2" d="M1234.2,316.89c-3.25,40.18,20,36.08,46.67,35.53,33.13-.69,49.65-37.64,27.1-71.21-18-26.75-41.33-48.21-41.37-46.23C1266.5,239.89,1236.45,289.09,1234.2,316.89Z"/><path class="cls-2" d="M1302.08,323.76c.17,5.27-12,9.94-27.24,10.43s-27.69-3.41-27.86-8.68"/><path class="cls-2" d="M1297.41,308c.14,4.48-10.22,8.44-23.14,8.85s-23.51-2.89-23.65-7.37"/><path class="cls-2" d="M1293.13,292.06c.14,4.48-8.6,8.4-19.53,8.74s-19.91-3-20-7.48"/><path class="cls-2" d="M1287.06,272.91c.14,4.48-6.21,11.21-13.74,11.45s-15.85-4.22-16-8.7"/><path class="cls-2" d="M1281.29,259c.15,4.48-1.94,8.71-9.47,8.95s-10.8-2.91-10.94-7.39"/><polygon class="cls-2" points="1267.07 235.28 1266.85 235.21 1274.38 359.38 1274.14 352.65 1267.07 235.28"/><path class="cls-2" d="M1282,336.72c-18.25,35.95,4.87,41,29.71,50.57,30.91,11.93,60.21-16,52.08-55.6-6.48-31.57-20-60.29-20.75-58.47C1341.13,277.72,1294.66,311.85,1282,336.72Z"/><path class="cls-2" d="M1342.25,368.82c-1.85,4.95-14.91,4.64-29.17-.68s-24.33-13.65-22.49-18.59"/><path class="cls-2" d="M1343.89,352.48c-1.57,4.2-12.66,3.94-24.77-.58s-20.66-11.59-19.09-15.79"/><path class="cls-2" d="M1346,336.09c-1.57,4.2-11.14,4.51-21.39.69s-17.28-10.33-15.71-14.53"/><path class="cls-2" d="M1347.62,316.07c-1.57,4.2-10,8-17,5.39s-13.07-9.92-11.5-14.12"/><path class="cls-2" d="M1347.57,301c-1.57,4.2-5.1,7.33-12.16,4.69s-8.88-6.78-7.32-11"/><polygon class="cls-2" points="1343.39 273.68 1343.22 273.52 1303.1 391.28 1305.43 384.96 1343.39 273.68"/><path class="cls-2" d="M1001.19,326.89c6.11,39.85,27.83,30.48,53.6,23.81,32.08-8.32,39.64-48.08,10-75.54-23.65-21.88-51.33-37.38-50.91-35.44C1014.86,244.51,997,299.32,1001.19,326.89Z"/><path class="cls-2" d="M1068.83,317.92c1.38,5.09-9.42,12.45-24.11,16.43s-27.73,3.08-29.11-2"/><path class="cls-2" d="M1060.65,303.68c1.17,4.32-8,10.57-20.47,13.95s-23.55,2.61-24.72-1.71"/><path class="cls-2" d="M1052.8,289.14c1.17,4.33-6.43,10.15-17,13s-20.06,1.67-21.23-2.66"/><path class="cls-2" d="M1042.47,271.91c1.18,4.32-3.44,12.34-10.71,14.31s-16.41-.46-17.58-4.78"/><path class="cls-2" d="M1033.65,259.68c1.18,4.33.12,8.93-7.15,10.9s-11.18-.35-12.35-4.67"/><polygon class="cls-2" points="1014.35 239.91 1014.11 239.88 1050.08 358.97 1048.3 352.48 1014.35 239.91"/><path class="cls-2" d="M1057.15,316.54c-9.46,39.19,14.2,38.76,40.57,42.35,32.83,4.47,54.9-29.45,37.85-66.12-13.59-29.22-33.33-54.06-33.68-52.1C1101,245.5,1063.69,289.43,1057.15,316.54Z"/><path class="cls-2" d="M1123.14,333.88c-.66,5.24-13.43,7.95-28.54,6.07s-26.82-7.67-26.17-12.91"/><path class="cls-2" d="M1121,317.6c-.56,4.45-11.41,6.76-24.24,5.15s-22.77-6.51-22.22-10.95"/><path class="cls-2" d="M1119.22,301.18c-.56,4.45-9.8,6.95-20.65,5.59s-19.2-6.06-18.64-10.5"/><path class="cls-2" d="M1116.2,281.31c-.56,4.45-7.87,10.12-15.35,9.18s-15-6.64-14.45-11.09"/><path class="cls-2" d="M1112.67,266.66c-.55,4.44-3.28,8.3-10.75,7.36s-10.21-4.55-9.65-9"/><polygon class="cls-2" points="1102.3 241.04 1102.1 240.93 1090.23 364.76 1091.04 358.08 1102.3 241.04"/><path class="cls-2" d="M1111,317.31c-4.27,40.09,19.13,36.58,45.75,36.7,33.14.15,50.59-36.37,28.9-70.5-17.29-27.19-40.1-49.24-40.19-47.26C1145.26,241.15,1114,289.57,1111,317.31Z"/><path class="cls-2" d="M1178.71,325.89c0,5.28-12.28,9.64-27.51,9.74s-27.59-4.1-27.63-9.38"/><path class="cls-2" d="M1174.43,310c0,4.48-10.43,8.18-23.35,8.27s-23.44-3.49-23.46-8"/><path class="cls-2" d="M1170.55,294c0,4.48-8.81,8.18-19.74,8.25s-19.82-3.51-19.85-8"/><path class="cls-2" d="M1165,274.68c0,4.48-6.49,11.06-14,11.1s-15.75-4.62-15.77-9.1"/><path class="cls-2" d="M1159.56,260.61c0,4.48-2.17,8.66-9.7,8.71s-10.72-3.18-10.74-7.67"/><polygon class="cls-2" points="1145.94 236.56 1145.72 236.48 1150.1 360.81 1150.04 354.07 1145.94 236.56"/><path class="cls-2" d="M1190.75,339c-7.9,39.53,15.72,38.17,42.22,40.72,33,3.17,53.69-31.59,35.21-67.56-14.73-28.66-35.43-52.7-35.7-50.73C1231.81,266.27,1196.22,311.64,1190.75,339Z"/><path class="cls-2" d="M1257.38,353.72c-.45,5.26-13.11,8.48-28.28,7.18s-27.1-6.6-26.66-11.86"/><path class="cls-2" d="M1254.57,337.54c-.38,4.47-11.13,7.2-24,6.1s-23-5.61-22.64-10.07"/><path class="cls-2" d="M1252.17,321.2c-.38,4.46-9.52,7.33-20.41,6.4s-19.42-5.3-19-9.76"/><path class="cls-2" d="M1248.37,301.47c-.38,4.46-7.46,10.41-15,9.77s-15.26-6-14.88-10.51"/><path class="cls-2" d="M1244.27,287c-.38,4.47-3,8.42-10.45,7.78s-10.38-4.14-10-8.61"/><polygon class="cls-2" points="1232.9 261.77 1232.69 261.66 1225.71 385.88 1226.25 379.16 1232.9 261.77"/><path class="cls-2" d="M716.14,323.12c4.52,40.06,26.6,31.56,52.62,25.91,32.38-7,41.5-46.46,12.94-75.08-22.77-22.8-49.82-39.39-49.48-37.43C733.07,241.35,713,295.4,716.14,323.12Z"/><path class="cls-2" d="M784.08,316.84c1.18,5.14-9.9,12.06-24.74,15.46s-27.83,2-29-3.17"/><path class="cls-2" d="M776.47,302.28c1,4.37-8.41,10.25-21,13.13s-23.63,1.68-24.63-2.69"/><path class="cls-2" d="M769.21,287.45c1,4.37-6.84,9.88-17.49,12.32s-20.11.87-21.11-3.49"/><path class="cls-2" d="M759.57,269.82c1,4.36-3.93,12.19-11.28,13.87s-16.37-1.1-17.37-5.47"/><path class="cls-2" d="M751.24,257.25c1,4.37-.24,8.92-7.58,10.6s-11.15-.78-12.15-5.15"/><polygon class="cls-2" points="732.74 236.72 732.5 236.69 763.72 357.12 762.2 350.56 732.74 236.72"/><path class="cls-2" d="M772.46,315c-11,38.79,12.65,39.3,38.87,43.93,32.62,5.77,56-27.25,40.44-64.56C839.35,264.62,820.61,239,820.18,241,819.13,245.75,780.08,288.16,772.46,315Z"/><path class="cls-2" d="M837.71,334.94c-.86,5.21-13.73,7.42-28.75,4.93s-26.5-8.72-25.64-13.93"/><path class="cls-2" d="M836.19,318.59c-.73,4.42-11.66,6.3-24.42,4.18s-22.5-7.4-21.77-11.83"/><path class="cls-2" d="M835.09,302.11c-.73,4.42-10.07,6.56-20.85,4.77S795.3,300.06,796,295.64"/><path class="cls-2" d="M832.86,282.14c-.73,4.42-8.26,9.79-15.69,8.56s-14.74-7.23-14-11.65"/><path class="cls-2" d="M829.92,267.35c-.73,4.43-3.6,8.17-11,6.94s-10-5-9.29-9.38"/><polygon class="cls-2" points="820.58 241.34 820.38 241.22 803.6 364.5 804.68 357.85 820.58 241.34"/><path class="cls-2" d="M826.26,317.9c-5.85,39.89,17.67,37.31,44.26,38.49,33.1,1.46,52-34.33,31.67-69.29-16.19-27.86-38.11-50.8-38.28-48.82C863.49,243.16,830.31,290.31,826.26,317.9Z"/><path class="cls-2" d="M893.55,329.17c-.17,5.27-12.65,9.14-27.86,8.63s-27.41-5.19-27.24-10.46"/><path class="cls-2" d="M889.91,313.15c-.15,4.48-10.74,7.77-23.66,7.34s-23.28-4.41-23.13-8.89"/><path class="cls-2" d="M886.67,297c-.15,4.48-9.13,7.81-20,7.45s-19.67-4.29-19.52-8.77"/><path class="cls-2" d="M881.86,277.45c-.15,4.48-6.92,10.79-14.45,10.54s-15.55-5.25-15.4-9.73"/><path class="cls-2" d="M877,263.17c-.15,4.48-2.51,8.57-10,8.32s-10.58-3.61-10.43-8.09"/><polygon class="cls-2" points="864.36 238.61 864.14 238.51 863.59 362.92 863.79 356.19 864.36 238.61"/><path class="cls-2" d="M889,318.07c-9.47,39.19,14.19,38.77,40.56,42.37,32.83,4.48,54.91-29.44,37.87-66.11-13.58-29.22-33.31-54.07-33.66-52.11C932.94,247,895.59,291,889,318.07Z"/><path class="cls-2" d="M955,335.43c-.65,5.24-13.43,7.95-28.54,6.06s-26.82-7.67-26.16-12.91"/><path class="cls-2" d="M952.86,319.16c-.56,4.44-11.41,6.75-24.24,5.14s-22.77-6.52-22.21-11"/><path class="cls-2" d="M951.11,302.73c-.55,4.45-9.8,6.95-20.65,5.59s-19.19-6.07-18.64-10.51"/><path class="cls-2" d="M948.1,282.87c-.56,4.44-7.87,10.11-15.35,9.17s-15-6.64-14.45-11.09"/><path class="cls-2" d="M944.58,268.21c-.56,4.44-3.28,8.3-10.76,7.36s-10.2-4.55-9.65-9"/><polygon class="cls-2" points="934.22 242.59 934.01 242.47 922.1 366.31 922.92 359.62 934.22 242.59"/><path class="cls-2" d="M542.31,356.75c-1.76,40.28,21.37,35.32,48,33.78,33.08-1.91,48.23-39.44,24.45-72.15-18.94-26.07-43.08-46.66-43.05-44.67C571.74,278.61,543.53,328.89,542.31,356.75Z"/><path class="cls-2" d="M610.4,361.11c.36,5.27-11.66,10.38-26.84,11.43s-27.8-2.38-28.16-7.65"/><path class="cls-2" d="M605.15,345.55c.31,4.47-9.9,8.82-22.8,9.7s-23.6-2-23.91-6.49"/><path class="cls-2" d="M600.28,329.77c.31,4.47-8.29,8.7-19.2,9.45s-20-2.26-20.31-6.74"/><path class="cls-2" d="M593.5,310.85c.31,4.47-5.78,11.44-13.3,11.95s-16-3.63-16.31-8.1"/><path class="cls-2" d="M587.23,297.14c.31,4.47-1.63,8.78-9.14,9.3s-10.89-2.51-11.2-7"/><polygon class="cls-2" points="572.14 273.99 571.91 273.92 584.03 397.74 583.54 391.02 572.14 273.99"/><path class="cls-2" d="M595.32,347.17c3.51,40.16,25.8,32.23,51.95,27.24,32.55-6.22,42.67-45.4,14.83-74.73C639.92,276.31,613.3,259,613.59,261,614.31,265.86,592.9,319.39,595.32,347.17Z"/><path class="cls-2" d="M663.4,342.61c1.05,5.17-10.2,11.81-25.12,14.83s-27.87,1.27-28.91-3.9"/><path class="cls-2" d="M656.16,327.87c.89,4.39-8.66,10-21.33,12.59s-23.66,1.08-24.55-3.31"/><path class="cls-2" d="M649.28,312.85c.89,4.4-7.08,9.72-17.8,11.88s-20.12.37-21-4"/><path class="cls-2" d="M640.09,295c.89,4.4-4.24,12.1-11.62,13.59s-16.34-1.52-17.23-5.91"/><path class="cls-2" d="M632.08,282.21c.89,4.39-.46,8.92-7.84,10.41s-11.13-1.07-12-5.46"/><polygon class="cls-2" points="614.1 261.23 613.87 261.18 642.03 382.36 640.67 375.76 614.1 261.23"/><path class="cls-2" d="M656.45,332.86c-.17,40.31,22.75,34.44,49.24,31.86,33-3.21,46.64-41.31,21.6-73.06-20-25.3-44.89-44.93-44.78-42.94C682.79,253.61,656.57,305,656.45,332.86Z"/><path class="cls-2" d="M724.66,334.53c.57,5.24-11.24,10.83-26.37,12.47s-27.87-1.28-28.44-6.52"/><path class="cls-2" d="M718.8,319.19c.48,4.45-9.54,9.2-22.4,10.59s-23.66-1.08-24.14-5.54"/><path class="cls-2" d="M713.31,303.61c.49,4.45-7.93,9-18.8,10.2s-20.08-1.47-20.56-5.93"/><path class="cls-2" d="M705.8,285c.48,4.46-5.33,11.66-12.82,12.47s-16.13-3-16.62-7.46"/><path class="cls-2" d="M699,271.52c.48,4.46-1.28,8.84-8.77,9.65s-11-2.08-11.46-6.54"/><polygon class="cls-2" points="683 248.98 682.77 248.92 699.75 372.16 699 365.47 683 248.98"/><path class="cls-2" d="M1028.89,825.31c-15-37.4,8.44-40.4,34-47.78,31.83-9.18,58.58,21.19,47,59.94-9.21,30.88-25.15,58.32-25.78,56.43C1082.6,889.25,1039.29,851.19,1028.89,825.31Z"/><path class="cls-2" d="M1091.67,798.6c-1.4-5.09-14.44-5.93-29.11-1.87s-25.43,11.47-24,16.56"/><path class="cls-2" d="M1091.89,815c-1.2-4.32-12.27-5-24.73-1.59s-21.59,9.74-20.4,14.06"/><path class="cls-2" d="M1092.53,831.52c-1.19-4.32-10.7-5.46-21.24-2.54s-18.12,8.77-16.92,13.09"/><path class="cls-2" d="M1092.42,851.61c-1.19-4.32-9.25-8.86-16.51-6.85s-13.89,8.74-12.7,13.06"/><path class="cls-2" d="M1091.06,866.63c-1.2-4.32-4.45-7.74-11.71-5.74s-9.44,6-8.25,10.31"/><polygon class="cls-2" points="1084.51 893.48 1084.32 893.62 1054.64 772.8 1056.41 779.3 1084.51 893.48"/><path class="cls-2" d="M1082.08,816.75c-10-39,13.64-39,40-42.94,32.76-4.95,55.32,28.66,38.8,65.57-13.16,29.41-32.54,54.53-32.92,52.58C1127,887.15,1089,843.76,1082.08,816.75Z"/><path class="cls-2" d="M1147.81,798.45c-.73-5.23-13.54-7.76-28.62-5.65s-26.71,8.05-26,13.28"/><path class="cls-2" d="M1145.88,814.76c-.62-4.44-11.5-6.59-24.31-4.8s-22.68,6.84-22.06,11.28"/><path class="cls-2" d="M1144.37,831.21c-.62-4.44-9.9-6.81-20.73-5.3s-19.11,6.34-18.49,10.78"/><path class="cls-2" d="M1141.64,851.11c-.62-4.44-8-10-15.48-9s-14.91,6.85-14.29,11.29"/><path class="cls-2" d="M1138.32,865.82c-.62-4.44-3.4-8.25-10.86-7.21s-10.14,4.7-9.52,9.14"/><polygon class="cls-2" points="1128.33 891.59 1128.12 891.7 1114.46 768.05 1115.37 774.72 1128.33 891.59"/><path class="cls-2" d="M1144.49,810c-13.55-38,10-40.05,35.87-46.41,32.18-7.92,57.71,23.49,44.63,61.75-10.42,30.49-27.43,57.28-28,55.37C1195.64,876,1153.87,836.23,1144.49,810Z"/><path class="cls-2" d="M1208.28,785.73c-1.21-5.14-14.2-6.48-29-3s-25.86,10.46-24.66,15.6"/><path class="cls-2" d="M1207.84,802.15c-1-4.36-12-5.51-24.64-2.56s-22,8.88-20.94,13.25"/><path class="cls-2" d="M1207.84,818.67c-1-4.37-10.48-5.88-21.13-3.38s-18.44,8.05-17.42,12.42"/><path class="cls-2" d="M1206.94,838.74c-1-4.36-8.9-9.22-16.23-7.5s-14.22,8.19-13.2,12.55"/><path class="cls-2" d="M1205,853.69c-1-4.37-4.14-7.91-11.47-6.19s-9.67,5.61-8.65,10"/><polygon class="cls-2" points="1197.38 880.26 1197.19 880.39 1172.29 758.5 1173.8 765.07 1197.38 880.26"/><path class="cls-2" d="M740.78,792.86c9.56-39.16,30.39-27.93,55.47-19,31.23,11.08,35.29,51.35,3.32,76.11-25.47,19.74-54.4,32.76-53.82,30.86C747.2,876.12,734.16,820,740.78,792.86Z"/><path class="cls-2" d="M807.37,807.71c1.82-5-8.29-13.23-22.58-18.48s-27.35-5.48-29.17-.53"/><path class="cls-2" d="M798,821.18c1.55-4.21-7-11.23-19.17-15.69S755.58,800.83,754,805"/><path class="cls-2" d="M788.89,835c1.55-4.2-5.52-10.67-15.78-14.44s-19.84-3.41-21.39.79"/><path class="cls-2" d="M777.1,851.24c1.55-4.21-2.35-12.59-9.43-15.19s-16.38-1-17.92,3.23"/><path class="cls-2" d="M767.25,862.65c1.54-4.21.89-8.88-6.18-11.48s-11.16-.63-12.7,3.58"/><polygon class="cls-2" points="746.29 880.66 746.05 880.67 792.29 765.17 789.94 771.49 746.29 880.66"/><path class="cls-2" d="M795.62,808.06c-6-39.86,17.53-37.37,44.12-38.65,33.09-1.58,52.12,34.14,31.93,69.18-16.09,27.92-37.93,50.94-38.1,49C833.13,882.66,799.77,835.64,795.62,808.06Z"/><path class="cls-2" d="M862.87,796.55c-.2-5.28-12.69-9.1-27.9-8.54s-27.39,5.3-27.19,10.57"/><path class="cls-2" d="M859.29,812.57c-.17-4.48-10.78-7.72-23.69-7.24s-23.26,4.49-23.1,9"/><path class="cls-2" d="M856.11,828.78C855.94,824.3,847,821,836,821.4s-19.65,4.37-19.48,8.85"/><path class="cls-2" d="M851.37,848.31c-.17-4.48-7-10.76-14.49-10.48s-15.53,5.3-15.36,9.78"/><path class="cls-2" d="M846.57,862.6c-.16-4.48-2.54-8.56-10.06-8.28s-10.57,3.65-10.41,8.13"/><polygon class="cls-2" points="834.01 887.22 833.79 887.31 832.78 762.91 833 769.64 834.01 887.22"/><path class="cls-2" d="M849.35,812c-.75-40.31,22.25-34.77,48.78-32.56,33,2.74,47.22,40.64,22.63,72.74-19.59,25.59-44.24,45.56-44.16,43.57C876.81,890.86,849.87,839.88,849.35,812Z"/><path class="cls-2" d="M917.53,809.36c.49-5.26-11.39-10.68-26.55-12.1s-27.85,1.67-28.34,6.93"/><path class="cls-2" d="M911.88,824.78c.43-4.47-9.67-9.07-22.54-10.28s-23.64,1.43-24.06,5.89"/><path class="cls-2" d="M906.62,840.43c.42-4.46-8.06-8.91-19-9.93s-20,1.76-20.47,6.22"/><path class="cls-2" d="M899.37,859.17c.42-4.46-5.49-11.57-13-12.28s-16.09,3.23-16.51,7.69"/><path class="cls-2" d="M892.75,872.72c.42-4.46-1.4-8.82-8.9-9.52s-11,2.23-11.37,6.7"/><polygon class="cls-2" points="877.08 895.48 876.86 895.55 892.08 772.08 891.43 778.78 877.08 895.48"/><path class="cls-2" d="M911.64,819.79c-4.42-40.08,19-36.66,45.61-36.88,33.13-.28,50.73,36.16,29.18,70.37-17.18,27.27-39.9,49.41-40,47.43C946.19,895.81,914.7,847.51,911.64,819.79Z"/><path class="cls-2" d="M979.3,810.93c0-5.28-12.32-9.59-27.55-9.62s-27.57,4.21-27.58,9.49"/><path class="cls-2" d="M975.09,826.8c0-4.48-10.46-8.14-23.39-8.17s-23.42,3.58-23.43,8.06"/><path class="cls-2" d="M971.27,842.88c0-4.49-8.84-8.14-19.78-8.17s-19.8,3.59-19.81,8.07"/><path class="cls-2" d="M965.76,862.2c0-4.48-6.52-11-14.06-11.05S936,855.84,936,860.32"/><path class="cls-2" d="M960.41,876.29c0-4.48-2.2-8.65-9.73-8.67S940,870.85,940,875.33"/><polygon class="cls-2" points="946.89 900.39 946.67 900.48 950.56 776.13 950.51 782.87 946.89 900.39"/><path class="cls-2" d="M1239.2,814.23c-3.25-40.18,20-36.08,46.67-35.53,33.13.69,49.65,37.64,27.1,71.2-18,26.75-41.33,48.22-41.37,46.23C1271.5,891.23,1241.45,842,1239.2,814.23Z"/><path class="cls-2" d="M1307.08,807.36c.17-5.28-12-9.94-27.24-10.43s-27.69,3.4-27.86,8.68"/><path class="cls-2" d="M1302.41,823.1c.14-4.48-10.22-8.44-23.14-8.85s-23.51,2.89-23.65,7.37"/><path class="cls-2" d="M1298.13,839.06c.14-4.48-8.6-8.4-19.53-8.74s-19.91,3-20,7.48"/><path class="cls-2" d="M1292.06,858.21c.14-4.48-6.21-11.21-13.74-11.45s-15.85,4.22-16,8.7"/><path class="cls-2" d="M1286.29,872.14c.15-4.48-1.94-8.71-9.47-8.95s-10.8,2.91-10.94,7.39"/><polygon class="cls-2" points="1272.07 895.83 1271.85 895.91 1279.38 771.74 1279.14 778.47 1272.07 895.83"/><path class="cls-2" d="M1296,811.4c-18.25-36,4.87-41,29.71-50.57,30.91-11.93,60.21,16,52.08,55.6-6.48,31.57-20,60.29-20.75,58.47C1355.13,870.4,1308.66,836.27,1296,811.4Z"/><path class="cls-2" d="M1356.25,779.3c-1.85-4.95-14.91-4.64-29.17.68s-24.33,13.65-22.49,18.59"/><path class="cls-2" d="M1357.89,795.64c-1.57-4.2-12.66-3.94-24.77.58S1312.46,807.81,1314,812"/><path class="cls-2" d="M1360,812c-1.57-4.2-11.14-4.5-21.39-.68s-17.28,10.33-15.71,14.53"/><path class="cls-2" d="M1361.62,832.05c-1.57-4.2-10-8-17-5.39s-13.07,9.92-11.5,14.12"/><path class="cls-2" d="M1361.57,847.12c-1.57-4.2-5.1-7.32-12.16-4.68s-8.88,6.78-7.32,11"/><polygon class="cls-2" points="1357.39 874.44 1357.22 874.6 1317.1 756.84 1319.43 763.16 1357.39 874.44"/><path class="cls-2" d="M1006.19,804.23c6.11-39.85,27.83-30.48,53.6-23.81,32.08,8.32,39.64,48.07,10,75.54-23.65,21.88-51.33,37.38-50.91,35.44C1019.86,886.6,1002,831.8,1006.19,804.23Z"/><path class="cls-2" d="M1073.83,813.2c1.38-5.09-9.42-12.45-24.11-16.43s-27.73-3.08-29.11,2"/><path class="cls-2" d="M1065.65,827.44c1.17-4.32-8-10.57-20.47-14s-23.55-2.62-24.72,1.71"/><path class="cls-2" d="M1057.8,842c1.17-4.33-6.43-10.15-17-13s-20.06-1.67-21.23,2.65"/><path class="cls-2" d="M1047.47,859.21c1.18-4.32-3.44-12.34-10.71-14.31s-16.41.45-17.58,4.78"/><path class="cls-2" d="M1038.65,871.44c1.18-4.33.12-8.93-7.15-10.9s-11.18.35-12.35,4.67"/><polygon class="cls-2" points="1019.35 891.21 1019.11 891.24 1055.08 772.14 1053.3 778.64 1019.35 891.21"/><path class="cls-2" d="M1062.15,814.58c-9.46-39.19,14.2-38.76,40.57-42.35,32.83-4.47,54.9,29.45,37.85,66.12-13.59,29.22-33.33,54.06-33.68,52.1C1106,885.62,1068.69,841.69,1062.15,814.58Z"/><path class="cls-2" d="M1128.14,797.24c-.66-5.24-13.43-8-28.54-6.07s-26.82,7.67-26.17,12.91"/><path class="cls-2" d="M1126,813.52c-.56-4.45-11.41-6.76-24.24-5.15s-22.77,6.51-22.22,11"/><path class="cls-2" d="M1124.22,829.94c-.56-4.45-9.8-7-20.65-5.6s-19.2,6.07-18.64,10.51"/><path class="cls-2" d="M1121.2,849.81c-.56-4.45-7.87-10.12-15.35-9.18s-15,6.64-14.45,11.08"/><path class="cls-2" d="M1117.67,864.46c-.55-4.45-3.28-8.3-10.75-7.37s-10.21,4.56-9.65,9"/><polygon class="cls-2" points="1107.3 890.08 1107.1 890.19 1095.23 766.35 1096.04 773.04 1107.3 890.08"/><path class="cls-2" d="M1116,813.81c-4.27-40.09,19.13-36.58,45.75-36.7,33.14-.15,50.59,36.37,28.9,70.49-17.29,27.2-40.1,49.25-40.19,47.27C1150.26,890,1119,841.54,1116,813.81Z"/><path class="cls-2" d="M1183.71,805.22c0-5.27-12.28-9.63-27.51-9.73s-27.59,4.1-27.63,9.38"/><path class="cls-2" d="M1179.43,821.08c0-4.48-10.43-8.18-23.35-8.27s-23.44,3.48-23.46,8"/><path class="cls-2" d="M1175.55,837.14c0-4.49-8.81-8.18-19.74-8.25s-19.82,3.51-19.85,8"/><path class="cls-2" d="M1170,856.44c0-4.49-6.49-11.06-14-11.11s-15.75,4.63-15.77,9.11"/><path class="cls-2" d="M1164.56,870.51c0-4.48-2.17-8.66-9.7-8.71s-10.72,3.18-10.74,7.67"/><polygon class="cls-2" points="1150.94 894.55 1150.72 894.64 1155.1 770.31 1155.04 777.04 1150.94 894.55"/><path class="cls-2" d="M1178.75,816.13c-7.9-39.53,15.72-38.17,42.22-40.72,33-3.18,53.69,31.59,35.21,67.56-14.73,28.66-35.43,52.7-35.7,50.73C1219.81,888.84,1184.22,843.48,1178.75,816.13Z"/><path class="cls-2" d="M1245.38,801.4c-.45-5.26-13.11-8.48-28.28-7.18s-27.1,6.6-26.66,11.86"/><path class="cls-2" d="M1242.57,817.58c-.38-4.47-11.13-7.2-24-6.1s-23,5.61-22.64,10.07"/><path class="cls-2" d="M1240.17,833.92c-.38-4.46-9.52-7.33-20.41-6.4s-19.42,5.3-19,9.76"/><path class="cls-2" d="M1236.37,853.65c-.38-4.46-7.46-10.41-15-9.77s-15.26,6-14.88,10.51"/><path class="cls-2" d="M1232.27,868.16c-.38-4.47-3-8.43-10.45-7.79s-10.38,4.15-10,8.62"/><polygon class="cls-2" points="1220.9 893.35 1220.69 893.45 1213.71 769.24 1214.25 775.96 1220.9 893.35"/><path class="cls-2" d="M721.14,808c4.52-40.06,26.6-31.56,52.62-25.91,32.38,7,41.5,46.46,12.94,75.08-22.77,22.8-49.82,39.39-49.48,37.43C738.07,889.77,718,835.72,721.14,808Z"/><path class="cls-2" d="M789.08,814.28c1.18-5.14-9.9-12.07-24.74-15.46s-27.83-2-29,3.17"/><path class="cls-2" d="M781.47,828.84c1-4.37-8.41-10.25-21-13.13s-23.63-1.68-24.63,2.69"/><path class="cls-2" d="M774.21,843.67c1-4.37-6.84-9.89-17.49-12.32s-20.11-.88-21.11,3.49"/><path class="cls-2" d="M764.57,861.3c1-4.37-3.93-12.19-11.28-13.87s-16.37,1.1-17.37,5.47"/><path class="cls-2" d="M756.24,873.87c1-4.37-.24-8.92-7.58-10.6s-11.15.78-12.15,5.15"/><polygon class="cls-2" points="737.74 894.39 737.5 894.43 768.72 774 767.2 780.56 737.74 894.39"/><path class="cls-2" d="M777.46,816.12c-11-38.78,12.65-39.29,38.87-43.92,32.62-5.77,56,27.25,40.44,64.56-12.42,29.74-31.16,55.34-31.59,53.4C824.13,885.37,785.08,843,777.46,816.12Z"/><path class="cls-2" d="M842.71,796.18c-.86-5.21-13.73-7.42-28.75-4.93s-26.5,8.72-25.64,13.93"/><path class="cls-2" d="M841.19,812.53c-.73-4.42-11.66-6.3-24.42-4.19s-22.5,7.41-21.77,11.83"/><path class="cls-2" d="M840.09,829c-.73-4.42-10.07-6.56-20.85-4.77S800.3,831.06,801,835.48"/><path class="cls-2" d="M837.86,849c-.73-4.42-8.26-9.79-15.69-8.56s-14.74,7.23-14,11.65"/><path class="cls-2" d="M834.92,863.76c-.73-4.42-3.6-8.16-11-6.93s-10,4.95-9.29,9.38"/><polygon class="cls-2" points="825.58 889.77 825.38 889.89 808.6 766.62 809.68 773.27 825.58 889.77"/><path class="cls-2" d="M831.26,813.22c-5.85-39.89,17.67-37.31,44.26-38.49,33.1-1.46,52,34.33,31.67,69.29-16.19,27.86-38.11,50.8-38.28,48.82C868.49,888,835.31,840.81,831.26,813.22Z"/><path class="cls-2" d="M898.55,802c-.17-5.27-12.65-9.14-27.86-8.63s-27.41,5.19-27.24,10.46"/><path class="cls-2" d="M894.91,818c-.15-4.48-10.74-7.77-23.66-7.34S848,815,848.12,819.52"/><path class="cls-2" d="M891.67,834.16c-.15-4.48-9.13-7.81-20-7.45S852,831,852.1,835.48"/><path class="cls-2" d="M886.86,853.67c-.15-4.48-6.92-10.79-14.45-10.54s-15.55,5.25-15.4,9.73"/><path class="cls-2" d="M882,867.94c-.15-4.48-2.51-8.56-10-8.31s-10.58,3.6-10.43,8.08"/><polygon class="cls-2" points="869.36 892.51 869.14 892.61 868.59 768.2 868.79 774.93 869.36 892.51"/><path class="cls-2" d="M894,813.05c-9.47-39.19,14.19-38.77,40.56-42.37,32.83-4.48,54.91,29.44,37.87,66.11-13.58,29.22-33.31,54.07-33.66,52.11C937.94,884.07,900.59,840.16,894,813.05Z"/><path class="cls-2" d="M960,795.68c-.65-5.23-13.43-7.94-28.54-6s-26.82,7.67-26.16,12.91"/><path class="cls-2" d="M957.86,812c-.56-4.44-11.41-6.75-24.24-5.14s-22.77,6.52-22.21,11"/><path class="cls-2" d="M956.11,828.39c-.55-4.45-9.8-6.95-20.65-5.59s-19.19,6.06-18.64,10.51"/><path class="cls-2" d="M953.1,848.25c-.56-4.44-7.87-10.11-15.35-9.17s-15,6.64-14.45,11.09"/><path class="cls-2" d="M949.58,862.91c-.56-4.45-3.28-8.3-10.76-7.36s-10.2,4.55-9.65,9"/><polygon class="cls-2" points="939.22 888.53 939.01 888.65 927.1 764.81 927.92 771.5 939.22 888.53"/><path class="cls-2" d="M547.31,774.37c-1.76-40.28,21.37-35.32,48-33.78,33.08,1.91,48.23,39.44,24.45,72.15-18.94,26.07-43.08,46.66-43.05,44.67C576.74,852.51,548.53,802.23,547.31,774.37Z"/><path class="cls-2" d="M615.4,770c.36-5.27-11.66-10.38-26.84-11.43s-27.8,2.38-28.16,7.64"/><path class="cls-2" d="M610.15,785.57c.31-4.47-9.9-8.82-22.8-9.71s-23.6,2-23.91,6.49"/><path class="cls-2" d="M605.28,801.35c.31-4.47-8.29-8.7-19.2-9.45s-20,2.26-20.31,6.73"/><path class="cls-2" d="M598.5,820.27c.31-4.47-5.78-11.44-13.3-11.95s-16,3.63-16.31,8.1"/><path class="cls-2" d="M592.23,834c.31-4.48-1.63-8.78-9.14-9.3s-10.89,2.51-11.2,7"/><polygon class="cls-2" points="577.14 857.13 576.91 857.2 589.03 733.38 588.54 740.1 577.14 857.13"/><path class="cls-2" d="M600.32,784c3.51-40.17,25.8-32.23,51.95-27.24,32.55,6.21,42.67,45.4,14.83,74.73-22.18,23.37-48.8,40.64-48.51,38.67C619.31,865.26,597.9,811.73,600.32,784Z"/><path class="cls-2" d="M668.4,788.51c1.05-5.17-10.2-11.81-25.12-14.83s-27.87-1.27-28.91,3.9"/><path class="cls-2" d="M661.16,803.25c.89-4.39-8.66-10-21.33-12.59s-23.66-1.08-24.55,3.31"/><path class="cls-2" d="M654.28,818.27c.89-4.4-7.08-9.72-17.8-11.88s-20.12-.37-21,4"/><path class="cls-2" d="M645.09,836.14c.89-4.4-4.24-12.1-11.62-13.59s-16.34,1.52-17.23,5.91"/><path class="cls-2" d="M637.08,848.91c.89-4.4-.46-8.92-7.84-10.41s-11.13,1.07-12,5.46"/><polygon class="cls-2" points="619.1 869.89 618.87 869.93 647.03 748.76 645.67 755.35 619.1 869.89"/><path class="cls-2" d="M661.45,798.26c-.17-40.31,22.75-34.44,49.24-31.86,33,3.21,46.64,41.31,21.6,73.06-20,25.3-44.89,44.92-44.78,42.94C687.79,877.5,661.57,826.15,661.45,798.26Z"/><path class="cls-2" d="M729.66,796.59c.57-5.25-11.24-10.83-26.37-12.48s-27.87,1.28-28.44,6.53"/><path class="cls-2" d="M723.8,811.93c.48-4.45-9.54-9.2-22.4-10.59s-23.66,1.08-24.14,5.54"/><path class="cls-2" d="M718.31,827.51c.49-4.45-7.93-9-18.8-10.2s-20.08,1.47-20.56,5.93"/><path class="cls-2" d="M710.8,846.15c.48-4.46-5.33-11.66-12.82-12.47s-16.13,3-16.62,7.46"/><path class="cls-2" d="M704,859.6c.48-4.46-1.28-8.84-8.77-9.65s-11,2.08-11.46,6.53"/><polygon class="cls-2" points="688 882.14 687.77 882.2 704.75 758.96 704 765.65 688 882.14"/><path class="cls-2" d="M990,790.17c.28-40.31,23.13-34.19,49.6-31.31,32.94,3.58,46.17,41.82,20.78,73.29-20.23,25.08-45.38,44.43-45.25,42.44C1015.48,869.7,989.84,818.07,990,790.17Z"/><path class="cls-2" d="M1058.25,789.26c.63-5.24-11.12-11-26.24-12.77s-27.87,1-28.5,6.21"/><path class="cls-2" d="M1052.22,804.53c.53-4.45-9.44-9.3-22.28-10.84s-23.67.82-24.21,5.28"/><path class="cls-2" d="M1046.56,820.05c.53-4.45-7.84-9.11-18.69-10.41s-20.09,1.25-20.63,5.7"/><path class="cls-2" d="M1038.84,838.6c.53-4.45-5.2-11.71-12.68-12.61s-16.17,2.83-16.7,7.28"/><path class="cls-2" d="M1031.88,852c.53-4.45-1.18-8.84-8.66-9.74s-11,2-11.54,6.41"/><polygon class="cls-2" points="1015.64 874.34 1015.41 874.4 1033.76 751.35 1032.93 758.03 1015.64 874.34"/><path class="cls-2" d="M1046.89,792.31c-15-37.4,8.44-40.4,34-47.78,31.83-9.18,58.58,21.19,47,59.94-9.21,30.88-25.15,58.32-25.78,56.43C1100.6,856.25,1057.29,818.19,1046.89,792.31Z"/><path class="cls-2" d="M1109.67,765.6c-1.4-5.09-14.44-5.93-29.11-1.87s-25.43,11.47-24,16.56"/><path class="cls-2" d="M1109.89,782c-1.2-4.32-12.27-5-24.73-1.59s-21.59,9.74-20.4,14.06"/><path class="cls-2" d="M1110.53,798.52c-1.19-4.32-10.7-5.46-21.24-2.54s-18.12,8.77-16.92,13.09"/><path class="cls-2" d="M1110.42,818.61c-1.19-4.32-9.25-8.86-16.51-6.85s-13.89,8.74-12.7,13.06"/><path class="cls-2" d="M1109.06,833.63c-1.2-4.32-4.45-7.74-11.71-5.74s-9.44,6-8.25,10.31"/><polygon class="cls-2" points="1102.51 860.48 1102.32 860.62 1072.64 739.8 1074.41 746.3 1102.51 860.48"/><path class="cls-2" d="M1100.08,783.75c-10-39,13.64-39,40-42.94,32.76-4.95,55.32,28.66,38.8,65.57-13.16,29.41-32.54,54.53-32.92,52.58C1145,854.15,1107,810.76,1100.08,783.75Z"/><path class="cls-2" d="M1165.81,765.45c-.73-5.23-13.54-7.76-28.62-5.65s-26.71,8.05-26,13.28"/><path class="cls-2" d="M1163.88,781.76c-.62-4.44-11.5-6.59-24.31-4.8s-22.68,6.84-22.06,11.28"/><path class="cls-2" d="M1162.37,798.21c-.62-4.44-9.9-6.81-20.73-5.3s-19.11,6.34-18.49,10.78"/><path class="cls-2" d="M1159.64,818.11c-.62-4.44-8-10-15.48-9s-14.91,6.85-14.29,11.29"/><path class="cls-2" d="M1156.32,832.82c-.62-4.44-3.4-8.25-10.86-7.21s-10.14,4.7-9.52,9.14"/><polygon class="cls-2" points="1146.33 858.59 1146.12 858.7 1132.46 735.05 1133.37 741.72 1146.33 858.59"/><path class="cls-2" d="M1162.49,777c-13.55-38,10-40.05,35.87-46.41,32.18-7.92,57.71,23.49,44.63,61.75-10.42,30.49-27.43,57.28-28,55.37C1213.64,843,1171.87,803.23,1162.49,777Z"/><path class="cls-2" d="M1226.28,752.73c-1.21-5.14-14.2-6.48-29-3s-25.86,10.46-24.66,15.6"/><path class="cls-2" d="M1225.84,769.15c-1-4.36-12-5.51-24.64-2.56s-22,8.88-20.94,13.25"/><path class="cls-2" d="M1225.84,785.67c-1-4.37-10.48-5.88-21.13-3.38s-18.44,8.05-17.42,12.42"/><path class="cls-2" d="M1224.94,805.74c-1-4.36-8.9-9.22-16.23-7.5s-14.22,8.19-13.2,12.55"/><path class="cls-2" d="M1223,820.69c-1-4.37-4.14-7.91-11.47-6.19s-9.67,5.61-8.65,10"/><polygon class="cls-2" points="1215.38 847.26 1215.19 847.39 1190.29 725.5 1191.8 732.07 1215.38 847.26"/><path class="cls-2" d="M758.78,759.86c9.56-39.16,30.39-27.93,55.47-19,31.23,11.08,35.29,51.35,3.32,76.11-25.47,19.74-54.4,32.76-53.82,30.86C765.2,843.12,752.16,787,758.78,759.86Z"/><path class="cls-2" d="M825.37,774.71c1.82-5-8.29-13.23-22.58-18.48s-27.35-5.48-29.17-.53"/><path class="cls-2" d="M816,788.18c1.55-4.21-7-11.23-19.17-15.69S773.58,767.83,772,772"/><path class="cls-2" d="M806.89,802c1.55-4.2-5.52-10.67-15.78-14.44s-19.84-3.41-21.39.79"/><path class="cls-2" d="M795.1,818.24c1.55-4.21-2.35-12.59-9.43-15.19s-16.38-1-17.92,3.23"/><path class="cls-2" d="M785.25,829.65c1.54-4.21.89-8.88-6.18-11.48s-11.16-.63-12.7,3.58"/><polygon class="cls-2" points="764.29 847.66 764.05 847.67 810.29 732.17 807.94 738.49 764.29 847.66"/><path class="cls-2" d="M813.62,775.06c-6-39.86,17.53-37.37,44.12-38.65,33.09-1.58,52.12,34.14,31.93,69.18-16.09,27.92-37.93,50.94-38.1,49C851.13,849.66,817.77,802.64,813.62,775.06Z"/><path class="cls-2" d="M880.87,763.55c-.2-5.28-12.69-9.1-27.9-8.54s-27.39,5.3-27.19,10.57"/><path class="cls-2" d="M877.29,779.57c-.17-4.48-10.78-7.72-23.69-7.24s-23.26,4.49-23.1,9"/><path class="cls-2" d="M874.11,795.78C873.94,791.3,865,788,854,788.4s-19.65,4.37-19.48,8.85"/><path class="cls-2" d="M869.37,815.31c-.17-4.48-7-10.76-14.49-10.48s-15.53,5.3-15.36,9.78"/><path class="cls-2" d="M864.57,829.6c-.16-4.48-2.54-8.56-10.06-8.28s-10.57,3.65-10.41,8.13"/><polygon class="cls-2" points="852.01 854.22 851.79 854.31 850.78 729.91 851 736.64 852.01 854.22"/><path class="cls-2" d="M867.35,779c-.75-40.31,22.25-34.77,48.78-32.56,33,2.74,47.22,40.64,22.63,72.74-19.59,25.59-44.24,45.56-44.16,43.57C894.81,857.86,867.87,806.88,867.35,779Z"/><path class="cls-2" d="M935.53,776.36c.49-5.26-11.39-10.68-26.55-12.1s-27.85,1.67-28.34,6.93"/><path class="cls-2" d="M929.88,791.78c.43-4.47-9.67-9.07-22.54-10.28s-23.64,1.43-24.06,5.89"/><path class="cls-2" d="M924.62,807.43c.42-4.46-8.06-8.91-19-9.93s-20,1.76-20.47,6.22"/><path class="cls-2" d="M917.37,826.17c.42-4.46-5.49-11.57-13-12.28s-16.09,3.23-16.51,7.69"/><path class="cls-2" d="M910.75,839.72c.42-4.46-1.4-8.82-8.9-9.52s-11,2.23-11.37,6.7"/><polygon class="cls-2" points="895.08 862.48 894.86 862.55 910.08 739.08 909.43 745.78 895.08 862.48"/><path class="cls-2" d="M929.64,786.79c-4.42-40.08,19-36.66,45.61-36.88,33.13-.28,50.73,36.16,29.18,70.37-17.18,27.27-39.9,49.41-40,47.43C964.19,862.81,932.7,814.51,929.64,786.79Z"/><path class="cls-2" d="M997.3,777.93c0-5.28-12.32-9.59-27.55-9.62s-27.57,4.21-27.58,9.49"/><path class="cls-2" d="M993.09,793.8c0-4.48-10.46-8.14-23.39-8.17s-23.42,3.58-23.43,8.06"/><path class="cls-2" d="M989.27,809.88c0-4.49-8.84-8.14-19.78-8.17s-19.8,3.59-19.81,8.07"/><path class="cls-2" d="M983.76,829.2c0-4.48-6.52-11-14.06-11.05S954,822.84,954,827.32"/><path class="cls-2" d="M978.41,843.29c0-4.48-2.2-8.65-9.73-8.67S958,837.85,958,842.33"/><polygon class="cls-2" points="964.89 867.39 964.67 867.48 968.56 743.13 968.51 749.87 964.89 867.39"/><path class="cls-2" d="M1254.2,760.23c-3.25-40.18,20-36.08,46.67-35.53,33.13.69,49.65,37.64,27.1,71.2-18,26.75-41.33,48.22-41.37,46.23C1286.5,837.23,1256.45,788,1254.2,760.23Z"/><path class="cls-2" d="M1322.08,753.36c.17-5.28-12-9.94-27.24-10.43s-27.69,3.4-27.86,8.68"/><path class="cls-2" d="M1317.41,769.1c.14-4.48-10.22-8.44-23.14-8.85s-23.51,2.89-23.65,7.37"/><path class="cls-2" d="M1313.13,785.06c.14-4.48-8.6-8.4-19.53-8.74s-19.91,3-20,7.48"/><path class="cls-2" d="M1307.06,804.21c.14-4.48-6.21-11.21-13.74-11.45s-15.85,4.22-16,8.7"/><path class="cls-2" d="M1301.29,818.14c.15-4.48-1.94-8.71-9.47-8.95s-10.8,2.91-10.94,7.39"/><polygon class="cls-2" points="1287.07 841.83 1286.85 841.91 1294.38 717.74 1294.14 724.47 1287.07 841.83"/><path class="cls-2" d="M1314,778.4c-18.25-36,4.87-41,29.71-50.57,30.91-11.93,60.21,16,52.08,55.6-6.48,31.57-20,60.29-20.75,58.47C1373.13,837.4,1326.66,803.27,1314,778.4Z"/><path class="cls-2" d="M1374.25,746.3c-1.85-4.95-14.91-4.64-29.17.68s-24.33,13.65-22.49,18.59"/><path class="cls-2" d="M1375.89,762.64c-1.57-4.2-12.66-3.94-24.77.58S1330.46,774.81,1332,779"/><path class="cls-2" d="M1378,779c-1.57-4.2-11.14-4.5-21.39-.68s-17.28,10.33-15.71,14.53"/><path class="cls-2" d="M1379.62,799.05c-1.57-4.2-10-8-17-5.39s-13.07,9.92-11.5,14.12"/><path class="cls-2" d="M1379.57,814.12c-1.57-4.2-5.1-7.32-12.16-4.68s-8.88,6.78-7.32,11"/><polygon class="cls-2" points="1375.39 841.44 1375.22 841.6 1335.1 723.84 1337.43 730.16 1375.39 841.44"/><path class="cls-2" d="M1024.19,771.23c6.11-39.85,27.83-30.48,53.6-23.81,32.08,8.32,39.64,48.07,10,75.54-23.65,21.88-51.33,37.38-50.91,35.44C1037.86,853.6,1020,798.8,1024.19,771.23Z"/><path class="cls-2" d="M1091.83,780.2c1.38-5.09-9.42-12.45-24.11-16.43s-27.73-3.08-29.11,2"/><path class="cls-2" d="M1083.65,794.44c1.17-4.32-8-10.57-20.47-14s-23.55-2.62-24.72,1.71"/><path class="cls-2" d="M1075.8,809c1.17-4.33-6.43-10.15-17-13s-20.06-1.67-21.23,2.65"/><path class="cls-2" d="M1065.47,826.21c1.18-4.32-3.44-12.34-10.71-14.31s-16.41.45-17.58,4.78"/><path class="cls-2" d="M1056.65,838.44c1.18-4.33.12-8.93-7.15-10.9s-11.18.35-12.35,4.67"/><polygon class="cls-2" points="1037.35 858.21 1037.11 858.24 1073.08 739.14 1071.3 745.64 1037.35 858.21"/><path class="cls-2" d="M1080.15,781.58c-9.46-39.19,14.2-38.76,40.57-42.35,32.83-4.47,54.9,29.45,37.85,66.12-13.59,29.22-33.33,54.06-33.68,52.1C1124,852.62,1086.69,808.69,1080.15,781.58Z"/><path class="cls-2" d="M1146.14,764.24c-.66-5.24-13.43-8-28.54-6.07s-26.82,7.67-26.17,12.91"/><path class="cls-2" d="M1144,780.52c-.56-4.45-11.41-6.76-24.24-5.15s-22.77,6.51-22.22,11"/><path class="cls-2" d="M1142.22,796.94c-.56-4.45-9.8-7-20.65-5.6s-19.2,6.07-18.64,10.51"/><path class="cls-2" d="M1139.2,816.81c-.56-4.45-7.87-10.12-15.35-9.18s-15,6.64-14.45,11.08"/><path class="cls-2" d="M1135.67,831.46c-.55-4.45-3.28-8.3-10.75-7.37s-10.21,4.56-9.65,9"/><polygon class="cls-2" points="1125.3 857.08 1125.1 857.19 1113.23 733.35 1114.04 740.04 1125.3 857.08"/><path class="cls-2" d="M1134,780.81c-4.27-40.09,19.13-36.58,45.75-36.7,33.14-.15,50.59,36.37,28.9,70.49-17.29,27.2-40.1,49.25-40.19,47.27C1168.26,857,1137,808.54,1134,780.81Z"/><path class="cls-2" d="M1201.71,772.22c0-5.27-12.28-9.63-27.51-9.73s-27.59,4.1-27.63,9.38"/><path class="cls-2" d="M1197.43,788.08c0-4.48-10.43-8.18-23.35-8.27s-23.44,3.48-23.46,8"/><path class="cls-2" d="M1193.55,804.14c0-4.49-8.81-8.18-19.74-8.25s-19.82,3.51-19.85,8"/><path class="cls-2" d="M1188,823.44c0-4.49-6.49-11.06-14-11.11s-15.75,4.63-15.77,9.11"/><path class="cls-2" d="M1182.56,837.51c0-4.48-2.17-8.66-9.7-8.71s-10.72,3.18-10.74,7.67"/><polygon class="cls-2" points="1168.94 861.55 1168.72 861.64 1173.1 737.31 1173.04 744.04 1168.94 861.55"/><path class="cls-2" d="M1196.75,766.13c-7.9-39.53,15.72-38.17,42.22-40.72,33-3.18,53.69,31.59,35.21,67.56-14.73,28.66-35.43,52.7-35.7,50.73C1237.81,838.84,1202.22,793.48,1196.75,766.13Z"/><path class="cls-2" d="M1263.38,751.4c-.45-5.26-13.11-8.48-28.28-7.18s-27.1,6.6-26.66,11.86"/><path class="cls-2" d="M1260.57,767.58c-.38-4.47-11.13-7.2-24-6.1s-23,5.61-22.64,10.07"/><path class="cls-2" d="M1258.17,783.92c-.38-4.46-9.52-7.33-20.41-6.4s-19.42,5.3-19,9.76"/><path class="cls-2" d="M1254.37,803.65c-.38-4.46-7.46-10.41-15-9.77s-15.26,6-14.88,10.51"/><path class="cls-2" d="M1250.27,818.16c-.38-4.47-3-8.43-10.45-7.79s-10.38,4.15-10,8.62"/><polygon class="cls-2" points="1238.9 843.35 1238.69 843.45 1231.71 719.24 1232.25 725.96 1238.9 843.35"/><path class="cls-2" d="M739.14,775c4.52-40.06,26.6-31.56,52.62-25.91,32.38,7,41.5,46.46,12.94,75.08-22.77,22.8-49.82,39.39-49.48,37.43C756.07,856.77,736,802.72,739.14,775Z"/><path class="cls-2" d="M807.08,781.28c1.18-5.14-9.9-12.07-24.74-15.46s-27.83-2-29,3.17"/><path class="cls-2" d="M799.47,795.84c1-4.37-8.41-10.25-21-13.13s-23.63-1.68-24.63,2.69"/><path class="cls-2" d="M792.21,810.67c1-4.37-6.84-9.89-17.49-12.32s-20.11-.88-21.11,3.49"/><path class="cls-2" d="M782.57,828.3c1-4.37-3.93-12.19-11.28-13.87s-16.37,1.1-17.37,5.47"/><path class="cls-2" d="M774.24,840.87c1-4.37-.24-8.92-7.58-10.6s-11.15.78-12.15,5.15"/><polygon class="cls-2" points="755.74 861.39 755.5 861.43 786.72 741 785.2 747.56 755.74 861.39"/><path class="cls-2" d="M795.46,783.12c-11-38.78,12.65-39.29,38.87-43.92,32.62-5.77,56,27.25,40.44,64.56-12.42,29.74-31.16,55.34-31.59,53.4C842.13,852.37,803.08,810,795.46,783.12Z"/><path class="cls-2" d="M860.71,763.18c-.86-5.21-13.73-7.42-28.75-4.93s-26.5,8.72-25.64,13.93"/><path class="cls-2" d="M859.19,779.53c-.73-4.42-11.66-6.3-24.42-4.19s-22.5,7.41-21.77,11.83"/><path class="cls-2" d="M858.09,796c-.73-4.42-10.07-6.56-20.85-4.77S818.3,798.06,819,802.48"/><path class="cls-2" d="M855.86,816c-.73-4.42-8.26-9.79-15.69-8.56s-14.74,7.23-14,11.65"/><path class="cls-2" d="M852.92,830.76c-.73-4.42-3.6-8.16-11-6.93s-10,4.95-9.29,9.38"/><polygon class="cls-2" points="843.58 856.77 843.38 856.89 826.6 733.62 827.68 740.27 843.58 856.77"/><path class="cls-2" d="M849.26,780.22c-5.85-39.89,17.67-37.31,44.26-38.49,33.1-1.46,52,34.33,31.67,69.29-16.19,27.86-38.11,50.8-38.28,48.82C886.49,855,853.31,807.81,849.26,780.22Z"/><path class="cls-2" d="M916.55,769c-.17-5.27-12.65-9.14-27.86-8.63s-27.41,5.19-27.24,10.46"/><path class="cls-2" d="M912.91,785c-.15-4.48-10.74-7.77-23.66-7.34S866,782,866.12,786.52"/><path class="cls-2" d="M909.67,801.16c-.15-4.48-9.13-7.81-20-7.45S870,798,870.1,802.48"/><path class="cls-2" d="M904.86,820.67c-.15-4.48-6.92-10.79-14.45-10.54s-15.55,5.25-15.4,9.73"/><path class="cls-2" d="M900,834.94c-.15-4.48-2.51-8.56-10-8.31s-10.58,3.6-10.43,8.08"/><polygon class="cls-2" points="887.36 859.51 887.14 859.61 886.59 735.2 886.79 741.93 887.36 859.51"/><path class="cls-2" d="M912,780.05c-9.47-39.19,14.19-38.77,40.56-42.37,32.83-4.48,54.91,29.44,37.87,66.11-13.58,29.22-33.31,54.07-33.66,52.11C955.94,851.07,918.59,807.16,912,780.05Z"/><path class="cls-2" d="M978,762.68c-.65-5.23-13.43-7.94-28.54-6s-26.82,7.67-26.16,12.91"/><path class="cls-2" d="M975.86,779c-.56-4.44-11.41-6.75-24.24-5.14s-22.77,6.52-22.21,11"/><path class="cls-2" d="M974.11,795.39c-.55-4.45-9.8-6.95-20.65-5.59s-19.19,6.06-18.64,10.51"/><path class="cls-2" d="M971.1,815.25c-.56-4.44-7.87-10.11-15.35-9.17s-15,6.64-14.45,11.09"/><path class="cls-2" d="M967.58,829.91c-.56-4.45-3.28-8.3-10.76-7.36s-10.2,4.55-9.65,9"/><polygon class="cls-2" points="957.22 855.53 957.01 855.65 945.1 731.81 945.92 738.5 957.22 855.53"/><path class="cls-2" d="M565.31,741.37c-1.76-40.28,21.37-35.32,48-33.78,33.08,1.91,48.23,39.44,24.45,72.15-18.94,26.07-43.08,46.66-43.05,44.67C594.74,819.51,566.53,769.23,565.31,741.37Z"/><path class="cls-2" d="M633.4,737c.36-5.27-11.66-10.38-26.84-11.43s-27.8,2.38-28.16,7.64"/><path class="cls-2" d="M628.15,752.57c.31-4.47-9.9-8.82-22.8-9.71s-23.6,2-23.91,6.49"/><path class="cls-2" d="M623.28,768.35c.31-4.47-8.29-8.7-19.2-9.45s-20,2.26-20.31,6.73"/><path class="cls-2" d="M616.5,787.27c.31-4.47-5.78-11.44-13.3-11.95s-16,3.63-16.31,8.1"/><path class="cls-2" d="M610.23,801c.31-4.48-1.63-8.78-9.14-9.3s-10.89,2.51-11.2,7"/><polygon class="cls-2" points="595.14 824.13 594.91 824.2 607.03 700.38 606.54 707.1 595.14 824.13"/><path class="cls-2" d="M618.32,751c3.51-40.17,25.8-32.23,51.95-27.24,32.55,6.21,42.67,45.4,14.83,74.73-22.18,23.37-48.8,40.64-48.51,38.67C637.31,832.26,615.9,778.73,618.32,751Z"/><path class="cls-2" d="M686.4,755.51c1.05-5.17-10.2-11.81-25.12-14.83s-27.87-1.27-28.91,3.9"/><path class="cls-2" d="M679.16,770.25c.89-4.39-8.66-10-21.33-12.59s-23.66-1.08-24.55,3.31"/><path class="cls-2" d="M672.28,785.27c.89-4.4-7.08-9.72-17.8-11.88s-20.12-.37-21,4"/><path class="cls-2" d="M663.09,803.14c.89-4.4-4.24-12.1-11.62-13.59s-16.34,1.52-17.23,5.91"/><path class="cls-2" d="M655.08,815.91c.89-4.4-.46-8.92-7.84-10.41s-11.13,1.07-12,5.46"/><polygon class="cls-2" points="637.1 836.89 636.87 836.93 665.03 715.76 663.67 722.35 637.1 836.89"/><path class="cls-2" d="M679.45,765.26c-.17-40.31,22.75-34.44,49.24-31.86,33,3.21,46.64,41.31,21.6,73.06-20,25.3-44.89,44.92-44.78,42.94C705.79,844.5,679.57,793.15,679.45,765.26Z"/><path class="cls-2" d="M747.66,763.59c.57-5.25-11.24-10.83-26.37-12.48s-27.87,1.28-28.44,6.53"/><path class="cls-2" d="M741.8,778.93c.48-4.45-9.54-9.2-22.4-10.59s-23.66,1.08-24.14,5.54"/><path class="cls-2" d="M736.31,794.51c.49-4.45-7.93-9-18.8-10.2s-20.08,1.47-20.56,5.93"/><path class="cls-2" d="M728.8,813.15c.48-4.46-5.33-11.66-12.82-12.47s-16.13,3-16.62,7.46"/><path class="cls-2" d="M722,826.6c.48-4.46-1.28-8.84-8.77-9.65s-11,2.08-11.46,6.53"/><polygon class="cls-2" points="706 849.14 705.77 849.2 722.75 725.96 722 732.65 706 849.14"/><text class="cls-3" transform="translate(625.67 523.19)">YOU WIN!</text><path class="cls-4" d="M1208.74,644.38c.92,31.19,31,65.75,73.37,66.34,36.94.52,67-30,66.89-66.89-.25-92.67-39.93-67.53-70.1-71.55C1255.65,569.18,1206,552.07,1208.74,644.38Z"/><path class="cls-5" d="M1260.19,545.38l3.11-13.25c12.13,17.65,22.54,24.47,27.09,48.91H1276C1282.34,566.34,1286.55,582.5,1260.19,545.38Z"/><path class="cls-6" d="M1277.34,627.9c-5.1,0-9.25-7.82-9.25-17.43s4.15-17.43,9.25-17.43,9.24,7.82,9.24,17.43S1282.43,627.9,1277.34,627.9Z"/><path d="M1277.34,593.54c4.74,0,8.74,7.76,8.74,16.93s-4,16.93-8.74,16.93-8.75-7.75-8.75-16.93,4-16.93,8.75-16.93m0-1c-5.39,0-9.75,8-9.75,17.93s4.36,17.93,9.75,17.93,9.74-8,9.74-17.93-4.36-17.93-9.74-17.93Z"/><ellipse class="cls-7" cx="1260.19" cy="606.96" rx="9.35" ry="19.1"/><ellipse class="cls-8" cx="1274.61" cy="610.67" rx="3.9" ry="6.04"/><ellipse class="cls-8" cx="1258.24" cy="609.5" rx="3.9" ry="6.43"/><path class="cls-7" d="M1271.49,607.35c-.63,1.22-1,2.89,0,3.12,1.36.31,5.89-2.11,5.85-3.51,0-1.56-2.2-2.26-3.51-2S1272,606.29,1271.49,607.35Z"/><path class="cls-7" d="M1255.12,605.79c-.63,1.22-1,2.89,0,3.12,1.37.31,5.89-2.11,5.85-3.51,0-1.56-2.2-2.25-3.51-1.94S1255.67,604.73,1255.12,605.79Z"/><path class="cls-9" d="M1227.48,643.34c-1.89,19.93,15.85,31.56,35.7,34.12s36.75-4.15,38.84-24.44"/><rect class="cls-10" x="1279.97" y="651.45" width="12.67" height="13.25" transform="translate(2477.28 1476.12) rotate(-172.61)"/><path class="cls-10" d="M1277.53,677.31c5.21-1.08,10.18-2.64,13.64-5.06l.52-6.61L1279.18,664Z"/><rect class="cls-10" x="1266.75" y="649.58" width="12.67" height="13.4" transform="translate(2451.18 1470.85) rotate(-172.61)"/><path class="cls-10" d="M1263.89,677.31c5.32.22,9.84,1.16,13.25-.38l1.32-13-12.52-1.62Z"/><rect class="cls-10" x="1254.27" y="648.02" width="12.67" height="13.4" transform="translate(2426.54 1466.14) rotate(-172.61)"/><path class="cls-10" d="M1251.42,674.59c1.59.46,7,2.55,12.08,2.72l2.49-14.94-12.52-1.63Z"/><rect class="cls-10" x="1241.41" y="646.46" width="12.67" height="13.4" transform="translate(2401.13 1461.38) rotate(-172.61)"/><path class="cls-10" d="M1238.94,668c1.24.94,7.33,5.7,12.09,6.24l2.09-13.39-12.51-1.63Z"/><polygon class="cls-10" points="1229.59 655.88 1239.92 658.67 1241.67 645.75 1230.37 644.18 1229.59 655.88"/><path class="cls-10" d="M1229.59,656.66c.83,1.23,5.1,9.62,9,10.91l1.31-8.71-10.28-2.59Z"/><path class="cls-10" d="M1292,665.78l6.19-1.44a18.82,18.82,0,0,0,3.51-10.91l-8-.79Z"/><path class="cls-10" d="M1291.17,671.86c4.88-1.84,5-4.72,7-7.41h0l-6.24,1.17Z"/><polygon class="cls-10" points="1228.42 653.15 1229.2 655.1 1229.98 644.18 1227.64 643.8 1228.42 653.15"/><path class="cls-11" d="M1355.79,652.24c2.81,29.33-22.65,47.82-48.28,67.8-14.35-29.12-32.89-50.24-27.12-75.18,9.2-4.38,16.11-10.29,20.41-17.92l40.37,6.58A49.61,49.61,0,0,0,1355.79,652.24Z"/><path class="cls-12" d="M1347.86,654.86c2.25,23.47-18.13,38.28-38.65,54.27-11.48-23.31-26.33-40.22-21.71-60.19,7.37-3.5,12.89-8.23,16.34-14.34l32.32,5.27A39.84,39.84,0,0,0,1347.86,654.86Z"/><circle class="cls-13" cx="1297.96" cy="657.11" r="5.78"/><circle class="cls-13" cx="1303.1" cy="662.68" r="3.4"/><circle class="cls-13" cx="1306.78" cy="666.56" r="3.4"/><circle class="cls-13" cx="1312.48" cy="667.26" r="3.4"/><circle class="cls-13" cx="1317.1" cy="662.86" r="3.4"/><circle class="cls-13" cx="1323.55" cy="662.84" r="3.4"/><circle class="cls-13" cx="1328.89" cy="666.43" r="3.4"/><circle class="cls-13" cx="1332.88" cy="669.78" r="3.4"/><circle class="cls-13" cx="1338.42" cy="670.46" r="3.4"/><polygon class="cls-11" points="1305.22 661.99 1302.73 660.75 1305.62 658.07 1305.62 658.07 1305.22 661.99"/><polygon class="cls-11" points="1308.68 665.63 1306.04 664.78 1308.49 661.7 1308.49 661.7 1308.68 665.63"/><polygon class="cls-11" points="1313.65 665.33 1310.94 665.97 1311.44 662.06 1311.44 662.06 1313.65 665.33"/><polygon class="cls-11" points="1318.4 661.25 1315.62 661.16 1317.13 657.52 1317.13 657.52 1318.4 661.25"/><polygon class="cls-11" points="1325.41 661.61 1322.73 660.88 1325.04 657.69 1325.04 657.69 1325.41 661.61"/><polygon class="cls-11" points="1330.8 665.47 1328.31 664.24 1331.19 661.55 1331.19 661.55 1330.8 665.47"/><polygon class="cls-11" points="1334.81 668.49 1332.21 667.52 1334.79 664.55 1334.79 664.55 1334.81 668.49"/><polygon class="cls-11" points="1340.15 669.11 1337.41 668.62 1339.44 665.24 1339.44 665.24 1340.15 669.11"/><polygon points="1297.21 654.26 1297.1 656.45 1294.26 655.21 1294.26 655.21 1297.21 654.26"/><path class="cls-14" d="M1292.67,654.1a5.62,5.62,0,1,1,11.16,1.37"/><path class="cls-15" d="M1297.7,662.91l-.73-.09c.69-3,1.48-5.74,1.31-8l.73.09C1299.24,657.05,1298.4,659.83,1297.7,662.91Z"/><path class="cls-16" d="M1248.68,518.77h0c1.8,11.1,8.53,20,19,27.14l-5,5.49C1243.81,542.39,1237.1,531.18,1248.68,518.77Z"/><path class="cls-17" d="M1320.8,575.32c7-16.35-12.56-42.3-34.19-44.78-21.2-2.43-43.29,18.92-41.91,35.82"/><path class="cls-17" d="M1239.16,579.44A161,161,0,0,0,1324.57,590l.78-14.41a376.31,376.31,0,0,0-87.52-10.51Z"/><ellipse class="cls-18" cx="1311.99" cy="582.73" rx="3.83" ry="4.75" transform="translate(707.42 1884.81) rotate(-89.04)"/><ellipse class="cls-18" cx="1293.92" cy="580.96" rx="3.83" ry="4.75" transform="translate(691.43 1864.99) rotate(-89.04)"/><ellipse class="cls-18" cx="1258.86" cy="576.21" rx="3.83" ry="4.75" transform="matrix(0.02, -1, 1, 0.02, 661.7, 1825.26)"/><ellipse class="cls-12" cx="1275.17" cy="578.42" rx="3.83" ry="4.75" transform="translate(675.53 1843.74) rotate(-89.04)"/><path class="cls-19" d="M1272.41,568.09h0c.81-14.3,6.64-27,19.5-36.83h0C1279.41,541.09,1273.06,553.55,1272.41,568.09Z"/><path class="cls-16" d="M1326.17,527.47h0c-2.36,11-9.54,19.55-20.32,26.26l4.72,5.7C1329.83,551.28,1337.11,540.37,1326.17,527.47Z"/><circle class="cls-13" cx="1005.35" cy="649.93" r="23.81"/><circle class="cls-13" cx="964.53" cy="649.93" r="23.81"/><circle class="cls-13" cx="924.84" cy="646.53" r="23.81"/><circle class="cls-13" cx="882.89" cy="646.53" r="23.81"/><circle class="cls-13" cx="845.47" cy="646.53" r="23.81"/><circle class="cls-13" cx="808.61" cy="646.53" r="23.81"/><circle class="cls-13" cx="774.03" cy="643.13" r="23.81"/><polygon class="cls-11" points="996.11 660.84 1015.57 661.82 1004.53 687.11 1004.53 687.11 996.11 660.84"/><polygon class="cls-11" points="872.97 658.86 892.36 657.07 885.05 683.67 885.05 683.67 872.97 658.86"/><polygon class="cls-11" points="954.58 658.4 974.04 657.45 965.56 683.71 965.56 683.71 954.58 658.4"/><polygon class="cls-11" points="913.88 658.78 933.29 657.13 925.77 683.68 925.77 683.68 913.88 658.78"/><polygon class="cls-11" points="836 658.97 855.38 656.99 848.32 683.66 848.32 683.66 836 658.97"/><polygon class="cls-11" points="800.14 659.72 819.58 658.42 811.58 684.83 811.58 684.83 800.14 659.72"/><polygon class="cls-11" points="761.98 658.74 781.39 657.16 773.78 683.68 773.78 683.68 761.98 658.74"/><circle class="cls-13" cx="1063.46" cy="666.65" r="40.54"/><path class="cls-14" d="M1102.87,683.1a39.41,39.41,0,0,1-78.81,0"/><path class="cls-15" d="M1060.34,626.12h5.11c-2.21,21.64-5.36,41.17-2.27,56.69h-5.1C1054.64,668.18,1058.07,648.16,1060.34,626.12Z"/><text class="cls-20" transform="translate(1081.04 680.44)">X</text><circle class="cls-13" cx="738.31" cy="646.53" r="23.81"/><polygon class="cls-11" points="730.09 657.92 749.58 657.9 739.86 683.72 739.86 683.72 730.09 657.92"/></svg>