<svg id="Layer_1" data-name="Layer 1" xmlns="http://www.w3.org/2000/svg" width="1920" height="1080" viewBox="0 0 1920 1080"><defs><style>.cls-1{fill:#ffab00;}.cls-2{fill:#c45f02;stroke:#333;}.cls-2,.cls-3,.cls-7,.cls-8,.cls-9{stroke-miterlimit:10;}.cls-3{font-size:150px;stroke-width:4px;font-family:Anton-Regular, Anton;letter-spacing:0.07em;}.cls-3,.cls-6,.cls-7{fill:#fff;}.cls-3,.cls-7,.cls-8,.cls-9{stroke:#000;}.cls-4{fill:#e50014;}.cls-5{fill:#8c6239;}.cls-9{fill:none;}</style></defs><title>You lose</title><rect class="cls-1" x="522" y="275" width="860" height="437"/><path class="cls-2" d="M926,209.94c.28,40.32,23.13,34.2,49.6,31.32,32.94-3.58,46.17-41.82,20.78-73.29-20.23-25.08-45.38-44.43-45.25-42.45C951.48,130.42,925.84,182.05,926,209.94Z"/><path class="cls-2" d="M994.25,210.86c.63,5.24-11.12,11-26.24,12.77s-27.87-1-28.5-6.21"/><path class="cls-2" d="M988.22,195.59c.53,4.45-9.44,9.3-22.28,10.84s-23.67-.83-24.21-5.28"/><path class="cls-2" d="M982.56,180.07c.53,4.45-7.84,9.11-18.69,10.41s-20.09-1.25-20.63-5.7"/><path class="cls-2" d="M974.84,161.52c.53,4.45-5.2,11.71-12.68,12.61s-16.17-2.83-16.7-7.28"/><path class="cls-2" d="M967.88,148.14c.53,4.45-1.18,8.85-8.66,9.75s-11-2-11.54-6.41"/><polygon class="cls-2" points="951.64 125.78 951.41 125.72 969.76 248.77 968.93 242.09 951.64 125.78"/><path class="cls-2" d="M982.89,207.81c-15,37.4,8.44,40.4,34,47.78,31.83,9.18,58.58-21.19,47-59.94-9.21-30.88-25.15-58.32-25.78-56.43C1036.6,143.87,993.29,181.93,982.89,207.81Z"/><path class="cls-2" d="M1045.67,234.52c-1.4,5.09-14.44,5.93-29.11,1.87s-25.43-11.47-24-16.56"/><path class="cls-2" d="M1045.89,218.1c-1.2,4.32-12.27,5-24.73,1.59s-21.59-9.74-20.4-14.06"/><path class="cls-2" d="M1046.53,201.6c-1.19,4.32-10.7,5.46-21.24,2.54s-18.12-8.77-16.92-13.09"/><path class="cls-2" d="M1046.42,181.5c-1.19,4.32-9.25,8.87-16.51,6.86s-13.89-8.74-12.7-13.06"/><path class="cls-2" d="M1045.06,166.49c-1.2,4.32-4.45,7.74-11.71,5.73s-9.44-6-8.25-10.3"/><polygon class="cls-2" points="1038.51 139.64 1038.32 139.5 1008.64 260.31 1010.41 253.82 1038.51 139.64"/><path class="cls-2" d="M1036.08,216.37c-10,39,13.64,39,40,42.94,32.76,4.94,55.32-28.66,38.8-65.57-13.16-29.41-32.54-54.53-32.92-52.58C1081,146,1043,189.36,1036.08,216.37Z"/><path class="cls-2" d="M1101.81,234.67c-.73,5.23-13.54,7.76-28.62,5.65s-26.71-8.06-26-13.28"/><path class="cls-2" d="M1099.88,218.36c-.62,4.44-11.5,6.59-24.31,4.8s-22.68-6.84-22.06-11.28"/><path class="cls-2" d="M1098.37,201.91c-.62,4.44-9.9,6.81-20.73,5.3s-19.11-6.34-18.49-10.78"/><path class="cls-2" d="M1095.64,182c-.62,4.44-8,10-15.48,9s-14.91-6.86-14.29-11.29"/><path class="cls-2" d="M1092.32,167.3c-.62,4.44-3.4,8.25-10.86,7.21s-10.14-4.7-9.52-9.14"/><polygon class="cls-2" points="1082.33 141.53 1082.12 141.42 1068.46 265.07 1069.37 258.4 1082.33 141.53"/><path class="cls-2" d="M1098.49,223.16c-13.55,38,10,40,35.87,46.41,32.18,7.91,57.71-23.49,44.63-61.75-10.42-30.49-27.43-57.28-28-55.37C1149.64,157.16,1107.87,196.89,1098.49,223.16Z"/><path class="cls-2" d="M1162.28,247.38c-1.21,5.14-14.2,6.49-29,3s-25.86-10.46-24.66-15.6"/><path class="cls-2" d="M1161.84,231c-1,4.36-12,5.51-24.64,2.56s-22-8.88-20.94-13.25"/><path class="cls-2" d="M1161.84,214.45c-1,4.36-10.48,5.88-21.13,3.38s-18.44-8.06-17.42-12.42"/><path class="cls-2" d="M1160.94,194.38c-1,4.36-8.9,9.22-16.23,7.5s-14.22-8.19-13.2-12.55"/><path class="cls-2" d="M1159,179.43c-1,4.36-4.14,7.91-11.47,6.19s-9.67-5.61-8.65-10"/><polygon class="cls-2" points="1151.38 152.86 1151.19 152.72 1126.29 274.62 1127.8 268.05 1151.38 152.86"/><path class="cls-2" d="M694.78,240.26c9.56,39.16,30.39,27.93,55.47,19,31.23-11.08,35.29-51.35,3.32-76.11-25.47-19.74-54.4-32.76-53.82-30.86C701.2,157,688.16,213.16,694.78,240.26Z"/><path class="cls-2" d="M761.37,225.41c1.82,5-8.29,13.23-22.58,18.48s-27.35,5.48-29.17.53"/><path class="cls-2" d="M752,211.94c1.55,4.21-7,11.23-19.17,15.69s-23.23,4.66-24.78.45"/><path class="cls-2" d="M742.89,198.14c1.55,4.21-5.52,10.68-15.78,14.45s-19.84,3.41-21.39-.79"/><path class="cls-2" d="M731.1,181.88c1.55,4.2-2.35,12.59-9.43,15.19s-16.38,1-17.92-3.23"/><path class="cls-2" d="M721.25,170.47c1.54,4.21.89,8.88-6.18,11.48s-11.16.63-12.7-3.58"/><polygon class="cls-2" points="700.29 152.46 700.05 152.45 746.29 267.95 743.94 261.63 700.29 152.46"/><path class="cls-2" d="M749.62,225.06c-6,39.86,17.53,37.37,44.12,38.64,33.09,1.59,52.12-34.13,31.93-69.17-16.09-27.92-37.93-50.94-38.1-49C787.13,150.45,753.77,197.48,749.62,225.06Z"/><path class="cls-2" d="M816.87,236.57c-.2,5.28-12.69,9.1-27.9,8.53s-27.39-5.29-27.19-10.57"/><path class="cls-2" d="M813.29,220.54c-.17,4.48-10.78,7.73-23.69,7.25s-23.26-4.49-23.1-9"/><path class="cls-2" d="M810.11,204.33c-.17,4.48-9.16,7.79-20.09,7.38s-19.65-4.36-19.48-8.84"/><path class="cls-2" d="M805.37,184.81c-.17,4.48-7,10.76-14.49,10.48s-15.53-5.3-15.36-9.78"/><path class="cls-2" d="M800.57,170.52c-.16,4.48-2.54,8.55-10.06,8.28s-10.57-3.65-10.41-8.13"/><polygon class="cls-2" points="788.01 145.9 787.79 145.81 786.78 270.21 787 263.48 788.01 145.9"/><path class="cls-2" d="M803.35,221.12c-.75,40.31,22.25,34.77,48.78,32.56,33-2.74,47.22-40.64,22.63-72.74-19.59-25.59-44.24-45.56-44.16-43.58C830.81,142.26,803.87,193.23,803.35,221.12Z"/><path class="cls-2" d="M871.53,223.76c.49,5.26-11.39,10.68-26.55,12.1s-27.85-1.67-28.34-6.93"/><path class="cls-2" d="M865.88,208.34c.43,4.46-9.67,9.06-22.54,10.28s-23.64-1.43-24.06-5.89"/><path class="cls-2" d="M860.62,192.68c.42,4.47-8.06,8.92-19,9.94s-20-1.76-20.47-6.22"/><path class="cls-2" d="M853.37,174c.42,4.46-5.49,11.57-13,12.28s-16.09-3.23-16.51-7.7"/><path class="cls-2" d="M846.75,160.4c.42,4.46-1.4,8.82-8.9,9.52s-11-2.23-11.37-6.7"/><polygon class="cls-2" points="831.08 137.63 830.86 137.57 846.08 261.04 845.43 254.34 831.08 137.63"/><path class="cls-2" d="M865.64,213.33c-4.42,40.07,19,36.65,45.61,36.88,33.13.28,50.73-36.16,29.18-70.37-17.18-27.27-39.9-49.41-40-47.43C900.19,137.31,868.7,185.61,865.64,213.33Z"/><path class="cls-2" d="M933.3,222.19c0,5.28-12.32,9.59-27.55,9.62s-27.57-4.21-27.58-9.49"/><path class="cls-2" d="M929.09,206.31c0,4.49-10.46,8.15-23.39,8.18s-23.42-3.58-23.43-8.06"/><path class="cls-2" d="M925.27,190.24c0,4.48-8.84,8.14-19.78,8.17s-19.8-3.59-19.81-8.07"/><path class="cls-2" d="M919.76,170.92c0,4.48-6.52,11-14.06,11.05S890,177.28,890,172.8"/><path class="cls-2" d="M914.41,156.83c0,4.48-2.2,8.65-9.73,8.67S894,162.27,894,157.79"/><polygon class="cls-2" points="900.89 132.73 900.67 132.64 904.56 256.99 904.51 250.25 900.89 132.73"/><path class="cls-2" d="M1193.2,218.89c-3.25,40.18,20,36.08,46.67,35.53,33.13-.69,49.65-37.64,27.1-71.21-18-26.75-41.33-48.21-41.37-46.23C1225.5,141.89,1195.45,191.09,1193.2,218.89Z"/><path class="cls-2" d="M1261.08,225.76c.17,5.27-12,9.94-27.24,10.43s-27.69-3.41-27.86-8.68"/><path class="cls-2" d="M1256.41,210c.14,4.48-10.22,8.44-23.14,8.85s-23.51-2.89-23.65-7.37"/><path class="cls-2" d="M1252.13,194.06c.14,4.48-8.6,8.4-19.53,8.74s-19.91-3-20-7.48"/><path class="cls-2" d="M1246.06,174.91c.14,4.48-6.21,11.21-13.74,11.45s-15.85-4.22-16-8.7"/><path class="cls-2" d="M1240.29,161c.15,4.48-1.94,8.71-9.47,9s-10.8-2.91-10.94-7.39"/><polygon class="cls-2" points="1226.07 137.28 1225.85 137.21 1233.38 261.38 1233.14 254.65 1226.07 137.28"/><path class="cls-2" d="M1250,221.72c-18.25,36,4.87,41,29.71,50.57,30.91,11.93,60.21-16,52.08-55.6-6.48-31.57-20-60.29-20.75-58.47C1309.13,162.72,1262.66,196.85,1250,221.72Z"/><path class="cls-2" d="M1310.25,253.82c-1.85,4.95-14.91,4.64-29.17-.68s-24.33-13.65-22.49-18.59"/><path class="cls-2" d="M1311.89,237.48c-1.57,4.2-12.66,3.94-24.77-.58s-20.66-11.59-19.09-15.79"/><path class="cls-2" d="M1314,221.09c-1.57,4.2-11.14,4.51-21.39.69s-17.28-10.33-15.71-14.53"/><path class="cls-2" d="M1315.62,201.07c-1.57,4.2-10,8-17,5.39s-13.07-9.92-11.5-14.12"/><path class="cls-2" d="M1315.57,186c-1.57,4.2-5.1,7.33-12.16,4.69s-8.88-6.78-7.32-11"/><polygon class="cls-2" points="1311.39 158.68 1311.22 158.52 1271.1 276.28 1273.43 269.96 1311.39 158.68"/><path class="cls-2" d="M1302.28,234.9c-13.4,38,10.18,40,36,46.26,32.21,7.79,57.61-23.71,44.38-61.92-10.54-30.45-27.65-57.17-28.2-55.26C1353.16,168.69,1311.54,208.59,1302.28,234.9Z"/><path class="cls-2" d="M1366.16,258.87c-1.19,5.14-14.17,6.54-29,3.13s-25.9-10.36-24.72-15.5"/><path class="cls-2" d="M1365.66,242.45c-1,4.37-12,5.56-24.64,2.66s-22-8.79-21-13.16"/><path class="cls-2" d="M1365.59,225.94c-1,4.36-10.46,5.92-21.12,3.46s-18.48-8-17.47-12.35"/><path class="cls-2" d="M1364.6,205.87c-1,4.37-8.85,9.26-16.19,7.57s-14.26-8.14-13.25-12.5"/><path class="cls-2" d="M1362.59,190.93c-1,4.37-4.11,7.92-11.45,6.23s-9.69-5.57-8.68-9.93"/><polygon class="cls-2" points="1354.88 164.39 1354.69 164.25 1330.28 286.24 1331.76 279.67 1354.88 164.39"/><path class="cls-2" d="M1363.86,247.11c-16.82,36.65,6.48,40.77,31.68,49.36,31.36,10.7,59.53-18.35,49.85-57.61-7.73-31.28-22.32-59.45-23-57.6C1420.58,185.83,1375.49,221.76,1363.86,247.11Z"/><path class="cls-2" d="M1425.28,276.82c-1.65,5-14.71,5.22-29.17.46s-24.85-12.67-23.2-17.69"/><path class="cls-2" d="M1426.28,260.42c-1.4,4.26-12.49,4.44-24.77.4s-21.1-10.76-19.7-15"/><path class="cls-2" d="M1427.72,244c-1.4,4.26-11,4.94-21.34,1.52s-17.67-9.63-16.27-13.89"/><path class="cls-2" d="M1428.58,223.89c-1.4,4.26-9.67,8.42-16.83,6.06s-13.45-9.4-12-13.65"/><path class="cls-2" d="M1427.93,208.83c-1.4,4.26-4.81,7.52-12,5.17s-9.14-6.43-7.74-10.69"/><polygon class="cls-2" points="1422.68 181.7 1422.5 181.55 1387.05 300.8 1389.13 294.39 1422.68 181.7"/><path class="cls-2" d="M960.19,228.89c6.11,39.85,27.83,30.48,53.6,23.81,32.08-8.32,39.64-48.08,10-75.54-23.65-21.88-51.33-37.38-50.91-35.44C973.86,146.51,956,201.32,960.19,228.89Z"/><path class="cls-2" d="M1027.83,219.92c1.38,5.09-9.42,12.45-24.11,16.43s-27.73,3.08-29.11-2"/><path class="cls-2" d="M1019.65,205.68c1.17,4.32-8,10.57-20.47,13.95s-23.55,2.61-24.72-1.71"/><path class="cls-2" d="M1011.8,191.14c1.17,4.33-6.43,10.15-17,13s-20.06,1.67-21.23-2.66"/><path class="cls-2" d="M1001.47,173.91c1.18,4.32-3.44,12.34-10.71,14.31s-16.41-.46-17.58-4.78"/><path class="cls-2" d="M992.65,161.68c1.18,4.33.12,8.93-7.15,10.9s-11.18-.35-12.35-4.67"/><polygon class="cls-2" points="973.35 141.91 973.11 141.88 1009.08 260.97 1007.3 254.48 973.35 141.91"/><path class="cls-2" d="M1016.15,218.54c-9.46,39.19,14.2,38.76,40.57,42.35,32.83,4.47,54.9-29.45,37.85-66.12-13.59-29.22-33.33-54.06-33.68-52.1C1060,147.5,1022.69,191.43,1016.15,218.54Z"/><path class="cls-2" d="M1082.14,235.88c-.66,5.24-13.43,8-28.54,6.07s-26.82-7.67-26.17-12.91"/><path class="cls-2" d="M1080,219.6c-.56,4.45-11.41,6.76-24.24,5.15s-22.77-6.51-22.22-10.95"/><path class="cls-2" d="M1078.22,203.18c-.56,4.45-9.8,6.95-20.65,5.59s-19.2-6.06-18.64-10.5"/><path class="cls-2" d="M1075.2,183.31c-.56,4.45-7.87,10.12-15.35,9.18s-15-6.64-14.45-11.09"/><path class="cls-2" d="M1071.67,168.66c-.55,4.44-3.28,8.3-10.75,7.36s-10.21-4.55-9.65-9"/><polygon class="cls-2" points="1061.3 143.04 1061.1 142.93 1049.23 266.76 1050.04 260.08 1061.3 143.04"/><path class="cls-2" d="M1070,219.31c-4.27,40.09,19.13,36.58,45.75,36.7,33.14.15,50.59-36.37,28.9-70.5-17.29-27.19-40.1-49.24-40.19-47.26C1104.26,143.15,1073,191.57,1070,219.31Z"/><path class="cls-2" d="M1137.71,227.89c0,5.28-12.28,9.64-27.51,9.74s-27.59-4.1-27.63-9.38"/><path class="cls-2" d="M1133.43,212c0,4.48-10.43,8.18-23.35,8.27s-23.44-3.49-23.46-8"/><path class="cls-2" d="M1129.55,196c0,4.48-8.81,8.18-19.74,8.25s-19.82-3.51-19.85-8"/><path class="cls-2" d="M1124,176.68c0,4.48-6.49,11.06-14,11.1s-15.75-4.62-15.77-9.1"/><path class="cls-2" d="M1118.56,162.61c0,4.48-2.17,8.66-9.7,8.71s-10.72-3.18-10.74-7.67"/><polygon class="cls-2" points="1104.94 138.56 1104.72 138.48 1109.1 262.81 1109.04 256.07 1104.94 138.56"/><path class="cls-2" d="M1132.75,217c-7.9,39.53,15.72,38.17,42.22,40.72,33,3.17,53.69-31.59,35.21-67.56-14.73-28.66-35.43-52.7-35.7-50.73C1173.81,144.27,1138.22,189.64,1132.75,217Z"/><path class="cls-2" d="M1199.38,231.72c-.45,5.26-13.11,8.48-28.28,7.18s-27.1-6.6-26.66-11.86"/><path class="cls-2" d="M1196.57,215.54c-.38,4.47-11.13,7.2-24,6.1s-23-5.61-22.64-10.07"/><path class="cls-2" d="M1194.17,199.2c-.38,4.46-9.52,7.33-20.41,6.4s-19.42-5.3-19-9.76"/><path class="cls-2" d="M1190.37,179.47c-.38,4.46-7.46,10.41-15,9.77s-15.26-6-14.88-10.51"/><path class="cls-2" d="M1186.27,165c-.38,4.47-3,8.42-10.45,7.78s-10.38-4.14-10-8.61"/><polygon class="cls-2" points="1174.9 139.77 1174.69 139.66 1167.71 263.88 1168.25 257.16 1174.9 139.77"/><path class="cls-2" d="M675.14,225.12c4.52,40.06,26.6,31.56,52.62,25.91,32.38-7,41.5-46.46,12.94-75.08-22.77-22.8-49.82-39.39-49.48-37.43C692.07,143.35,672,197.4,675.14,225.12Z"/><path class="cls-2" d="M743.08,218.84c1.18,5.14-9.9,12.06-24.74,15.46s-27.83,2-29-3.17"/><path class="cls-2" d="M735.47,204.28c1,4.37-8.41,10.25-21,13.13s-23.63,1.68-24.63-2.69"/><path class="cls-2" d="M728.21,189.45c1,4.37-6.84,9.88-17.49,12.32s-20.11.87-21.11-3.49"/><path class="cls-2" d="M718.57,171.82c1,4.36-3.93,12.19-11.28,13.87s-16.37-1.1-17.37-5.47"/><path class="cls-2" d="M710.24,159.25c1,4.37-.24,8.92-7.58,10.6s-11.15-.78-12.15-5.15"/><polygon class="cls-2" points="691.74 138.72 691.5 138.69 722.72 259.12 721.2 252.56 691.74 138.72"/><path class="cls-2" d="M731.46,217c-11,38.79,12.65,39.3,38.87,43.93,32.62,5.77,56-27.25,40.44-64.56C798.35,166.62,779.61,141,779.18,143,778.13,147.75,739.08,190.16,731.46,217Z"/><path class="cls-2" d="M796.71,236.94c-.86,5.21-13.73,7.42-28.75,4.93s-26.5-8.72-25.64-13.93"/><path class="cls-2" d="M795.19,220.59c-.73,4.42-11.66,6.3-24.42,4.18s-22.5-7.4-21.77-11.83"/><path class="cls-2" d="M794.09,204.11c-.73,4.42-10.07,6.56-20.85,4.77S754.3,202.06,755,197.64"/><path class="cls-2" d="M791.86,184.14c-.73,4.42-8.26,9.79-15.69,8.56s-14.74-7.23-14-11.65"/><path class="cls-2" d="M788.92,169.35c-.73,4.43-3.6,8.17-11,6.94s-10-4.95-9.29-9.38"/><polygon class="cls-2" points="779.58 143.34 779.38 143.22 762.6 266.5 763.68 259.85 779.58 143.34"/><path class="cls-2" d="M785.26,219.9c-5.85,39.89,17.67,37.31,44.26,38.49,33.1,1.46,52-34.33,31.67-69.29-16.19-27.86-38.11-50.8-38.28-48.82C822.49,145.16,789.31,192.31,785.26,219.9Z"/><path class="cls-2" d="M852.55,231.17c-.17,5.27-12.65,9.14-27.86,8.63s-27.41-5.19-27.24-10.46"/><path class="cls-2" d="M848.91,215.15c-.15,4.48-10.74,7.77-23.66,7.34s-23.28-4.41-23.13-8.89"/><path class="cls-2" d="M845.67,199c-.15,4.48-9.13,7.81-20,7.45s-19.67-4.29-19.52-8.77"/><path class="cls-2" d="M840.86,179.45c-.15,4.48-6.92,10.79-14.45,10.54s-15.55-5.25-15.4-9.73"/><path class="cls-2" d="M836,165.17c-.15,4.48-2.51,8.57-10,8.32s-10.58-3.61-10.43-8.09"/><polygon class="cls-2" points="823.36 140.61 823.14 140.51 822.59 264.92 822.79 258.19 823.36 140.61"/><path class="cls-2" d="M848,220.07c-9.47,39.19,14.19,38.77,40.56,42.37,32.83,4.48,54.91-29.44,37.87-66.11-13.58-29.22-33.31-54.07-33.66-52.11C891.94,149,854.59,193,848,220.07Z"/><path class="cls-2" d="M914,237.43c-.65,5.24-13.43,7.95-28.54,6.06s-26.82-7.67-26.16-12.91"/><path class="cls-2" d="M911.86,221.16c-.56,4.44-11.41,6.75-24.24,5.14s-22.77-6.52-22.21-11"/><path class="cls-2" d="M910.11,204.73c-.55,4.45-9.8,7-20.65,5.59s-19.19-6.07-18.64-10.51"/><path class="cls-2" d="M907.1,184.87c-.56,4.44-7.87,10.11-15.35,9.17s-15-6.64-14.45-11.09"/><path class="cls-2" d="M903.58,170.21c-.56,4.44-3.28,8.3-10.76,7.36s-10.2-4.55-9.65-9"/><polygon class="cls-2" points="893.22 144.59 893.01 144.47 881.1 268.31 881.92 261.62 893.22 144.59"/><path class="cls-2" d="M448.38,279.65c13.64,37.94,33.16,24.57,57.17,13.08,29.89-14.32,29.67-54.79-4.73-76-27.41-16.94-57.55-26.84-56.77-25C446,196.18,438.94,253.4,448.38,279.65Z"/><path class="cls-2" d="M513,257.86c2.33,4.74-6.85,14-20.51,20.76s-26.62,8.34-28.95,3.6"/><path class="cls-2" d="M502.28,245.46c2,4-5.82,11.91-17.42,17.62s-22.6,7.08-24.58,3.06"/><path class="cls-2" d="M491.78,232.7c2,4-4.36,11.2-14.17,16s-19.37,5.48-21.35,1.46"/><path class="cls-2" d="M478.34,217.76c2,4-1,12.78-7.77,16.11s-16.19,2.7-18.17-1.32"/><path class="cls-2" d="M467.34,207.46c2,4,1.83,8.74-4.93,12.06s-11,1.81-13-2.21"/><polygon class="cls-2" points="444.6 191.76 444.36 191.78 502.52 301.75 499.52 295.72 444.6 191.76"/><path class="cls-2" d="M501.31,258.75c-1.76,40.28,21.37,35.32,47.95,33.78,33.08-1.91,48.23-39.44,24.45-72.15-18.94-26.07-43.08-46.66-43.05-44.67C530.74,180.61,502.53,230.89,501.31,258.75Z"/><path class="cls-2" d="M569.4,263.11c.36,5.27-11.66,10.38-26.84,11.43s-27.8-2.38-28.16-7.65"/><path class="cls-2" d="M564.15,247.55c.31,4.47-9.9,8.82-22.8,9.7s-23.6-2-23.91-6.49"/><path class="cls-2" d="M559.28,231.77c.31,4.47-8.29,8.7-19.2,9.45s-20-2.26-20.31-6.74"/><path class="cls-2" d="M552.5,212.85c.31,4.47-5.78,11.44-13.3,12s-16-3.63-16.31-8.1"/><path class="cls-2" d="M546.23,199.14c.31,4.47-1.63,8.78-9.14,9.3s-10.89-2.51-11.2-7"/><polygon class="cls-2" points="531.14 175.99 530.91 175.92 543.03 299.74 542.54 293.02 531.14 175.99"/><path class="cls-2" d="M554.32,249.17c3.51,40.16,25.8,32.23,51.95,27.24,32.55-6.22,42.67-45.4,14.83-74.73C598.92,178.31,572.3,161,572.59,163,573.31,167.86,551.9,221.39,554.32,249.17Z"/><path class="cls-2" d="M622.4,244.61c1.05,5.17-10.2,11.81-25.12,14.83s-27.87,1.27-28.91-3.9"/><path class="cls-2" d="M615.16,229.87c.89,4.39-8.66,10-21.33,12.59s-23.66,1.08-24.55-3.31"/><path class="cls-2" d="M608.28,214.85c.89,4.4-7.08,9.72-17.8,11.88s-20.12.37-21-4"/><path class="cls-2" d="M599.09,197c.89,4.4-4.24,12.1-11.62,13.59s-16.34-1.52-17.23-5.91"/><path class="cls-2" d="M591.08,184.21c.89,4.39-.46,8.92-7.84,10.41s-11.13-1.07-12-5.46"/><polygon class="cls-2" points="573.1 163.23 572.87 163.18 601.03 284.36 599.67 277.76 573.1 163.23"/><path class="cls-2" d="M615.45,234.86c-.17,40.31,22.75,34.44,49.24,31.86,33-3.21,46.64-41.31,21.6-73.06-20-25.3-44.89-44.93-44.78-42.94C641.79,155.61,615.57,207,615.45,234.86Z"/><path class="cls-2" d="M683.66,236.53c.57,5.24-11.24,10.83-26.37,12.47s-27.87-1.28-28.44-6.52"/><path class="cls-2" d="M677.8,221.19c.48,4.45-9.54,9.2-22.4,10.59s-23.66-1.08-24.14-5.54"/><path class="cls-2" d="M672.31,205.61c.49,4.45-7.93,9-18.8,10.2s-20.08-1.47-20.56-5.93"/><path class="cls-2" d="M664.8,187c.48,4.46-5.33,11.66-12.82,12.47s-16.13-3-16.62-7.46"/><path class="cls-2" d="M658,173.52c.48,4.46-1.28,8.84-8.77,9.65s-11-2.08-11.46-6.54"/><polygon class="cls-2" points="642 150.98 641.77 150.92 658.75 274.16 658 267.47 642 150.98"/><path class="cls-2" d="M459.66,501.65c40.31-.36,34.14-23.2,31.22-49.66-3.65-32.93-41.92-46.09-73.34-20.64-25,20.29-44.34,45.47-42.35,45.33C380.08,476.35,431.77,501.89,459.66,501.65Z"/><path class="cls-2" d="M460.44,433.42c5.24-.64,11,11.1,12.82,26.21s-.92,27.88-6.16,28.52"/><path class="cls-2" d="M445.18,439.48c4.45-.54,9.32,9.42,10.88,22.26s-.78,23.67-5.22,24.21"/><path class="cls-2" d="M429.67,445.17c4.45-.54,9.13,7.82,10.45,18.67s-1.22,20.1-5.66,20.64"/><path class="cls-2" d="M411.14,452.93c4.44-.54,11.72,5.17,12.63,12.65s-2.79,16.17-7.24,16.72"/><path class="cls-2" d="M397.77,459.91c4.45-.54,8.85,1.16,9.77,8.64s-1.94,11-6.39,11.55"/><polygon class="cls-2" points="375.44 476.2 375.39 476.43 498.4 457.84 491.71 458.68 375.44 476.2"/><path class="cls-2" d="M457.41,444.78c37.43,15,40.39-8.51,47.71-34.11,9.12-31.85-21.31-58.54-60-46.9C414.23,373,386.82,389,388.71,389.66,393.36,391.2,431.51,434.43,457.41,444.78Z"/><path class="cls-2" d="M484,382c5.09,1.39,5.95,14.43,1.92,29.11s-11.42,25.45-16.51,24.05"/><path class="cls-2" d="M467.58,381.77c4.32,1.18,5.05,12.25,1.63,24.72s-9.69,21.61-14,20.43"/><path class="cls-2" d="M451.07,381.15c4.32,1.19,5.48,10.7,2.59,21.24s-8.74,18.14-13.06,16.95"/><path class="cls-2" d="M431,381.3c4.32,1.19,8.88,9.24,6.89,16.5s-8.71,13.91-13,12.72"/><path class="cls-2" d="M416,382.7c4.32,1.19,7.75,4.43,5.75,11.7s-6,9.45-10.28,8.26"/><polygon class="cls-2" points="389.13 389.3 388.99 389.49 509.86 418.93 503.36 417.18 389.13 389.3"/><path class="cls-2" d="M465.87,391.58c39.07,9.94,38.93-13.72,42.85-40.05,4.89-32.77-28.76-55.26-65.64-38.67-29.38,13.22-54.47,32.65-52.52,33C395.38,346.81,438.84,384.69,465.87,391.58Z"/><path class="cls-2" d="M484,325.81c5.23.72,7.79,13.53,5.71,28.61s-8,26.72-13.23,26"/><path class="cls-2" d="M467.73,327.77c4.44.62,6.61,11.49,4.85,24.3s-6.8,22.69-11.24,22.08"/><path class="cls-2" d="M451.28,329.32c4.44.61,6.83,9.89,5.34,20.72s-6.3,19.12-10.74,18.5"/><path class="cls-2" d="M431.38,332.09c4.44.61,10,8,9,15.46s-6.83,14.92-11.27,14.31"/><path class="cls-2" d="M416.68,335.43c4.44.61,8.26,3.38,7.24,10.85s-4.68,10.15-9.13,9.53"/><polygon class="cls-2" points="390.94 345.48 390.82 345.68 514.5 359.11 507.83 358.21 390.94 345.48"/><path class="cls-2" d="M472.53,329.15c38,13.47,40-10.1,46.34-36,7.85-32.19-23.6-57.66-61.84-44.51-30.47,10.49-57.22,27.54-55.31,28.09C406.43,278.13,446.25,319.83,472.53,329.15Z"/><path class="cls-2" d="M496.63,265.32c5.14,1.19,6.52,14.18,3.07,29S489.29,320.21,484.15,319"/><path class="cls-2" d="M480.22,265.78c4.36,1,5.53,12.05,2.6,24.64s-8.84,22-13.2,21"/><path class="cls-2" d="M463.7,265.82c4.36,1,5.9,10.47,3.42,21.12s-8,18.46-12.39,17.45"/><path class="cls-2" d="M443.63,266.76c4.36,1,9.24,8.88,7.53,16.22S443,297.22,438.64,296.2"/><path class="cls-2" d="M428.68,268.75c4.37,1,7.92,4.12,6.22,11.46s-5.59,9.68-10,8.66"/><polygon class="cls-2" points="402.13 276.4 401.99 276.6 523.93 301.26 517.37 299.75 402.13 276.4"/><path class="cls-2" d="M490.43,732.83c39.14-9.64,27.87-30.44,18.92-55.51-11.14-31.21-51.42-35.19-76.12-3.17-19.69,25.51-32.65,54.47-30.75,53.88C407.16,726.57,463.34,739.5,490.43,732.83Z"/><path class="cls-2" d="M475.45,666.27c4.95-1.83,13.24,8.26,18.52,22.54s5.54,27.34.59,29.17"/><path class="cls-2" d="M462,675.68c4.2-1.55,11.24,7,15.72,19.15s4.71,23.22.5,24.77"/><path class="cls-2" d="M448.22,684.8c4.2-1.55,10.68,5.5,14.47,15.76s3.46,19.83-.75,21.38"/><path class="cls-2" d="M432,696.62c4.21-1.55,12.6,2.33,15.22,9.4s1,16.38-3.19,17.93"/><path class="cls-2" d="M420.59,706.5c4.2-1.55,8.88-.91,11.49,6.15s.65,11.16-3.55,12.72"/><polygon class="cls-2" points="402.62 727.5 402.61 727.73 518.01 681.27 511.71 683.63 402.62 727.5"/><path class="cls-2" d="M475.12,678c39.88,5.92,37.34-17.6,38.56-44.19,1.52-33.1-34.24-52.05-69.24-31.8-27.88,16.15-50.86,38-48.88,38.2C400.44,640.66,447.53,673.93,475.12,678Z"/><path class="cls-2" d="M486.5,610.75c5.27.18,9.12,12.67,8.59,27.88s-5.24,27.4-10.52,27.22"/><path class="cls-2" d="M470.48,614.36c4.48.16,7.75,10.76,7.29,23.68s-4.45,23.27-8.93,23.11"/><path class="cls-2" d="M454.28,617.57c4.48.16,7.8,9.14,7.42,20.07s-4.33,19.66-8.81,19.5"/><path class="cls-2" d="M434.76,622.35c4.48.16,10.78,6.94,10.51,14.47s-5.27,15.54-9.75,15.38"/><path class="cls-2" d="M420.48,627.17c4.48.16,8.56,2.53,8.3,10.06s-3.63,10.57-8.11,10.41"/><polygon class="cls-2" points="395.89 639.79 395.79 640 520.2 640.77 513.47 640.56 395.89 639.79"/><path class="cls-2" d="M471.08,624.3c40.31.67,34.72-22.32,32.46-48.85-2.81-33-40.73-47.14-72.79-22.49-25.54,19.65-45.47,44.34-43.48,44.25C392.16,597,443.19,623.84,471.08,624.3Z"/><path class="cls-2" d="M473.58,556.11c5.26-.5,10.7,11.37,12.16,26.53s-1.62,27.85-6.88,28.35"/><path class="cls-2" d="M458.17,561.79c4.46-.43,9.09,9.65,10.32,22.52s-1.37,23.65-5.84,24.08"/><path class="cls-2" d="M442.53,567.08c4.46-.42,8.92,8,10,18.93s-1.72,20.06-6.18,20.49"/><path class="cls-2" d="M423.8,574.37c4.46-.43,11.59,5.47,12.31,13s-3.2,16.1-7.66,16.53"/><path class="cls-2" d="M410.27,581c4.46-.43,8.82,1.39,9.54,8.89s-2.21,11-6.68,11.38"/><polygon class="cls-2" points="387.54 596.73 387.47 596.96 510.91 581.48 504.21 582.15 387.54 596.73"/><path class="cls-2" d="M463.16,562c40.08,4.34,36.62-19.06,36.79-45.68.22-33.13-36.26-50.66-70.43-29-27.23,17.23-49.33,40-47.34,40.09C387.07,527.62,435.44,559,463.16,562Z"/><path class="cls-2" d="M471.89,494.35c5.27,0,9.61,12.3,9.68,27.52s-4.16,27.59-9.44,27.61"/><path class="cls-2" d="M456,498.59c4.48,0,8.16,10.44,8.22,23.37s-3.53,23.43-8,23.45"/><path class="cls-2" d="M440,502.44c4.48,0,8.15,8.82,8.2,19.76s-3.54,19.81-8,19.83"/><path class="cls-2" d="M420.65,508c4.48,0,11,6.51,11.07,14s-4.66,15.74-9.14,15.76"/><path class="cls-2" d="M406.56,513.36c4.49,0,8.66,2.19,8.69,9.72s-3.2,10.71-7.69,10.73"/><polygon class="cls-2" points="382.49 526.94 382.4 527.16 506.74 523.02 500.01 523.08 382.49 526.94"/><path class="cls-2" d="M503.66,516.65c40.31-.36,34.14-23.2,31.22-49.66-3.65-32.93-41.92-46.09-73.34-20.64-25,20.29-44.34,45.47-42.35,45.33C424.08,491.35,475.77,516.89,503.66,516.65Z"/><path class="cls-2" d="M504.44,448.42c5.24-.64,11,11.1,12.82,26.21s-.92,27.88-6.16,28.52"/><path class="cls-2" d="M489.18,454.48c4.45-.54,9.32,9.42,10.88,22.26s-.78,23.67-5.22,24.21"/><path class="cls-2" d="M473.67,460.17c4.45-.54,9.13,7.82,10.45,18.67s-1.22,20.1-5.66,20.64"/><path class="cls-2" d="M455.14,467.93c4.44-.54,11.72,5.17,12.63,12.65s-2.79,16.17-7.24,16.72"/><path class="cls-2" d="M441.77,474.91c4.45-.54,8.85,1.16,9.77,8.64s-1.94,11-6.39,11.55"/><polygon class="cls-2" points="419.44 491.2 419.39 491.43 542.4 472.84 535.71 473.68 419.44 491.2"/><path class="cls-2" d="M501.41,459.78c37.43,15,40.39-8.51,47.71-34.11,9.12-31.85-21.31-58.54-60-46.9C458.23,388,430.82,404,432.71,404.66,437.36,406.2,475.51,449.43,501.41,459.78Z"/><path class="cls-2" d="M528,397c5.09,1.39,6,14.43,1.92,29.11s-11.42,25.45-16.51,24.05"/><path class="cls-2" d="M511.58,396.77c4.32,1.18,5.05,12.25,1.63,24.72s-9.69,21.61-14,20.43"/><path class="cls-2" d="M495.07,396.15c4.32,1.19,5.48,10.7,2.59,21.24s-8.74,18.14-13.06,16.95"/><path class="cls-2" d="M475,396.3c4.32,1.19,8.88,9.24,6.89,16.5s-8.71,13.91-13,12.72"/><path class="cls-2" d="M460,397.7c4.32,1.19,7.75,4.43,5.75,11.7s-6,9.45-10.28,8.26"/><polygon class="cls-2" points="433.13 404.3 432.99 404.49 553.86 433.93 547.36 432.18 433.13 404.3"/><path class="cls-2" d="M509.87,406.58c39.07,9.94,38.93-13.72,42.85-40.05,4.89-32.77-28.76-55.26-65.64-38.67-29.38,13.22-54.47,32.65-52.52,33C439.38,361.81,482.84,399.69,509.87,406.58Z"/><path class="cls-2" d="M528,340.81c5.23.72,7.79,13.53,5.71,28.61s-8,26.72-13.23,26"/><path class="cls-2" d="M511.73,342.77c4.44.62,6.61,11.49,4.85,24.3s-6.8,22.69-11.24,22.08"/><path class="cls-2" d="M495.28,344.32c4.44.61,6.83,9.89,5.34,20.72s-6.3,19.12-10.74,18.5"/><path class="cls-2" d="M475.38,347.09c4.44.61,10,8,9,15.46s-6.83,14.92-11.27,14.31"/><path class="cls-2" d="M460.68,350.43c4.44.61,8.26,3.38,7.24,10.85s-4.68,10.15-9.13,9.53"/><polygon class="cls-2" points="434.94 360.48 434.82 360.68 558.5 374.11 551.83 373.21 434.94 360.48"/><path class="cls-2" d="M516.53,344.15c38,13.47,40-10.1,46.34-36,7.85-32.19-23.6-57.66-61.84-44.51-30.47,10.49-57.22,27.54-55.31,28.09C450.43,293.13,490.25,334.83,516.53,344.15Z"/><path class="cls-2" d="M540.63,280.32c5.14,1.19,6.52,14.18,3.07,29S533.29,335.21,528.15,334"/><path class="cls-2" d="M524.22,280.78c4.36,1,5.53,12.05,2.6,24.64s-8.84,22-13.2,21"/><path class="cls-2" d="M507.7,280.82c4.36,1,5.9,10.47,3.42,21.12s-8,18.46-12.39,17.45"/><path class="cls-2" d="M487.63,281.76c4.36,1,9.24,8.88,7.53,16.22S487,312.22,482.64,311.2"/><path class="cls-2" d="M472.68,283.75c4.37,1,7.92,4.12,6.22,11.46s-5.59,9.68-10,8.66"/><polygon class="cls-2" points="446.13 291.4 445.99 291.6 567.93 316.26 561.37 314.75 446.13 291.4"/><path class="cls-2" d="M534.43,747.83c39.14-9.64,27.87-30.44,18.92-55.51-11.14-31.21-51.42-35.19-76.12-3.17-19.69,25.51-32.65,54.47-30.75,53.88C451.16,741.57,507.34,754.5,534.43,747.83Z"/><path class="cls-2" d="M519.45,681.27c4.95-1.83,13.24,8.26,18.52,22.54s5.54,27.34.59,29.17"/><path class="cls-2" d="M506,690.68c4.2-1.55,11.24,7,15.72,19.15s4.71,23.22.5,24.77"/><path class="cls-2" d="M492.22,699.8c4.2-1.55,10.68,5.5,14.47,15.76s3.46,19.83-.75,21.38"/><path class="cls-2" d="M476,711.62c4.21-1.55,12.6,2.33,15.22,9.4s1,16.38-3.19,17.93"/><path class="cls-2" d="M464.59,721.5c4.2-1.55,8.88-.91,11.49,6.15s.65,11.16-3.55,12.72"/><polygon class="cls-2" points="446.62 742.5 446.61 742.73 562.01 696.27 555.71 698.63 446.62 742.5"/><path class="cls-2" d="M519.12,693c39.88,5.92,37.34-17.6,38.56-44.19,1.52-33.1-34.24-52.05-69.24-31.8-27.88,16.15-50.86,38-48.88,38.2C444.44,655.66,491.53,688.93,519.12,693Z"/><path class="cls-2" d="M530.5,625.75c5.27.18,9.12,12.67,8.59,27.88s-5.24,27.4-10.52,27.22"/><path class="cls-2" d="M514.48,629.36c4.48.16,7.75,10.76,7.29,23.68s-4.45,23.27-8.93,23.11"/><path class="cls-2" d="M498.28,632.57c4.48.16,7.8,9.14,7.42,20.07s-4.33,19.66-8.81,19.5"/><path class="cls-2" d="M478.76,637.35c4.48.16,10.78,6.94,10.51,14.47s-5.27,15.54-9.75,15.38"/><path class="cls-2" d="M464.48,642.17c4.48.16,8.56,2.53,8.3,10.06s-3.63,10.57-8.11,10.41"/><polygon class="cls-2" points="439.89 654.79 439.79 655 564.2 655.77 557.47 655.56 439.89 654.79"/><path class="cls-2" d="M515.08,639.3c40.31.67,34.72-22.32,32.46-48.85-2.81-33-40.73-47.14-72.79-22.49-25.54,19.65-45.47,44.34-43.48,44.25C436.16,612,487.19,638.84,515.08,639.3Z"/><path class="cls-2" d="M517.58,571.11c5.26-.5,10.7,11.37,12.16,26.53s-1.62,27.85-6.88,28.35"/><path class="cls-2" d="M502.17,576.79c4.46-.43,9.09,9.65,10.32,22.52s-1.37,23.65-5.84,24.08"/><path class="cls-2" d="M486.53,582.08c4.46-.42,8.92,8,10,18.93s-1.72,20.06-6.18,20.49"/><path class="cls-2" d="M467.8,589.37c4.46-.43,11.59,5.47,12.31,13s-3.2,16.1-7.66,16.53"/><path class="cls-2" d="M454.27,596c4.46-.43,8.82,1.39,9.54,8.89s-2.21,11-6.68,11.38"/><polygon class="cls-2" points="431.54 611.73 431.47 611.96 554.91 596.48 548.21 597.15 431.54 611.73"/><path class="cls-2" d="M507.16,577c40.08,4.34,36.62-19.06,36.79-45.68.22-33.13-36.26-50.66-70.43-29-27.23,17.23-49.33,40-47.34,40.09C431.07,542.62,479.44,574,507.16,577Z"/><path class="cls-2" d="M515.89,509.35c5.27,0,9.61,12.3,9.68,27.52s-4.16,27.59-9.44,27.61"/><path class="cls-2" d="M500,513.59c4.48,0,8.16,10.44,8.22,23.37s-3.53,23.43-8,23.45"/><path class="cls-2" d="M484,517.44c4.48,0,8.15,8.82,8.2,19.76s-3.54,19.81-8,19.83"/><path class="cls-2" d="M464.65,523c4.48,0,11,6.51,11.07,14s-4.66,15.74-9.14,15.76"/><path class="cls-2" d="M450.56,528.36c4.49,0,8.66,2.19,8.69,9.72s-3.2,10.71-7.69,10.73"/><polygon class="cls-2" points="426.49 541.94 426.4 542.16 550.74 538.02 544.01 538.08 426.49 541.94"/><path class="cls-2" d="M1433.28,459.3c-40.32.51-34.06,23.33-31,49.78,3.77,32.92,42.1,45.92,73.42,20.34,25-20.38,44.15-45.65,42.17-45.5C1513,484.28,1461.16,458.94,1433.28,459.3Z"/><path class="cls-2" d="M1432.77,527.53c-5.24.66-11-11-12.93-26.16s.81-27.88,6-28.54"/><path class="cls-2" d="M1448,521.4c-4.45.56-9.36-9.38-11-22.21s.68-23.67,5.13-24.23"/><path class="cls-2" d="M1463.49,515.65c-4.45.56-9.16-7.78-10.52-18.63s1.13-20.09,5.58-20.65"/><path class="cls-2" d="M1482,507.82c-4.44.56-11.74-5.13-12.68-12.6s2.73-16.19,7.17-16.75"/><path class="cls-2" d="M1495.33,500.78c-4.45.56-8.86-1.12-9.8-8.6s1.89-11,6.34-11.57"/><polygon class="cls-2" points="1517.59 484.41 1517.65 484.18 1394.71 503.26 1401.39 502.4 1517.59 484.41"/><path class="cls-2" d="M1435.76,516.15c-37.5-14.81-40.36,8.68-47.58,34.3-9,31.9,21.54,58.46,60.22,46.67,30.82-9.4,58.16-25.5,56.27-26.12C1500,569.48,1461.7,526.4,1435.76,516.15Z"/><path class="cls-2" d="M1409.42,579.09c-5.1-1.37-6-14.4-2.05-29.1s11.32-25.5,16.42-24.12"/><path class="cls-2" d="M1425.84,579.21c-4.33-1.17-5.11-12.24-1.74-24.72s9.61-21.65,13.94-20.48"/><path class="cls-2" d="M1442.35,579.75c-4.33-1.16-5.53-10.67-2.68-21.22s8.67-18.17,13-17"/><path class="cls-2" d="M1462.44,579.52c-4.33-1.17-8.92-9.19-7-16.47s8.66-13.94,13-12.77"/><path class="cls-2" d="M1477.44,578.07c-4.32-1.17-7.76-4.4-5.8-11.68s5.93-9.47,10.25-8.3"/><polygon class="cls-2" points="1504.25 571.36 1504.39 571.17 1383.4 542.21 1389.91 543.94 1504.25 571.36"/><path class="cls-2" d="M1427.51,569.39c-39.11-9.79-38.88,13.87-42.69,40.22-4.75,32.79,29,55.15,65.79,38.41,29.33-13.35,54.34-32.87,52.39-33.24C1498.18,613.88,1454.57,576.17,1427.51,569.39Z"/><path class="cls-2" d="M1409.61,635.23c-5.23-.7-7.84-13.5-5.82-28.59s7.89-26.75,13.12-26"/><path class="cls-2" d="M1425.9,633.2c-4.44-.59-6.65-11.46-4.94-24.27s6.7-22.73,11.15-22.13"/><path class="cls-2" d="M1442.34,631.59c-4.44-.59-6.87-9.86-5.42-20.7s6.23-19.14,10.67-18.55"/><path class="cls-2" d="M1462.23,628.74c-4.44-.59-10-8-9-15.42s6.77-15,11.21-14.36"/><path class="cls-2" d="M1476.92,625.34c-4.44-.59-8.28-3.35-7.28-10.82s4.64-10.17,9.09-9.57"/><polygon class="cls-2" points="1502.62 615.19 1502.74 614.98 1379 602.06 1385.68 602.93 1502.62 615.19"/><path class="cls-2" d="M1421.09,631.84c-38-13.32-40,10.27-46.18,36.15-7.73,32.22,23.83,57.57,62,44.26,30.43-10.61,57.11-27.77,55.2-28.31C1487.4,682.6,1447.42,641.06,1421.09,631.84Z"/><path class="cls-2" d="M1397.26,695.77c-5.15-1.17-6.58-14.15-3.19-29s10.3-25.92,15.45-24.75"/><path class="cls-2" d="M1413.67,695.24c-4.37-1-5.58-12-2.71-24.63s8.75-22,13.12-21"/><path class="cls-2" d="M1430.19,695.14c-4.37-1-5.94-10.45-3.51-21.11s7.94-18.49,12.31-17.5"/><path class="cls-2" d="M1450.25,694.11c-4.37-1-9.27-8.83-7.6-16.18s8.1-14.27,12.47-13.27"/><path class="cls-2" d="M1465.19,692.07c-4.37-1-7.94-4.09-6.26-11.44s5.55-9.7,9.92-8.7"/><polygon class="cls-2" points="1491.71 684.31 1491.85 684.11 1369.81 659.95 1376.38 661.42 1491.71 684.31"/><path class="cls-2" d="M1401.57,228.24c-39.1,9.8-27.75,30.56-18.69,55.59,11.26,31.16,51.56,35,76.13,2.86,19.58-25.59,32.43-54.6,30.53-54C1484.87,234.16,1428.63,221.46,1401.57,228.24Z"/><path class="cls-2" d="M1416.82,294.74c-4.94,1.85-13.28-8.21-18.61-22.47s-5.65-27.31-.71-29.16"/><path class="cls-2" d="M1430.24,285.27c-4.2,1.57-11.28-7-15.81-19.08s-4.8-23.2-.6-24.77"/><path class="cls-2" d="M1444,276.1c-4.2,1.57-10.71-5.46-14.54-15.7s-3.54-19.81.66-21.39"/><path class="cls-2" d="M1460.17,264.21c-4.2,1.57-12.61-2.28-15.25-9.33s-1.08-16.38,3.12-17.95"/><path class="cls-2" d="M1471.52,254.29c-4.2,1.57-8.87,1-11.51-6.11s-.7-11.16,3.49-12.73"/><polygon class="cls-2" points="1489.41 233.22 1489.41 232.98 1374.19 279.91 1380.49 277.53 1489.41 233.22"/><path class="cls-2" d="M1417.1,283c-39.9-5.76-37.26,17.75-38.38,44.35-1.39,33.1,34.45,51.91,69.36,31.51,27.83-16.26,50.72-38.23,48.74-38.39C1491.93,320.05,1444.71,287,1417.1,283Z"/><path class="cls-2" d="M1406,350.31c-5.27-.17-9.17-12.64-8.7-27.85s5.13-27.42,10.41-27.26"/><path class="cls-2" d="M1422,346.63c-4.48-.14-7.79-10.73-7.39-23.65s4.36-23.28,8.84-23.15"/><path class="cls-2" d="M1438.19,343.35c-4.48-.14-7.84-9.11-7.5-20s4.24-19.67,8.72-19.54"/><path class="cls-2" d="M1457.68,338.49c-4.48-.14-10.8-6.89-10.57-14.42s5.21-15.56,9.69-15.42"/><path class="cls-2" d="M1472,333.61c-4.48-.13-8.57-2.49-8.34-10s3.58-10.59,8.06-10.45"/><polygon class="cls-2" points="1496.49 320.9 1496.58 320.68 1372.17 320.42 1378.91 320.6 1496.49 320.9"/><path class="cls-2" d="M1421.36,336.69c-40.31-.5-34.63,22.47-32.27,49,3,33,40.93,47,72.89,22.2,25.46-19.75,45.29-44.52,43.3-44.43C1500.38,363.68,1449.25,337,1421.36,336.69Z"/><path class="cls-2" d="M1419.13,404.89c-5.25.52-10.74-11.33-12.26-26.48s1.51-27.85,6.76-28.38"/><path class="cls-2" d="M1434.52,399.15c-4.46.45-9.12-9.62-10.41-22.48s1.28-23.65,5.74-24.1"/><path class="cls-2" d="M1450.14,393.79c-4.46.45-9-8-10.05-18.89s1.64-20.06,6.1-20.51"/><path class="cls-2" d="M1468.84,386.43c-4.46.45-11.61-5.42-12.36-12.92s3.13-16.11,7.59-16.56"/><path class="cls-2" d="M1482.34,379.73c-4.46.45-8.82-1.35-9.57-8.84s2.17-11,6.63-11.42"/><polygon class="cls-2" points="1505.01 363.93 1505.08 363.7 1381.7 379.67 1388.4 378.97 1505.01 363.93"/><path class="cls-2" d="M1429.53,398.94c-40.1-4.18-36.54,19.21-36.61,45.83-.08,33.13,36.47,50.51,70.55,28.75,27.16-17.34,49.17-40.19,47.18-40.28C1505.75,433,1457.27,401.83,1429.53,398.94Z"/><path class="cls-2" d="M1421.08,466.65c-5.28,0-9.67-12.27-9.79-27.49s4-27.6,9.32-27.64"/><path class="cls-2" d="M1436.92,462.34c-4.48,0-8.2-10.41-8.31-23.34s3.43-23.44,7.92-23.48"/><path class="cls-2" d="M1453,458.43c-4.48,0-8.19-8.8-8.28-19.73s3.46-19.83,8-19.87"/><path class="cls-2" d="M1472.26,452.8c-4.48,0-11.06-6.46-11.13-14s4.59-15.76,9.08-15.79"/><path class="cls-2" d="M1486.32,447.37c-4.48,0-8.66-2.15-8.73-9.68s3.17-10.73,7.65-10.76"/><polygon class="cls-2" points="1510.34 433.7 1510.43 433.48 1386.11 438.11 1392.84 438.03 1510.34 433.7"/><path class="cls-2" d="M1390.32,511.65c-40.31-.36-34.14-23.2-31.22-49.66,3.65-32.93,41.92-46.09,73.34-20.64,25,20.29,44.34,45.47,42.35,45.33C1469.9,486.35,1418.21,511.89,1390.32,511.65Z"/><path class="cls-2" d="M1389.54,443.42c-5.24-.64-11,11.1-12.82,26.21s.92,27.88,6.16,28.52"/><path class="cls-2" d="M1404.8,449.48c-4.45-.54-9.32,9.42-10.88,22.26s.78,23.67,5.22,24.21"/><path class="cls-2" d="M1420.31,455.17c-4.45-.54-9.13,7.82-10.45,18.67s1.22,20.1,5.66,20.64"/><path class="cls-2" d="M1438.85,462.93c-4.45-.54-11.73,5.17-12.64,12.65s2.79,16.17,7.24,16.72"/><path class="cls-2" d="M1452.21,469.91c-4.45-.54-8.85,1.16-9.77,8.64s1.94,11,6.39,11.55"/><polygon class="cls-2" points="1474.54 486.2 1474.59 486.43 1351.58 467.84 1358.27 468.68 1474.54 486.2"/><path class="cls-2" d="M1392.57,454.78c-37.43,15-40.39-8.51-47.71-34.11-9.12-31.85,21.31-58.54,60-46.9,30.86,9.27,58.27,25.26,56.38,25.89C1456.62,401.2,1418.47,444.43,1392.57,454.78Z"/><path class="cls-2" d="M1366,392c-5.09,1.39-6,14.43-1.92,29.11s11.42,25.45,16.51,24.05"/><path class="cls-2" d="M1382.4,391.77c-4.32,1.18-5.05,12.25-1.63,24.72s9.69,21.61,14,20.43"/><path class="cls-2" d="M1398.91,391.15c-4.32,1.19-5.48,10.7-2.59,21.24s8.74,18.14,13.06,16.95"/><path class="cls-2" d="M1419,391.3c-4.32,1.19-8.88,9.24-6.89,16.5s8.71,13.91,13,12.72"/><path class="cls-2" d="M1434,392.7c-4.32,1.19-7.75,4.43-5.75,11.7s6,9.45,10.28,8.26"/><polygon class="cls-2" points="1460.85 399.3 1460.99 399.49 1340.12 428.93 1346.62 427.18 1460.85 399.3"/><path class="cls-2" d="M1384.11,401.58c-39.07,9.94-38.93-13.72-42.85-40.05-4.89-32.77,28.76-55.26,65.64-38.67,29.38,13.22,54.47,32.65,52.52,33C1454.6,356.81,1411.14,394.69,1384.11,401.58Z"/><path class="cls-2" d="M1366,335.81c-5.23.72-7.79,13.53-5.71,28.61s8,26.72,13.23,26"/><path class="cls-2" d="M1382.25,337.77c-4.44.62-6.61,11.49-4.85,24.3s6.8,22.69,11.24,22.08"/><path class="cls-2" d="M1398.7,339.32c-4.44.61-6.83,9.89-5.34,20.72s6.3,19.12,10.74,18.5"/><path class="cls-2" d="M1418.6,342.09c-4.44.61-10,8-9,15.46s6.83,14.92,11.27,14.31"/><path class="cls-2" d="M1433.3,345.43c-4.44.61-8.26,3.38-7.24,10.85s4.68,10.15,9.13,9.53"/><polygon class="cls-2" points="1459.04 355.48 1459.16 355.68 1335.48 369.11 1342.15 368.21 1459.04 355.48"/><path class="cls-2" d="M1377.45,339.15c-38,13.47-40-10.1-46.34-36-7.85-32.19,23.6-57.66,61.84-44.51,30.47,10.49,57.22,27.54,55.31,28.09C1443.55,288.13,1403.73,329.83,1377.45,339.15Z"/><path class="cls-2" d="M1353.35,275.32c-5.14,1.19-6.52,14.18-3.07,29s10.41,25.88,15.55,24.69"/><path class="cls-2" d="M1369.76,275.78c-4.36,1-5.53,12.05-2.6,24.64s8.84,22,13.2,21"/><path class="cls-2" d="M1386.28,275.82c-4.36,1-5.9,10.47-3.42,21.12s8,18.46,12.39,17.45"/><path class="cls-2" d="M1406.35,276.76c-4.36,1-9.24,8.88-7.53,16.22s8.16,14.24,12.52,13.22"/><path class="cls-2" d="M1421.3,278.75c-4.37,1-7.92,4.12-6.22,11.46s5.59,9.68,10,8.66"/><polygon class="cls-2" points="1447.85 286.4 1447.99 286.6 1326.05 311.26 1332.61 309.75 1447.85 286.4"/><path class="cls-2" d="M1359.55,742.83c-39.14-9.64-27.87-30.44-18.92-55.51,11.14-31.21,51.42-35.19,76.12-3.17,19.69,25.51,32.65,54.47,30.75,53.88C1442.82,736.57,1386.64,749.5,1359.55,742.83Z"/><path class="cls-2" d="M1374.53,676.27c-5-1.83-13.24,8.26-18.52,22.54s-5.54,27.34-.59,29.17"/><path class="cls-2" d="M1388,685.68c-4.2-1.55-11.24,7-15.72,19.15s-4.71,23.22-.5,24.77"/><path class="cls-2" d="M1401.76,694.8c-4.2-1.55-10.68,5.5-14.47,15.76s-3.46,19.83.75,21.38"/><path class="cls-2" d="M1418,706.62c-4.21-1.55-12.6,2.33-15.22,9.4s-1,16.38,3.19,17.93"/><path class="cls-2" d="M1429.39,716.5c-4.2-1.55-8.88-.91-11.49,6.15s-.65,11.16,3.55,12.72"/><polygon class="cls-2" points="1447.37 737.5 1447.37 737.73 1331.96 691.27 1338.27 693.63 1447.37 737.5"/><path class="cls-2" d="M1374.86,688c-39.88,5.92-37.34-17.6-38.56-44.19-1.52-33.1,34.24-52.05,69.24-31.8,27.88,16.15,50.86,38,48.88,38.2C1449.54,650.66,1402.45,683.93,1374.86,688Z"/><path class="cls-2" d="M1363.48,620.75c-5.27.18-9.12,12.67-8.59,27.88s5.24,27.4,10.52,27.22"/><path class="cls-2" d="M1379.5,624.36c-4.48.16-7.75,10.76-7.29,23.68s4.45,23.27,8.93,23.11"/><path class="cls-2" d="M1395.7,627.57c-4.48.16-7.8,9.14-7.42,20.07s4.33,19.66,8.81,19.5"/><path class="cls-2" d="M1415.22,632.35c-4.48.16-10.78,6.94-10.51,14.47s5.27,15.54,9.75,15.38"/><path class="cls-2" d="M1429.5,637.17c-4.48.16-8.56,2.53-8.3,10.06s3.63,10.57,8.11,10.41"/><polygon class="cls-2" points="1454.09 649.79 1454.19 650 1329.78 650.77 1336.51 650.56 1454.09 649.79"/><path class="cls-2" d="M1378.9,634.3c-40.31.67-34.72-22.32-32.46-48.85,2.81-33,40.73-47.14,72.79-22.49,25.54,19.65,45.47,44.34,43.48,44.25C1457.82,607,1406.79,633.84,1378.9,634.3Z"/><path class="cls-2" d="M1376.4,566.11c-5.26-.5-10.7,11.37-12.16,26.53s1.62,27.85,6.88,28.35"/><path class="cls-2" d="M1391.81,571.79c-4.46-.43-9.09,9.65-10.32,22.52s1.37,23.65,5.84,24.08"/><path class="cls-2" d="M1407.45,577.08c-4.46-.42-8.92,8-10,18.93s1.72,20.06,6.18,20.49"/><path class="cls-2" d="M1426.18,584.37c-4.46-.43-11.59,5.47-12.31,13s3.2,16.1,7.66,16.53"/><path class="cls-2" d="M1439.71,591c-4.46-.43-8.82,1.39-9.54,8.89s2.21,11,6.68,11.38"/><polygon class="cls-2" points="1462.44 606.73 1462.51 606.96 1339.07 591.48 1345.77 592.15 1462.44 606.73"/><path class="cls-2" d="M1386.82,572c-40.08,4.34-36.62-19.06-36.79-45.68-.22-33.13,36.26-50.66,70.43-29,27.23,17.23,49.33,40,47.34,40.09C1462.91,537.62,1414.54,569,1386.82,572Z"/><path class="cls-2" d="M1378.09,504.35c-5.27,0-9.61,12.3-9.68,27.52s4.16,27.59,9.44,27.61"/><path class="cls-2" d="M1394,508.59c-4.48,0-8.16,10.44-8.22,23.37s3.53,23.43,8,23.45"/><path class="cls-2" d="M1410,512.44c-4.48,0-8.15,8.82-8.2,19.76s3.54,19.81,8,19.83"/><path class="cls-2" d="M1429.33,518c-4.48,0-11,6.51-11.07,14s4.66,15.74,9.14,15.76"/><path class="cls-2" d="M1443.42,523.36c-4.49,0-8.66,2.19-8.69,9.72s3.2,10.71,7.69,10.73"/><polygon class="cls-2" points="1467.49 536.94 1467.58 537.16 1343.24 533.02 1349.97 533.08 1467.49 536.94"/><path class="cls-2" d="M948,252.94c.28,40.32,23.13,34.2,49.6,31.32,32.94-3.58,46.17-41.82,20.78-73.29-20.23-25.08-45.38-44.43-45.25-42.45C973.48,173.42,947.84,225.05,948,252.94Z"/><path class="cls-2" d="M1016.25,253.86c.63,5.24-11.12,11-26.24,12.77s-27.87-1-28.5-6.21"/><path class="cls-2" d="M1010.22,238.59c.53,4.45-9.44,9.3-22.28,10.84s-23.67-.83-24.21-5.28"/><path class="cls-2" d="M1004.56,223.07c.53,4.45-7.84,9.11-18.69,10.41s-20.09-1.25-20.63-5.7"/><path class="cls-2" d="M996.84,204.52c.53,4.45-5.2,11.71-12.68,12.61s-16.17-2.83-16.7-7.28"/><path class="cls-2" d="M989.88,191.14c.53,4.45-1.18,8.85-8.66,9.75s-11-2-11.54-6.41"/><polygon class="cls-2" points="973.64 168.78 973.41 168.72 991.76 291.77 990.93 285.09 973.64 168.78"/><path class="cls-2" d="M1004.89,250.81c-15,37.4,8.44,40.4,34,47.78,31.83,9.18,58.58-21.19,47-59.94-9.21-30.88-25.15-58.32-25.78-56.43C1058.6,186.87,1015.29,224.93,1004.89,250.81Z"/><path class="cls-2" d="M1067.67,277.52c-1.4,5.09-14.44,5.93-29.11,1.87s-25.43-11.47-24-16.56"/><path class="cls-2" d="M1067.89,261.1c-1.2,4.32-12.27,5-24.73,1.59s-21.59-9.74-20.4-14.06"/><path class="cls-2" d="M1068.53,244.6c-1.19,4.32-10.7,5.46-21.24,2.54s-18.12-8.77-16.92-13.09"/><path class="cls-2" d="M1068.42,224.5c-1.19,4.32-9.25,8.87-16.51,6.86s-13.89-8.74-12.7-13.06"/><path class="cls-2" d="M1067.06,209.49c-1.2,4.32-4.45,7.74-11.71,5.73s-9.44-6-8.25-10.3"/><polygon class="cls-2" points="1060.51 182.64 1060.32 182.5 1030.64 303.31 1032.41 296.82 1060.51 182.64"/><path class="cls-2" d="M1058.08,259.37c-10,39.05,13.64,39,40,42.94,32.76,4.94,55.32-28.66,38.8-65.57-13.16-29.41-32.54-54.53-32.92-52.58C1103,189,1065,232.36,1058.08,259.37Z"/><path class="cls-2" d="M1123.81,277.67c-.73,5.23-13.54,7.76-28.62,5.65s-26.71-8.06-26-13.28"/><path class="cls-2" d="M1121.88,261.36c-.62,4.44-11.5,6.59-24.31,4.8s-22.68-6.84-22.06-11.28"/><path class="cls-2" d="M1120.37,244.91c-.62,4.44-9.9,6.81-20.73,5.3s-19.11-6.34-18.49-10.78"/><path class="cls-2" d="M1117.64,225c-.62,4.44-8,10-15.48,9s-14.91-6.86-14.29-11.29"/><path class="cls-2" d="M1114.32,210.3c-.62,4.44-3.4,8.25-10.86,7.21s-10.14-4.7-9.52-9.14"/><polygon class="cls-2" points="1104.33 184.53 1104.12 184.42 1090.46 308.07 1091.37 301.4 1104.33 184.53"/><path class="cls-2" d="M1120.49,266.16c-13.55,38,10,40,35.87,46.41,32.18,7.91,57.71-23.49,44.63-61.75-10.42-30.49-27.43-57.28-28-55.37C1171.64,200.16,1129.87,239.89,1120.49,266.16Z"/><path class="cls-2" d="M1184.28,290.38c-1.21,5.14-14.2,6.49-29,3s-25.86-10.46-24.66-15.6"/><path class="cls-2" d="M1183.84,274c-1,4.36-12,5.51-24.64,2.56s-22-8.88-20.94-13.25"/><path class="cls-2" d="M1183.84,257.45c-1,4.36-10.48,5.88-21.13,3.38s-18.44-8.06-17.42-12.42"/><path class="cls-2" d="M1182.94,237.38c-1,4.36-8.9,9.22-16.23,7.5s-14.22-8.19-13.2-12.55"/><path class="cls-2" d="M1181,222.43c-1,4.36-4.14,7.91-11.47,6.19s-9.67-5.61-8.65-10"/><polygon class="cls-2" points="1173.38 195.86 1173.19 195.72 1148.29 317.62 1149.8 311.05 1173.38 195.86"/><path class="cls-2" d="M716.78,283.26c9.56,39.16,30.39,27.93,55.47,19,31.23-11.08,35.29-51.35,3.32-76.11-25.47-19.74-54.4-32.76-53.82-30.86C723.2,200,710.16,256.16,716.78,283.26Z"/><path class="cls-2" d="M783.37,268.41c1.82,5-8.29,13.23-22.58,18.48s-27.35,5.48-29.17.53"/><path class="cls-2" d="M774,254.94c1.55,4.21-7,11.23-19.17,15.69s-23.23,4.66-24.78.45"/><path class="cls-2" d="M764.89,241.14c1.55,4.21-5.52,10.68-15.78,14.45s-19.84,3.41-21.39-.79"/><path class="cls-2" d="M753.1,224.88c1.55,4.2-2.35,12.59-9.43,15.19s-16.38,1-17.92-3.23"/><path class="cls-2" d="M743.25,213.47c1.54,4.21.89,8.88-6.18,11.48s-11.16.63-12.7-3.58"/><polygon class="cls-2" points="722.29 195.46 722.05 195.45 768.29 310.95 765.94 304.63 722.29 195.46"/><path class="cls-2" d="M771.62,268.06c-6,39.86,17.53,37.37,44.12,38.64,33.09,1.59,52.12-34.13,31.93-69.17-16.09-27.92-37.93-50.94-38.1-49C809.13,193.45,775.77,240.48,771.62,268.06Z"/><path class="cls-2" d="M838.87,279.57c-.2,5.28-12.69,9.1-27.9,8.53s-27.39-5.29-27.19-10.57"/><path class="cls-2" d="M835.29,263.54c-.17,4.48-10.78,7.73-23.69,7.25s-23.26-4.49-23.1-9"/><path class="cls-2" d="M832.11,247.33c-.17,4.48-9.16,7.79-20.09,7.38s-19.65-4.36-19.48-8.84"/><path class="cls-2" d="M827.37,227.81c-.17,4.48-7,10.76-14.49,10.48s-15.53-5.3-15.36-9.78"/><path class="cls-2" d="M822.57,213.52c-.16,4.48-2.54,8.55-10.06,8.28s-10.57-3.65-10.41-8.13"/><polygon class="cls-2" points="810.01 188.9 809.79 188.81 808.78 313.21 809 306.48 810.01 188.9"/><path class="cls-2" d="M825.35,264.12c-.75,40.31,22.25,34.77,48.78,32.56,33-2.74,47.22-40.64,22.63-72.74-19.59-25.59-44.24-45.56-44.16-43.58C852.81,185.26,825.87,236.23,825.35,264.12Z"/><path class="cls-2" d="M893.53,266.76c.49,5.26-11.39,10.68-26.55,12.1s-27.85-1.67-28.34-6.93"/><path class="cls-2" d="M887.88,251.34c.43,4.46-9.67,9.06-22.54,10.28s-23.64-1.43-24.06-5.89"/><path class="cls-2" d="M882.62,235.68c.42,4.47-8.06,8.92-19,9.94s-20-1.76-20.47-6.22"/><path class="cls-2" d="M875.37,217c.42,4.46-5.49,11.57-13,12.28s-16.09-3.23-16.51-7.7"/><path class="cls-2" d="M868.75,203.4c.42,4.46-1.4,8.82-8.9,9.52s-11-2.23-11.37-6.7"/><polygon class="cls-2" points="853.08 180.63 852.86 180.57 868.08 304.04 867.43 297.34 853.08 180.63"/><path class="cls-2" d="M887.64,256.33c-4.42,40.07,19,36.65,45.61,36.88,33.13.28,50.73-36.16,29.18-70.37-17.18-27.27-39.9-49.41-40-47.43C922.19,180.31,890.7,228.61,887.64,256.33Z"/><path class="cls-2" d="M955.3,265.19c0,5.28-12.32,9.59-27.55,9.62s-27.57-4.21-27.58-9.49"/><path class="cls-2" d="M951.09,249.31c0,4.49-10.46,8.15-23.39,8.18s-23.42-3.58-23.43-8.06"/><path class="cls-2" d="M947.27,233.24c0,4.48-8.84,8.14-19.78,8.17s-19.8-3.59-19.81-8.07"/><path class="cls-2" d="M941.76,213.92c0,4.48-6.52,11-14.06,11.05S912,220.28,912,215.8"/><path class="cls-2" d="M936.41,199.83c0,4.48-2.2,8.65-9.73,8.67S916,205.27,916,200.79"/><polygon class="cls-2" points="922.89 175.73 922.67 175.64 926.56 299.99 926.51 293.25 922.89 175.73"/><path class="cls-2" d="M1215.2,261.89c-3.25,40.18,20,36.08,46.67,35.53,33.13-.69,49.65-37.64,27.1-71.21-18-26.75-41.33-48.21-41.37-46.23C1247.5,184.89,1217.45,234.09,1215.2,261.89Z"/><path class="cls-2" d="M1283.08,268.76c.17,5.27-12,9.94-27.24,10.43s-27.69-3.41-27.86-8.68"/><path class="cls-2" d="M1278.41,253c.14,4.48-10.22,8.44-23.14,8.85s-23.51-2.89-23.65-7.37"/><path class="cls-2" d="M1274.13,237.06c.14,4.48-8.6,8.4-19.53,8.74s-19.91-3-20-7.48"/><path class="cls-2" d="M1268.06,217.91c.14,4.48-6.21,11.21-13.74,11.45s-15.85-4.22-16-8.7"/><path class="cls-2" d="M1262.29,204c.15,4.48-1.94,8.71-9.47,9s-10.8-2.91-10.94-7.39"/><polygon class="cls-2" points="1248.07 180.28 1247.85 180.21 1255.38 304.38 1255.14 297.65 1248.07 180.28"/><path class="cls-2" d="M1263,281.72c-18.25,35.95,4.87,41,29.71,50.57,30.91,11.93,60.21-16,52.08-55.6-6.48-31.57-20-60.29-20.75-58.47C1322.13,222.72,1275.66,256.85,1263,281.72Z"/><path class="cls-2" d="M1323.25,313.82c-1.85,4.95-14.91,4.64-29.17-.68s-24.33-13.65-22.49-18.59"/><path class="cls-2" d="M1324.89,297.48c-1.57,4.2-12.66,3.94-24.77-.58s-20.66-11.59-19.09-15.79"/><path class="cls-2" d="M1327,281.09c-1.57,4.2-11.14,4.51-21.39.69s-17.28-10.33-15.71-14.53"/><path class="cls-2" d="M1328.62,261.07c-1.57,4.2-10,8-17,5.39s-13.07-9.92-11.5-14.12"/><path class="cls-2" d="M1328.57,246c-1.57,4.2-5.1,7.33-12.16,4.69s-8.88-6.78-7.32-11"/><polygon class="cls-2" points="1324.39 218.68 1324.22 218.52 1284.1 336.28 1286.43 329.96 1324.39 218.68"/><path class="cls-2" d="M982.19,271.89c6.11,39.85,27.83,30.48,53.6,23.81,32.08-8.32,39.64-48.08,10-75.54-23.65-21.88-51.33-37.38-50.91-35.44C995.86,189.51,978,244.32,982.19,271.89Z"/><path class="cls-2" d="M1049.83,262.92c1.38,5.09-9.42,12.45-24.11,16.43s-27.73,3.08-29.11-2"/><path class="cls-2" d="M1041.65,248.68c1.17,4.32-8,10.57-20.47,13.95s-23.55,2.61-24.72-1.71"/><path class="cls-2" d="M1033.8,234.14c1.17,4.33-6.43,10.15-17,13s-20.06,1.67-21.23-2.66"/><path class="cls-2" d="M1023.47,216.91c1.18,4.32-3.44,12.34-10.71,14.31s-16.41-.46-17.58-4.78"/><path class="cls-2" d="M1014.65,204.68c1.18,4.33.12,8.93-7.15,10.9s-11.18-.35-12.35-4.67"/><polygon class="cls-2" points="995.35 184.91 995.11 184.88 1031.08 303.97 1029.3 297.48 995.35 184.91"/><path class="cls-2" d="M1038.15,261.54c-9.46,39.19,14.2,38.76,40.57,42.35,32.83,4.47,54.9-29.45,37.85-66.12-13.59-29.22-33.33-54.06-33.68-52.1C1082,190.5,1044.69,234.43,1038.15,261.54Z"/><path class="cls-2" d="M1104.14,278.88c-.66,5.24-13.43,7.95-28.54,6.07s-26.82-7.67-26.17-12.91"/><path class="cls-2" d="M1102,262.6c-.56,4.45-11.41,6.76-24.24,5.15s-22.77-6.51-22.22-10.95"/><path class="cls-2" d="M1100.22,246.18c-.56,4.45-9.8,6.95-20.65,5.59s-19.2-6.06-18.64-10.5"/><path class="cls-2" d="M1097.2,226.31c-.56,4.45-7.87,10.12-15.35,9.18s-15-6.64-14.45-11.09"/><path class="cls-2" d="M1093.67,211.66c-.55,4.44-3.28,8.3-10.75,7.36s-10.21-4.55-9.65-9"/><polygon class="cls-2" points="1083.3 186.04 1083.1 185.93 1071.23 309.76 1072.04 303.08 1083.3 186.04"/><path class="cls-2" d="M1092,262.31c-4.27,40.09,19.13,36.58,45.75,36.7,33.14.15,50.59-36.37,28.9-70.5-17.29-27.19-40.1-49.24-40.19-47.26C1126.26,186.15,1095,234.57,1092,262.31Z"/><path class="cls-2" d="M1159.71,270.89c0,5.28-12.28,9.64-27.51,9.74s-27.59-4.1-27.63-9.38"/><path class="cls-2" d="M1155.43,255c0,4.48-10.43,8.18-23.35,8.27s-23.44-3.49-23.46-8"/><path class="cls-2" d="M1151.55,239c0,4.48-8.81,8.18-19.74,8.25s-19.82-3.51-19.85-8"/><path class="cls-2" d="M1146,219.68c0,4.48-6.49,11.06-14,11.1s-15.75-4.62-15.77-9.1"/><path class="cls-2" d="M1140.56,205.61c0,4.48-2.17,8.66-9.7,8.71s-10.72-3.18-10.74-7.67"/><polygon class="cls-2" points="1126.94 181.56 1126.72 181.48 1131.1 305.81 1131.04 299.07 1126.94 181.56"/><path class="cls-2" d="M1171.75,284c-7.9,39.53,15.72,38.17,42.22,40.72,33,3.17,53.69-31.59,35.21-67.56-14.73-28.66-35.43-52.7-35.7-50.73C1212.81,211.27,1177.22,256.64,1171.75,284Z"/><path class="cls-2" d="M1238.38,298.72c-.45,5.26-13.11,8.48-28.28,7.18s-27.1-6.6-26.66-11.86"/><path class="cls-2" d="M1235.57,282.54c-.38,4.47-11.13,7.2-24,6.1s-23-5.61-22.64-10.07"/><path class="cls-2" d="M1233.17,266.2c-.38,4.46-9.52,7.33-20.41,6.4s-19.42-5.3-19-9.76"/><path class="cls-2" d="M1229.37,246.47c-.38,4.46-7.46,10.41-15,9.77s-15.26-6-14.88-10.51"/><path class="cls-2" d="M1225.27,232c-.38,4.47-3,8.42-10.45,7.78s-10.38-4.14-10-8.61"/><polygon class="cls-2" points="1213.9 206.77 1213.69 206.66 1206.71 330.88 1207.25 324.16 1213.9 206.77"/><path class="cls-2" d="M697.14,268.12c4.52,40.06,26.6,31.56,52.62,25.91,32.38-7,41.5-46.46,12.94-75.08-22.77-22.8-49.82-39.39-49.48-37.43C714.07,186.35,694,240.4,697.14,268.12Z"/><path class="cls-2" d="M765.08,261.84c1.18,5.14-9.9,12.06-24.74,15.46s-27.83,2-29-3.17"/><path class="cls-2" d="M757.47,247.28c1,4.37-8.41,10.25-21,13.13s-23.63,1.68-24.63-2.69"/><path class="cls-2" d="M750.21,232.45c1,4.37-6.84,9.88-17.49,12.32s-20.11.87-21.11-3.49"/><path class="cls-2" d="M740.57,214.82c1,4.36-3.93,12.19-11.28,13.87s-16.37-1.1-17.37-5.47"/><path class="cls-2" d="M732.24,202.25c1,4.37-.24,8.92-7.58,10.6s-11.15-.78-12.15-5.15"/><polygon class="cls-2" points="713.74 181.72 713.5 181.69 744.72 302.12 743.2 295.56 713.74 181.72"/><path class="cls-2" d="M753.46,260c-11,38.79,12.65,39.3,38.87,43.93,32.62,5.77,56-27.25,40.44-64.56C820.35,209.62,801.61,184,801.18,186,800.13,190.75,761.08,233.16,753.46,260Z"/><path class="cls-2" d="M818.71,279.94c-.86,5.21-13.73,7.42-28.75,4.93s-26.5-8.72-25.64-13.93"/><path class="cls-2" d="M817.19,263.59c-.73,4.42-11.66,6.3-24.42,4.18s-22.5-7.4-21.77-11.83"/><path class="cls-2" d="M816.09,247.11c-.73,4.42-10.07,6.56-20.85,4.77S776.3,245.06,777,240.64"/><path class="cls-2" d="M813.86,227.14c-.73,4.42-8.26,9.79-15.69,8.56s-14.74-7.23-14-11.65"/><path class="cls-2" d="M810.92,212.35c-.73,4.43-3.6,8.17-11,6.94s-10-4.95-9.29-9.38"/><polygon class="cls-2" points="801.58 186.34 801.38 186.22 784.6 309.5 785.68 302.85 801.58 186.34"/><path class="cls-2" d="M807.26,262.9c-5.85,39.89,17.67,37.31,44.26,38.49,33.1,1.46,52-34.33,31.67-69.29-16.19-27.86-38.11-50.8-38.28-48.82C844.49,188.16,811.31,235.31,807.26,262.9Z"/><path class="cls-2" d="M874.55,274.17c-.17,5.27-12.65,9.14-27.86,8.63s-27.41-5.19-27.24-10.46"/><path class="cls-2" d="M870.91,258.15c-.15,4.48-10.74,7.77-23.66,7.34s-23.28-4.41-23.13-8.89"/><path class="cls-2" d="M867.67,242c-.15,4.48-9.13,7.81-20,7.45s-19.67-4.29-19.52-8.77"/><path class="cls-2" d="M862.86,222.45c-.15,4.48-6.92,10.79-14.45,10.54s-15.55-5.25-15.4-9.73"/><path class="cls-2" d="M858,208.17c-.15,4.48-2.51,8.57-10,8.32s-10.58-3.61-10.43-8.09"/><polygon class="cls-2" points="845.36 183.61 845.14 183.51 844.59 307.92 844.79 301.19 845.36 183.61"/><path class="cls-2" d="M870,263.07c-9.47,39.19,14.19,38.77,40.56,42.37,32.83,4.48,54.91-29.44,37.87-66.11-13.58-29.22-33.31-54.07-33.66-52.11C913.94,192,876.59,236,870,263.07Z"/><path class="cls-2" d="M936,280.43c-.65,5.24-13.43,7.95-28.54,6.06s-26.82-7.67-26.16-12.91"/><path class="cls-2" d="M933.86,264.16c-.56,4.44-11.41,6.75-24.24,5.14s-22.77-6.52-22.21-11"/><path class="cls-2" d="M932.11,247.73c-.55,4.45-9.8,7-20.65,5.59s-19.19-6.07-18.64-10.51"/><path class="cls-2" d="M929.1,227.87c-.56,4.44-7.87,10.11-15.35,9.17s-15-6.64-14.45-11.09"/><path class="cls-2" d="M925.58,213.21c-.56,4.44-3.28,8.3-10.76,7.36s-10.2-4.55-9.65-9"/><polygon class="cls-2" points="915.22 187.59 915.01 187.47 903.1 311.31 903.92 304.62 915.22 187.59"/><path class="cls-2" d="M523.31,301.75c-1.76,40.28,21.37,35.32,48,33.78,33.08-1.91,48.23-39.44,24.45-72.15-18.94-26.07-43.08-46.66-43.05-44.67C552.74,223.61,524.53,273.89,523.31,301.75Z"/><path class="cls-2" d="M591.4,306.11c.36,5.27-11.66,10.38-26.84,11.43s-27.8-2.38-28.16-7.65"/><path class="cls-2" d="M586.15,290.55c.31,4.47-9.9,8.82-22.8,9.7s-23.6-2-23.91-6.49"/><path class="cls-2" d="M581.28,274.77c.31,4.47-8.29,8.7-19.2,9.45s-20-2.26-20.31-6.74"/><path class="cls-2" d="M574.5,255.85c.31,4.47-5.78,11.44-13.3,12s-16-3.63-16.31-8.1"/><path class="cls-2" d="M568.23,242.14c.31,4.47-1.63,8.78-9.14,9.3s-10.89-2.51-11.2-7"/><polygon class="cls-2" points="553.14 218.99 552.91 218.92 565.03 342.74 564.54 336.02 553.14 218.99"/><path class="cls-2" d="M576.32,292.17c3.51,40.16,25.8,32.23,51.95,27.24,32.55-6.22,42.67-45.4,14.83-74.73C620.92,221.31,594.3,204,594.59,206,595.31,210.86,573.9,264.39,576.32,292.17Z"/><path class="cls-2" d="M644.4,287.61c1.05,5.17-10.2,11.81-25.12,14.83s-27.87,1.27-28.91-3.9"/><path class="cls-2" d="M637.16,272.87c.89,4.39-8.66,10-21.33,12.59s-23.66,1.08-24.55-3.31"/><path class="cls-2" d="M630.28,257.85c.89,4.4-7.08,9.72-17.8,11.88s-20.12.37-21-4"/><path class="cls-2" d="M621.09,240c.89,4.4-4.24,12.1-11.62,13.59s-16.34-1.52-17.23-5.91"/><path class="cls-2" d="M613.08,227.21c.89,4.39-.46,8.92-7.84,10.41s-11.13-1.07-12-5.46"/><polygon class="cls-2" points="595.1 206.23 594.87 206.18 623.03 327.36 621.67 320.76 595.1 206.23"/><path class="cls-2" d="M637.45,277.86c-.17,40.31,22.75,34.44,49.24,31.86,33-3.21,46.64-41.31,21.6-73.06-20-25.3-44.89-44.93-44.78-42.94C663.79,198.61,637.57,250,637.45,277.86Z"/><path class="cls-2" d="M705.66,279.53c.57,5.24-11.24,10.83-26.37,12.47s-27.87-1.28-28.44-6.52"/><path class="cls-2" d="M699.8,264.19c.48,4.45-9.54,9.2-22.4,10.59s-23.66-1.08-24.14-5.54"/><path class="cls-2" d="M694.31,248.61c.49,4.45-7.93,9-18.8,10.2s-20.08-1.47-20.56-5.93"/><path class="cls-2" d="M686.8,230c.48,4.46-5.33,11.66-12.82,12.47s-16.13-3-16.62-7.46"/><path class="cls-2" d="M680,216.52c.48,4.46-1.28,8.84-8.77,9.65s-11-2.08-11.46-6.54"/><polygon class="cls-2" points="664 193.98 663.77 193.92 680.75 317.16 680 310.47 664 193.98"/><path class="cls-2" d="M953,768.17c.28-40.31,23.13-34.19,49.6-31.31,32.94,3.58,46.17,41.82,20.78,73.29-20.23,25.08-45.38,44.43-45.25,42.44C978.48,847.7,952.84,796.07,953,768.17Z"/><path class="cls-2" d="M1021.25,767.26c.63-5.24-11.12-11-26.24-12.77s-27.87,1-28.5,6.21"/><path class="cls-2" d="M1015.22,782.53c.53-4.45-9.44-9.3-22.28-10.84s-23.67.82-24.21,5.28"/><path class="cls-2" d="M1009.56,798.05c.53-4.45-7.84-9.11-18.69-10.41s-20.09,1.25-20.63,5.7"/><path class="cls-2" d="M1001.84,816.6c.53-4.45-5.2-11.71-12.68-12.61s-16.17,2.83-16.7,7.28"/><path class="cls-2" d="M994.88,830c.53-4.45-1.18-8.84-8.66-9.74s-11,2-11.54,6.41"/><polygon class="cls-2" points="978.64 852.34 978.41 852.4 996.76 729.35 995.93 736.03 978.64 852.34"/><path class="cls-2" d="M1009.89,770.31c-15-37.4,8.44-40.4,34-47.78,31.83-9.18,58.58,21.19,47,59.94-9.21,30.88-25.15,58.32-25.78,56.43C1063.6,834.25,1020.29,796.19,1009.89,770.31Z"/><path class="cls-2" d="M1072.67,743.6c-1.4-5.09-14.44-5.93-29.11-1.87s-25.43,11.47-24,16.56"/><path class="cls-2" d="M1072.89,760c-1.2-4.32-12.27-5-24.73-1.59s-21.59,9.74-20.4,14.06"/><path class="cls-2" d="M1073.53,776.52c-1.19-4.32-10.7-5.46-21.24-2.54s-18.12,8.77-16.92,13.09"/><path class="cls-2" d="M1073.42,796.61c-1.19-4.32-9.25-8.86-16.51-6.85s-13.89,8.74-12.7,13.06"/><path class="cls-2" d="M1072.06,811.63c-1.2-4.32-4.45-7.74-11.71-5.74s-9.44,6-8.25,10.31"/><polygon class="cls-2" points="1065.51 838.48 1065.32 838.62 1035.64 717.8 1037.41 724.3 1065.51 838.48"/><path class="cls-2" d="M1063.08,761.75c-10-39,13.64-39,40-42.94,32.76-4.95,55.32,28.66,38.8,65.57-13.16,29.41-32.54,54.53-32.92,52.58C1108,832.15,1070,788.76,1063.08,761.75Z"/><path class="cls-2" d="M1128.81,743.45c-.73-5.23-13.54-7.76-28.62-5.65s-26.71,8.05-26,13.28"/><path class="cls-2" d="M1126.88,759.76c-.62-4.44-11.5-6.59-24.31-4.8s-22.68,6.84-22.06,11.28"/><path class="cls-2" d="M1125.37,776.21c-.62-4.44-9.9-6.81-20.73-5.3s-19.11,6.34-18.49,10.78"/><path class="cls-2" d="M1122.64,796.11c-.62-4.44-8-10-15.48-9s-14.91,6.85-14.29,11.29"/><path class="cls-2" d="M1119.32,810.82c-.62-4.44-3.4-8.25-10.86-7.21s-10.14,4.7-9.52,9.14"/><polygon class="cls-2" points="1109.33 836.59 1109.12 836.7 1095.46 713.05 1096.37 719.72 1109.33 836.59"/><path class="cls-2" d="M1125.49,755c-13.55-38,10-40.05,35.87-46.41,32.18-7.92,57.71,23.49,44.63,61.75-10.42,30.49-27.43,57.28-28,55.37C1176.64,821,1134.87,781.23,1125.49,755Z"/><path class="cls-2" d="M1189.28,730.73c-1.21-5.14-14.2-6.48-29-3s-25.86,10.46-24.66,15.6"/><path class="cls-2" d="M1188.84,747.15c-1-4.36-12-5.51-24.64-2.56s-22,8.88-20.94,13.25"/><path class="cls-2" d="M1188.84,763.67c-1-4.37-10.48-5.88-21.13-3.38s-18.44,8.05-17.42,12.42"/><path class="cls-2" d="M1187.94,783.74c-1-4.36-8.9-9.22-16.23-7.5s-14.22,8.19-13.2,12.55"/><path class="cls-2" d="M1186,798.69c-1-4.37-4.14-7.91-11.47-6.19s-9.67,5.61-8.65,10"/><polygon class="cls-2" points="1178.38 825.26 1178.19 825.39 1153.29 703.5 1154.8 710.07 1178.38 825.26"/><path class="cls-2" d="M721.78,737.86c9.56-39.16,30.39-27.93,55.47-19,31.23,11.08,35.29,51.35,3.32,76.11-25.47,19.74-54.4,32.76-53.82,30.86C728.2,821.12,715.16,765,721.78,737.86Z"/><path class="cls-2" d="M788.37,752.71c1.82-5-8.29-13.23-22.58-18.48s-27.35-5.48-29.17-.53"/><path class="cls-2" d="M779,766.18c1.55-4.21-7-11.23-19.17-15.69S736.58,745.83,735,750"/><path class="cls-2" d="M769.89,780c1.55-4.2-5.52-10.67-15.78-14.44s-19.84-3.41-21.39.79"/><path class="cls-2" d="M758.1,796.24c1.55-4.21-2.35-12.59-9.43-15.19s-16.38-1-17.92,3.23"/><path class="cls-2" d="M748.25,807.65c1.54-4.21.89-8.88-6.18-11.48s-11.16-.63-12.7,3.58"/><polygon class="cls-2" points="727.29 825.66 727.05 825.67 773.29 710.17 770.94 716.49 727.29 825.66"/><path class="cls-2" d="M776.62,753.06c-6-39.86,17.53-37.37,44.12-38.65,33.09-1.58,52.12,34.14,31.93,69.18-16.09,27.92-37.93,50.94-38.1,49C814.13,827.66,780.77,780.64,776.62,753.06Z"/><path class="cls-2" d="M843.87,741.55c-.2-5.28-12.69-9.1-27.9-8.54s-27.39,5.3-27.19,10.57"/><path class="cls-2" d="M840.29,757.57c-.17-4.48-10.78-7.72-23.69-7.24s-23.26,4.49-23.1,9"/><path class="cls-2" d="M837.11,773.78C836.94,769.3,828,766,817,766.4s-19.65,4.37-19.48,8.85"/><path class="cls-2" d="M832.37,793.31c-.17-4.48-7-10.76-14.49-10.48s-15.53,5.3-15.36,9.78"/><path class="cls-2" d="M827.57,807.6c-.16-4.48-2.54-8.56-10.06-8.28s-10.57,3.65-10.41,8.13"/><polygon class="cls-2" points="815.01 832.22 814.79 832.31 813.78 707.91 814 714.64 815.01 832.22"/><path class="cls-2" d="M830.35,757c-.75-40.31,22.25-34.77,48.78-32.56,33,2.74,47.22,40.64,22.63,72.74-19.59,25.59-44.24,45.56-44.16,43.57C857.81,835.86,830.87,784.88,830.35,757Z"/><path class="cls-2" d="M898.53,754.36c.49-5.26-11.39-10.68-26.55-12.1s-27.85,1.67-28.34,6.93"/><path class="cls-2" d="M892.88,769.78c.43-4.47-9.67-9.07-22.54-10.28s-23.64,1.43-24.06,5.89"/><path class="cls-2" d="M887.62,785.43c.42-4.46-8.06-8.91-19-9.93s-20,1.76-20.47,6.22"/><path class="cls-2" d="M880.37,804.17c.42-4.46-5.49-11.57-13-12.28s-16.09,3.23-16.51,7.69"/><path class="cls-2" d="M873.75,817.72c.42-4.46-1.4-8.82-8.9-9.52s-11,2.23-11.37,6.7"/><polygon class="cls-2" points="858.08 840.48 857.86 840.55 873.08 717.08 872.43 723.78 858.08 840.48"/><path class="cls-2" d="M892.64,764.79c-4.42-40.08,19-36.66,45.61-36.88,33.13-.28,50.73,36.16,29.18,70.37-17.18,27.27-39.9,49.41-40,47.43C927.19,840.81,895.7,792.51,892.64,764.79Z"/><path class="cls-2" d="M960.3,755.93c0-5.28-12.32-9.59-27.55-9.62s-27.57,4.21-27.58,9.49"/><path class="cls-2" d="M956.09,771.8c0-4.48-10.46-8.14-23.39-8.17s-23.42,3.58-23.43,8.06"/><path class="cls-2" d="M952.27,787.88c0-4.49-8.84-8.14-19.78-8.17s-19.8,3.59-19.81,8.07"/><path class="cls-2" d="M946.76,807.2c0-4.48-6.52-11-14.06-11.05S917,800.84,917,805.32"/><path class="cls-2" d="M941.41,821.29c0-4.48-2.2-8.65-9.73-8.67S921,815.85,921,820.33"/><polygon class="cls-2" points="927.89 845.39 927.67 845.48 931.56 721.13 931.51 727.87 927.89 845.39"/><path class="cls-2" d="M1220.2,759.23c-3.25-40.18,20-36.08,46.67-35.53,33.13.69,49.65,37.64,27.1,71.2-18,26.75-41.33,48.22-41.37,46.23C1252.5,836.23,1222.45,787,1220.2,759.23Z"/><path class="cls-2" d="M1288.08,752.36c.17-5.28-12-9.94-27.24-10.43s-27.69,3.4-27.86,8.68"/><path class="cls-2" d="M1283.41,768.1c.14-4.48-10.22-8.44-23.14-8.85s-23.51,2.89-23.65,7.37"/><path class="cls-2" d="M1279.13,784.06c.14-4.48-8.6-8.4-19.53-8.74s-19.91,3-20,7.48"/><path class="cls-2" d="M1273.06,803.21c.14-4.48-6.21-11.21-13.74-11.45s-15.85,4.22-16,8.7"/><path class="cls-2" d="M1267.29,817.14c.15-4.48-1.94-8.71-9.47-8.95s-10.8,2.91-10.94,7.39"/><polygon class="cls-2" points="1253.07 840.83 1252.85 840.91 1260.38 716.74 1260.14 723.47 1253.07 840.83"/><path class="cls-2" d="M1277,756.4c-18.25-36,4.87-41,29.71-50.57,30.91-11.93,60.21,16,52.08,55.6-6.48,31.57-20,60.29-20.75,58.47C1336.13,815.4,1289.66,781.27,1277,756.4Z"/><path class="cls-2" d="M1337.25,724.3c-1.85-4.95-14.91-4.64-29.17.68s-24.33,13.65-22.49,18.59"/><path class="cls-2" d="M1338.89,740.64c-1.57-4.2-12.66-3.94-24.77.58S1293.46,752.81,1295,757"/><path class="cls-2" d="M1341,757c-1.57-4.2-11.14-4.5-21.39-.68s-17.28,10.33-15.71,14.53"/><path class="cls-2" d="M1342.62,777.05c-1.57-4.2-10-8-17-5.39s-13.07,9.92-11.5,14.12"/><path class="cls-2" d="M1342.57,792.12c-1.57-4.2-5.1-7.32-12.16-4.68s-8.88,6.78-7.32,11"/><polygon class="cls-2" points="1338.39 819.44 1338.22 819.6 1298.1 701.84 1300.43 708.16 1338.39 819.44"/><path class="cls-2" d="M987.19,749.23c6.11-39.85,27.83-30.48,53.6-23.81,32.08,8.32,39.64,48.07,10,75.54-23.65,21.88-51.33,37.38-50.91,35.44C1000.86,831.6,983,776.8,987.19,749.23Z"/><path class="cls-2" d="M1054.83,758.2c1.38-5.09-9.42-12.45-24.11-16.43s-27.73-3.08-29.11,2"/><path class="cls-2" d="M1046.65,772.44c1.17-4.32-8-10.57-20.47-14s-23.55-2.62-24.72,1.71"/><path class="cls-2" d="M1038.8,787c1.17-4.33-6.43-10.15-17-13s-20.06-1.67-21.23,2.65"/><path class="cls-2" d="M1028.47,804.21c1.18-4.32-3.44-12.34-10.71-14.31s-16.41.45-17.58,4.78"/><path class="cls-2" d="M1019.65,816.44c1.18-4.33.12-8.93-7.15-10.9s-11.18.35-12.35,4.67"/><polygon class="cls-2" points="1000.35 836.21 1000.11 836.24 1036.08 717.14 1034.3 723.64 1000.35 836.21"/><path class="cls-2" d="M1043.15,759.58c-9.46-39.19,14.2-38.76,40.57-42.35,32.83-4.47,54.9,29.45,37.85,66.12-13.59,29.22-33.33,54.06-33.68,52.1C1087,830.62,1049.69,786.69,1043.15,759.58Z"/><path class="cls-2" d="M1109.14,742.24c-.66-5.24-13.43-8-28.54-6.07s-26.82,7.67-26.17,12.91"/><path class="cls-2" d="M1107,758.52c-.56-4.45-11.41-6.76-24.24-5.15s-22.77,6.51-22.22,11"/><path class="cls-2" d="M1105.22,774.94c-.56-4.45-9.8-7-20.65-5.6s-19.2,6.07-18.64,10.51"/><path class="cls-2" d="M1102.2,794.81c-.56-4.45-7.87-10.12-15.35-9.18s-15,6.64-14.45,11.08"/><path class="cls-2" d="M1098.67,809.46c-.55-4.45-3.28-8.3-10.75-7.37s-10.21,4.56-9.65,9"/><polygon class="cls-2" points="1088.3 835.08 1088.1 835.19 1076.23 711.35 1077.04 718.04 1088.3 835.08"/><path class="cls-2" d="M1097,758.81c-4.27-40.09,19.13-36.58,45.75-36.7,33.14-.15,50.59,36.37,28.9,70.49-17.29,27.2-40.1,49.25-40.19,47.27C1131.26,835,1100,786.54,1097,758.81Z"/><path class="cls-2" d="M1164.71,750.22c0-5.27-12.28-9.63-27.51-9.73s-27.59,4.1-27.63,9.38"/><path class="cls-2" d="M1160.43,766.08c0-4.48-10.43-8.18-23.35-8.27s-23.44,3.48-23.46,8"/><path class="cls-2" d="M1156.55,782.14c0-4.49-8.81-8.18-19.74-8.25s-19.82,3.51-19.85,8"/><path class="cls-2" d="M1151,801.44c0-4.49-6.49-11.06-14-11.11s-15.75,4.63-15.77,9.11"/><path class="cls-2" d="M1145.56,815.51c0-4.48-2.17-8.66-9.7-8.71s-10.72,3.18-10.74,7.67"/><polygon class="cls-2" points="1131.94 839.55 1131.72 839.64 1136.1 715.31 1136.04 722.04 1131.94 839.55"/><path class="cls-2" d="M1159.75,761.13c-7.9-39.53,15.72-38.17,42.22-40.72,33-3.18,53.69,31.59,35.21,67.56-14.73,28.66-35.43,52.7-35.7,50.73C1200.81,833.84,1165.22,788.48,1159.75,761.13Z"/><path class="cls-2" d="M1226.38,746.4c-.45-5.26-13.11-8.48-28.28-7.18s-27.1,6.6-26.66,11.86"/><path class="cls-2" d="M1223.57,762.58c-.38-4.47-11.13-7.2-24-6.1s-23,5.61-22.64,10.07"/><path class="cls-2" d="M1221.17,778.92c-.38-4.46-9.52-7.33-20.41-6.4s-19.42,5.3-19,9.76"/><path class="cls-2" d="M1217.37,798.65c-.38-4.46-7.46-10.41-15-9.77s-15.26,6-14.88,10.51"/><path class="cls-2" d="M1213.27,813.16c-.38-4.47-3-8.43-10.45-7.79s-10.38,4.15-10,8.62"/><polygon class="cls-2" points="1201.9 838.35 1201.69 838.45 1194.71 714.24 1195.25 720.96 1201.9 838.35"/><path class="cls-2" d="M702.14,753c4.52-40.06,26.6-31.56,52.62-25.91,32.38,7,41.5,46.46,12.94,75.08-22.77,22.8-49.82,39.39-49.48,37.43C719.07,834.77,699,780.72,702.14,753Z"/><path class="cls-2" d="M770.08,759.28c1.18-5.14-9.9-12.07-24.74-15.46s-27.83-2-29,3.17"/><path class="cls-2" d="M762.47,773.84c1-4.37-8.41-10.25-21-13.13s-23.63-1.68-24.63,2.69"/><path class="cls-2" d="M755.21,788.67c1-4.37-6.84-9.89-17.49-12.32s-20.11-.88-21.11,3.49"/><path class="cls-2" d="M745.57,806.3c1-4.37-3.93-12.19-11.28-13.87s-16.37,1.1-17.37,5.47"/><path class="cls-2" d="M737.24,818.87c1-4.37-.24-8.92-7.58-10.6s-11.15.78-12.15,5.15"/><polygon class="cls-2" points="718.74 839.39 718.5 839.43 749.72 719 748.2 725.56 718.74 839.39"/><path class="cls-2" d="M758.46,761.12c-11-38.78,12.65-39.29,38.87-43.92,32.62-5.77,56,27.25,40.44,64.56-12.42,29.74-31.16,55.34-31.59,53.4C805.13,830.37,766.08,788,758.46,761.12Z"/><path class="cls-2" d="M823.71,741.18c-.86-5.21-13.73-7.42-28.75-4.93s-26.5,8.72-25.64,13.93"/><path class="cls-2" d="M822.19,757.53c-.73-4.42-11.66-6.3-24.42-4.19s-22.5,7.41-21.77,11.83"/><path class="cls-2" d="M821.09,774c-.73-4.42-10.07-6.56-20.85-4.77S781.3,776.06,782,780.48"/><path class="cls-2" d="M818.86,794c-.73-4.42-8.26-9.79-15.69-8.56s-14.74,7.23-14,11.65"/><path class="cls-2" d="M815.92,808.76c-.73-4.42-3.6-8.16-11-6.93s-10,4.95-9.29,9.38"/><polygon class="cls-2" points="806.58 834.77 806.38 834.89 789.6 711.62 790.68 718.27 806.58 834.77"/><path class="cls-2" d="M812.26,758.22c-5.85-39.89,17.67-37.31,44.26-38.49,33.1-1.46,52,34.33,31.67,69.29-16.19,27.86-38.11,50.8-38.28,48.82C849.49,833,816.31,785.81,812.26,758.22Z"/><path class="cls-2" d="M879.55,747c-.17-5.27-12.65-9.14-27.86-8.63s-27.41,5.19-27.24,10.46"/><path class="cls-2" d="M875.91,763c-.15-4.48-10.74-7.77-23.66-7.34S829,760,829.12,764.52"/><path class="cls-2" d="M872.67,779.16c-.15-4.48-9.13-7.81-20-7.45S833,776,833.1,780.48"/><path class="cls-2" d="M867.86,798.67c-.15-4.48-6.92-10.79-14.45-10.54s-15.55,5.25-15.4,9.73"/><path class="cls-2" d="M863,812.94c-.15-4.48-2.51-8.56-10-8.31s-10.58,3.6-10.43,8.08"/><polygon class="cls-2" points="850.36 837.51 850.14 837.61 849.59 713.2 849.79 719.93 850.36 837.51"/><path class="cls-2" d="M875,758.05c-9.47-39.19,14.19-38.77,40.56-42.37,32.83-4.48,54.91,29.44,37.87,66.11-13.58,29.22-33.31,54.07-33.66,52.11C918.94,829.07,881.59,785.16,875,758.05Z"/><path class="cls-2" d="M941,740.68c-.65-5.23-13.43-7.94-28.54-6s-26.82,7.67-26.16,12.91"/><path class="cls-2" d="M938.86,757c-.56-4.44-11.41-6.75-24.24-5.14s-22.77,6.52-22.21,11"/><path class="cls-2" d="M937.11,773.39c-.55-4.45-9.8-6.95-20.65-5.59s-19.19,6.06-18.64,10.51"/><path class="cls-2" d="M934.1,793.25c-.56-4.44-7.87-10.11-15.35-9.17s-15,6.64-14.45,11.09"/><path class="cls-2" d="M930.58,807.91c-.56-4.45-3.28-8.3-10.76-7.36s-10.2,4.55-9.65,9"/><polygon class="cls-2" points="920.22 833.53 920.01 833.65 908.1 709.81 908.92 716.5 920.22 833.53"/><path class="cls-2" d="M528.31,719.37c-1.76-40.28,21.37-35.32,48-33.78,33.08,1.91,48.23,39.44,24.45,72.15-18.94,26.07-43.08,46.66-43.05,44.67C557.74,797.51,529.53,747.23,528.31,719.37Z"/><path class="cls-2" d="M596.4,715c.36-5.27-11.66-10.38-26.84-11.43s-27.8,2.38-28.16,7.64"/><path class="cls-2" d="M591.15,730.57c.31-4.47-9.9-8.82-22.8-9.71s-23.6,2-23.91,6.49"/><path class="cls-2" d="M586.28,746.35c.31-4.47-8.29-8.7-19.2-9.45s-20,2.26-20.31,6.73"/><path class="cls-2" d="M579.5,765.27c.31-4.47-5.78-11.44-13.3-11.95s-16,3.63-16.31,8.1"/><path class="cls-2" d="M573.23,779c.31-4.48-1.63-8.78-9.14-9.3s-10.89,2.51-11.2,7"/><polygon class="cls-2" points="558.14 802.13 557.91 802.2 570.03 678.38 569.54 685.1 558.14 802.13"/><path class="cls-2" d="M581.32,729c3.51-40.17,25.8-32.23,51.95-27.24,32.55,6.21,42.67,45.4,14.83,74.73-22.18,23.37-48.8,40.64-48.51,38.67C600.31,810.26,578.9,756.73,581.32,729Z"/><path class="cls-2" d="M649.4,733.51c1.05-5.17-10.2-11.81-25.12-14.83s-27.87-1.27-28.91,3.9"/><path class="cls-2" d="M642.16,748.25c.89-4.39-8.66-10-21.33-12.59s-23.66-1.08-24.55,3.31"/><path class="cls-2" d="M635.28,763.27c.89-4.4-7.08-9.72-17.8-11.88s-20.12-.37-21,4"/><path class="cls-2" d="M626.09,781.14c.89-4.4-4.24-12.1-11.62-13.59s-16.34,1.52-17.23,5.91"/><path class="cls-2" d="M618.08,793.91c.89-4.4-.46-8.92-7.84-10.41s-11.13,1.07-12,5.46"/><polygon class="cls-2" points="600.1 814.89 599.87 814.93 628.03 693.76 626.67 700.35 600.1 814.89"/><path class="cls-2" d="M642.45,743.26c-.17-40.31,22.75-34.44,49.24-31.86,33,3.21,46.64,41.31,21.6,73.06-20,25.3-44.89,44.92-44.78,42.94C668.79,822.5,642.57,771.15,642.45,743.26Z"/><path class="cls-2" d="M710.66,741.59c.57-5.25-11.24-10.83-26.37-12.48s-27.87,1.28-28.44,6.53"/><path class="cls-2" d="M704.8,756.93c.48-4.45-9.54-9.2-22.4-10.59s-23.66,1.08-24.14,5.54"/><path class="cls-2" d="M699.31,772.51c.49-4.45-7.93-9-18.8-10.2s-20.08,1.47-20.56,5.93"/><path class="cls-2" d="M691.8,791.15c.48-4.46-5.33-11.66-12.82-12.47s-16.13,3-16.62,7.46"/><path class="cls-2" d="M685,804.6c.48-4.46-1.28-8.84-8.77-9.65s-11,2.08-11.46,6.53"/><polygon class="cls-2" points="669 827.14 668.77 827.2 685.75 703.96 685 710.65 669 827.14"/><path class="cls-2" d="M971,735.17c.28-40.31,23.13-34.19,49.6-31.31,32.94,3.58,46.17,41.82,20.78,73.29-20.23,25.08-45.38,44.43-45.25,42.44C996.48,814.7,970.84,763.07,971,735.17Z"/><path class="cls-2" d="M1039.25,734.26c.63-5.24-11.12-11-26.24-12.77s-27.87,1-28.5,6.21"/><path class="cls-2" d="M1033.22,749.53c.53-4.45-9.44-9.3-22.28-10.84s-23.67.82-24.21,5.28"/><path class="cls-2" d="M1027.56,765.05c.53-4.45-7.84-9.11-18.69-10.41s-20.09,1.25-20.63,5.7"/><path class="cls-2" d="M1019.84,783.6c.53-4.45-5.2-11.71-12.68-12.61s-16.17,2.83-16.7,7.28"/><path class="cls-2" d="M1012.88,797c.53-4.45-1.18-8.84-8.66-9.74s-11,2-11.54,6.41"/><polygon class="cls-2" points="996.64 819.34 996.41 819.4 1014.76 696.35 1013.93 703.03 996.64 819.34"/><path class="cls-2" d="M1027.89,737.31c-15-37.4,8.44-40.4,34-47.78,31.83-9.18,58.58,21.19,47,59.94-9.21,30.88-25.15,58.32-25.78,56.43C1081.6,801.25,1038.29,763.19,1027.89,737.31Z"/><path class="cls-2" d="M1090.67,710.6c-1.4-5.09-14.44-5.93-29.11-1.87s-25.43,11.47-24,16.56"/><path class="cls-2" d="M1090.89,727c-1.2-4.32-12.27-5-24.73-1.59s-21.59,9.74-20.4,14.06"/><path class="cls-2" d="M1091.53,743.52c-1.19-4.32-10.7-5.46-21.24-2.54s-18.12,8.77-16.92,13.09"/><path class="cls-2" d="M1091.42,763.61c-1.19-4.32-9.25-8.86-16.51-6.85s-13.89,8.74-12.7,13.06"/><path class="cls-2" d="M1090.06,778.63c-1.2-4.32-4.45-7.74-11.71-5.74s-9.44,6-8.25,10.31"/><polygon class="cls-2" points="1083.51 805.48 1083.32 805.62 1053.64 684.8 1055.41 691.3 1083.51 805.48"/><path class="cls-2" d="M1081.08,728.75c-10-39,13.64-39,40-42.94,32.76-4.95,55.32,28.66,38.8,65.57-13.16,29.41-32.54,54.53-32.92,52.58C1126,799.15,1088,755.76,1081.08,728.75Z"/><path class="cls-2" d="M1146.81,710.45c-.73-5.23-13.54-7.76-28.62-5.65s-26.71,8.05-26,13.28"/><path class="cls-2" d="M1144.88,726.76c-.62-4.44-11.5-6.59-24.31-4.8s-22.68,6.84-22.06,11.28"/><path class="cls-2" d="M1143.37,743.21c-.62-4.44-9.9-6.81-20.73-5.3s-19.11,6.34-18.49,10.78"/><path class="cls-2" d="M1140.64,763.11c-.62-4.44-8-10-15.48-9s-14.91,6.85-14.29,11.29"/><path class="cls-2" d="M1137.32,777.82c-.62-4.44-3.4-8.25-10.86-7.21s-10.14,4.7-9.52,9.14"/><polygon class="cls-2" points="1127.33 803.59 1127.12 803.7 1113.46 680.05 1114.37 686.72 1127.33 803.59"/><path class="cls-2" d="M1143.49,722c-13.55-38,10-40.05,35.87-46.41,32.18-7.92,57.71,23.49,44.63,61.75-10.42,30.49-27.43,57.28-28,55.37C1194.64,788,1152.87,748.23,1143.49,722Z"/><path class="cls-2" d="M1207.28,697.73c-1.21-5.14-14.2-6.48-29-3s-25.86,10.46-24.66,15.6"/><path class="cls-2" d="M1206.84,714.15c-1-4.36-12-5.51-24.64-2.56s-22,8.88-20.94,13.25"/><path class="cls-2" d="M1206.84,730.67c-1-4.37-10.48-5.88-21.13-3.38s-18.44,8.05-17.42,12.42"/><path class="cls-2" d="M1205.94,750.74c-1-4.36-8.9-9.22-16.23-7.5s-14.22,8.19-13.2,12.55"/><path class="cls-2" d="M1204,765.69c-1-4.37-4.14-7.91-11.47-6.19s-9.67,5.61-8.65,10"/><polygon class="cls-2" points="1196.38 792.26 1196.19 792.39 1171.29 670.5 1172.8 677.07 1196.38 792.26"/><path class="cls-2" d="M739.78,704.86c9.56-39.16,30.39-27.93,55.47-19,31.23,11.08,35.29,51.35,3.32,76.11-25.47,19.74-54.4,32.76-53.82,30.86C746.2,788.12,733.16,732,739.78,704.86Z"/><path class="cls-2" d="M806.37,719.71c1.82-5-8.29-13.23-22.58-18.48s-27.35-5.48-29.17-.53"/><path class="cls-2" d="M797,733.18c1.55-4.21-7-11.23-19.17-15.69S754.58,712.83,753,717"/><path class="cls-2" d="M787.89,747c1.55-4.2-5.52-10.67-15.78-14.44s-19.84-3.41-21.39.79"/><path class="cls-2" d="M776.1,763.24c1.55-4.21-2.35-12.59-9.43-15.19s-16.38-1-17.92,3.23"/><path class="cls-2" d="M766.25,774.65c1.54-4.21.89-8.88-6.18-11.48s-11.16-.63-12.7,3.58"/><polygon class="cls-2" points="745.29 792.66 745.05 792.67 791.29 677.17 788.94 683.49 745.29 792.66"/><path class="cls-2" d="M794.62,720.06c-6-39.86,17.53-37.37,44.12-38.65,33.09-1.58,52.12,34.14,31.93,69.18-16.09,27.92-37.93,50.94-38.1,49C832.13,794.66,798.77,747.64,794.62,720.06Z"/><path class="cls-2" d="M861.87,708.55c-.2-5.28-12.69-9.1-27.9-8.54s-27.39,5.3-27.19,10.57"/><path class="cls-2" d="M858.29,724.57c-.17-4.48-10.78-7.72-23.69-7.24s-23.26,4.49-23.1,9"/><path class="cls-2" d="M855.11,740.78C854.94,736.3,846,733,835,733.4s-19.65,4.37-19.48,8.85"/><path class="cls-2" d="M850.37,760.31c-.17-4.48-7-10.76-14.49-10.48s-15.53,5.3-15.36,9.78"/><path class="cls-2" d="M845.57,774.6c-.16-4.48-2.54-8.56-10.06-8.28s-10.57,3.65-10.41,8.13"/><polygon class="cls-2" points="833.01 799.22 832.79 799.31 831.78 674.91 832 681.64 833.01 799.22"/><path class="cls-2" d="M848.35,724c-.75-40.31,22.25-34.77,48.78-32.56,33,2.74,47.22,40.64,22.63,72.74-19.59,25.59-44.24,45.56-44.16,43.57C875.81,802.86,848.87,751.88,848.35,724Z"/><path class="cls-2" d="M916.53,721.36c.49-5.26-11.39-10.68-26.55-12.1s-27.85,1.67-28.34,6.93"/><path class="cls-2" d="M910.88,736.78c.43-4.47-9.67-9.07-22.54-10.28s-23.64,1.43-24.06,5.89"/><path class="cls-2" d="M905.62,752.43c.42-4.46-8.06-8.91-19-9.93s-20,1.76-20.47,6.22"/><path class="cls-2" d="M898.37,771.17c.42-4.46-5.49-11.57-13-12.28s-16.09,3.23-16.51,7.69"/><path class="cls-2" d="M891.75,784.72c.42-4.46-1.4-8.82-8.9-9.52s-11,2.23-11.37,6.7"/><polygon class="cls-2" points="876.08 807.48 875.86 807.55 891.08 684.08 890.43 690.78 876.08 807.48"/><path class="cls-2" d="M910.64,731.79c-4.42-40.08,19-36.66,45.61-36.88,33.13-.28,50.73,36.16,29.18,70.37-17.18,27.27-39.9,49.41-40,47.43C945.19,807.81,913.7,759.51,910.64,731.79Z"/><path class="cls-2" d="M978.3,722.93c0-5.28-12.32-9.59-27.55-9.62s-27.57,4.21-27.58,9.49"/><path class="cls-2" d="M974.09,738.8c0-4.48-10.46-8.14-23.39-8.17s-23.42,3.58-23.43,8.06"/><path class="cls-2" d="M970.27,754.88c0-4.49-8.84-8.14-19.78-8.17s-19.8,3.59-19.81,8.07"/><path class="cls-2" d="M964.76,774.2c0-4.48-6.52-11-14.06-11.05S935,767.84,935,772.32"/><path class="cls-2" d="M959.41,788.29c0-4.48-2.2-8.65-9.73-8.67S939,782.85,939,787.33"/><polygon class="cls-2" points="945.89 812.39 945.67 812.48 949.56 688.13 949.51 694.87 945.89 812.39"/><path class="cls-2" d="M1235.2,705.23c-3.25-40.18,20-36.08,46.67-35.53,33.13.69,49.65,37.64,27.1,71.2-18,26.75-41.33,48.22-41.37,46.23C1267.5,782.23,1237.45,733,1235.2,705.23Z"/><path class="cls-2" d="M1303.08,698.36c.17-5.28-12-9.94-27.24-10.43s-27.69,3.4-27.86,8.68"/><path class="cls-2" d="M1298.41,714.1c.14-4.48-10.22-8.44-23.14-8.85s-23.51,2.89-23.65,7.37"/><path class="cls-2" d="M1294.13,730.06c.14-4.48-8.6-8.4-19.53-8.74s-19.91,3-20,7.48"/><path class="cls-2" d="M1288.06,749.21c.14-4.48-6.21-11.21-13.74-11.45s-15.85,4.22-16,8.7"/><path class="cls-2" d="M1282.29,763.14c.15-4.48-1.94-8.71-9.47-8.95s-10.8,2.91-10.94,7.39"/><polygon class="cls-2" points="1268.07 786.83 1267.85 786.91 1275.38 662.74 1275.14 669.47 1268.07 786.83"/><path class="cls-2" d="M1295,723.4c-18.25-36,4.87-41,29.71-50.57,30.91-11.93,60.21,16,52.08,55.6-6.48,31.57-20,60.29-20.75,58.47C1354.13,782.4,1307.66,748.27,1295,723.4Z"/><path class="cls-2" d="M1355.25,691.3c-1.85-4.95-14.91-4.64-29.17.68s-24.33,13.65-22.49,18.59"/><path class="cls-2" d="M1356.89,707.64c-1.57-4.2-12.66-3.94-24.77.58S1311.46,719.81,1313,724"/><path class="cls-2" d="M1359,724c-1.57-4.2-11.14-4.5-21.39-.68s-17.28,10.33-15.71,14.53"/><path class="cls-2" d="M1360.62,744.05c-1.57-4.2-10-8-17-5.39s-13.07,9.92-11.5,14.12"/><path class="cls-2" d="M1360.57,759.12c-1.57-4.2-5.1-7.32-12.16-4.68s-8.88,6.78-7.32,11"/><polygon class="cls-2" points="1356.39 786.44 1356.22 786.6 1316.1 668.84 1318.43 675.16 1356.39 786.44"/><path class="cls-2" d="M1005.19,716.23c6.11-39.85,27.83-30.48,53.6-23.81,32.08,8.32,39.64,48.07,10,75.54-23.65,21.88-51.33,37.38-50.91,35.44C1018.86,798.6,1001,743.8,1005.19,716.23Z"/><path class="cls-2" d="M1072.83,725.2c1.38-5.09-9.42-12.45-24.11-16.43s-27.73-3.08-29.11,2"/><path class="cls-2" d="M1064.65,739.44c1.17-4.32-8-10.57-20.47-14s-23.55-2.62-24.72,1.71"/><path class="cls-2" d="M1056.8,754c1.17-4.33-6.43-10.15-17-13s-20.06-1.67-21.23,2.65"/><path class="cls-2" d="M1046.47,771.21c1.18-4.32-3.44-12.34-10.71-14.31s-16.41.45-17.58,4.78"/><path class="cls-2" d="M1037.65,783.44c1.18-4.33.12-8.93-7.15-10.9s-11.18.35-12.35,4.67"/><polygon class="cls-2" points="1018.35 803.21 1018.11 803.24 1054.08 684.14 1052.3 690.64 1018.35 803.21"/><path class="cls-2" d="M1061.15,726.58c-9.46-39.19,14.2-38.76,40.57-42.35,32.83-4.47,54.9,29.45,37.85,66.12-13.59,29.22-33.33,54.06-33.68,52.1C1105,797.62,1067.69,753.69,1061.15,726.58Z"/><path class="cls-2" d="M1127.14,709.24c-.66-5.24-13.43-8-28.54-6.07s-26.82,7.67-26.17,12.91"/><path class="cls-2" d="M1125,725.52c-.56-4.45-11.41-6.76-24.24-5.15s-22.77,6.51-22.22,11"/><path class="cls-2" d="M1123.22,741.94c-.56-4.45-9.8-7-20.65-5.6s-19.2,6.07-18.64,10.51"/><path class="cls-2" d="M1120.2,761.81c-.56-4.45-7.87-10.12-15.35-9.18s-15,6.64-14.45,11.08"/><path class="cls-2" d="M1116.67,776.46c-.55-4.45-3.28-8.3-10.75-7.37s-10.21,4.56-9.65,9"/><polygon class="cls-2" points="1106.3 802.08 1106.1 802.19 1094.23 678.35 1095.04 685.04 1106.3 802.08"/><path class="cls-2" d="M1115,725.81c-4.27-40.09,19.13-36.58,45.75-36.7,33.14-.15,50.59,36.37,28.9,70.49-17.29,27.2-40.1,49.25-40.19,47.27C1149.26,802,1118,753.54,1115,725.81Z"/><path class="cls-2" d="M1182.71,717.22c0-5.27-12.28-9.63-27.51-9.73s-27.59,4.1-27.63,9.38"/><path class="cls-2" d="M1178.43,733.08c0-4.48-10.43-8.18-23.35-8.27s-23.44,3.48-23.46,8"/><path class="cls-2" d="M1174.55,749.14c0-4.49-8.81-8.18-19.74-8.25s-19.82,3.51-19.85,8"/><path class="cls-2" d="M1169,768.44c0-4.49-6.49-11.06-14-11.11s-15.75,4.63-15.77,9.11"/><path class="cls-2" d="M1163.56,782.51c0-4.48-2.17-8.66-9.7-8.71s-10.72,3.18-10.74,7.67"/><polygon class="cls-2" points="1149.94 806.55 1149.72 806.64 1154.1 682.31 1154.04 689.04 1149.94 806.55"/><path class="cls-2" d="M1177.75,711.13c-7.9-39.53,15.72-38.17,42.22-40.72,33-3.18,53.69,31.59,35.21,67.56-14.73,28.66-35.43,52.7-35.7,50.73C1218.81,783.84,1183.22,738.48,1177.75,711.13Z"/><path class="cls-2" d="M1244.38,696.4c-.45-5.26-13.11-8.48-28.28-7.18s-27.1,6.6-26.66,11.86"/><path class="cls-2" d="M1241.57,712.58c-.38-4.47-11.13-7.2-24-6.1s-23,5.61-22.64,10.07"/><path class="cls-2" d="M1239.17,728.92c-.38-4.46-9.52-7.33-20.41-6.4s-19.42,5.3-19,9.76"/><path class="cls-2" d="M1235.37,748.65c-.38-4.46-7.46-10.41-15-9.77s-15.26,6-14.88,10.51"/><path class="cls-2" d="M1231.27,763.16c-.38-4.47-3-8.43-10.45-7.79s-10.38,4.15-10,8.62"/><polygon class="cls-2" points="1219.9 788.35 1219.69 788.45 1212.71 664.24 1213.25 670.96 1219.9 788.35"/><path class="cls-2" d="M720.14,720c4.52-40.06,26.6-31.56,52.62-25.91,32.38,7,41.5,46.46,12.94,75.08-22.77,22.8-49.82,39.39-49.48,37.43C737.07,801.77,717,747.72,720.14,720Z"/><path class="cls-2" d="M788.08,726.28c1.18-5.14-9.9-12.07-24.74-15.46s-27.83-2-29,3.17"/><path class="cls-2" d="M780.47,740.84c1-4.37-8.41-10.25-21-13.13s-23.63-1.68-24.63,2.69"/><path class="cls-2" d="M773.21,755.67c1-4.37-6.84-9.89-17.49-12.32s-20.11-.88-21.11,3.49"/><path class="cls-2" d="M763.57,773.3c1-4.37-3.93-12.19-11.28-13.87s-16.37,1.1-17.37,5.47"/><path class="cls-2" d="M755.24,785.87c1-4.37-.24-8.92-7.58-10.6s-11.15.78-12.15,5.15"/><polygon class="cls-2" points="736.74 806.39 736.5 806.43 767.72 686 766.2 692.56 736.74 806.39"/><path class="cls-2" d="M776.46,728.12c-11-38.78,12.65-39.29,38.87-43.92,32.62-5.77,56,27.25,40.44,64.56-12.42,29.74-31.16,55.34-31.59,53.4C823.13,797.37,784.08,755,776.46,728.12Z"/><path class="cls-2" d="M841.71,708.18c-.86-5.21-13.73-7.42-28.75-4.93s-26.5,8.72-25.64,13.93"/><path class="cls-2" d="M840.19,724.53c-.73-4.42-11.66-6.3-24.42-4.19s-22.5,7.41-21.77,11.83"/><path class="cls-2" d="M839.09,741c-.73-4.42-10.07-6.56-20.85-4.77S799.3,743.06,800,747.48"/><path class="cls-2" d="M836.86,761c-.73-4.42-8.26-9.79-15.69-8.56s-14.74,7.23-14,11.65"/><path class="cls-2" d="M833.92,775.76c-.73-4.42-3.6-8.16-11-6.93s-10,4.95-9.29,9.38"/><polygon class="cls-2" points="824.58 801.77 824.38 801.89 807.6 678.62 808.68 685.27 824.58 801.77"/><path class="cls-2" d="M830.26,725.22c-5.85-39.89,17.67-37.31,44.26-38.49,33.1-1.46,52,34.33,31.67,69.29-16.19,27.86-38.11,50.8-38.28,48.82C867.49,800,834.31,752.81,830.26,725.22Z"/><path class="cls-2" d="M897.55,714c-.17-5.27-12.65-9.14-27.86-8.63s-27.41,5.19-27.24,10.46"/><path class="cls-2" d="M893.91,730c-.15-4.48-10.74-7.77-23.66-7.34S847,727,847.12,731.52"/><path class="cls-2" d="M890.67,746.16c-.15-4.48-9.13-7.81-20-7.45S851,743,851.1,747.48"/><path class="cls-2" d="M885.86,765.67c-.15-4.48-6.92-10.79-14.45-10.54s-15.55,5.25-15.4,9.73"/><path class="cls-2" d="M881,779.94c-.15-4.48-2.51-8.56-10-8.31s-10.58,3.6-10.43,8.08"/><polygon class="cls-2" points="868.36 804.51 868.14 804.61 867.59 680.2 867.79 686.93 868.36 804.51"/><path class="cls-2" d="M893,725.05c-9.47-39.19,14.19-38.77,40.56-42.37,32.83-4.48,54.91,29.44,37.87,66.11-13.58,29.22-33.31,54.07-33.66,52.11C936.94,796.07,899.59,752.16,893,725.05Z"/><path class="cls-2" d="M959,707.68c-.65-5.23-13.43-7.94-28.54-6s-26.82,7.67-26.16,12.91"/><path class="cls-2" d="M956.86,724c-.56-4.44-11.41-6.75-24.24-5.14s-22.77,6.52-22.21,11"/><path class="cls-2" d="M955.11,740.39c-.55-4.45-9.8-6.95-20.65-5.59s-19.19,6.06-18.64,10.51"/><path class="cls-2" d="M952.1,760.25c-.56-4.44-7.87-10.11-15.35-9.17s-15,6.64-14.45,11.09"/><path class="cls-2" d="M948.58,774.91c-.56-4.45-3.28-8.3-10.76-7.36s-10.2,4.55-9.65,9"/><polygon class="cls-2" points="938.22 800.53 938.01 800.65 926.1 676.81 926.92 683.5 938.22 800.53"/><path class="cls-2" d="M546.31,686.37c-1.76-40.28,21.37-35.32,48-33.78,33.08,1.91,48.23,39.44,24.45,72.15-18.94,26.07-43.08,46.66-43.05,44.67C575.74,764.51,547.53,714.23,546.31,686.37Z"/><path class="cls-2" d="M614.4,682c.36-5.27-11.66-10.38-26.84-11.43s-27.8,2.38-28.16,7.64"/><path class="cls-2" d="M609.15,697.57c.31-4.47-9.9-8.82-22.8-9.71s-23.6,2-23.91,6.49"/><path class="cls-2" d="M604.28,713.35c.31-4.47-8.29-8.7-19.2-9.45s-20,2.26-20.31,6.73"/><path class="cls-2" d="M597.5,732.27c.31-4.47-5.78-11.44-13.3-11.95s-16,3.63-16.31,8.1"/><path class="cls-2" d="M591.23,746c.31-4.48-1.63-8.78-9.14-9.3s-10.89,2.51-11.2,7"/><polygon class="cls-2" points="576.14 769.13 575.91 769.2 588.03 645.38 587.54 652.1 576.14 769.13"/><path class="cls-2" d="M599.32,696c3.51-40.17,25.8-32.23,51.95-27.24,32.55,6.21,42.67,45.4,14.83,74.73-22.18,23.37-48.8,40.64-48.51,38.67C618.31,777.26,596.9,723.73,599.32,696Z"/><path class="cls-2" d="M667.4,700.51c1.05-5.17-10.2-11.81-25.12-14.83s-27.87-1.27-28.91,3.9"/><path class="cls-2" d="M660.16,715.25c.89-4.39-8.66-10-21.33-12.59s-23.66-1.08-24.55,3.31"/><path class="cls-2" d="M653.28,730.27c.89-4.4-7.08-9.72-17.8-11.88s-20.12-.37-21,4"/><path class="cls-2" d="M644.09,748.14c.89-4.4-4.24-12.1-11.62-13.59s-16.34,1.52-17.23,5.91"/><path class="cls-2" d="M636.08,760.91c.89-4.4-.46-8.92-7.84-10.41s-11.13,1.07-12,5.46"/><polygon class="cls-2" points="618.1 781.89 617.87 781.93 646.03 660.76 644.67 667.35 618.1 781.89"/><path class="cls-2" d="M660.45,710.26c-.17-40.31,22.75-34.44,49.24-31.86,33,3.21,46.64,41.31,21.6,73.06-20,25.3-44.89,44.92-44.78,42.94C686.79,789.5,660.57,738.15,660.45,710.26Z"/><path class="cls-2" d="M728.66,708.59c.57-5.25-11.24-10.83-26.37-12.48s-27.87,1.28-28.44,6.53"/><path class="cls-2" d="M722.8,723.93c.48-4.45-9.54-9.2-22.4-10.59s-23.66,1.08-24.14,5.54"/><path class="cls-2" d="M717.31,739.51c.49-4.45-7.93-9-18.8-10.2s-20.08,1.47-20.56,5.93"/><path class="cls-2" d="M709.8,758.15c.48-4.46-5.33-11.66-12.82-12.47s-16.13,3-16.62,7.46"/><path class="cls-2" d="M703,771.6c.48-4.46-1.28-8.84-8.77-9.65s-11,2.08-11.46,6.53"/><polygon class="cls-2" points="687 794.14 686.77 794.2 703.75 670.96 703 677.65 687 794.14"/><text class="cls-3" transform="translate(605.67 468.19)">YOU LOSE!</text><path class="cls-4" d="M1172.76,575.62c1.09,37.19,37,78.39,87.48,79.1,44,.62,79.88-35.71,79.76-79.76-.29-110.49-47.61-80.52-83.59-85.32C1228.7,486,1169.53,465.55,1172.76,575.62Z"/><path class="cls-5" d="M1234.1,457.58l3.72-15.8c14.46,21,26.87,29.17,32.3,58.32h-17.2C1260.51,482.57,1265.53,501.84,1234.1,457.58Z"/><path class="cls-6" d="M1254.55,556.06c-6.13,0-11.12-9.36-11.12-20.87s5-20.88,11.12-20.88,11.12,9.36,11.12,20.88S1260.68,556.06,1254.55,556.06Z"/><path d="M1254.55,514.81c5.76,0,10.62,9.33,10.62,20.38s-4.86,20.37-10.62,20.37-10.62-9.33-10.62-20.37,4.87-20.38,10.62-20.38m0-1c-6.42,0-11.62,9.57-11.62,21.38s5.2,21.37,11.62,21.37,11.62-9.57,11.62-21.37-5.2-21.38-11.62-21.38Z"/><ellipse class="cls-7" cx="1234.1" cy="531" rx="11.15" ry="22.77"/><ellipse class="cls-8" cx="1251.3" cy="535.42" rx="4.65" ry="7.2"/><ellipse class="cls-8" cx="1231.78" cy="534.03" rx="4.65" ry="7.67"/><path class="cls-7" d="M1247.58,531.47c-.75,1.44-1.24,3.44,0,3.72,1.63.36,7-2.52,7-4.19,0-1.86-2.62-2.69-4.18-2.32S1248.24,530.2,1247.58,531.47Z"/><path class="cls-7" d="M1228.06,529.61c-.75,1.45-1.24,3.44,0,3.72,1.63.36,7-2.52,7-4.18,0-1.87-2.62-2.7-4.18-2.33S1228.72,528.35,1228.06,529.61Z"/><path class="cls-9" d="M1243.07,558.09c0,2.2-3.4,3.95-7.52,3.9s-7.46-1.87-7.44-4.07"/><path class="cls-9" d="M1241,564.08c0,1.64-2.48,2.95-5.49,2.91s-5.45-1.39-5.43-3"/><path class="cls-9" d="M1263.07,560.09c0,2.2-3.4,3.95-7.52,3.9s-7.46-1.87-7.44-4.07"/><path class="cls-9" d="M1261,566.08c0,1.64-2.48,2.95-5.49,2.91s-5.45-1.39-5.43-3"/><path class="cls-9" d="M1208.64,614.56c1.57-18.25,19.87-25.56,38.62-24.36S1280.48,600.43,1279,619"/></svg>