<svg id="Layer_1" data-name="Layer 1" xmlns="http://www.w3.org/2000/svg" width="140.37" height="191.95" viewBox="0 0 140.37 191.95"><defs><style>.cls-1{fill:#e50014;}.cls-2,.cls-3,.cls-6{fill:#fff;}.cls-3,.cls-4,.cls-5,.cls-6{stroke:#000;stroke-miterlimit:10;}.cls-11,.cls-5{fill:none;}.cls-6{stroke-width:2px;}.cls-7{fill:#f3b508;}.cls-8{fill:#736357;}.cls-9{fill:#fcee21;}.cls-10{fill:#ff0;}</style></defs><title>æble med hjelm</title><path class="cls-1" d="M140.26,125.61c-.92,31.19-31,65.75-73.37,66.34C30,192.46-.1,162,0,125.05.25,32.39,39.93,57.53,70.1,53.5,93.35,50.4,143,33.3,140.26,125.61Z"/><ellipse class="cls-2" cx="71.66" cy="91.7" rx="9.24" ry="17.43"/><path d="M71.66,74.77c4.74,0,8.75,7.75,8.75,16.93s-4,16.93-8.75,16.93-8.74-7.76-8.74-16.93,4-16.93,8.74-16.93m0-1c-5.38,0-9.74,8-9.74,17.93s4.36,17.93,9.74,17.93,9.75-8,9.75-17.93-4.36-17.93-9.75-17.93Z"/><ellipse class="cls-3" cx="88.81" cy="88.19" rx="9.35" ry="19.1"/><ellipse class="cls-4" cx="74.39" cy="91.89" rx="3.9" ry="6.04"/><ellipse class="cls-4" cx="90.76" cy="90.72" rx="3.9" ry="6.43"/><path class="cls-3" d="M77.51,88.58c.63,1.21,1,2.88,0,3.12-1.36.3-5.89-2.11-5.85-3.51,0-1.56,2.2-2.26,3.51-2S77,87.52,77.51,88.58Z"/><path class="cls-3" d="M93.88,87c.63,1.21,1,2.89,0,3.12C92.51,90.45,88,88,88,86.63c0-1.56,2.2-2.26,3.51-1.95S93.33,86,93.88,87Z"/><path class="cls-5" d="M121.52,124.57c1.89,19.93-15.85,31.55-35.7,34.12S49.07,154.53,47,134.25"/><rect class="cls-6" x="56.36" y="132.67" width="12.67" height="13.25" transform="translate(-17.4 9.22) rotate(-7.39)"/><path class="cls-6" d="M71.47,158.54c-5.21-1.08-10.18-2.65-13.64-5.07l-.52-6.6,12.51-1.63Z"/><rect class="cls-6" x="69.58" y="130.8" width="12.67" height="13.4" transform="translate(-17.05 10.91) rotate(-7.39)"/><path class="cls-6" d="M85.11,158.54c-5.32.21-9.84,1.15-13.25-.39l-1.32-13,12.52-1.62Z"/><rect class="cls-6" x="82.05" y="129.24" width="12.67" height="13.4" transform="matrix(0.99, -0.13, 0.13, 0.99, -16.75, 12.5)"/><path class="cls-6" d="M97.58,155.81c-1.59.47-7,2.56-12.08,2.73L83,143.59,95.53,142Z"/><rect class="cls-6" x="94.92" y="127.68" width="12.67" height="13.4" transform="translate(-16.44 14.14) rotate(-7.39)"/><path class="cls-6" d="M110.06,149.19c-1.24.94-7.33,5.7-12.09,6.23L95.88,142l12.51-1.62Z"/><polygon class="cls-6" points="119.41 137.1 109.08 139.9 107.33 126.97 118.63 125.41 119.41 137.1"/><path class="cls-6" d="M119.41,137.88c-.83,1.24-5.1,9.63-9,10.92l-1.31-8.72,10.28-2.59Z"/><path class="cls-6" d="M57,147l-6.19-1.43a18.84,18.84,0,0,1-3.51-10.91l8-.8Z"/><path class="cls-6" d="M57.83,153.08c-4.88-1.84-5-4.71-7-7.4h0l6.24,1.17Z"/><polygon class="cls-6" points="120.58 134.38 119.8 136.32 119.02 125.41 121.36 125.02 120.58 134.38"/><path class="cls-7" d="M100.32,0h0c-1.8,11.09-8.53,20-19,27.14l5,5.48C105.19,23.62,111.9,12.4,100.32,0Z"/><path class="cls-8" d="M28.2,56.55c-7-16.35,12.56-42.3,34.19-44.78,21.2-2.43,43.29,18.92,41.91,35.81"/><path class="cls-8" d="M109.84,60.67A161.06,161.06,0,0,1,24.43,71.23l-.78-14.4a375.77,375.77,0,0,1,87.52-10.51Z"/><ellipse class="cls-9" cx="37.01" cy="63.96" rx="4.75" ry="3.83" transform="translate(-1.06 0.63) rotate(-0.96)"/><ellipse class="cls-9" cx="55.08" cy="62.19" rx="4.75" ry="3.83" transform="translate(-1.03 0.93) rotate(-0.96)"/><ellipse class="cls-9" cx="90.14" cy="57.43" rx="4.75" ry="3.83" transform="translate(-0.95 1.51) rotate(-0.96)"/><ellipse class="cls-10" cx="73.83" cy="59.64" rx="4.75" ry="3.83" transform="translate(-0.99 1.24) rotate(-0.96)"/><path class="cls-11" d="M76.59,49.32h0C75.78,35,70,22.34,57.09,12.49h0C69.59,22.32,75.94,34.77,76.59,49.32Z"/><path class="cls-7" d="M22.83,8.69h0c2.36,11,9.54,19.56,20.32,26.27l-4.72,5.7C19.17,32.5,11.89,21.6,22.83,8.69Z"/></svg>