<svg id="Layer_1" data-name="Layer 1" xmlns="http://www.w3.org/2000/svg" width="147.37" height="201.27" viewBox="0 0 147.37 201.27"><defs><style>.cls-1{fill:#e50014;}.cls-2,.cls-3,.cls-6{fill:#fff;}.cls-3,.cls-4,.cls-5,.cls-6{stroke:#000;stroke-miterlimit:10;}.cls-15,.cls-5{fill:none;}.cls-6{stroke-width:2px;}.cls-7{fill:#ff8d1a;}.cls-8{fill:#ff0;}.cls-9{fill:#34c221;}.cls-10{fill:#006837;}.cls-11{fill:#4d4d4d;}.cls-12{fill:#f3b508;}.cls-13{fill:#736357;}.cls-14{fill:#fcee21;}</style></defs><title>æble med skjold og hjelm</title><path class="cls-1" d="M147.26,125.61c-.92,31.19-31,65.75-73.37,66.34C37,192.46,6.9,162,7,125.05,7.25,32.39,46.93,57.53,77.1,53.5,100.35,50.4,150,33.3,147.26,125.61Z"/><ellipse class="cls-2" cx="78.66" cy="91.7" rx="9.24" ry="17.43"/><path d="M78.66,74.77c4.74,0,8.75,7.75,8.75,16.93s-4,16.93-8.75,16.93-8.74-7.76-8.74-16.93,4-16.93,8.74-16.93m0-1c-5.38,0-9.74,8-9.74,17.93s4.36,17.93,9.74,17.93,9.75-8,9.75-17.93-4.36-17.93-9.75-17.93Z"/><ellipse class="cls-3" cx="95.81" cy="88.19" rx="9.35" ry="19.1"/><ellipse class="cls-4" cx="81.39" cy="91.89" rx="3.9" ry="6.04"/><ellipse class="cls-4" cx="97.76" cy="90.72" rx="3.9" ry="6.43"/><path class="cls-3" d="M84.51,88.58c.63,1.21,1,2.88,0,3.12-1.36.3-5.89-2.11-5.85-3.51,0-1.56,2.2-2.26,3.51-2S84,87.52,84.51,88.58Z"/><path class="cls-3" d="M100.88,87c.63,1.21,1,2.89,0,3.12C99.51,90.45,95,88,95,86.63c0-1.56,2.2-2.26,3.51-1.95S100.33,86,100.88,87Z"/><path class="cls-5" d="M128.52,124.57c1.89,19.93-15.85,31.55-35.7,34.12S56.07,154.53,54,134.25"/><rect class="cls-6" x="63.36" y="132.67" width="12.67" height="13.25" transform="translate(-17.34 10.12) rotate(-7.39)"/><path class="cls-6" d="M78.47,158.54c-5.21-1.08-10.18-2.65-13.64-5.07l-.52-6.6,12.51-1.63Z"/><rect class="cls-6" x="76.58" y="130.8" width="12.67" height="13.4" transform="translate(-17 11.81) rotate(-7.39)"/><path class="cls-6" d="M92.11,158.54c-5.32.21-9.84,1.15-13.25-.39l-1.32-13,12.52-1.62Z"/><rect class="cls-6" x="89.05" y="129.24" width="12.67" height="13.4" transform="matrix(0.99, -0.13, 0.13, 0.99, -16.69, 13.4)"/><path class="cls-6" d="M104.58,155.81c-1.59.47-7,2.56-12.08,2.73L90,143.59,102.53,142Z"/><rect class="cls-6" x="101.92" y="127.68" width="12.67" height="13.4" transform="translate(-16.39 15.04) rotate(-7.39)"/><path class="cls-6" d="M117.06,149.19c-1.24.94-7.33,5.7-12.09,6.23L102.88,142l12.51-1.62Z"/><polygon class="cls-6" points="126.41 137.1 116.08 139.9 114.33 126.97 125.63 125.41 126.41 137.1"/><path class="cls-6" d="M126.41,137.88c-.83,1.24-5.1,9.63-9,10.92l-1.31-8.72,10.28-2.59Z"/><path class="cls-6" d="M64,147l-6.19-1.43a18.84,18.84,0,0,1-3.51-10.91l8-.8Z"/><path class="cls-6" d="M64.83,153.08c-4.88-1.84-5-4.71-7-7.4h0l6.24,1.17Z"/><polygon class="cls-6" points="127.58 134.38 126.8 136.32 126.02 125.41 128.36 125.02 127.58 134.38"/><path class="cls-7" d="M.21,133.47c-2.81,29.33,22.65,47.82,48.28,67.8C62.84,172.15,81.38,151,75.61,126.08c-9.2-4.37-16.11-10.28-20.41-17.91l-40.37,6.57A49.57,49.57,0,0,1,.21,133.47Z"/><path class="cls-8" d="M8.14,136.08c-2.25,23.48,18.13,38.29,38.65,54.28C58.27,167,73.12,150.14,68.5,130.17c-7.37-3.5-12.89-8.23-16.34-14.34l-32.32,5.26A39.69,39.69,0,0,1,8.14,136.08Z"/><circle class="cls-9" cx="58.04" cy="138.34" r="5.78"/><circle class="cls-9" cx="52.9" cy="143.91" r="3.4"/><circle class="cls-9" cx="49.22" cy="147.78" r="3.4"/><circle class="cls-9" cx="43.52" cy="148.49" r="3.4"/><circle class="cls-9" cx="38.9" cy="144.08" r="3.4"/><circle class="cls-9" cx="32.45" cy="144.06" r="3.4"/><circle class="cls-9" cx="27.11" cy="147.66" r="3.4"/><circle class="cls-9" cx="23.12" cy="151" r="3.4"/><circle class="cls-9" cx="17.58" cy="151.69" r="3.4"/><polygon class="cls-7" points="50.78 143.22 53.27 141.98 50.38 139.3 50.38 139.3 50.78 143.22"/><polygon class="cls-7" points="47.32 146.86 49.97 146 47.51 142.93 47.51 142.93 47.32 146.86"/><polygon class="cls-7" points="42.35 146.55 45.06 147.2 44.56 143.29 44.56 143.29 42.35 146.55"/><polygon class="cls-7" points="37.6 142.47 40.38 142.38 38.87 138.75 38.87 138.75 37.6 142.47"/><polygon class="cls-7" points="30.59 142.84 33.27 142.11 30.96 138.92 30.96 138.92 30.59 142.84"/><polygon class="cls-7" points="25.2 146.7 27.69 145.47 24.81 142.78 24.81 142.78 25.2 146.7"/><polygon class="cls-7" points="21.19 149.72 23.79 148.75 21.21 145.78 21.21 145.78 21.19 149.72"/><polygon class="cls-7" points="15.85 150.34 18.59 149.84 16.56 146.47 16.56 146.47 15.85 150.34"/><polygon points="58.79 135.49 58.9 137.67 61.74 136.43 61.74 136.43 58.79 135.49"/><path class="cls-10" d="M63.33,135.32a5.62,5.62,0,0,0-11.16,1.38"/><path class="cls-11" d="M58.3,144.14l.73-.09c-.69-3-1.48-5.74-1.31-8l-.73.09C56.76,138.28,57.6,141.05,58.3,144.14Z"/><path class="cls-12" d="M107.32,0h0c-1.8,11.09-8.53,20-19,27.14l5,5.48C112.19,23.62,118.9,12.4,107.32,0Z"/><path class="cls-13" d="M35.2,56.55c-7-16.35,12.56-42.3,34.19-44.78,21.2-2.43,43.29,18.92,41.91,35.81"/><path class="cls-13" d="M116.84,60.67A161.06,161.06,0,0,1,31.43,71.23l-.78-14.4a375.77,375.77,0,0,1,87.52-10.51Z"/><ellipse class="cls-14" cx="44.01" cy="63.96" rx="4.75" ry="3.83" transform="translate(-1.06 0.74) rotate(-0.96)"/><ellipse class="cls-14" cx="62.08" cy="62.19" rx="4.75" ry="3.83" transform="translate(-1.03 1.05) rotate(-0.96)"/><ellipse class="cls-14" cx="97.14" cy="57.43" rx="4.75" ry="3.83" transform="translate(-0.95 1.63) rotate(-0.96)"/><ellipse class="cls-8" cx="80.83" cy="59.64" rx="4.75" ry="3.83" transform="translate(-0.99 1.36) rotate(-0.96)"/><path class="cls-15" d="M83.59,49.32h0C82.78,35,77,22.34,64.09,12.49h0C76.59,22.32,82.94,34.77,83.59,49.32Z"/><path class="cls-12" d="M29.83,8.69h0c2.36,11,9.54,19.56,20.32,26.27l-4.72,5.7C26.17,32.5,18.89,21.6,29.83,8.69Z"/></svg>