<svg id="Layer_1" data-name="Layer 1" xmlns="http://www.w3.org/2000/svg" width="1920" height="1080" viewBox="0 0 1920 1080"><defs><style>.cls-1{opacity:0.5;}.cls-2,.cls-3{stroke:#333;stroke-miterlimit:10;}.cls-3{fill:#c45f02;}</style></defs><title>Forgrund</title><g class="cls-1"><path class="cls-2" d="M1907.76,969.67c3.33,5.64-10.59,8.66-3.82,9.59,4.92.68-128.52-18.24-112.58,11.88,12.21,23.09,31.61,85.63,11.17,90.62-2.78.68-8.84-5.23-15.26-2.18-4,1.91-6,6.68-6.31,7.49-1.7,4.12-.41,5.91-1.52,9.4-1.69,5.28-6.23,6.07-10.73,10.18-9.66,8.83-8.42,23.14-10.8,22.94-2.15-.18-.28-11.55-7.22-16.77-3.74-2.82-6.64-1.29-9.6-3.82-5.56-4.77,2.75-15.57-1.76-20.72-2.85-3.26-9.49-3.22-14-1.13-7.59,3.54-7.24,12-14,26.69-7.18,15.65-17.29,27.19-19.82,26s3.57-14.37-1.56-18.41c-3.59-2.83-10.56.51-11.51,1-12.16,6-9.89,20.16-22.11,26.22-.85.41-7.92,3.83-11.51,1-4.28-3.4.56-12.43-2.42-14.86-6.59-5.37-42.4,28.71-45.32,25.87-2.25-2.18,18.07-23.12,12.32-32.34-2.51-4-7.75-2.3-9.8-6.12-4.79-9,19.51-27.18,15.68-33.79-3.15-5.44-22,2.82-24.46-1.4-4.7-8,56.25-48.92,52-56.57s-70.1,23.35-76.61,12.3c-2.53-4.3,6.57-10.43,4.29-17.75-5.12-16.41-59.22-12.48-59.5-18.13-.13-2.75,12.65-3.67,13.23-8.08,1.16-8.92-49.48-18.69-48.77-28.31.73-9.83,54.59-12,54.92-22.05.15-4.55-10.74-7-10.18-10.73,1.15-7.48,46.9-.23,53.21-14.95,4.25-9.92-12.43-22.85-9.25-27,6.43-8.45,80.61,36.67,81.77,34.79,1-1.62-54.38-34.48-50.14-44.43,2.83-6.62,30.8-.16,32-5s-27.2-13.37-26.22-22.11c.77-6.85,18.63-5.15,24.14-16,7.18-14.07-14-34.89-9.17-39.79,6.32-6.47,45.71,27.19,58.24,17.08,4.93-4,3.3-12.76,7-13.34,5.75-.92,9.89,20.49,20.36,21.45,7,.64,9.23-8.63,15.53-8.27,12.72.72,13.45,39.19,30.27,42.63,6.76,1.38,15.9-2.94,17.83-8.47,1.53-4.36-1.83-8.37.27-10.45,2.36-2.34,7,2.25,14,1.13,8.94-1.45,13.78-11,14.08-11.63,3.17-6.51,2-12.93,2.37-12.95,1.15-.07-2.42,47.31,17.65,57.61,5.65,2.9,8.19.3,11.9,3.63,10,9-1.55,34.2-17.35,68.7-1.79,3.89-5.53,11.78-13.69,16.23a29.53,29.53,0,0,1-9,3.08C1786.06,969.64,1892.18,943.29,1907.76,969.67Z"/><path class="cls-2" d="M1807.45,1080.1c-5.79,3.09-8.2-11-9.43-4.23-.89,4.89,23.84-127.61-7-113-23.6,11.2-86.93,27.85-91,7.21-.56-2.8,5.61-8.61,2.84-15.15-1.73-4.09-6.41-6.27-7.21-6.64-4-1.88-5.89-.66-9.32-1.92-5.21-1.92-5.8-6.49-9.71-11.16-8.39-10-22.74-9.42-22.44-11.8.27-2.13,11.55.23,17.07-6.48,3-3.61,1.57-6.58,4.23-9.42,5-5.35,15.43,3.42,20.77-.85,3.39-2.71,3.64-9.35,1.74-13.95-3.2-7.73-11.69-7.75-26-15.11-15.32-7.84-26.41-18.45-25.13-20.92s14.2,4.19,18.46-.76c3-3.47,0-10.57-.47-11.54-5.46-12.41-19.72-10.77-25.23-23.24-.39-.86-3.49-8.08-.48-11.54,3.59-4.13,12.4,1.1,15-1.77,5.65-6.35-26.83-43.61-23.87-46.41,2.27-2.15,22.31,19.07,31.77,13.72,4.11-2.33,2.63-7.64,6.54-9.52,9.19-4.4,26.3,20.68,33.07,17.14,5.58-2.92-1.86-22.08,2.47-24.38,8.2-4.34,46.42,58.33,54.25,54.41s-20.27-71-9-77.07c4.4-2.35,10.13,7,17.55,5,16.62-4.39,15-58.62,20.7-58.64,2.76,0,3.12,12.79,7.5,13.56,8.86,1.55,20.83-48.62,30.41-47.49,9.79,1.16,9.58,55.06,19.63,55.83,4.54.35,7.52-10.42,11.16-9.7,7.43,1.47-1.8,46.86,12.62,53.81,9.73,4.68,23.37-11.43,27.41-8.07,8.16,6.8-40.15,78.95-38.32,80.18,1.58,1.06,36.82-52.82,46.57-48.15,6.49,3.11-1.18,30.78,3.64,32.22s14.55-26.6,23.23-25.23c6.81,1.06,4.34,18.83,14.89,24.81,13.75,7.79,35.47-12.42,40.15-7.43,6.19,6.6-29.15,44.48-19.6,57.45,3.76,5.09,12.6,3.84,13,7.55.67,5.8-20.91,9-22.32,19.41-.95,7,8.22,9.6,7.59,15.88-1.28,12.68-39.75,11.73-43.91,28.39-1.68,6.69,2.24,16,7.68,18.17,4.29,1.72,8.45-1.46,10.43.73,2.23,2.46-2.56,6.93-1.74,13.94,1.06,9,10.42,14.26,11,14.58,6.36,3.45,12.83,2.51,12.83,2.94,0,1.14-47.16-4.49-58.33,15.11-3.15,5.53-.65,8.17-4.14,11.73-9.42,9.61-34.11-3-67.88-20.33-3.81-1.95-11.53-6-15.61-14.38a29.46,29.46,0,0,1-2.69-9.14C1812.78,958.52,1834.47,1065.69,1807.45,1080.1Z"/><path class="cls-2" d="M1901.93,1051.75c-1.13,6.45-13.68-.29-9.14,4.81,3.3,3.72-85.88-97.33-93.33-64.08-5.7,25.5-31.56,85.65-50.35,76.17-2.55-1.29-3.33-9.72-10.18-11.57-4.3-1.15-8.89,1.2-9.67,1.6-4,2-4.15,4.23-7.26,6.16-4.72,2.92-8.68.57-14.77.78-13.08.43-21.43,12.12-23.11,10.42-1.52-1.52,7.29-9,5.4-17.44-1-4.57-4.22-5.29-4.82-9.14-1.13-7.24,12.2-10,12.12-16.89,0-4.34-5.13-8.62-9.92-9.95-8.06-2.25-13.31,4.43-27.94,11.22-15.62,7.25-30.8,9.45-32,6.92s12-8.61,10.77-15c-.9-4.49-8.36-6.47-9.39-6.73-13.14-3.34-20.62,8.9-33.84,5.57-.92-.23-8.51-2.23-9.39-6.73-1-5.37,8.5-9.09,7.82-12.87-1.53-8.36-50.89-5.71-51.27-9.77-.3-3.11,28.76-5.84,30.37-16.59.7-4.67-4.4-6.78-3.47-11,2.19-10,32.48-8,33.86-15.51,1.14-6.19-18.55-12.13-17.69-17,1.63-9.14,74.55-.67,76.28-9.26s-68.47-27.76-66.25-40.4c.86-4.91,11.77-3.66,14.79-10.71,6.77-15.8-36.93-47.95-33.47-52.42,1.69-2.18,12,5.42,15.3,2.44,6.68-6-25.48-46.35-18.69-53.2,6.94-7,49.28,26.35,56.08,18.9,3.07-3.36-3.59-12.34-.78-14.77,5.74-5,35.82,30.28,50.17,23.19,9.68-4.78,5.39-25.45,10.52-26.56,10.38-2.25,37.5,80.23,39.59,79.55,1.81-.59-19-61.53-9.27-66.34,6.45-3.2,23.52,19.88,27.62,17s-12-27.84-5.57-33.85c5-4.7,17.51,8.19,28.72,3.55,14.6-6,12-35.6,18.87-36.22,9-.81,17.1,50.36,33.2,50.82,6.32.17,10.79-7.56,14-5.62,5,3-5.78,22,1.56,29.54,4.92,5.05,12.62-.57,17.17,3.79,9.21,8.82-15.22,38.55-4.66,52.09,4.25,5.43,14,8.08,19.06,5.13,4-2.33,4-7.55,7-7.77,3.31-.24,3.88,6.28,9.92,10,7.74,4.71,17.64.57,18.26.31,6.64-2.89,9.88-8.57,10.22-8.31.91.69-32.58,34.4-24,55.27,2.42,5.88,6,5.54,6.7,10.48,1.77,13.34-23.39,25-57.81,41-3.88,1.8-11.86,5.37-21,3.45a29.36,29.36,0,0,1-8.85-3.51C1809.4,972.69,1907.2,1021.57,1901.93,1051.75Z"/></g><g class="cls-1"><path class="cls-2" d="M1818.46,29.61c4.87-4.38,10.58,8.67,10.16,1.85-.3-5,7.45,129.6,33.84,108,20.23-16.53,77.72-47.88,86.64-28.82,1.21,2.59-3.38,9.7.87,15.39,2.66,3.56,7.73,4.55,8.59,4.71,4.37.86,5.88-.76,9.51-.36,5.52.61,7.18,4.9,12.1,8.51,10.56,7.73,24.34,3.69,24.62,6.06.25,2.14-11.27,2.56-15,10.39-2,4.22,0,6.76-1.85,10.16-3.58,6.39-15.8.38-20,5.81-2.64,3.44-1.3,9.94,1.65,13.95,5,6.75,13.21,4.73,28.92,8.43,16.76,3.94,30.06,11.58,29.41,14.29s-14.79-.67-17.74,5.16c-2.06,4.08,2.58,10.25,3.23,11.09,8.27,10.74,21.72,5.73,30.06,16.51.58.75,5.32,7,3.23,11.09-2.5,4.87-12.3,1.9-14.09,5.31-4,7.51,36.5,35.9,34.3,39.33-1.7,2.63-26.23-13.16-34.14-5.7-3.44,3.24-.72,8.05-4.07,10.8-7.87,6.48-30.49-13.77-36.21-8.7-4.72,4.16,7.1,21,3.45,24.25-6.92,6.18-59.06-45.5-65.72-39.81S1967,341.45,1957.41,350c-3.72,3.33-11.52-4.38-18.25-.7-15.08,8.25-.55,60.51-6,61.9-2.67.67-6.09-11.68-10.53-11.38-9,.63-8.57,52.2-18.14,53.4-9.78,1.22-22.5-51.16-32.45-49.5-4.49.75-4.79,11.93-8.5,12.1-7.57.35-9.48-45.93-25.15-49.22-10.57-2.21-20,16.7-24.68,14.4-9.55-4.64,20-86.26,18-87-1.78-.66-23.08,60.11-33.67,57.91-7-1.46-6.23-30.16-11.25-30.41s-7.75,29.31-16.51,30.07c-6.87.59-8.73-17.25-20.41-20.53-15.21-4.26-31.45,20.57-37.2,16.84-7.58-4.92,17.64-50.17,5.26-60.46-4.86-4.05-13.15-.72-14.46-4.22-2-5.46,18.14-13.74,17-24.19-.76-7-10.28-7.35-11.17-13.59-1.8-12.62,35.77-20.92,35.82-38.09,0-6.9-6-15-11.81-15.81-4.58-.63-7.85,3.44-10.31,1.8-2.75-1.85.83-7.34-1.65-14-3.18-8.48-13.53-11.34-14.18-11.51-7-1.83-13.06.64-13.16.23-.29-1.11,46.86-7,53-28.66,1.73-6.12-1.32-8.09,1.21-12.38,6.84-11.59,33.84-5.23,70.77,3.46,4.17,1,12.65,3.1,18.61,10.22a29.32,29.32,0,0,1,4.8,8.23C1842.43,148.92,1795.68,50.08,1818.46,29.61Z"/><path class="cls-2" d="M1946.51,106.18c4.16,5.06-9.13,10.19-2.3,10.07,5-.09-129.79,1.79-109.4,29.1,15.63,20.93,44.45,79.73,25,87.81-2.64,1.09-9.55-3.81-15.41.19-3.67,2.51-4.88,7.53-5.09,8.38-1,4.34.51,5.91,0,9.52-.85,5.49-5.21,7-9,11.72-8.18,10.21-4.75,24.16-7.13,24.33-2.15.16-2.06-11.37-9.72-15.46-4.13-2.2-6.76-.24-10.07-2.29-6.23-3.86.31-15.81-4.94-20.2-3.32-2.78-9.88-1.72-14,1.05-7,4.66-5.3,13-9.68,28.52-4.67,16.57-12.88,29.52-15.56,28.76s1.31-14.75-4.38-17.95c-4-2.24-10.35,2.13-11.22,2.74-11.09,7.8-6.67,21.45-17.81,29.32-.77.54-7.23,5-11.22,2.74-4.75-2.71-1.36-12.37-4.68-14.31-7.33-4.29-37.46,34.9-40.79,32.55-2.56-1.81,14.29-25.63,7.18-33.85-3.09-3.58-8-1.08-10.62-4.54-6.12-8.15,15.09-29.86,10.28-35.8-4-4.89-21.28,6.18-24.38,2.39-5.88-7.18,48-57,42.64-63.92s-65.66,33.88-73.8,24c-3.16-3.85,4.89-11.31,1.5-18.2-7.58-15.43-60.43-3.19-61.58-8.73-.55-2.7,11.94-5.58,11.82-10-.23-9-51.77-10.84-52.55-20.46-.8-9.82,52.09-20.24,50.87-30.25-.56-4.52-11.71-5.31-11.72-9,0-7.57,46.3-7.47,50.26-23,2.68-10.46-15.8-20.66-13.3-25.28,5-9.34,85.3,23.79,86.15,21.76.73-1.76-59-25.68-56.38-36.16,1.77-7,30.4-4.91,30.86-9.92s-28.94-9-29.31-17.81c-.3-6.88,17.61-8,21.39-19.49,4.92-15-19.18-32.32-15.2-37.9,5.25-7.36,49.36,19.82,60.18,7.89,4.25-4.68,1.29-13.11,4.84-14.26,5.55-1.79,12.94,18.73,23.43,18.06,7-.45,7.79-10,14.06-10.57,12.69-1.25,19.34,36.65,36.5,37.45,6.89.32,15.25-5.35,16.3-11.11.84-4.55-3.1-8-1.34-10.38,2-2.66,7.29,1.15,14-1,8.62-2.81,11.92-13,12.12-13.66,2.13-6.92-.07-13.08.35-13.16,1.12-.24,4.9,47.11,26.32,54.2,6,2,8.13-1,12.31,1.75,11.28,7.33,3.76,34-6.54,70.55-1.16,4.12-3.65,12.5-11,18.15a29.38,29.38,0,0,1-8.43,4.43C1826.26,124.92,1927,82.52,1946.51,106.18Z"/><path class="cls-2" d="M1900.08,19.14c6.55-.16,2.41,13.47,6.52,8,3-4-78.49,103.39-44.42,104.13,26.12.56,90.19,14.06,84.6,34.34-.76,2.76-8.87,5.18-9.33,12.27-.29,4.43,2.92,8.48,3.47,9.16,2.77,3.49,5,3.24,7.47,5.91,3.79,4,2.27,8.39,3.67,14.32,3,12.74,16.12,18.62,14.78,20.6-1.19,1.79-10.22-5.37-18.16-1.85-4.28,1.89-4.36,5.17-8,6.52-6.88,2.54-12.26-10-19-8.55-4.24.91-7.44,6.73-7.8,11.69-.61,8.35,7,12.18,16.51,25.18,10.18,13.89,15.34,28.33,13.09,30s-10.82-10.12-16.85-7.6c-4.22,1.76-4.69,9.47-4.74,10.53-.69,13.54,12.79,18.46,12.14,32.08,0,.94-.51,8.78-4.75,10.53-5.06,2.08-10.59-6.55-14.16-5.12-7.9,3.14,4.44,51,.53,52.18-3,.91-11.39-27-22.25-26.5-4.72.23-5.78,5.65-10.11,5.57-10.19-.18-14.24-30.27-21.89-30.14-6.29.11-8.23,20.58-13.13,20.69-9.27.21-15.35-72.95-24.11-73s-13.72,72.6-26.54,72.92c-5,.12-5.91-10.82-13.42-12.39-16.83-3.52-39.72,45.66-44.8,43.15-2.46-1.23,3-12.84-.62-15.49-7.23-5.35-40.41,34.12-48.47,28.82-8.23-5.42,16.12-53.51,7.48-58.71-3.91-2.34-11.4,6-14.33,3.68-6-4.65,22.62-41.09,12.84-53.76-6.6-8.54-26-.26-28.12-5.07-4.25-9.74,71.27-52.58,70.19-54.5-.93-1.66-56.59,30.72-63.21,22.17-4.41-5.69,14.85-27,11.19-30.43s-24.93,17.25-32.08,12.14c-5.61-4,4.56-18.78-2.19-28.86-8.8-13.12-37.27-4.79-39.22-11.35-2.58-8.67,46-26.7,43.26-42.57-1.07-6.23-9.54-9.09-8.25-12.59,2-5.48,22.72,1.33,28.65-7.35,4-5.83-3-12.27.33-17.59,6.83-10.76,40.79,7.33,52-5.7,4.49-5.23,5.17-15.31,1.28-19.69-3.07-3.46-8.21-2.48-9-5.33-.89-3.19,5.39-5,7.8-11.68,3.09-8.52-2.92-17.41-3.3-18-4.15-5.94-10.35-8-10.16-8.38.5-1,40.14,25.15,58.92,12.63,5.29-3.53,4.24-7,8.95-8.63,12.73-4.37,29.13,18,51.57,48.59,2.53,3.46,7.61,10.57,7.52,19.86a29.25,29.25,0,0,1-1.7,9.37C1840.82,125.43,1869.46,19.92,1900.08,19.14Z"/></g><g class="cls-1"><path class="cls-2" d="M1004.5-14.85c-1.13-4.43-9.51.92-6.61-2.87,2.1-2.76-54.71,72.22-61.62,49.46-5.3-17.44-26.44-58-39-50.38-1.7,1-1.81,6.93-6.48,8.58-2.93,1-6.25-.37-6.81-.61-2.87-1.2-3.11-2.73-5.38-3.91-3.43-1.79-6.07.05-10.32.23-9.12.38-15.55-7.32-16.63-6s5.54,5.86,4.67,11.86c-.47,3.23-2.66,3.9-2.88,6.61-.41,5.1,9,6.36,9.32,11.12.19,3-3.12,6.27-6.39,7.45-5.49,2-9.49-2.4-20-6.36-11.25-4.23-21.93-5-22.61-3.15S822.54,12.5,822,17c-.38,3.17-5.48,4.94-6.18,5.18-9,3-14.81-5.13-23.84-2.12-.63.21-5.81,2-6.19,5.17-.44,3.8,6.4,5.89,6.11,8.56-.62,5.89-35.12,6.62-35.17,9.46-.05,2.19,20.32,2.57,22,10,.73,3.22-2.71,4.95-1.84,7.85,2,6.81,23,3.87,24.38,9,1.11,4.25-12.28,9.4-11.43,12.72,1.61,6.27,51.92-3.42,53.57,2.46s-46.21,22.9-44,31.58c.86,3.37,8.38,1.93,10.85,6.68,5.54,10.65-23.21,35.3-20.56,38.23,1.28,1.43,8.07-4.4,10.52-2.5,5,3.85-15.32,33.59-10.24,38s32.93-20.91,38-16.08c2.31,2.18-1.85,8.78.23,10.32,4.25,3.14,23.35-22.94,33.71-18.75,7,2.82,5.08,17.43,8.71,17.94,7.34,1,21.91-57.8,23.41-57.44,1.29.31-10,43.82-3,46.66,4.66,1.89,15.34-15.06,18.34-13.25s-6.89,20-2.11,23.84c3.75,3,11.76-6.6,19.81-4,10.47,3.44,10.23,24.15,15,24.22,6.31.1,9.28-35.94,20.46-37.09,4.4-.46,7.91,4.7,10,3.17,3.31-2.37-5.17-15-.46-20.64,3.17-3.77,8.82-.26,11.76-3.53,6-6.62-12.6-26-6-36,2.67-4,9.32-6.36,13-4.57,2.9,1.41,3.21,5.05,5.27,5.05,2.32,0,2.38-4.58,6.39-7.45,5.14-3.68,12.25-1.31,12.69-1.16,4.77,1.66,7.32,5.44,7.54,5.25.6-.53-24.46-22.25-19.58-37.22,1.37-4.22,3.91-4.17,4.11-7.65.54-9.37-17.58-16.18-42.37-25.5-2.8-1.05-8.53-3.12-14.76-1.31a20.34,20.34,0,0,0-6,2.9S1009.74,5.88,1004.5-14.85Z"/><path class="cls-2" d="M900.5-20.24c-4.38,1.31,1.33,9.46-2.58,6.73-2.85-2,74.54,51.5,52.1,59.4-17.19,6-56.76,28.94-48.63,41.18,1.1,1.66,7,1.5,8.85,6.1,1.16,2.88-.09,6.26-.31,6.83-1.08,2.92-2.59,3.23-3.67,5.54-1.64,3.51.32,6.06.68,10.31.78,9.09-6.64,15.85-5.32,16.87s5.61-5.79,11.64-5.18c3.25.33,4,2.49,6.73,2.59,5.11.18,6-9.29,10.71-9.79,3-.32,6.4,2.84,7.72,6,2.22,5.41-2,9.59-5.48,20.29-3.73,11.43-4,22.13-2.16,22.73s5-9.06,9.52-8.7c3.18.25,5.17,5.26,5.44,5.95,3.4,8.83-4.47,15-1.08,23.91.24.62,2.25,5.72,5.44,6,3.81.29,5.6-6.64,8.28-6.47,5.92.37,8.15,34.8,11,34.73,2.19-.05,1.68-20.42,9-22.42,3.18-.87,5.06,2.49,7.92,1.5,6.72-2.34,2.86-23.17,8-24.75,4.19-1.3,9.93,11.85,13.2,10.86,6.2-1.88-5.68-51.72.13-53.63s24.89,45.17,33.46,42.59c3.34-1,1.57-8.46,6.21-11.13,10.39-6,36.27,21.64,39.09,18.87,1.37-1.34-4.75-7.87-2.95-10.4,3.63-5.13,34.22,13.84,38.41,8.57s-22.33-32-17.72-37.31c2.08-2.41,8.85,1.47,10.3-.68,2.95-4.38-23.94-22.33-20.21-32.86,2.52-7.1,17.2-5.83,17.55-9.48.7-7.38-58.7-19.38-58.41-20.89.26-1.3,44.21,8.08,46.75,1,1.68-4.73-15.72-14.66-14-17.74s20.28,6,23.92,1.07c2.84-3.87-7.12-11.46-4.83-19.62,3-10.61,23.68-11.27,23.55-16-.18-6.31-36.32-7.71-38-18.83-.64-4.37,4.36-8.1,2.74-10.14-2.52-3.2-14.78,5.82-20.6,1.35-3.91-3-.64-8.8-4-11.59-6.87-5.65-25.46,13.73-35.72,7.52-4.12-2.49-6.76-9-5.13-12.78,1.29-3,4.91-3.43,4.81-5.49-.1-2.31-4.67-2.17-7.71-6.05-3.9-5-1.85-12.18-1.72-12.63,1.46-4.84,5.12-7.56,4.92-7.77-.56-.57-21.16,25.41-36.33,21.19-4.28-1.19-4.34-3.73-7.82-3.77-9.39-.14-15.41,18.27-23.63,43.44-.93,2.84-2.75,8.66-.67,14.8A20.63,20.63,0,0,0,963,37.34S921-26.39,900.5-20.24Z"/><path class="cls-2" d="M961.25-52.65c-3.73-2.64-6.63,6.87-6.89,2.11-.19-3.47,5.31,90.45-14.73,77.63-15.36-9.82-57.75-26.91-62.4-13-.63,1.89,3.14,6.45.65,10.73-1.56,2.68-5,3.78-5.58,4-3,.94-4.14-.06-6.62.51-3.78.87-4.58,4-7.7,6.88-6.7,6.21-16.58,4.53-16.58,6.2,0,1.5,8,.85,11.25,6,1.74,2.76.51,4.69,2.11,6.9,3,4.14,11-1,14.31,2.41,2.1,2.17,1.7,6.79,0,9.81-2.9,5.07-8.78,4.34-19.37,8.17-11.3,4.09-19.9,10.47-19.24,12.29s10.2-1.66,12.72,2.15c1.76,2.66-1,7.31-1.34,7.95-4.87,8.11-14.59,5.72-19.51,13.87-.34.57-3.12,5.29-1.34,8,2.13,3.18,8.68.33,10.2,2.54,3.36,4.89-22.4,27.84-20.6,30,1.39,1.69,17.12-11.24,23.21-6.71,2.64,2,1.15,5.52,3.69,7.16,6,3.86,20-12,24.4-9,3.61,2.51-3.22,15.12-.43,17.09,5.3,3.73,37.27-36.32,42.34-32.91s-20.27,47.42-12.95,52.58c2.84,2,7.63-4,12.59-2,11.12,4.5,5.28,41.91,9.19,42.42,1.91.26,3.28-8.58,6.38-8.73,6.28-.29,10.16,35.49,16.89,35.55,6.89.06,11.47-37.29,18.5-36.94,3.17.16,4.29,7.88,6.87,7.7,5.28-.37,2.86-32.61,13.46-36.15,7.15-2.39,15.18,10,18.27,8,6.25-4-20.87-58.19-19.5-58.88,1.19-.6,20.86,39.81,28,37.42,4.77-1.58,1.89-21.41,5.35-22s7.74,19.69,13.88,19.5c4.8-.14,4.65-12.66,12.48-15.88,10.2-4.18,23.47,11.72,27.15,8.67,4.87-4-16.28-33.36-8.53-41.49,3.05-3.2,9.06-1.56,9.68-4.09,1-4-13.68-8.07-13.75-15.4,0-4.93,6.54-5.93,6.65-10.33.22-8.89-26.5-11.61-27.92-23.51-.57-4.78,3-10.89,6.91-11.91,3.13-.81,5.73,1.75,7.29.41,1.76-1.5-1.16-5,0-9.81,1.52-6.14,8.46-9,8.9-9.12,4.71-1.84,9.1-.62,9.14-.91.11-.79-33-1-39.06-15.58-1.7-4.11.26-5.72-1.84-8.49-5.68-7.48-23.88-.89-48.78,8.12-2.81,1-8.52,3.17-12.08,8.59A20.57,20.57,0,0,0,954.33,32C954.28,32,978.7-40.29,961.25-52.65Z"/></g><g class="cls-1"><path class="cls-2" d="M1021.5,1081.73c-1.13,4.43-9.51-.92-6.61,2.87,2.1,2.77-54.71-72.22-61.62-49.46-5.3,17.44-26.44,58-39,50.39-1.7-1-1.81-6.94-6.48-8.59-2.93-1-6.25.37-6.81.61-2.87,1.21-3.11,2.73-5.38,3.91-3.43,1.79-6.07,0-10.32-.23-9.12-.38-15.55,7.32-16.63,6.06s5.54-5.87,4.67-11.86c-.47-3.24-2.66-3.91-2.88-6.62-.41-5.09,9-6.36,9.32-11.12.19-3-3.12-6.27-6.39-7.45-5.49-2-9.49,2.4-20,6.36-11.25,4.23-21.93,5-22.61,3.15s8.83-5.36,8.27-9.89c-.38-3.17-5.48-4.94-6.18-5.17-9-3-14.81,5.12-23.84,2.11-.63-.21-5.81-2-6.19-5.17-.44-3.79,6.4-5.88,6.11-8.55-.62-5.9-35.12-6.63-35.17-9.47-.05-2.19,20.32-2.57,22-10,.73-3.21-2.71-4.94-1.84-7.84,2-6.82,23-3.87,24.38-9,1.11-4.24-12.28-9.4-11.43-12.71,1.61-6.28,51.92,3.41,53.57-2.47s-46.21-22.9-44-31.57c.86-3.38,8.38-1.94,10.85-6.69,5.54-10.65-23.21-35.3-20.56-38.23,1.28-1.43,8.07,4.4,10.52,2.5,5-3.85-15.32-33.59-10.24-38s32.93,20.91,38,16.08c2.31-2.18-1.85-8.77.23-10.32,4.25-3.14,23.35,22.94,33.71,18.76,7-2.83,5.08-17.44,8.71-17.94,7.34-1,21.91,57.8,23.41,57.43,1.29-.31-10-43.82-3-46.66,4.66-1.89,15.34,15.06,18.34,13.25s-6.89-20-2.11-23.84c3.75-3,11.76,6.6,19.81,4,10.47-3.44,10.23-24.15,15-24.22,6.31-.1,9.28,35.94,20.46,37.1,4.4.45,7.91-4.7,10-3.18,3.31,2.37-5.17,15-.46,20.64,3.17,3.77,8.82.26,11.76,3.53,6,6.62-12.6,26-6,36,2.67,4,9.32,6.36,13,4.57,2.9-1.41,3.21-5,5.27-5,2.32,0,2.38,4.58,6.39,7.45,5.14,3.68,12.25,1.32,12.69,1.16,4.77-1.66,7.32-5.44,7.54-5.25.6.53-24.46,22.25-19.58,37.22,1.37,4.22,3.91,4.17,4.11,7.65.54,9.37-17.58,16.19-42.37,25.5-2.8,1.06-8.53,3.12-14.76,1.31a20.34,20.34,0,0,1-6-2.9S1026.74,1061,1021.5,1081.73Z"/><path class="cls-2" d="M917.5,1087.12c-4.38-1.31,1.33-9.45-2.58-6.73-2.85,2,74.54-51.5,52.1-59.4-17.19-6-56.76-28.94-48.63-41.18,1.1-1.66,7-1.5,8.85-6.1,1.16-2.88-.09-6.26-.31-6.83-1.08-2.92-2.59-3.23-3.67-5.54-1.64-3.51.32-6.06.68-10.3.78-9.1-6.64-15.85-5.32-16.88s5.61,5.79,11.64,5.18c3.25-.33,4-2.48,6.73-2.58,5.11-.19,6,9.28,10.71,9.78,3,.33,6.4-2.84,7.72-6,2.22-5.4-2-9.59-5.48-20.29-3.73-11.43-4-22.13-2.16-22.73s5,9.06,9.52,8.7c3.18-.25,5.17-5.26,5.44-5.95,3.4-8.83-4.47-15-1.08-23.91.24-.62,2.25-5.72,5.44-5.95,3.81-.28,5.6,6.64,8.28,6.47,5.92-.36,8.15-34.8,11-34.73,2.19.06,1.68,20.42,9,22.42,3.18.87,5.06-2.49,7.92-1.5,6.72,2.34,2.86,23.18,8,24.75,4.19,1.3,9.93-11.85,13.2-10.86,6.2,1.88-5.68,51.72.13,53.63S1049.47,885.37,1058,888c3.34,1,1.57,8.46,6.21,11.13,10.39,6,36.27-21.64,39.09-18.87,1.37,1.35-4.75,7.87-2.95,10.4,3.63,5.13,34.22-13.84,38.41-8.57s-22.33,32-17.72,37.31c2.08,2.41,8.85-1.47,10.3.68,2.95,4.38-23.94,22.33-20.21,32.86,2.52,7.11,17.2,5.84,17.55,9.48.7,7.38-58.7,19.38-58.41,20.89.26,1.3,44.21-8.07,46.75-1,1.68,4.73-15.72,14.66-14,17.75s20.28-6,23.92-1.08c2.84,3.88-7.12,11.47-4.83,19.62,3,10.61,23.68,11.28,23.55,16.06-.18,6.31-36.32,7.7-38,18.82-.64,4.37,4.36,8.1,2.74,10.15-2.52,3.19-14.78-5.83-20.6-1.36-3.91,3-.64,8.8-4,11.59-6.87,5.66-25.46-13.73-35.72-7.52-4.12,2.49-6.76,9-5.13,12.78,1.29,3,4.91,3.43,4.81,5.49-.1,2.31-4.67,2.17-7.71,6.05-3.9,5-1.85,12.19-1.72,12.63,1.46,4.85,5.12,7.56,4.92,7.77-.56.58-21.16-25.41-36.33-21.19-4.28,1.19-4.34,3.73-7.82,3.78-9.39.13-15.41-18.27-23.63-43.45-.93-2.84-2.75-8.66-.67-14.8a20.81,20.81,0,0,1,3.16-5.85S938,1093.27,917.5,1087.12Z"/><path class="cls-2" d="M978.25,1119.53c-3.73,2.64-6.63-6.87-6.89-2.11-.19,3.47,5.31-90.45-14.73-77.63-15.36,9.83-57.75,26.91-62.4,13-.63-1.89,3.14-6.45.65-10.74-1.56-2.68-5-3.78-5.58-4-3-1-4.14,0-6.62-.52-3.78-.87-4.58-4-7.7-6.88-6.7-6.21-16.58-4.52-16.58-6.19,0-1.51,8-.86,11.25-6,1.74-2.76.51-4.69,2.11-6.89,3-4.15,11,1,14.31-2.42,2.1-2.17,1.7-6.79,0-9.8-2.9-5.08-8.78-4.35-19.37-8.18-11.3-4.09-19.9-10.46-19.24-12.29s10.2,1.66,12.72-2.15c1.76-2.66-1-7.31-1.34-7.94-4.87-8.12-14.59-5.73-19.51-13.88-.34-.57-3.12-5.29-1.34-8,2.13-3.17,8.68-.32,10.2-2.54,3.36-4.89-22.4-27.84-20.6-30,1.39-1.69,17.12,11.25,23.21,6.71,2.64-2,1.15-5.52,3.69-7.16,6-3.85,20,12,24.4,9,3.61-2.5-3.22-15.12-.43-17.09,5.3-3.73,37.27,36.32,42.34,32.92s-20.27-47.42-12.95-52.59c2.84-2,7.63,4,12.59,2,11.12-4.5,5.28-41.91,9.19-42.42,1.91-.25,3.28,8.58,6.38,8.73,6.28.3,10.16-35.49,16.89-35.55,6.89-.06,11.47,37.29,18.5,36.94,3.17-.16,4.29-7.88,6.87-7.7,5.28.37,2.86,32.61,13.46,36.15,7.15,2.39,15.18-10,18.27-8,6.25,4-20.87,58.18-19.5,58.87,1.19.6,20.86-39.8,28-37.42,4.77,1.58,1.89,21.41,5.35,22s7.74-19.69,13.88-19.51c4.8.14,4.65,12.66,12.48,15.88,10.2,4.18,23.47-11.72,27.15-8.67,4.87,4-16.28,33.36-8.53,41.5,3.05,3.19,9.06,1.55,9.68,4.09,1,4-13.68,8.06-13.75,15.4,0,4.92,6.54,5.92,6.65,10.32.22,8.89-26.5,11.61-27.92,23.51-.57,4.78,3,10.89,6.91,11.91,3.13.81,5.73-1.75,7.29-.41,1.76,1.51-1.16,5,0,9.81,1.52,6.14,8.46,9,8.9,9.13,4.71,1.83,9.1.61,9.14.91.11.79-33,1-39.06,15.58-1.7,4.1.26,5.71-1.84,8.48-5.68,7.48-23.88.89-48.78-8.12-2.81-1-8.52-3.17-12.08-8.59a20.45,20.45,0,0,1-2.66-6.09C971.28,1034.87,995.7,1107.17,978.25,1119.53Z"/></g><g class="cls-1"><path class="cls-2" d="M119.08,40.61c-4.88-4.38-10.58,8.67-10.17,1.85.31-5-7.45,129.6-33.84,108C54.84,134-2.64,102.61-11.56,121.67c-1.21,2.59,3.38,9.7-.87,15.39-2.67,3.56-7.73,4.55-8.59,4.71-4.38.86-5.88-.76-9.52-.36-5.51.61-7.18,4.9-12.1,8.51C-53.19,157.65-67,153.61-67.26,156c-.25,2.14,11.27,2.56,15,10.39,2,4.22,0,6.76,1.86,10.16,3.58,6.39,15.8.38,20,5.81,2.64,3.44,1.29,9.94-1.66,13.95C-37,203-45.29,201-61,204.72-77.75,208.66-91,216.3-90.41,219s14.79-.67,17.75,5.16c2.06,4.08-2.59,10.25-3.23,11.09C-84.17,246-97.61,241-106,251.77c-.57.75-5.31,7-3.22,11.09,2.49,4.87,12.3,1.9,14.09,5.31,4,7.51-36.5,35.9-34.3,39.33,1.69,2.63,26.23-13.16,34.14-5.7,3.43,3.24.72,8.05,4.07,10.8,7.87,6.48,30.48-13.77,36.21-8.7,4.72,4.16-7.1,21-3.45,24.25,6.92,6.18,59.05-45.5,65.71-39.81S-29.42,352.45-19.87,361c3.71,3.33,11.52-4.38,18.25-.7,15.08,8.25.55,60.51,6,61.9,2.67.67,6.09-11.68,10.53-11.38,9,.63,8.57,52.2,18.14,53.4,9.78,1.22,22.5-51.16,32.44-49.5,4.5.75,4.8,11.93,8.51,12.1,7.57.35,9.48-45.93,25.15-49.22,10.56-2.21,20,16.7,24.68,14.4,9.55-4.64-20.05-86.26-18-87,1.78-.66,23.07,60.11,33.66,57.91,7-1.46,6.24-30.16,11.26-30.41s7.75,29.31,16.51,30.07c6.86.59,8.72-17.25,20.4-20.53,15.22-4.26,31.45,20.57,37.2,16.84,7.59-4.92-17.64-50.17-5.25-60.46,4.86-4.05,13.15-.72,14.45-4.22,2-5.46-18.14-13.74-17-24.19.75-7,10.28-7.35,11.17-13.59,1.8-12.62-35.78-20.92-35.83-38.09,0-6.9,6-15,11.82-15.81,4.58-.63,7.85,3.44,10.3,1.8,2.75-1.85-.82-7.34,1.66-14,3.18-8.48,13.52-11.34,14.17-11.51,7-1.83,13.06.64,13.17.23.29-1.11-46.86-7-53-28.66-1.73-6.12,1.33-8.09-1.2-12.38-6.84-11.59-33.84-5.23-70.78,3.46-4.16,1-12.64,3.1-18.61,10.22a29.93,29.93,0,0,0-4.8,8.23C95.11,159.92,141.86,61.08,119.08,40.61Z"/><path class="cls-2" d="M-9,117.18c-4.16,5.06,9.13,10.19,2.29,10.07-5-.09,129.8,1.79,109.41,29.1-15.64,20.93-44.45,79.73-25,87.81,2.64,1.09,9.54-3.81,15.41.19,3.67,2.51,4.88,7.53,5.08,8.38,1,4.34-.51,5.91.06,9.52.85,5.49,5.21,7,9,11.72,8.19,10.21,4.75,24.16,7.14,24.33,2.15.16,2.06-11.37,9.72-15.46,4.13-2.2,6.76-.24,10.07-2.29,6.23-3.86-.31-15.81,4.93-20.2,3.33-2.78,9.88-1.72,14,1,7,4.66,5.3,13,9.68,28.52,4.67,16.57,12.89,29.52,15.56,28.76s-1.31-14.75,4.39-17.95c4-2.24,10.35,2.13,11.22,2.74,11.09,7.8,6.67,21.45,17.8,29.32.77.54,7.24,5,11.22,2.74,4.76-2.71,1.37-12.37,4.69-14.31,7.33-4.29,37.46,34.9,40.79,32.55,2.56-1.81-14.3-25.63-7.19-33.85,3.09-3.58,8-1.08,10.62-4.54,6.13-8.15-15.08-29.86-10.28-35.8,4-4.89,21.29,6.18,24.39,2.39,5.87-7.18-48-57-42.64-63.92s65.65,33.88,73.79,24c3.17-3.85-4.88-11.31-1.5-18.2,7.59-15.43,60.44-3.19,61.58-8.73.56-2.7-11.93-5.58-11.82-10,.23-9,51.77-10.84,52.55-20.46.8-9.82-52.09-20.24-50.86-30.25.55-4.52,11.7-5.31,11.72-9,0-7.57-46.3-7.47-50.27-23-2.67-10.46,15.81-20.66,13.31-25.28-5-9.34-85.31,23.79-86.16,21.76-.73-1.76,59.05-25.68,56.39-36.16-1.77-7-30.4-4.91-30.87-9.92s28.94-9,29.32-17.81c.3-6.88-17.61-8-21.39-19.49-4.93-15,19.17-32.32,15.2-37.9C299.14-9.81,255,17.37,244.21,5.44,240,.76,242.92-7.67,239.37-8.82c-5.55-1.79-12.94,18.73-23.43,18.06-7.05-.45-7.79-10-14.07-10.57-12.68-1.25-19.33,36.65-36.49,37.45-6.89.32-15.25-5.35-16.31-11.11-.83-4.55,3.1-8,1.35-10.38-2-2.66-7.29,1.15-14-1-8.62-2.81-11.92-13-12.12-13.66-2.13-6.92.06-13.08-.35-13.16-1.12-.24-4.9,47.11-26.32,54.2-6,2-8.14-1-12.32,1.75-11.28,7.33-3.75,34,6.55,70.55,1.16,4.12,3.64,12.5,11,18.15a29.24,29.24,0,0,0,8.43,4.43C111.27,135.92,10.49,93.52-9,117.18Z"/><path class="cls-2" d="M37.46,30.14c-6.55-.16-2.42,13.47-6.53,8-3-4,78.5,103.39,44.42,104.13-26.11.56-90.19,14.06-84.59,34.34.76,2.76,8.87,5.18,9.33,12.27.29,4.43-2.93,8.48-3.47,9.16-2.77,3.49-5,3.24-7.47,5.91-3.8,4-2.28,8.39-3.68,14.32-3,12.74-16.11,18.62-14.78,20.6,1.2,1.79,10.23-5.37,18.17-1.85,4.28,1.89,4.35,5.17,8,6.52,6.87,2.54,12.26-10,19-8.55,4.24.91,7.44,6.73,7.8,11.69.61,8.35-7,12.18-16.51,25.18C-3.08,285.76-8.23,300.2-6,301.85s10.81-10.12,16.84-7.6c4.22,1.76,4.7,9.47,4.75,10.53.68,13.54-12.8,18.46-12.14,32.08,0,.94.51,8.78,4.75,10.53,5.06,2.08,10.58-6.55,14.16-5.12,7.89,3.14-4.44,51-.54,52.18,3,.91,11.4-27,22.26-26.5,4.72.23,5.77,5.65,10.11,5.57,10.19-.18,14.24-30.27,21.88-30.14,6.29.11,8.24,20.58,13.13,20.69,9.28.21,15.36-72.95,24.11-73s13.73,72.6,26.55,72.92c5,.12,5.91-10.82,13.42-12.39,16.83-3.52,39.72,45.66,44.79,43.15,2.47-1.23-3-12.84.62-15.49,7.23-5.35,40.42,34.12,48.47,28.82,8.24-5.42-16.11-53.51-7.47-58.71,3.9-2.34,11.39,6,14.33,3.68,6-4.65-22.62-41.09-12.84-53.76,6.6-8.54,26-.26,28.11-5.07,4.25-9.74-71.26-52.58-70.18-54.5.93-1.66,56.58,30.72,63.21,22.17,4.41-5.69-14.85-27-11.19-30.43s24.93,17.25,32.08,12.14c5.61-4-4.57-18.78,2.19-28.86,8.8-13.12,37.27-4.79,39.22-11.35,2.57-8.67-46-26.7-43.27-42.57,1.08-6.23,9.54-9.09,8.26-12.59-2-5.48-22.72,1.33-28.65-7.35-4-5.83,3-12.27-.33-17.59-6.83-10.76-40.79,7.33-52-5.7-4.5-5.23-5.17-15.31-1.28-19.69,3.07-3.46,8.21-2.48,9-5.33.89-3.19-5.39-5-7.8-11.68-3.09-8.52,2.92-17.41,3.3-18,4.14-5.94,10.34-8,10.16-8.38-.5-1-40.15,25.15-58.92,12.63-5.29-3.53-4.24-7-9-8.63-12.72-4.37-29.13,18-51.57,48.59-2.53,3.46-7.6,10.57-7.51,19.86a29.74,29.74,0,0,0,1.69,9.37C96.72,136.43,68.08,30.92,37.46,30.14Z"/></g><g class="cls-1"><path class="cls-2" d="M5,957.67c-3.33,5.64,10.59,8.66,3.82,9.59-4.93.68,128.52-18.24,112.58,11.88-12.21,23.09-31.61,85.63-11.17,90.62,2.78.68,8.84-5.23,15.26-2.18,4,1.91,6,6.68,6.31,7.49,1.7,4.12.41,5.91,1.52,9.4,1.69,5.28,6.23,6.07,10.73,10.18,9.66,8.83,8.42,23.14,10.8,22.94,2.15-.18.28-11.55,7.22-16.77,3.74-2.82,6.64-1.29,9.6-3.82,5.56-4.77-2.75-15.57,1.76-20.72,2.85-3.26,9.49-3.22,14-1.13,7.59,3.54,7.24,12,14,26.69,7.17,15.65,17.29,27.19,19.82,26s-3.58-14.37,1.56-18.41c3.59-2.83,10.56.51,11.51,1,12.16,6,9.89,20.16,22.11,26.22.85.41,7.92,3.83,11.51,1,4.28-3.4-.56-12.43,2.42-14.86,6.59-5.37,42.4,28.71,45.32,25.87,2.25-2.18-18.07-23.12-12.32-32.34,2.51-4,7.75-2.3,9.8-6.12,4.79-9-19.51-27.18-15.68-33.79,3.15-5.44,22,2.82,24.46-1.4,4.7-8-56.25-48.92-52-56.57s70.1,23.35,76.61,12.3c2.53-4.3-6.57-10.43-4.29-17.75,5.12-16.41,59.22-12.48,59.5-18.13.13-2.75-12.65-3.67-13.23-8.08-1.16-8.92,49.48-18.69,48.77-28.31-.73-9.83-54.59-12-54.92-22.05-.15-4.55,10.74-7,10.18-10.73-1.15-7.48-46.9-.23-53.21-14.95-4.25-9.92,12.43-22.85,9.25-27-6.43-8.45-80.61,36.67-81.77,34.79-1-1.62,54.38-34.48,50.14-44.43-2.83-6.62-30.8-.16-32-5s27.2-13.37,26.22-22.11c-.77-6.85-18.63-5.15-24.14-16-7.18-14.07,14-34.89,9.17-39.79-6.32-6.47-45.71,27.19-58.24,17.08-4.93-4-3.3-12.76-7-13.34-5.75-.92-9.89,20.49-20.36,21.45-7,.64-9.23-8.63-15.53-8.27-12.72.72-13.45,39.19-30.27,42.63-6.76,1.38-15.9-2.94-17.83-8.47-1.53-4.36,1.83-8.37-.27-10.45-2.36-2.34-7,2.25-14,1.13-8.94-1.45-13.78-11-14.08-11.63-3.17-6.51-2-12.93-2.38-12.95-1.14-.07,2.43,47.31-17.64,57.61-5.65,2.9-8.19.3-11.9,3.63-10,9,1.55,34.2,17.35,68.7,1.79,3.89,5.53,11.78,13.69,16.23a29.53,29.53,0,0,0,9,3.08C126.66,957.64,20.54,931.29,5,957.67Z"/><path class="cls-2" d="M105.27,1068.1c5.79,3.09,8.2-11,9.43-4.23.89,4.89-23.84-127.61,7-113,23.6,11.2,86.93,27.85,91,7.21.56-2.8-5.61-8.61-2.84-15.15,1.73-4.09,6.41-6.27,7.21-6.64,4-1.88,5.89-.66,9.32-1.92,5.21-1.92,5.79-6.49,9.71-11.16,8.39-10,22.74-9.42,22.44-11.8-.27-2.13-11.55.23-17.07-6.48-3-3.61-1.57-6.58-4.23-9.42-5-5.35-15.43,3.42-20.77-.85-3.39-2.71-3.64-9.35-1.74-13.95,3.2-7.73,11.69-7.75,26.05-15.11,15.32-7.84,26.4-18.45,25.13-20.92s-14.2,4.19-18.46-.76c-3-3.47.05-10.57.47-11.54,5.46-12.41,19.72-10.77,25.23-23.24.38-.86,3.49-8.08.48-11.54-3.59-4.13-12.4,1.1-15-1.77-5.65-6.35,26.83-43.61,23.87-46.41-2.27-2.15-22.31,19.07-31.77,13.72-4.12-2.33-2.63-7.64-6.54-9.52-9.19-4.4-26.3,20.68-33.07,17.14-5.58-2.92,1.86-22.08-2.47-24.38-8.2-4.34-46.42,58.33-54.25,54.41s20.27-71,9-77.07c-4.4-2.35-10.13,7-17.55,5-16.62-4.39-15-58.62-20.7-58.64-2.76,0-3.12,12.79-7.5,13.56-8.86,1.55-20.83-48.62-30.41-47.49-9.79,1.16-9.58,55.06-19.63,55.83-4.55.35-7.52-10.42-11.16-9.7-7.43,1.47,1.8,46.86-12.62,53.81-9.73,4.68-23.37-11.43-27.41-8.07C8.22,734.88,56.52,807,54.7,808.26c-1.58,1.06-36.82-52.82-46.57-48.15-6.49,3.11,1.18,30.78-3.64,32.22s-14.55-26.6-23.23-25.23c-6.81,1.06-4.34,18.83-14.89,24.81-13.75,7.79-35.47-12.42-40.15-7.43C-80,791.08-44.63,829-54.19,841.93c-3.75,5.09-12.59,3.84-13,7.55-.67,5.8,20.91,9,22.32,19.41,1,7-8.22,9.6-7.59,15.88,1.28,12.68,39.75,11.73,43.91,28.39,1.68,6.69-2.24,16-7.68,18.17-4.29,1.72-8.45-1.46-10.43.73-2.23,2.46,2.56,6.93,1.74,13.94-1.06,9-10.42,14.26-11,14.58-6.36,3.45-12.83,2.51-12.83,2.94,0,1.14,47.16-4.49,58.33,15.11,3.15,5.53.65,8.17,4.14,11.73,9.42,9.61,34.1-3,67.88-20.33,3.81-1.95,11.53-6,15.61-14.38a29.46,29.46,0,0,0,2.69-9.14C99.94,946.52,78.25,1053.69,105.27,1068.1Z"/><path class="cls-2" d="M10.79,1039.75c1.13,6.45,13.68-.29,9.14,4.81-3.3,3.72,85.88-97.33,93.33-64.08,5.7,25.5,31.56,85.65,50.35,76.17,2.55-1.29,3.33-9.72,10.18-11.57,4.3-1.15,8.89,1.2,9.67,1.6,4,2,4.15,4.23,7.26,6.16,4.72,2.92,8.68.57,14.77.78,13.08.43,21.43,12.12,23.11,10.42,1.52-1.52-7.29-9-5.4-17.44,1-4.57,4.22-5.29,4.82-9.14,1.13-7.24-12.2-10-12.12-16.89,0-4.34,5.13-8.62,9.92-10,8.06-2.25,13.31,4.43,27.94,11.22,15.62,7.25,30.8,9.45,32,6.92s-12.05-8.61-10.77-15c.9-4.49,8.36-6.47,9.39-6.73,13.14-3.34,20.62,8.9,33.84,5.57.92-.23,8.51-2.23,9.39-6.73,1-5.37-8.51-9.09-7.82-12.87,1.53-8.36,50.89-5.71,51.27-9.77.3-3.11-28.76-5.84-30.37-16.59-.7-4.67,4.4-6.78,3.47-11-2.19-10-32.48-8-33.86-15.51-1.14-6.19,18.54-12.13,17.69-17-1.63-9.14-74.55-.67-76.28-9.26s68.47-27.76,66.25-40.4c-.86-4.91-11.77-3.66-14.79-10.71-6.77-15.8,36.93-47.95,33.47-52.42-1.69-2.18-12,5.42-15.3,2.44-6.68-6,25.48-46.35,18.69-53.2s-49.28,26.35-56.08,18.9c-3.07-3.36,3.59-12.34.78-14.77-5.74-5-35.82,30.28-50.17,23.19-9.68-4.78-5.39-25.45-10.52-26.56-10.38-2.25-37.5,80.23-39.59,79.55-1.81-.59,19-61.53,9.27-66.34-6.45-3.2-23.52,19.88-27.62,17s12-27.84,5.57-33.85c-5-4.7-17.51,8.19-28.72,3.55-14.6-6-12-35.6-18.87-36.22-9-.81-17.1,50.36-33.2,50.82-6.32.17-10.79-7.56-14-5.62-5,3,5.78,22-1.56,29.54-4.92,5.05-12.62-.57-17.17,3.79-9.21,8.82,15.22,38.55,4.66,52.09-4.25,5.43-14,8.08-19.06,5.13-4-2.33-4-7.55-7-7.77-3.31-.24-3.88,6.28-9.92,10-7.74,4.71-17.64.57-18.26.31C1.94,859.38-1.3,853.7-1.64,854c-.91.69,32.57,34.4,24,55.27-2.41,5.88-6,5.54-6.69,10.48-1.78,13.34,23.39,25,57.81,41,3.88,1.8,11.86,5.37,21,3.45a29.36,29.36,0,0,0,8.85-3.51C103.32,960.69,5.52,1009.57,10.79,1039.75Z"/></g><path class="cls-3" d="M109.08,20.61c-4.88-4.38-10.58,8.67-10.17,1.85.31-5-7.45,129.6-33.84,108C44.84,114-12.64,82.61-21.56,101.67c-1.21,2.59,3.38,9.7-.87,15.39-2.67,3.56-7.73,4.55-8.59,4.71-4.38.86-5.88-.76-9.52-.36-5.51.61-7.18,4.9-12.1,8.51C-63.19,137.65-77,133.61-77.26,136c-.25,2.14,11.27,2.56,15,10.39,2,4.22,0,6.76,1.86,10.16,3.58,6.39,15.8.38,20,5.81,2.64,3.44,1.29,9.94-1.66,13.95C-47,183-55.29,181-71,184.72-87.75,188.66-101,196.3-100.41,199s14.79-.67,17.75,5.16c2.06,4.08-2.59,10.25-3.23,11.09C-94.17,226-107.61,221-116,231.77c-.57.75-5.31,7-3.22,11.09,2.49,4.87,12.3,1.9,14.09,5.31,4,7.51-36.5,35.9-34.3,39.33,1.69,2.63,26.23-13.16,34.14-5.7,3.43,3.24.72,8.05,4.07,10.8,7.87,6.48,30.48-13.77,36.21-8.7,4.72,4.16-7.1,21-3.45,24.25,6.92,6.18,59.05-45.5,65.71-39.81S-39.42,332.45-29.87,341c3.71,3.33,11.52-4.38,18.25-.7,15.08,8.25.55,60.51,6,61.9,2.67.67,6.09-11.68,10.53-11.38,9,.63,8.57,52.2,18.14,53.4,9.78,1.22,22.5-51.16,32.44-49.5,4.5.75,4.8,11.93,8.51,12.1,7.57.35,9.48-45.93,25.15-49.22,10.56-2.21,20,16.7,24.68,14.4,9.55-4.64-20.05-86.26-18-87,1.78-.66,23.07,60.11,33.66,57.91,7-1.46,6.24-30.16,11.26-30.41s7.75,29.31,16.51,30.07c6.86.59,8.72-17.25,20.4-20.53,15.22-4.26,31.45,20.57,37.2,16.84,7.59-4.92-17.64-50.17-5.25-60.46,4.86-4.05,13.15-.72,14.45-4.22,2-5.46-18.14-13.74-17-24.19.75-7,10.28-7.35,11.17-13.59,1.8-12.62-35.78-20.92-35.83-38.09,0-6.9,6-15,11.82-15.81,4.58-.63,7.85,3.44,10.3,1.8,2.75-1.85-.82-7.34,1.66-14,3.18-8.48,13.52-11.34,14.17-11.51,7-1.83,13.06.64,13.17.23.29-1.11-46.86-7-53-28.66-1.73-6.12,1.33-8.09-1.2-12.38-6.84-11.59-33.84-5.23-70.78,3.46-4.16,1-12.64,3.1-18.61,10.22a29.93,29.93,0,0,0-4.8,8.23C85.11,139.92,131.86,41.08,109.08,20.61Z"/><path class="cls-3" d="M-19,97.18c-4.16,5.06,9.13,10.19,2.29,10.07-5-.09,129.8,1.79,109.41,29.1-15.64,20.93-44.45,79.73-25,87.81,2.64,1.09,9.54-3.81,15.41.19,3.67,2.51,4.88,7.53,5.08,8.38,1,4.34-.51,5.91.06,9.52.85,5.49,5.21,7,9,11.72,8.19,10.21,4.75,24.16,7.14,24.33,2.15.16,2.06-11.37,9.72-15.46,4.13-2.2,6.76-.24,10.07-2.29,6.23-3.86-.31-15.81,4.93-20.2,3.33-2.78,9.88-1.72,14,1.05,7,4.66,5.3,13,9.68,28.52,4.67,16.57,12.89,29.52,15.56,28.76s-1.31-14.75,4.39-17.95c4-2.24,10.35,2.13,11.22,2.74,11.09,7.8,6.67,21.45,17.8,29.32.77.54,7.24,5,11.22,2.74,4.76-2.71,1.37-12.37,4.69-14.31,7.33-4.29,37.46,34.9,40.79,32.55,2.56-1.81-14.3-25.63-7.19-33.85,3.09-3.58,8-1.08,10.62-4.54,6.13-8.15-15.08-29.86-10.28-35.8,4-4.89,21.29,6.18,24.39,2.39,5.87-7.18-48-57-42.64-63.92s65.65,33.88,73.79,24c3.17-3.85-4.88-11.31-1.5-18.2,7.59-15.43,60.44-3.19,61.58-8.73.56-2.7-11.93-5.58-11.82-10,.23-9,51.77-10.84,52.55-20.46.8-9.82-52.09-20.24-50.86-30.25.55-4.52,11.7-5.31,11.72-9,0-7.57-46.3-7.47-50.27-23-2.67-10.46,15.81-20.66,13.31-25.28-5-9.34-85.31,23.79-86.16,21.76-.73-1.76,59.05-25.68,56.39-36.16-1.77-7-30.4-4.91-30.87-9.92s28.94-9,29.32-17.81c.3-6.88-17.61-8-21.39-19.49-4.93-15,19.17-32.32,15.2-37.9-5.25-7.36-49.36,19.82-60.18,7.89-4.26-4.68-1.29-13.11-4.84-14.26-5.55-1.79-12.94,18.73-23.43,18.06-7.05-.45-7.79-10-14.07-10.57-12.68-1.25-19.33,36.65-36.49,37.45-6.89.32-15.25-5.35-16.31-11.11-.83-4.55,3.1-8,1.35-10.38-2-2.66-7.29,1.15-14-1-8.62-2.81-11.92-13-12.12-13.66-2.13-6.92.06-13.08-.35-13.16-1.12-.24-4.9,47.11-26.32,54.2-6,2-8.14-1-12.32,1.75-11.28,7.33-3.75,34,6.55,70.55,1.16,4.12,3.64,12.5,11,18.15a29.24,29.24,0,0,0,8.43,4.43C101.27,115.92.49,73.52-19,97.18Z"/><path class="cls-3" d="M27.46,10.14c-6.55-.16-2.42,13.47-6.53,8-3-4,78.5,103.39,44.42,104.13-26.11.56-90.19,14.06-84.59,34.34.76,2.76,8.87,5.18,9.33,12.27.29,4.43-2.93,8.48-3.47,9.16-2.77,3.49-5,3.24-7.47,5.91-3.8,4-2.28,8.39-3.68,14.32-3,12.74-16.11,18.62-14.78,20.6,1.2,1.79,10.23-5.37,18.17-1.85,4.28,1.89,4.35,5.17,8,6.52,6.87,2.54,12.26-10,19-8.55,4.24.91,7.44,6.73,7.8,11.69.61,8.35-7,12.18-16.51,25.18-10.19,13.89-15.34,28.33-13.09,30s10.81-10.12,16.84-7.6c4.22,1.76,4.7,9.47,4.75,10.53.68,13.54-12.8,18.46-12.14,32.08,0,.94.51,8.78,4.75,10.53,5.06,2.08,10.58-6.55,14.16-5.12,7.89,3.14-4.44,51-.54,52.18,3,.91,11.4-27,22.26-26.5,4.72.23,5.77,5.65,10.11,5.57,10.19-.18,14.24-30.27,21.88-30.14,6.29.11,8.24,20.58,13.13,20.69,9.28.21,15.36-72.95,24.11-73s13.73,72.6,26.55,72.92c5,.12,5.91-10.82,13.42-12.39,16.83-3.52,39.72,45.66,44.79,43.15,2.47-1.23-3-12.84.62-15.49,7.23-5.35,40.42,34.12,48.47,28.82,8.24-5.42-16.11-53.51-7.47-58.71,3.9-2.34,11.39,6,14.33,3.68,6-4.65-22.62-41.09-12.84-53.76,6.6-8.54,26-.26,28.11-5.07,4.25-9.74-71.26-52.58-70.18-54.5.93-1.66,56.58,30.72,63.21,22.17,4.41-5.69-14.85-27-11.19-30.43s24.93,17.25,32.08,12.14c5.61-4-4.57-18.78,2.19-28.86,8.8-13.12,37.27-4.79,39.22-11.35,2.57-8.67-46-26.7-43.27-42.57,1.08-6.23,9.54-9.09,8.26-12.59-2-5.48-22.72,1.33-28.65-7.35-4-5.83,3.05-12.27-.33-17.59-6.83-10.76-40.79,7.33-52-5.7-4.5-5.23-5.17-15.31-1.28-19.69,3.07-3.46,8.21-2.48,9-5.33.89-3.19-5.39-5-7.8-11.68-3.09-8.52,2.92-17.41,3.3-18,4.14-5.94,10.34-8,10.16-8.38-.5-1-40.15,25.15-58.92,12.63-5.29-3.53-4.24-7-9-8.63-12.72-4.37-29.13,18-51.57,48.59C90.07,90.64,85,97.75,85.09,107a29.74,29.74,0,0,0,1.69,9.37C86.72,116.43,58.08,10.92,27.46,10.14Z"/><path class="cls-3" d="M5,975.67c-3.33,5.64,10.59,8.66,3.82,9.59-4.93.68,128.52-18.24,112.58,11.88-12.21,23.09-31.61,85.63-11.17,90.62,2.78.68,8.84-5.23,15.26-2.18,4,1.91,6,6.68,6.31,7.49,1.7,4.12.41,5.91,1.52,9.4,1.69,5.28,6.23,6.07,10.73,10.18,9.66,8.83,8.42,23.14,10.8,22.94,2.15-.18.28-11.55,7.22-16.77,3.74-2.82,6.64-1.29,9.6-3.82,5.56-4.77-2.75-15.57,1.76-20.72,2.85-3.26,9.49-3.22,14-1.13,7.59,3.54,7.24,12,14,26.69,7.17,15.65,17.29,27.19,19.82,26s-3.58-14.37,1.56-18.41c3.59-2.83,10.56.51,11.51,1,12.16,6,9.89,20.16,22.11,26.22.85.41,7.92,3.83,11.51,1,4.28-3.4-.56-12.43,2.42-14.86,6.59-5.37,42.4,28.71,45.32,25.87,2.25-2.18-18.07-23.12-12.32-32.34,2.51-4,7.75-2.3,9.8-6.12,4.79-9-19.51-27.18-15.68-33.79,3.15-5.44,22,2.82,24.46-1.4,4.7-8-56.25-48.92-52-56.57s70.1,23.35,76.61,12.3c2.53-4.3-6.57-10.43-4.29-17.75,5.12-16.41,59.22-12.48,59.5-18.13.13-2.75-12.65-3.67-13.23-8.08-1.16-8.92,49.48-18.69,48.77-28.31-.73-9.83-54.59-12-54.92-22.05-.15-4.55,10.74-7,10.18-10.73-1.15-7.48-46.9-.23-53.21-14.95-4.25-9.92,12.43-22.85,9.25-27-6.43-8.45-80.61,36.67-81.77,34.79-1-1.62,54.38-34.48,50.14-44.43-2.83-6.62-30.8-.16-32-5s27.2-13.37,26.22-22.11c-.77-6.85-18.63-5.15-24.14-16-7.18-14.07,14-34.89,9.17-39.79-6.32-6.47-45.71,27.19-58.24,17.08-4.93-4-3.3-12.76-7-13.34-5.75-.92-9.89,20.49-20.36,21.45-7,.64-9.23-8.63-15.53-8.27-12.72.72-13.45,39.19-30.27,42.63-6.76,1.38-15.9-2.94-17.83-8.47-1.53-4.36,1.83-8.37-.27-10.45-2.36-2.34-7,2.25-14,1.13-8.94-1.45-13.78-11-14.08-11.63-3.17-6.51-2-12.93-2.38-12.95-1.14-.07,2.43,47.31-17.64,57.61-5.65,2.9-8.19.3-11.9,3.63-10,9,1.55,34.2,17.35,68.7,1.79,3.89,5.53,11.78,13.69,16.23a29.53,29.53,0,0,0,9,3.08C126.66,975.64,20.54,949.29,5,975.67Z"/><path class="cls-3" d="M105.27,1086.1c5.79,3.09,8.2-11,9.43-4.23.89,4.89-23.84-127.61,7-113,23.6,11.2,86.93,27.85,91,7.21.56-2.8-5.61-8.61-2.84-15.15,1.73-4.09,6.41-6.27,7.21-6.64,4-1.88,5.89-.66,9.32-1.92,5.21-1.92,5.79-6.49,9.71-11.16,8.39-10,22.74-9.42,22.44-11.8-.27-2.13-11.55.23-17.07-6.48-3-3.61-1.57-6.58-4.23-9.42-5-5.35-15.43,3.42-20.77-.85-3.39-2.71-3.64-9.35-1.74-13.95,3.2-7.73,11.69-7.75,26.05-15.11,15.32-7.84,26.4-18.45,25.13-20.92s-14.2,4.19-18.46-.76c-3-3.47.05-10.57.47-11.54,5.46-12.41,19.72-10.77,25.23-23.24.38-.86,3.49-8.08.48-11.54-3.59-4.13-12.4,1.1-15-1.77-5.65-6.35,26.83-43.61,23.87-46.41-2.27-2.15-22.31,19.07-31.77,13.72-4.12-2.33-2.63-7.64-6.54-9.52-9.19-4.4-26.3,20.68-33.07,17.14-5.58-2.92,1.86-22.08-2.47-24.38-8.2-4.34-46.42,58.33-54.25,54.41s20.27-71,9-77.07c-4.4-2.35-10.13,7-17.55,5-16.62-4.39-15-58.62-20.7-58.64-2.76,0-3.12,12.79-7.5,13.56-8.86,1.55-20.83-48.62-30.41-47.49-9.79,1.16-9.58,55.06-19.63,55.83-4.55.35-7.52-10.42-11.16-9.7-7.43,1.47,1.8,46.86-12.62,53.81-9.73,4.68-23.37-11.43-27.41-8.07C8.22,752.88,56.52,825,54.7,826.26c-1.58,1.06-36.82-52.82-46.57-48.15-6.49,3.11,1.18,30.78-3.64,32.22s-14.55-26.6-23.23-25.23c-6.81,1.06-4.34,18.83-14.89,24.81-13.75,7.79-35.47-12.42-40.15-7.43C-80,809.08-44.63,847-54.19,859.93c-3.75,5.09-12.59,3.84-13,7.55-.67,5.8,20.91,9,22.32,19.41,1,7-8.22,9.6-7.59,15.88,1.28,12.68,39.75,11.73,43.91,28.39,1.68,6.69-2.24,16-7.68,18.17-4.29,1.72-8.45-1.46-10.43.73-2.23,2.46,2.56,6.93,1.74,13.94-1.06,9-10.42,14.26-11,14.58-6.36,3.45-12.83,2.51-12.83,2.94,0,1.14,47.16-4.49,58.33,15.11,3.15,5.53.65,8.17,4.14,11.73,9.42,9.61,34.1-3,67.88-20.33,3.81-1.95,11.53-6,15.61-14.38a29.46,29.46,0,0,0,2.69-9.14C99.94,964.52,78.25,1071.69,105.27,1086.1Z"/><path class="cls-3" d="M10.79,1057.75c1.13,6.45,13.68-.29,9.14,4.81-3.3,3.72,85.88-97.33,93.33-64.08,5.7,25.5,31.56,85.65,50.35,76.17,2.55-1.29,3.33-9.72,10.18-11.57,4.3-1.15,8.89,1.2,9.67,1.6,4,2,4.15,4.23,7.26,6.16,4.72,2.92,8.68.57,14.77.78,13.08.43,21.43,12.12,23.11,10.42,1.52-1.52-7.29-9-5.4-17.44,1-4.57,4.22-5.29,4.82-9.14,1.13-7.24-12.2-10-12.12-16.89,0-4.34,5.13-8.62,9.92-10,8.06-2.25,13.31,4.43,27.94,11.22,15.62,7.25,30.8,9.45,32,6.92s-12.05-8.61-10.77-15c.9-4.49,8.36-6.47,9.39-6.73,13.14-3.34,20.62,8.9,33.84,5.57.92-.23,8.51-2.23,9.39-6.73,1-5.37-8.51-9.09-7.82-12.87,1.53-8.36,50.89-5.71,51.27-9.77.3-3.11-28.76-5.84-30.37-16.59-.7-4.67,4.4-6.78,3.47-11-2.19-10-32.48-8-33.86-15.51-1.14-6.19,18.54-12.13,17.69-17-1.63-9.14-74.55-.67-76.28-9.26s68.47-27.76,66.25-40.4c-.86-4.91-11.77-3.66-14.79-10.71-6.77-15.8,36.93-47.95,33.47-52.42-1.69-2.18-12,5.42-15.3,2.44-6.68-6,25.48-46.35,18.69-53.2s-49.28,26.35-56.08,18.9c-3.07-3.36,3.59-12.34.78-14.77-5.74-5-35.82,30.28-50.17,23.19-9.68-4.78-5.39-25.45-10.52-26.56-10.38-2.25-37.5,80.23-39.59,79.55-1.81-.59,19-61.53,9.27-66.34-6.45-3.2-23.52,19.88-27.62,17s12-27.84,5.57-33.85c-5-4.7-17.51,8.19-28.72,3.55-14.6-6-12-35.6-18.87-36.22-9-.81-17.1,50.36-33.2,50.82-6.32.17-10.79-7.56-14-5.62-5,3,5.78,22-1.56,29.54-4.92,5.05-12.62-.57-17.17,3.79-9.21,8.82,15.22,38.55,4.66,52.09-4.25,5.43-14,8.08-19.06,5.13-4-2.33-4-7.55-7-7.77-3.31-.24-3.88,6.28-9.92,10-7.74,4.71-17.64.57-18.26.31C1.94,877.38-1.3,871.7-1.64,872c-.91.69,32.57,34.4,24,55.27-2.41,5.88-6,5.54-6.69,10.48-1.78,13.34,23.39,25,57.81,41,3.88,1.8,11.86,5.37,21,3.45a29.36,29.36,0,0,0,8.85-3.51C103.32,978.69,5.52,1027.57,10.79,1057.75Z"/><path class="cls-3" d="M1917.76,977.67c3.33,5.64-10.59,8.66-3.82,9.59,4.92.68-128.52-18.24-112.58,11.88,12.21,23.09,31.61,85.63,11.17,90.62-2.78.68-8.84-5.23-15.26-2.18-4,1.91-6,6.68-6.31,7.49-1.7,4.12-.41,5.91-1.52,9.4-1.69,5.28-6.23,6.07-10.73,10.18-9.66,8.83-8.42,23.14-10.8,22.94-2.15-.18-.28-11.55-7.22-16.77-3.74-2.82-6.64-1.29-9.6-3.82-5.56-4.77,2.75-15.57-1.76-20.72-2.85-3.26-9.49-3.22-14-1.13-7.59,3.54-7.24,12-14,26.69-7.18,15.65-17.29,27.19-19.82,26s3.57-14.37-1.56-18.41c-3.59-2.83-10.56.51-11.51,1-12.16,6-9.89,20.16-22.11,26.22-.85.41-7.92,3.83-11.51,1-4.28-3.4.56-12.43-2.42-14.86-6.59-5.37-42.4,28.71-45.32,25.87-2.25-2.18,18.07-23.12,12.32-32.34-2.51-4-7.75-2.3-9.8-6.12-4.79-9,19.51-27.18,15.68-33.79-3.15-5.44-22,2.82-24.46-1.4-4.7-8,56.25-48.92,52-56.57s-70.1,23.35-76.61,12.3c-2.53-4.3,6.57-10.43,4.29-17.75-5.12-16.41-59.22-12.48-59.5-18.13-.13-2.75,12.65-3.67,13.23-8.08,1.16-8.92-49.48-18.69-48.77-28.31.73-9.83,54.59-12,54.92-22.05.15-4.55-10.74-7-10.18-10.73,1.15-7.48,46.9-.23,53.21-14.95,4.25-9.92-12.43-22.85-9.25-27,6.43-8.45,80.61,36.67,81.77,34.79,1-1.62-54.38-34.48-50.14-44.43,2.83-6.62,30.8-.16,32-5s-27.2-13.37-26.22-22.11c.77-6.85,18.63-5.15,24.14-16,7.18-14.07-14-34.89-9.17-39.79,6.32-6.47,45.71,27.19,58.24,17.08,4.93-4,3.3-12.76,7-13.34,5.75-.92,9.89,20.49,20.36,21.45,7,.64,9.23-8.63,15.53-8.27,12.72.72,13.45,39.19,30.27,42.63,6.76,1.38,15.9-2.94,17.83-8.47,1.53-4.36-1.83-8.37.27-10.45,2.36-2.34,7,2.25,14,1.13,8.94-1.45,13.78-11,14.08-11.63,3.17-6.51,2-12.93,2.37-12.95,1.15-.07-2.42,47.31,17.65,57.61,5.65,2.9,8.19.3,11.9,3.63,10,9-1.55,34.2-17.35,68.7-1.79,3.89-5.53,11.78-13.69,16.23a29.53,29.53,0,0,1-9,3.08C1796.06,977.64,1902.18,951.29,1917.76,977.67Z"/><path class="cls-3" d="M1817.45,1088.1c-5.79,3.09-8.2-11-9.43-4.23-.89,4.89,23.84-127.61-7-113-23.6,11.2-86.93,27.85-91,7.21-.56-2.8,5.61-8.61,2.84-15.15-1.73-4.09-6.41-6.27-7.21-6.64-4-1.88-5.89-.66-9.32-1.92-5.21-1.92-5.8-6.49-9.71-11.16-8.39-10-22.74-9.42-22.44-11.8.27-2.13,11.55.23,17.07-6.48,3-3.61,1.57-6.58,4.23-9.42,5-5.35,15.43,3.42,20.77-.85,3.39-2.71,3.64-9.35,1.74-13.95-3.2-7.73-11.69-7.75-26-15.11-15.32-7.84-26.41-18.45-25.13-20.92s14.2,4.19,18.46-.76c3-3.47,0-10.57-.47-11.54-5.46-12.41-19.72-10.77-25.23-23.24-.39-.86-3.49-8.08-.48-11.54,3.59-4.13,12.4,1.1,15-1.77,5.65-6.35-26.83-43.61-23.87-46.41,2.27-2.15,22.31,19.07,31.77,13.72,4.11-2.33,2.63-7.64,6.54-9.52,9.19-4.4,26.3,20.68,33.07,17.14,5.58-2.92-1.86-22.08,2.47-24.38,8.2-4.34,46.42,58.33,54.25,54.41s-20.27-71-9-77.07c4.4-2.35,10.13,7,17.55,5,16.62-4.39,15-58.62,20.7-58.64,2.76,0,3.12,12.79,7.5,13.56,8.86,1.55,20.83-48.62,30.41-47.49,9.79,1.16,9.58,55.06,19.63,55.83,4.54.35,7.52-10.42,11.16-9.7,7.43,1.47-1.8,46.86,12.62,53.81,9.73,4.68,23.37-11.43,27.41-8.07,8.16,6.8-40.15,78.95-38.32,80.18,1.58,1.06,36.82-52.82,46.57-48.15,6.49,3.11-1.18,30.78,3.64,32.22s14.55-26.6,23.23-25.23c6.81,1.06,4.34,18.83,14.89,24.81,13.75,7.79,35.47-12.42,40.15-7.43,6.19,6.6-29.15,44.48-19.6,57.45,3.76,5.09,12.6,3.84,13,7.55.67,5.8-20.91,9-22.32,19.41-.95,7,8.22,9.6,7.59,15.88-1.28,12.68-39.75,11.73-43.91,28.39-1.68,6.69,2.24,16,7.68,18.17,4.29,1.72,8.45-1.46,10.43.73,2.23,2.46-2.56,6.93-1.74,13.94,1.06,9,10.42,14.26,11,14.58,6.36,3.45,12.83,2.51,12.83,2.94,0,1.14-47.16-4.49-58.33,15.11-3.15,5.53-.65,8.17-4.14,11.73-9.42,9.61-34.11-3-67.88-20.33-3.81-1.95-11.53-6-15.61-14.38a29.46,29.46,0,0,1-2.69-9.14C1822.78,966.52,1844.47,1073.69,1817.45,1088.1Z"/><path class="cls-3" d="M1911.93,1059.75c-1.13,6.45-13.68-.29-9.14,4.81,3.3,3.72-85.88-97.33-93.33-64.08-5.7,25.5-31.56,85.65-50.35,76.17-2.55-1.29-3.33-9.72-10.18-11.57-4.3-1.15-8.89,1.2-9.67,1.6-4,2-4.15,4.23-7.26,6.16-4.72,2.92-8.68.57-14.77.78-13.08.43-21.43,12.12-23.11,10.42-1.52-1.52,7.29-9,5.4-17.44-1-4.57-4.22-5.29-4.82-9.14-1.13-7.24,12.2-10,12.12-16.89,0-4.34-5.13-8.62-9.92-10-8.06-2.25-13.31,4.43-27.94,11.22-15.62,7.25-30.8,9.45-32,6.92s12-8.61,10.77-15c-.9-4.49-8.36-6.47-9.39-6.73-13.14-3.34-20.62,8.9-33.84,5.57-.92-.23-8.51-2.23-9.39-6.73-1-5.37,8.5-9.09,7.82-12.87-1.53-8.36-50.89-5.71-51.27-9.77-.3-3.11,28.76-5.84,30.37-16.59.7-4.67-4.4-6.78-3.47-11,2.19-10,32.48-8,33.86-15.51,1.14-6.19-18.55-12.13-17.69-17,1.63-9.14,74.55-.67,76.28-9.26s-68.47-27.76-66.25-40.4c.86-4.91,11.77-3.66,14.79-10.71,6.77-15.8-36.93-47.95-33.47-52.42,1.69-2.18,12,5.42,15.3,2.44,6.68-6-25.48-46.35-18.69-53.2,6.94-7,49.28,26.35,56.08,18.9,3.07-3.36-3.59-12.34-.78-14.77,5.74-5,35.82,30.28,50.17,23.19,9.68-4.78,5.39-25.45,10.52-26.56,10.38-2.25,37.5,80.23,39.59,79.55,1.81-.59-19-61.53-9.27-66.34,6.45-3.2,23.52,19.88,27.62,17s-12-27.84-5.57-33.85c5-4.7,17.51,8.19,28.72,3.55,14.6-6,12-35.6,18.87-36.22,9-.81,17.1,50.36,33.2,50.82,6.32.17,10.79-7.56,14-5.62,5,3-5.78,22,1.56,29.54,4.92,5.05,12.62-.57,17.17,3.79,9.21,8.82-15.22,38.55-4.66,52.09,4.25,5.43,14,8.08,19.06,5.13,4-2.33,4-7.55,7-7.77,3.31-.24,3.88,6.28,9.92,10,7.74,4.71,17.64.57,18.26.31,6.64-2.89,9.88-8.57,10.22-8.31.91.69-32.58,34.4-24,55.27,2.42,5.88,6,5.54,6.7,10.48,1.77,13.34-23.39,25-57.81,41-3.88,1.8-11.86,5.37-21,3.45a29.36,29.36,0,0,1-8.85-3.51C1819.4,980.69,1917.2,1029.57,1911.93,1059.75Z"/><path class="cls-3" d="M1826.46,14.61c4.87-4.38,10.58,8.67,10.16,1.85-.3-5,7.45,129.6,33.84,108,20.23-16.53,77.72-47.88,86.64-28.82,1.21,2.59-3.38,9.7.87,15.39,2.66,3.56,7.73,4.55,8.59,4.71,4.37.86,5.88-.76,9.51-.36,5.52.61,7.18,4.9,12.1,8.51,10.56,7.73,24.34,3.69,24.62,6.06.25,2.14-11.27,2.56-15,10.39-2,4.22,0,6.76-1.85,10.16-3.58,6.39-15.8.38-20,5.81-2.64,3.44-1.3,9.94,1.65,13.95,5,6.75,13.21,4.73,28.92,8.43,16.76,3.94,30.06,11.58,29.41,14.29s-14.79-.67-17.74,5.16c-2.06,4.08,2.58,10.25,3.23,11.09,8.27,10.74,21.72,5.73,30.06,16.51.58.75,5.32,7,3.23,11.09-2.5,4.87-12.3,1.9-14.09,5.31-4,7.51,36.5,35.9,34.3,39.33-1.7,2.63-26.23-13.16-34.14-5.7-3.44,3.24-.72,8.05-4.07,10.8-7.87,6.48-30.49-13.77-36.21-8.7-4.72,4.16,7.1,21,3.45,24.25-6.92,6.18-59.06-45.5-65.72-39.81S1975,326.45,1965.41,335c-3.72,3.33-11.52-4.38-18.25-.7-15.08,8.25-.55,60.51-6,61.9-2.67.67-6.09-11.68-10.53-11.38-9,.63-8.57,52.2-18.14,53.4-9.78,1.22-22.5-51.16-32.45-49.5-4.49.75-4.79,11.93-8.5,12.1-7.57.35-9.48-45.93-25.15-49.22-10.57-2.21-20,16.7-24.68,14.4-9.55-4.64,20-86.26,18-87-1.78-.66-23.08,60.11-33.67,57.91-7-1.46-6.23-30.16-11.25-30.41s-7.75,29.31-16.51,30.07c-6.87.59-8.73-17.25-20.41-20.53-15.21-4.26-31.45,20.57-37.2,16.84-7.58-4.92,17.64-50.17,5.26-60.46-4.86-4.05-13.15-.72-14.46-4.22-2-5.46,18.14-13.74,17-24.19-.76-7-10.28-7.35-11.17-13.59-1.8-12.62,35.77-20.92,35.82-38.09,0-6.9-6-15-11.81-15.81-4.58-.63-7.85,3.44-10.31,1.8-2.75-1.85.83-7.34-1.65-14-3.18-8.48-13.53-11.34-14.18-11.51-7-1.83-13.06.64-13.16.23-.29-1.11,46.86-7,53-28.66,1.73-6.12-1.32-8.09,1.21-12.38,6.84-11.59,33.84-5.23,70.77,3.46,4.17,1,12.65,3.1,18.61,10.22a29.32,29.32,0,0,1,4.8,8.23C1850.43,133.92,1803.68,35.08,1826.46,14.61Z"/><path class="cls-3" d="M1954.51,91.18c4.16,5.06-9.13,10.19-2.3,10.07,5-.09-129.79,1.79-109.4,29.1,15.63,20.93,44.45,79.73,25,87.81-2.64,1.09-9.55-3.81-15.41.19-3.67,2.51-4.88,7.53-5.09,8.38-1,4.34.51,5.91,0,9.52-.85,5.49-5.21,7-9,11.72-8.18,10.21-4.75,24.16-7.13,24.33-2.15.16-2.06-11.37-9.72-15.46-4.13-2.2-6.76-.24-10.07-2.29-6.23-3.86.31-15.81-4.94-20.2-3.32-2.78-9.88-1.72-14,1.05-7,4.66-5.3,13-9.68,28.52-4.67,16.57-12.88,29.52-15.56,28.76s1.31-14.75-4.38-17.95c-4-2.24-10.35,2.13-11.22,2.74-11.09,7.8-6.67,21.45-17.81,29.32-.77.54-7.23,5-11.22,2.74-4.75-2.71-1.36-12.37-4.68-14.31-7.33-4.29-37.46,34.9-40.79,32.55-2.56-1.81,14.29-25.63,7.18-33.85-3.09-3.58-8-1.08-10.62-4.54-6.12-8.15,15.09-29.86,10.28-35.8-4-4.89-21.28,6.18-24.38,2.39-5.88-7.18,48-57,42.64-63.92s-65.66,33.88-73.8,24c-3.16-3.85,4.89-11.31,1.5-18.2-7.58-15.43-60.43-3.19-61.58-8.73-.55-2.7,11.94-5.58,11.82-10-.23-9-51.77-10.84-52.55-20.46-.8-9.82,52.09-20.24,50.87-30.25-.56-4.52-11.71-5.31-11.72-9,0-7.57,46.3-7.47,50.26-23,2.68-10.46-15.8-20.66-13.3-25.28,5-9.34,85.3,23.79,86.15,21.76.73-1.76-59-25.68-56.38-36.16,1.77-7,30.4-4.91,30.86-9.92s-28.94-9-29.31-17.81c-.3-6.88,17.61-8,21.39-19.49,4.92-15-19.18-32.32-15.2-37.9,5.25-7.36,49.36,19.82,60.18,7.89,4.25-4.68,1.29-13.11,4.84-14.26,5.55-1.79,12.94,18.73,23.43,18.06,7-.45,7.79-10,14.06-10.57,12.69-1.25,19.34,36.65,36.5,37.45,6.89.32,15.25-5.35,16.3-11.11.84-4.55-3.1-8-1.34-10.38,2-2.66,7.29,1.15,14-1,8.62-2.81,11.92-13,12.12-13.66,2.13-6.92-.07-13.08.35-13.16,1.12-.24,4.9,47.11,26.32,54.2,6,2,8.13-1,12.31,1.75,11.28,7.33,3.76,34-6.54,70.55-1.16,4.12-3.65,12.5-11,18.15a29.38,29.38,0,0,1-8.43,4.43C1834.26,109.92,1935,67.52,1954.51,91.18Z"/><path class="cls-3" d="M1908.08,4.14c6.55-.16,2.41,13.47,6.52,8,3-4-78.49,103.39-44.42,104.13,26.12.56,90.19,14.06,84.6,34.34-.76,2.76-8.87,5.18-9.33,12.27-.29,4.43,2.92,8.48,3.47,9.16,2.77,3.49,5,3.24,7.47,5.91,3.79,4,2.27,8.39,3.67,14.32,3,12.74,16.12,18.62,14.78,20.6-1.19,1.79-10.22-5.37-18.16-1.85-4.28,1.89-4.36,5.17-8,6.52-6.88,2.54-12.26-10-19-8.55-4.24.91-7.44,6.73-7.8,11.69-.61,8.35,7,12.18,16.51,25.18,10.18,13.89,15.34,28.33,13.09,30s-10.82-10.12-16.85-7.6c-4.22,1.76-4.69,9.47-4.74,10.53-.69,13.54,12.79,18.46,12.14,32.08,0,.94-.51,8.78-4.75,10.53-5.06,2.08-10.59-6.55-14.16-5.12-7.9,3.14,4.44,51,.53,52.18-3,.91-11.39-27-22.25-26.5-4.72.23-5.78,5.65-10.11,5.57-10.19-.18-14.24-30.27-21.89-30.14-6.29.11-8.23,20.58-13.13,20.69-9.27.21-15.35-72.95-24.11-73s-13.72,72.6-26.54,72.92c-5,.12-5.91-10.82-13.42-12.39-16.83-3.52-39.72,45.66-44.8,43.15-2.46-1.23,3-12.84-.62-15.49-7.23-5.35-40.41,34.12-48.47,28.82-8.23-5.42,16.12-53.51,7.48-58.71-3.91-2.34-11.4,6-14.33,3.68-6-4.65,22.62-41.09,12.84-53.76-6.6-8.54-26-.26-28.12-5.07-4.25-9.74,71.27-52.58,70.19-54.5-.93-1.66-56.59,30.72-63.21,22.17-4.41-5.69,14.85-27,11.19-30.43s-24.93,17.25-32.08,12.14c-5.61-4,4.56-18.78-2.19-28.86-8.8-13.12-37.27-4.79-39.22-11.35-2.58-8.67,46-26.7,43.26-42.57-1.07-6.23-9.54-9.09-8.25-12.59,2-5.48,22.72,1.33,28.65-7.35,4-5.83-3-12.27.33-17.59,6.83-10.76,40.79,7.33,52-5.7,4.49-5.23,5.17-15.31,1.28-19.69-3.07-3.46-8.21-2.48-9-5.33-.89-3.19,5.39-5,7.8-11.68,3.09-8.52-2.92-17.41-3.3-18-4.15-5.94-10.35-8-10.16-8.38.5-1,40.14,25.15,58.92,12.63,5.29-3.53,4.24-7,8.95-8.63,12.73-4.37,29.13,18,51.57,48.59,2.53,3.46,7.61,10.57,7.52,19.86a29.25,29.25,0,0,1-1.7,9.37C1848.82,110.43,1877.46,4.92,1908.08,4.14Z"/><path class="cls-3" d="M1004.5-27.85c-1.13-4.43-9.51.92-6.61-2.87,2.1-2.76-54.71,72.22-61.62,49.46-5.3-17.44-26.44-58-39-50.38-1.7,1-1.81,6.93-6.48,8.58-2.93,1-6.25-.37-6.81-.61-2.87-1.2-3.11-2.73-5.38-3.91-3.43-1.79-6.07,0-10.32.23-9.12.38-15.55-7.32-16.63-6s5.54,5.86,4.67,11.86c-.47,3.23-2.66,3.9-2.88,6.61-.41,5.1,9,6.36,9.32,11.12.19,3-3.12,6.27-6.39,7.45-5.49,2-9.49-2.4-20-6.36-11.25-4.23-21.93-5-22.61-3.15S822.54-.5,822,4C821.6,7.19,816.5,9,815.8,9.2c-9,3-14.81-5.13-23.84-2.12-.63.21-5.81,2-6.19,5.17-.44,3.8,6.4,5.89,6.11,8.56-.62,5.89-35.12,6.62-35.17,9.46-.05,2.19,20.32,2.57,22,10,.73,3.22-2.71,4.95-1.84,7.85,2,6.81,23,3.87,24.38,9,1.11,4.25-12.28,9.4-11.43,12.72,1.61,6.27,51.92-3.42,53.57,2.46s-46.21,22.9-44,31.58c.86,3.37,8.38,1.93,10.85,6.68,5.54,10.65-23.21,35.3-20.56,38.23,1.28,1.43,8.07-4.4,10.52-2.5,5,3.85-15.32,33.59-10.24,38s32.93-20.91,38-16.08c2.31,2.18-1.85,8.78.23,10.32,4.25,3.14,23.35-22.94,33.71-18.75,7,2.82,5.08,17.43,8.71,17.94,7.34,1,21.91-57.8,23.41-57.44,1.29.31-10,43.82-3,46.66,4.66,1.89,15.34-15.06,18.34-13.25s-6.89,20-2.11,23.84c3.75,3,11.76-6.6,19.81-4,10.47,3.44,10.23,24.15,15,24.22,6.31.1,9.28-35.94,20.46-37.09,4.4-.46,7.91,4.7,10,3.17,3.31-2.37-5.17-15-.46-20.64,3.17-3.77,8.82-.26,11.76-3.53,6-6.62-12.6-26-6-36,2.67-4,9.32-6.36,13-4.57,2.9,1.41,3.21,5.05,5.27,5.05,2.32,0,2.38-4.58,6.39-7.45,5.14-3.68,12.25-1.31,12.69-1.16,4.77,1.66,7.32,5.44,7.54,5.25.6-.53-24.46-22.25-19.58-37.22,1.37-4.22,3.91-4.17,4.11-7.65.54-9.37-17.58-16.18-42.37-25.5-2.8-1.05-8.53-3.12-14.76-1.31a20.34,20.34,0,0,0-6,2.9S1009.74-7.12,1004.5-27.85Z"/><path class="cls-3" d="M900.5-33.24c-4.38,1.31,1.33,9.46-2.58,6.73-2.85-2,74.54,51.5,52.1,59.4-17.19,6-56.76,28.94-48.63,41.18,1.1,1.66,7,1.5,8.85,6.1,1.16,2.88-.09,6.26-.31,6.83-1.08,2.92-2.59,3.23-3.67,5.54-1.64,3.51.32,6.06.68,10.31.78,9.09-6.64,15.85-5.32,16.87s5.61-5.79,11.64-5.18c3.25.33,4,2.49,6.73,2.59,5.11.18,6-9.29,10.71-9.79,3-.32,6.4,2.84,7.72,6,2.22,5.41-2,9.59-5.48,20.29-3.73,11.43-4,22.13-2.16,22.73s5-9.06,9.52-8.7c3.18.25,5.17,5.26,5.44,5.95,3.4,8.83-4.47,15-1.08,23.91.24.62,2.25,5.72,5.44,6,3.81.29,5.6-6.64,8.28-6.47,5.92.37,8.15,34.8,11,34.73,2.19-.05,1.68-20.42,9-22.42,3.18-.87,5.06,2.49,7.92,1.5,6.72-2.34,2.86-23.17,8-24.75,4.19-1.3,9.93,11.85,13.2,10.86,6.2-1.88-5.68-51.72.13-53.63s24.89,45.17,33.46,42.59c3.34-1,1.57-8.46,6.21-11.13,10.39-6,36.27,21.64,39.09,18.87,1.37-1.34-4.75-7.87-2.95-10.4,3.63-5.13,34.22,13.84,38.41,8.57s-22.33-32-17.72-37.31c2.08-2.41,8.85,1.47,10.3-.68,2.95-4.38-23.94-22.33-20.21-32.86,2.52-7.1,17.2-5.83,17.55-9.48.7-7.38-58.7-19.38-58.41-20.89.26-1.3,44.21,8.08,46.75,1,1.68-4.73-15.72-14.66-14-17.74s20.28,6,23.92,1.07c2.84-3.87-7.12-11.46-4.83-19.62,3-10.61,23.68-11.27,23.55-16-.18-6.31-36.32-7.71-38-18.83-.64-4.37,4.36-8.1,2.74-10.14-2.52-3.2-14.78,5.82-20.6,1.35-3.91-3-.64-8.8-4-11.59-6.87-5.65-25.46,13.73-35.72,7.52-4.12-2.49-6.76-9-5.13-12.78,1.29-3,4.91-3.43,4.81-5.49-.1-2.31-4.67-2.17-7.71-6.05-3.9-5-1.85-12.18-1.72-12.63,1.46-4.84,5.12-7.56,4.92-7.77-.56-.57-21.16,25.41-36.33,21.19-4.28-1.19-4.34-3.73-7.82-3.77-9.39-.14-15.41,18.27-23.63,43.44-.93,2.84-2.75,8.66-.67,14.8A20.63,20.63,0,0,0,963,24.34S921-39.39,900.5-33.24Z"/><path class="cls-3" d="M961.25-65.65c-3.73-2.64-6.63,6.87-6.89,2.11-.19-3.47,5.31,90.45-14.73,77.63-15.36-9.82-57.75-26.91-62.4-13-.63,1.89,3.14,6.45.65,10.73-1.56,2.68-5,3.78-5.58,4-3,.94-4.14-.06-6.62.51-3.78.87-4.58,4-7.7,6.88-6.7,6.21-16.58,4.53-16.58,6.2,0,1.5,8,.85,11.25,6,1.74,2.76.51,4.69,2.11,6.9,3,4.14,11-1,14.31,2.41,2.1,2.17,1.7,6.79,0,9.81-2.9,5.07-8.78,4.34-19.37,8.17-11.3,4.09-19.9,10.47-19.24,12.29s10.2-1.66,12.72,2.15c1.76,2.66-1,7.31-1.34,7.95-4.87,8.11-14.59,5.72-19.51,13.87-.34.57-3.12,5.29-1.34,8,2.13,3.18,8.68.33,10.2,2.54,3.36,4.89-22.4,27.84-20.6,30,1.39,1.69,17.12-11.24,23.21-6.71,2.64,2,1.15,5.52,3.69,7.16,6,3.86,20-12,24.4-9,3.61,2.51-3.22,15.12-.43,17.09,5.3,3.73,37.27-36.32,42.34-32.91s-20.27,47.42-12.95,52.58c2.84,2,7.63-4,12.59-2,11.12,4.5,5.28,41.91,9.19,42.42,1.91.26,3.28-8.58,6.38-8.73,6.28-.29,10.16,35.49,16.89,35.55,6.89.06,11.47-37.29,18.5-36.94,3.17.16,4.29,7.88,6.87,7.7,5.28-.37,2.86-32.61,13.46-36.15,7.15-2.39,15.18,10,18.27,8,6.25-4-20.87-58.19-19.5-58.88,1.19-.6,20.86,39.81,28,37.42,4.77-1.58,1.89-21.41,5.35-22s7.74,19.69,13.88,19.5c4.8-.14,4.65-12.66,12.48-15.88,10.2-4.18,23.47,11.72,27.15,8.67,4.87-4-16.28-33.36-8.53-41.49,3.05-3.2,9.06-1.56,9.68-4.09,1-4-13.68-8.07-13.75-15.4,0-4.93,6.54-5.93,6.65-10.33.22-8.89-26.5-11.61-27.92-23.51-.57-4.78,3-10.89,6.91-11.91,3.13-.81,5.73,1.75,7.29.41,1.76-1.5-1.16-5,0-9.81,1.52-6.14,8.46-8.95,8.9-9.12,4.71-1.84,9.1-.62,9.14-.91.11-.79-33-1-39.06-15.58C1018,.6,1020-1,1017.85-3.78c-5.68-7.48-23.88-.89-48.78,8.12-2.81,1-8.52,3.17-12.08,8.59A20.57,20.57,0,0,0,954.33,19C954.28,19,978.7-53.29,961.25-65.65Z"/><path class="cls-3" d="M1021.5,1096.73c-1.13,4.43-9.51-.92-6.61,2.87,2.1,2.77-54.71-72.22-61.62-49.46-5.3,17.44-26.44,58-39,50.39-1.7-1-1.81-6.94-6.48-8.59-2.93-1-6.25.37-6.81.61-2.87,1.21-3.11,2.73-5.38,3.91-3.43,1.79-6.07,0-10.32-.23-9.12-.38-15.55,7.32-16.63,6.06s5.54-5.87,4.67-11.86c-.47-3.24-2.66-3.91-2.88-6.62-.41-5.09,9-6.36,9.32-11.12.19-3-3.12-6.27-6.39-7.45-5.49-2-9.49,2.4-20,6.36-11.25,4.23-21.93,5-22.61,3.15s8.83-5.36,8.27-9.89c-.38-3.17-5.48-4.94-6.18-5.17-9-3-14.81,5.12-23.84,2.11-.63-.21-5.81-2-6.19-5.17-.44-3.79,6.4-5.88,6.11-8.55-.62-5.9-35.12-6.63-35.17-9.47-.05-2.19,20.32-2.57,22-10,.73-3.21-2.71-4.94-1.84-7.84,2-6.82,23-3.87,24.38-9,1.11-4.24-12.28-9.4-11.43-12.71,1.61-6.28,51.92,3.41,53.57-2.47s-46.21-22.9-44-31.57c.86-3.38,8.38-1.94,10.85-6.69,5.54-10.65-23.21-35.3-20.56-38.23,1.28-1.43,8.07,4.4,10.52,2.5,5-3.85-15.32-33.59-10.24-38s32.93,20.91,38,16.08c2.31-2.18-1.85-8.77.23-10.32,4.25-3.14,23.35,22.94,33.71,18.76,7-2.83,5.08-17.44,8.71-17.94,7.34-1,21.91,57.8,23.41,57.43,1.29-.31-10-43.82-3-46.66,4.66-1.89,15.34,15.06,18.34,13.25s-6.89-20-2.11-23.84c3.75-3,11.76,6.6,19.81,4,10.47-3.44,10.23-24.15,15-24.22,6.31-.1,9.28,35.94,20.46,37.1,4.4.45,7.91-4.7,10-3.18,3.31,2.37-5.17,15-.46,20.64,3.17,3.77,8.82.26,11.76,3.53,6,6.62-12.6,26-6,36,2.67,4,9.32,6.36,13,4.57,2.9-1.41,3.21-5,5.27-5,2.32,0,2.38,4.58,6.39,7.45,5.14,3.68,12.25,1.32,12.69,1.16,4.77-1.66,7.32-5.44,7.54-5.25.6.53-24.46,22.25-19.58,37.22,1.37,4.22,3.91,4.17,4.11,7.65.54,9.37-17.58,16.19-42.37,25.5-2.8,1.06-8.53,3.12-14.76,1.31a20.34,20.34,0,0,1-6-2.9S1026.74,1076,1021.5,1096.73Z"/><path class="cls-3" d="M917.5,1102.12c-4.38-1.31,1.33-9.45-2.58-6.73-2.85,2,74.54-51.5,52.1-59.4-17.19-6-56.76-28.94-48.63-41.18,1.1-1.66,7-1.5,8.85-6.1,1.16-2.88-.09-6.26-.31-6.83-1.08-2.92-2.59-3.23-3.67-5.54-1.64-3.51.32-6.06.68-10.3.78-9.1-6.64-15.85-5.32-16.88s5.61,5.79,11.64,5.18c3.25-.33,4-2.48,6.73-2.58,5.11-.19,6,9.28,10.71,9.78,3,.33,6.4-2.84,7.72-6,2.22-5.4-2-9.59-5.48-20.29-3.73-11.43-4-22.13-2.16-22.73s5,9.06,9.52,8.7c3.18-.25,5.17-5.26,5.44-5.95,3.4-8.83-4.47-15-1.08-23.91.24-.62,2.25-5.72,5.44-5.95,3.81-.28,5.6,6.64,8.28,6.47,5.92-.36,8.15-34.8,11-34.73,2.19.06,1.68,20.42,9,22.42,3.18.87,5.06-2.49,7.92-1.5,6.72,2.34,2.86,23.18,8,24.75,4.19,1.3,9.93-11.85,13.2-10.86,6.2,1.88-5.68,51.72.13,53.63S1049.47,900.37,1058,903c3.34,1,1.57,8.46,6.21,11.13,10.39,6,36.27-21.64,39.09-18.87,1.37,1.35-4.75,7.87-2.95,10.4,3.63,5.13,34.22-13.84,38.41-8.57s-22.33,32-17.72,37.31c2.08,2.41,8.85-1.47,10.3.68,2.95,4.38-23.94,22.33-20.21,32.86,2.52,7.11,17.2,5.84,17.55,9.48.7,7.38-58.7,19.38-58.41,20.89.26,1.3,44.21-8.07,46.75-1,1.68,4.73-15.72,14.66-14,17.75s20.28-6,23.92-1.08c2.84,3.88-7.12,11.47-4.83,19.62,3,10.61,23.68,11.28,23.55,16.06-.18,6.31-36.32,7.7-38,18.82-.64,4.37,4.36,8.1,2.74,10.15-2.52,3.19-14.78-5.83-20.6-1.36-3.91,3-.64,8.8-4,11.59-6.87,5.66-25.46-13.73-35.72-7.52-4.12,2.49-6.76,9-5.13,12.78,1.29,3,4.91,3.43,4.81,5.49-.1,2.31-4.67,2.17-7.71,6.05-3.9,5-1.85,12.19-1.72,12.63,1.46,4.85,5.12,7.56,4.92,7.77-.56.58-21.16-25.41-36.33-21.19-4.28,1.19-4.34,3.73-7.82,3.78-9.39.13-15.41-18.27-23.63-43.45-.93-2.84-2.75-8.66-.67-14.8a20.81,20.81,0,0,1,3.16-5.85S938,1108.27,917.5,1102.12Z"/><path class="cls-3" d="M978.25,1134.53c-3.73,2.64-6.63-6.87-6.89-2.11-.19,3.47,5.31-90.45-14.73-77.63-15.36,9.83-57.75,26.91-62.4,13-.63-1.89,3.14-6.45.65-10.74-1.56-2.68-5-3.78-5.58-4-3-1-4.14,0-6.62-.52-3.78-.87-4.58-4-7.7-6.88-6.7-6.21-16.58-4.52-16.58-6.19,0-1.51,8-.86,11.25-6,1.74-2.76.51-4.69,2.11-6.89,3-4.15,11,1,14.31-2.42,2.1-2.17,1.7-6.79,0-9.8-2.9-5.08-8.78-4.35-19.37-8.18-11.3-4.09-19.9-10.46-19.24-12.29s10.2,1.66,12.72-2.15c1.76-2.66-1-7.31-1.34-7.94-4.87-8.12-14.59-5.73-19.51-13.88-.34-.57-3.12-5.29-1.34-8,2.13-3.17,8.68-.32,10.2-2.54,3.36-4.89-22.4-27.84-20.6-30,1.39-1.69,17.12,11.25,23.21,6.71,2.64-2,1.15-5.52,3.69-7.16,6-3.85,20,12,24.4,9,3.61-2.5-3.22-15.12-.43-17.09,5.3-3.73,37.27,36.32,42.34,32.92s-20.27-47.42-12.95-52.59c2.84-2,7.63,4,12.59,2,11.12-4.5,5.28-41.91,9.19-42.42,1.91-.25,3.28,8.58,6.38,8.73,6.28.3,10.16-35.49,16.89-35.55,6.89-.06,11.47,37.29,18.5,36.94,3.17-.16,4.29-7.88,6.87-7.7,5.28.37,2.86,32.61,13.46,36.15,7.15,2.39,15.18-10,18.27-8,6.25,4-20.87,58.18-19.5,58.87,1.19.6,20.86-39.8,28-37.42,4.77,1.58,1.89,21.41,5.35,22s7.74-19.69,13.88-19.51c4.8.14,4.65,12.66,12.48,15.88,10.2,4.18,23.47-11.72,27.15-8.67,4.87,4-16.28,33.36-8.53,41.5,3.05,3.19,9.06,1.55,9.68,4.09,1,4-13.68,8.06-13.75,15.4,0,4.92,6.54,5.92,6.65,10.32.22,8.89-26.5,11.61-27.92,23.51-.57,4.78,3,10.89,6.91,11.91,3.13.81,5.73-1.75,7.29-.41,1.76,1.51-1.16,5,0,9.81,1.52,6.14,8.46,9,8.9,9.13,4.71,1.83,9.1.61,9.14.91.11.79-33,1-39.06,15.58-1.7,4.1.26,5.71-1.84,8.48-5.68,7.48-23.88.89-48.78-8.12-2.81-1-8.52-3.17-12.08-8.59a20.45,20.45,0,0,1-2.66-6.09C971.28,1049.87,995.7,1122.17,978.25,1134.53Z"/></svg>
